<?xml version="1.0" encoding="UTF-8" standalone="no"?>
<!DOCTYPE svg PUBLIC "-//W3C//DTD SVG 1.1//EN" "http://www.w3.org/Graphics/SVG/1.1/DTD/svg11.dtd">
<svg width="100%" height="100%" viewBox="0 0 129 95" version="1.1" xmlns="http://www.w3.org/2000/svg" xmlns:xlink="http://www.w3.org/1999/xlink" xml:space="preserve" xmlns:serif="http://www.serif.com/" style="fill-rule:evenodd;clip-rule:evenodd;stroke-linecap:round;stroke-linejoin:round;stroke-miterlimit:1.5;">
    <g transform="matrix(1,0,0,1,-25.367349,-115.192472)">
        <g transform="matrix(0.979914,0,0,0.979914,-27.568093,-273.105702)">
            <g transform="matrix(0.763217,0,0,0.560733,13.569979,53.088878)">
                <rect x="53" y="612" width="172" height="172" style="fill:rgb(12,85,164);fill-opacity:0;"/>
                <clipPath id="_clip1">
                    <rect x="53" y="612" width="172" height="172"/>
                </clipPath>
                <g clip-path="url(#_clip1)">
                    <g transform="matrix(3.385841,0,0,2.844824,3056.602003,-804.872763)">
                        <g transform="matrix(0.275581,0,0,0.446429,-904.076103,469.812299)">
                            <path d="M54,66L55,204L108,265L147.112,289L231,228L243,150L242,68L154,48L54,66Z" style="fill:rgb(125,20,66);stroke:black;stroke-width:1.43px;"/>
                        </g>
                        <g transform="matrix(0.551161,0,0,0.892857,-904.076103,469.812299)">
                            <path d="M73.585,20.207C44.441,20.207 23.438,32.36 23.438,32.36L23.438,92.419C23.438,101.092 26.623,109.233 33.231,117.375C38.069,123.275 44.5,129.056 54.175,136.136L73.585,150L92.936,136.136C102.612,129.115 109.101,123.334 113.88,117.375C120.488,109.233 123.674,101.092 123.674,92.419L123.674,32.36C123.674,32.36 102.671,20.207 73.526,20.207L73.585,20.207ZM30.281,43.747L30.281,43.924L30.281,38.378C43.969,31.416 58.777,27.935 73.644,27.935C88.511,27.935 81.196,28.171 84.913,28.584C64.559,29.469 42.966,37.08 30.281,48.23L30.281,43.747ZM73.644,139.971L58.305,128.997C43.084,117.906 30.34,105.989 30.34,90.826L30.34,76.903C31.992,90.59 44.205,101.623 58.305,111.888L85.621,131.416L73.644,139.971ZM116.535,88.053C115.65,90.472 114.234,94.543 113.172,96.962C112.641,98.083 110.812,97.729 110.281,98.555C108.57,101.092 105.149,101.623 103.025,101.328C100.075,100.856 98.246,99.794 96.535,98.437C94.647,96.903 94.647,95.664 94.706,94.602C94.765,93.481 94.883,92.183 94.765,90.708C94.765,88.879 89.986,84.042 86.388,78.024C88.039,77.906 88.806,77.434 88.806,77.434C88.334,77.316 87.921,77.198 87.449,77.08C84.323,76.254 81.314,75.015 78.6,73.186C77.125,72.242 75.827,70.885 74.706,69.351C73.408,67.345 71.815,63.511 73.408,58.201C71.343,61.564 71.343,65.989 73.231,69.764C67.921,76.49 67.862,88.997 94.116,107.522L105.149,115.428C102.022,118.673 98.364,121.859 94.47,124.868L58.246,98.968C43.556,88.289 31.107,76.785 30.281,62.331C34.706,49.941 49.927,35.251 86.8,30.059L87.685,29.941C89.986,29.705 92.228,29.705 94.47,30.177C96.535,30.649 98.6,31.18 100.606,31.77C100.842,31.829 101.019,31.888 101.196,31.947C106.505,33.599 111.756,35.664 116.83,38.26C115.532,41.977 106.623,42.862 105.385,42.98C106.564,44.455 109.16,47.935 112.641,53.54C114.175,56.077 115.296,58.496 115.768,59.558C115.945,59.971 116.004,60.384 115.945,60.856C115.768,61.859 115.296,63.57 113.821,65.162C113.821,65.162 116.122,80.384 116.889,85.457C117.007,86.284 116.889,87.109 116.535,87.935L116.535,88.053ZM116.889,45.458C116.594,48.289 112.346,49.646 112.346,49.646C110.871,47.345 108.629,44.219 108.629,44.219C108.629,44.219 112.582,43.747 116.889,45.458Z" style="fill:rgb(253,187,42);fill-rule:nonzero;"/>
                        </g>
                        <g transform="matrix(0.551161,0,0,0.892857,-904.076103,469.812299)">
                            <path d="M98.364,55.133C98.01,54.543 97.656,54.012 97.243,53.717C95.591,52.537 93.231,50.826 91.166,50.354C90.989,51.593 91.933,54.071 92.7,54.897C93.467,55.782 96.889,55.782 96.889,55.782L100.311,58.142L98.423,55.133L98.364,55.133Z" style="fill:rgb(253,187,42);fill-rule:nonzero;"/>
                        </g>
                        <g transform="matrix(0.551161,0,0,0.892857,-904.076103,469.812299)">
                            <path d="M110.812,64.749C112.464,62.979 112.936,61.504 113.054,60.678C113.054,60.442 113.054,60.206 112.995,59.97C112.523,58.731 110.576,54.484 103.909,48.997C97.184,43.51 89.514,42.094 89.514,42.094C89.514,42.094 100.606,45.221 108.334,59.852C108.452,60.088 108.511,60.383 108.452,60.678C107.98,62.448 106.623,63.451 106.623,63.451C106.623,63.451 104.971,62.153 102.966,61.091C107.331,66.519 108.039,69.115 108.865,73.186L109.868,79.085C110.104,80.442 110.812,80.088 110.989,81.622C110.399,81.091 109.455,81.091 109.455,81.091C108.334,80.973 106.269,81.209 105.089,83.097C103.85,85.162 104.558,87.699 104.558,87.699C104.558,87.699 104.794,84.572 106.977,83.451C108.511,82.684 110.222,82.979 111.52,83.982C112.995,85.103 113.88,85.103 113.88,85.103L110.812,64.808L110.812,64.749Z" style="fill:rgb(253,187,42);fill-rule:nonzero;"/>
                        </g>
                    </g>
                </g>
            </g>
        </g>
    </g>
</svg>
