<?xml version="1.0" encoding="UTF-8" standalone="no"?>
<!DOCTYPE svg PUBLIC "-//W3C//DTD SVG 1.1//EN" "http://www.w3.org/Graphics/SVG/1.1/DTD/svg11.dtd">
<svg width="100%" height="100%" viewBox="0 0 129 95" version="1.1" xmlns="http://www.w3.org/2000/svg" xmlns:xlink="http://www.w3.org/1999/xlink" xml:space="preserve" xmlns:serif="http://www.serif.com/" style="fill-rule:evenodd;clip-rule:evenodd;stroke-linejoin:round;stroke-miterlimit:2;">
    <g transform="matrix(1,0,0,1,-25.367349,-763.201434)">
        <g transform="matrix(1,0,0,1,-28.632651,148.210152)">
            <g transform="matrix(0.747887,0,0,0.54947,14.36197,278.715643)">
                <rect x="53" y="612" width="172" height="172" style="fill:rgb(12,85,164);fill-opacity:0;"/>
                <clipPath id="_clip1">
                    <rect x="53" y="612" width="172" height="172"/>
                </clipPath>
                <g clip-path="url(#_clip1)">
                    <g transform="matrix(2.443727,0,0,2.066011,2827.985197,550.412322)">
                        <g transform="matrix(0.551161,0,0,0.892857,-1282.396019,29.034949)">
                            <path d="M403.144,119.881C397.054,116.414 392.913,114.814 387.929,113.332C382.056,111.586 375.964,109.724 368.306,103.914C359.905,97.516 354.862,86.299 353.856,82.866C357.284,82.293 363.462,86.241 367.722,86.771C376.241,87.841 377.534,95.006 381.614,100.506C385.921,106.31 398.146,105.592 404.519,107.045C407.085,98.153 414.091,91.979 412.979,81.923C411.876,80.674 410.743,79.22 409.376,78.228C406.858,77.684 393.89,64.984 392.894,62.144C390.263,54.633 383.081,50.928 380.261,43.221L380.149,43.368L379.887,41.607C373.937,36.157 352.708,18.722 346.349,15.41L346.11,15.469L344.525,14.929C342.863,14.384 341.253,14.034 339.513,13.923L335.429,13.665C327.668,2.293 325.237,7.602 314.516,0.868C315.547,3.28 317.443,6.562 318.898,9.143C300.533,8.171 289.55,21.682 279.092,21.726C280.727,22.665 282.782,23.204 284.659,22.971C279.359,28.265 271.201,40.703 263.223,40.771C268.07,44.661 274.229,42.682 274.229,42.682C270.082,55.493 271.872,64.687 256.191,70.575C264.49,72.53 267.17,71.971 272.776,69.287C275.139,80.689 274.877,93.481 262.92,99.645C266.5,99.34 273.719,98.809 278.178,93.86C278.897,108.791 270.905,113.779 260.646,119.244C289.399,124.894 307.005,127.806 332.147,136.344C357.284,127.806 374.383,125.531 403.144,119.881Z" style="fill:rgb(255,196,40);fill-rule:nonzero;"/>
                        </g>
                        <g transform="matrix(0.551161,0,0,0.892857,-1282.396019,29.034949)">
                            <path d="M356.315,95.946C353.136,95.946 350.13,95.123 347.925,94.303C345.722,93.477 344.306,92.655 344.306,92.655L344.181,92.834C349.884,98.537 356.646,99.694 358.815,99.922C359.276,100.565 359.909,101.527 360.843,102.644C361.78,103.787 363.03,105.101 364.714,106.404C366.938,108.148 368.422,109.193 370.007,110.158C371.472,111.053 373.017,111.859 375.327,113.094C368.271,112.014 366.448,111.742 364.387,111.582C349.835,110.472 344.335,109.666 338.331,108.08C336.761,107.537 334.141,106.724 331.228,105.631C328.321,104.541 325.136,103.17 322.404,101.517C316.481,97.91 311.221,94.326 306.484,91.055C311.158,96.987 316.306,101.162 320.26,103.904C324.203,106.646 326.968,107.949 327.002,107.969C332.36,110.463 336.644,111.879 340.29,112.754C343.927,113.629 346.937,113.974 349.747,114.338C357.065,115.072 367.815,115.783 375.194,116.89C377.63,117.256 378.813,117.377 380.67,117.572C382.464,117.756 384.89,118.01 389.689,118.607C368.524,123.217 353.069,126.771 332.147,133.879C310.777,126.619 294.87,122.701 272.908,117.844C286.482,107.779 286.181,97.024 284.795,86.256C284.674,84.733 284.003,82.21 283.162,79.025C282.315,75.842 281.294,71.985 280.458,67.785C278.786,59.387 277.837,49.624 280.487,41.14C280.935,39.692 281.489,37.771 282.51,35.603C283.53,33.429 285.024,31.003 287.348,28.528C291.762,23.807 299.206,18.902 312.183,15.279C310.729,15.891 308.585,16.903 306.208,18.371C301.837,21.065 296.658,25.295 293.41,31.469C285.179,47.126 289.857,67.595 295.079,76.779L295.278,76.701C295.278,76.697 290.167,58.887 292.988,45.292C295.272,34.28 302.07,25.82 312.519,20.185C316.554,18.002 319.403,16.48 323.384,17.521C325.257,18.002 326.132,19.286 326.793,21.129C327.518,23.127 326.472,27.269 326.472,27.284C325.957,29.414 325.611,30.055 325.189,31.446L325.077,31.81L325.365,31.558C326.701,30.42 327.556,28.854 328.262,27.172C328.966,25.494 329.536,23.685 330.278,22.028L324.129,10.762C326.39,13.431 328.642,14.691 330.57,15.562C331.647,16.047 332.627,16.407 333.459,16.825C334.28,17.243 334.946,17.72 335.409,18.41C338.759,21.97 343.242,24.06 347.56,25.65C349.704,26.443 351.819,27.114 353.753,27.78C355.45,28.367 356.991,28.956 358.274,29.622C356.15,29.559 349.325,30.162 348.746,30.264L345.678,30.361L346.042,30.555C347.812,31.504 350.034,31.975 352.071,32.219C354.103,32.457 355.962,32.457 357.036,32.457C360.659,32.569 363.497,34.11 366.38,36.424C369.278,38.743 372.185,41.826 375.948,44.982C375.978,45.006 376.601,45.472 376.601,45.667C376.601,45.769 376.562,45.862 376.513,45.934L376.002,46.528C376.124,46.848 378.112,48.483 378.692,48.914C384.69,53.188 387.34,56.403 388.863,59.232C390.388,62.067 390.788,64.528 392.261,67.259C392.63,68.018 392.913,68.553 393.161,69C393.672,69.938 394.046,70.473 394.799,71.577C395.042,71.922 395.29,72.336 395.528,72.773C396.083,73.794 396.604,75.03 397.128,76.351C397.633,77.689 398.148,79.108 398.673,80.48C399.739,83.226 400.896,85.822 402.384,87.189C402.413,87.214 402.612,87.219 402.86,87.238L403.054,87.252L402.973,87.077C402.257,85.565 402.282,83.197 402.282,83.197C402.267,83.124 400.624,78.919 401.051,77.815C401.421,76.877 402.232,77.845 402.315,77.946C402.944,79.22 404.767,80.509 406.392,81.476C408.034,82.449 409.54,83.105 409.54,83.105C410.328,83.465 409.735,83.79 409.565,83.878C403.585,83.883 405.476,87.214 407.041,88.672C407.226,88.852 407.62,88.992 407.933,89.1L408.349,89.25L408.536,89.266C408.837,89.694 408.952,90.198 408.772,90.821C408.749,90.869 404.397,102.426 403.144,102.928C402.267,103.281 396.841,103.097 396.815,103.097C396.813,103.097 388.206,102.82 383.839,98.965C383.675,98.694 383.5,98.371 383.343,98.065C384.467,95.192 377.081,87.379 375.53,86.543L373.376,85.289C372.4,84.651 371.525,83.946 370.853,83.105C371.554,80.663 371.505,77.757 371.009,74.893C370.935,74.422 370.83,73.94 370.712,73.449C370.44,72.272 370.105,71.105 369.711,70.002L369.491,70.04C369.491,71.158 369.521,72.389 369.487,73.629C369.458,74.864 369.374,76.113 369.162,77.29C368.749,79.633 367.824,81.666 365.826,82.745C350.544,81.554 337.942,66.613 329.321,53.665C329.005,53.169 328.69,52.668 328.394,52.178L328.018,51.687L327.825,51.793C331.962,62.373 340.217,72.992 349.243,80.834L349.917,82.288C350.574,84.01 351.299,85.74 352.095,87.475L351.657,87.467C345.288,87.467 335.667,80.217 335.657,80.207C340.134,85.171 344.851,88.069 348.405,89.772C351.72,91.356 354.03,91.891 354.337,91.959L355.061,93.285L356.315,95.946Z" style="fill:rgb(125,20,66);fill-rule:nonzero;"/>
                        </g>
                        <g transform="matrix(0.551161,0,0,0.892857,-1282.396019,29.034949)">
                            <path d="M365.014,47.84L363.794,48.205L355.358,41.593L364.976,44.325L366.132,47.5L365.014,47.84Z" style="fill:rgb(255,196,40);fill-rule:nonzero;"/>
                        </g>
                    </g>
                </g>
            </g>
        </g>
    </g>
</svg>
