<?xml version="1.0" encoding="UTF-8" standalone="no"?>
<!DOCTYPE svg PUBLIC "-//W3C//DTD SVG 1.1//EN" "http://www.w3.org/Graphics/SVG/1.1/DTD/svg11.dtd">
<svg width="100%" height="100%" viewBox="0 0 133 98" version="1.1" xmlns="http://www.w3.org/2000/svg" xmlns:xlink="http://www.w3.org/1999/xlink" xml:space="preserve" xmlns:serif="http://www.serif.com/" style="fill-rule:evenodd;clip-rule:evenodd;stroke-linejoin:round;stroke-miterlimit:2;">
    <g transform="matrix(1,0,0,1,-25.367349,-1224.502215)">
        <g transform="matrix(1,0,0,1,-28.632651,612.502215)">
            <g transform="matrix(0.770274,0,0,0.566785,13.175502,265.127473)">
                <rect x="53" y="612" width="172" height="172" style="fill:rgb(12,85,164);fill-opacity:0;"/>
                <clipPath id="_clip1">
                    <rect x="53" y="612" width="172" height="172"/>
                </clipPath>
                <g clip-path="url(#_clip1)">
                    <g transform="matrix(0.596871,0,0,0.808984,-58.513278,70.368289)">
                        <g transform="matrix(1.316664,0,0,1.316664,85.36195,558.864832)">
                            <path d="M352.044,337.451L351.904,337.171C350.922,335.908 349.798,334.224 349.659,333.523L349.659,330.716C349.659,324.403 348.817,320.333 347.132,317.947L347.414,318.368C346.151,315.843 345.309,313.598 345.309,312.897L345.309,311.914C345.309,311.775 345.028,292.13 339.416,284.133L339.275,283.852L338.995,283.572C338.995,283.431 337.452,281.888 337.452,278.52C337.452,278.38 336.75,266.734 333.523,262.946L333.523,262.805L333.382,262.805C332.962,262.243 331.558,259.297 331.418,255.649L331.418,255.509L331.278,253.825C330.716,248.353 329.454,235.444 322.157,221.132C319.772,216.221 315.703,206.821 315.282,203.172L315.282,203.032L315.141,202.05C313.318,190.263 309.108,180.161 302.513,172.163L302.374,172.023C301.953,171.462 290.868,159.114 279.362,144.522C274.451,138.208 267.155,134.138 257.754,132.174C254.667,114.355 243.583,102.288 243.442,102.147L243.583,102.288C234.743,91.344 222.395,89.38 215.52,93.869L215.66,93.729L215.38,93.869C208.644,89.66 198.682,87.976 189.843,89.52L189.422,89.52L189.702,89.52L187.598,90.362L187.177,90.642L187.036,90.642L186.054,90.362C174.969,87.695 166.13,87.836 159.816,90.642L159.535,90.782L159.255,90.923L157.851,91.624C152.941,88.257 142.136,84.749 121.09,94.992C102.709,103.831 101.165,107.339 101.446,121.23L101.446,126.141C101.446,129.228 101.446,138.769 108.181,140.031C110.426,140.452 112.39,139.751 114.074,138.769C113.372,144.241 113.092,150.134 112.951,154.343C110.285,158.834 108.602,162.201 107.76,164.446C99.2,172.303 95.693,182.967 94.991,188.299L94.991,188.44C94.43,194.894 90.08,198.261 88.256,199.524L87.975,199.524C75.908,207.943 75.768,223.237 75.768,223.939C75.768,224.5 75.067,225.903 74.506,226.885L74.225,227.166C72.962,229.691 72.12,234.322 72.12,238.952C72.12,242.039 72.541,246.388 74.365,250.177C75.347,252.141 75.768,254.386 75.768,256.912C75.768,260.139 74.926,262.805 74.786,263.226L74.926,262.946C73.102,267.716 72.12,274.311 72.12,281.186C72.12,287.36 72.962,298.725 78.855,305.46L78.995,305.601C80.539,307.705 82.644,320.895 82.644,323.982C82.644,327.489 83.345,333.944 83.766,337.592C80.258,341.38 78.013,344.467 76.751,346.712C70.717,349.518 62.298,354.429 60.334,360.462C57.387,363.269 51.494,369.583 51.494,375.756C51.494,376.879 51.634,378.001 52.055,378.984L52.897,381.229L55.282,381.79C55.563,381.79 56.686,382.071 58.51,382.071L58.51,382.211L59.913,385.157L63.14,384.737C63.841,384.596 67.069,384.175 69.735,383.053C73.944,384.877 78.855,385.017 82.784,383.614C83.486,384.035 84.187,384.456 84.888,384.877L87.414,385.859C87.414,385.859 90.361,383.333 91.343,382.351C94.009,383.333 97.096,383.474 100.323,382.912C102.989,382.351 106.497,381.088 108.882,379.124C110.566,378.984 114.074,378.703 114.074,378.703L114.916,378.282C120.528,375.335 122.072,367.478 122.633,363.97C123.475,362.568 123.896,360.743 123.896,358.779C123.896,355.131 122.633,351.623 122.352,350.921L122.352,350.5C122.352,349.378 123.054,347.834 123.335,347.273C124.176,345.87 124.738,344.046 124.738,341.942C124.738,338.153 123.194,334.364 122.633,333.102C122.352,332.119 121.791,329.735 121.791,324.823C121.791,316.685 123.054,306.863 123.475,303.916C125.159,301.111 126.141,296.62 126.702,293.674C127.684,293.113 129.929,292.13 133.156,291.709C137.226,291.008 144.943,291.008 150.976,297.462C157.29,305.601 173.146,310.932 177.074,311.213C185.633,311.634 192.649,313.598 194.473,315.843L195.455,316.966L196.858,317.246C197.42,317.387 200.507,318.088 203.593,315.703L204.014,315.422L204.295,315.001L204.435,314.861C203.874,316.966 203.593,318.088 203.173,319.211C190.544,324.262 185.914,334.505 185.914,341.942C185.914,343.344 186.054,344.608 186.335,345.73L186.475,346.572L187.036,347.413L187.036,347.554C187.879,348.536 192.088,353.587 197.279,353.587L199.103,353.587L199.524,353.166L200.226,353.587L200.366,353.728C204.155,356.533 213.837,356.113 219.168,355.271C220.01,355.131 220.852,354.85 221.694,354.71C220.431,358.498 219.729,362.427 219.589,364.111C219.168,366.496 215.941,369.443 214.538,370.425L214.257,370.565L213.976,370.846C210.468,374.213 208.084,380.528 208.084,386.28C208.084,388.526 208.364,390.489 209.065,392.454C210.329,395.822 213.696,401.574 222.957,402.697L223.237,402.697C226.044,403.258 228.148,401.293 229.691,399.47C232.498,399.891 237.409,400.592 237.83,400.733C239.092,401.714 240.355,402.135 241.197,402.276C243.301,402.557 244.985,401.855 246.388,400.872C250.037,401.154 255.649,400.872 260.7,400.312C262.665,401.434 265.05,401.154 267.997,399.61C272.346,399.189 276.696,396.663 277.538,396.102L277.678,395.962L278.941,395.26L279.503,393.717C280.063,391.893 280.485,389.928 280.485,387.823C280.485,382.912 278.8,377.721 277.117,374.915C276.696,372.249 275.574,365.655 272.487,361.164C272.346,360.884 271.785,359.62 271.785,357.937C271.925,356.533 273.469,347.274 275.433,343.064L275.574,342.924L275.574,342.783C275.714,342.222 279.923,329.874 279.923,322.859C280.204,318.65 280.765,310.652 281.327,307.565C281.887,306.022 282.729,302.794 282.87,299.006L282.87,296.199C282.87,291.429 283.151,285.114 283.993,282.168C284.273,281.326 285.536,277.819 286.378,273.189C287.36,274.03 288.342,274.591 289.465,274.872C290.306,275.153 292.271,275.994 292.972,277.538C296.34,284.694 300.97,293.533 304.899,297.603C305.179,300.408 305.741,305.039 306.723,307.424L306.863,307.705L307.004,307.986C308.266,310.511 309.389,313.037 309.529,314.159L309.529,314.3C309.529,314.721 310.09,318.369 311.353,322.578C311.774,324.121 312.195,325.665 312.195,327.208C312.195,329.173 311.634,330.857 310.231,332.54C303.776,340.959 302.795,351.062 302.795,356.394C302.795,359.06 303.075,360.743 303.075,360.743L303.355,362.988L305.32,364.111C311.774,367.759 317.247,367.197 320.473,366.075C324.823,369.022 330.576,368.741 333.803,368.18C335.346,369.302 337.171,370.004 339.275,370.004C341.661,370.004 343.906,369.162 345.59,367.759C349.939,366.917 353.167,364.391 354.85,360.462C355.833,358.218 356.393,355.692 356.393,352.745C356.393,346.432 354.148,340.398 352.044,337.451ZM291.99,267.155M205.978,347.274L206.119,347.413L205.978,347.274ZM199.244,309.389L198.682,309.95L199.244,309.389ZM327.349,268.278L327.63,268.558L327.349,268.278ZM223.798,402.837L224.079,402.837L223.798,402.837Z" style="fill:white;fill-rule:nonzero;"/>
                        </g>
                        <g transform="matrix(1.316664,0,0,1.316664,85.36195,558.864832)">
                            <path d="M208.505,151.257C200.787,145.223 189.141,148.03 180.021,146.206L175.11,147.328C169.076,152.52 158.974,154.203 155.887,162.482C154.344,166.691 154.063,173.426 154.905,178.197C156.308,185.213 158.694,185.914 162.903,184.37L162.341,185.353L162.341,187.036C169.638,188.72 174.548,196.437 182.266,197.56C186.896,198.261 193.631,197.841 198.121,196.437C203.593,194.754 211.31,189.281 207.943,182.967C210.329,183.388 212.433,182.547 213.837,179.319C217.063,171.883 214.678,156.168 208.505,151.257Z" style="fill:rgb(168,169,172);fill-rule:nonzero;"/>
                        </g>
                        <g transform="matrix(1.316664,0,0,1.316664,85.36195,558.864832)">
                            <path d="M172.023,156.028C170.901,156.028 169.918,157.009 169.918,158.132C169.918,159.255 170.901,160.237 172.023,160.237C173.146,160.237 174.128,159.255 174.128,158.132C174.128,157.009 173.146,156.028 172.023,156.028ZM165.148,160.377C164.166,160.377 163.464,161.079 163.464,162.061C163.464,163.043 164.166,163.745 165.148,163.745C166.13,163.745 166.832,163.043 166.832,162.061C166.832,161.219 165.989,160.377 165.148,160.377ZM170.62,164.025C169.638,164.025 168.936,164.727 168.936,165.709C168.936,166.691 169.638,167.393 170.62,167.393C171.602,167.393 172.304,166.691 172.304,165.709C172.304,164.867 171.602,164.025 170.62,164.025ZM177.355,166.13C178.337,166.13 179.039,165.428 179.039,164.446C179.039,163.464 178.337,162.762 177.355,162.762C176.373,162.762 175.671,163.464 175.671,164.446C175.671,165.428 176.373,166.13 177.355,166.13ZM206.54,162.482C205.557,162.482 204.856,163.183 204.856,164.166C204.856,165.148 205.557,165.849 206.54,165.849C207.522,165.849 208.223,165.148 208.223,164.166C208.223,163.183 207.522,162.482 206.54,162.482ZM199.244,161.079C198.261,161.079 197.56,161.78 197.56,162.762C197.56,163.745 198.261,164.446 199.244,164.446C200.226,164.446 200.927,163.745 200.927,162.762C200.927,161.78 200.226,161.079 199.244,161.079ZM206.68,158.132C206.68,157.15 205.978,156.448 204.997,156.448C204.014,156.448 203.313,157.15 203.313,158.132C203.313,159.114 204.014,159.816 204.997,159.816C205.978,159.816 206.68,159.114 206.68,158.132ZM209.908,159.535C209.346,159.535 208.785,159.956 208.785,160.658C208.785,161.219 209.206,161.78 209.908,161.78C210.468,161.78 211.03,161.359 211.03,160.658C211.03,159.956 210.468,159.535 209.908,159.535ZM211.31,143.82C218.186,149.152 220.431,166.551 220.852,177.355C220.992,180.442 220.291,200.507 225.202,191.947C227.587,187.598 224.5,169.638 223.517,164.587C221.694,156.028 217.484,144.662 211.31,143.82ZM322.438,352.465L324.122,352.605C324.122,351.202 325.384,343.766 328.05,341.239C329.454,337.451 321.596,341.942 322.438,352.465ZM334.365,354.289L335.767,354.149C335.346,352.886 336.188,344.046 336.188,344.046C334.925,343.485 332.259,347.695 334.365,354.289ZM256.772,383.333C257.754,385.157 259.578,384.175 259.578,384.175C260.42,378.002 256.351,375.757 256.07,377.02C257.614,378.984 256.772,383.333 256.772,383.333ZM348.396,340.258C348.396,340.258 345.028,336.469 345.028,333.803C345.028,332.822 345.449,323.7 343.344,320.474C343.344,320.474 340.539,315.142 340.678,312.616C340.819,310.09 339.977,292.832 335.628,286.658C335.628,286.658 332.821,283.992 332.821,278.52C332.821,276.836 331.699,267.857 330.015,265.892C329.033,264.909 327.068,260.701 326.788,255.93C326.226,251.72 325.665,238.251 317.948,223.377C317.948,223.377 311.353,209.767 310.652,203.874C310.371,202.33 308.968,187.598 298.866,175.25C298.866,175.25 287.64,162.482 275.714,147.468C269.962,140.172 261.122,137.226 253.685,136.243C251.72,118.003 240.075,105.515 240.075,105.515C233.199,97.097 223.237,94.571 217.905,97.939C217.905,97.939 215.38,99.482 213.555,98.219C208.084,94.571 198.823,92.747 190.544,94.15C189.843,94.29 187.598,96.255 185.914,95.132C184.651,94.992 170.76,90.782 161.5,94.992C161.5,94.992 157.15,97.939 155.466,95.834C152.099,93.308 142.417,89.8 122.914,99.201C103.41,108.602 105.936,110.145 105.936,126.141C105.936,142.136 113.653,133.858 114.495,131.753C116.74,127.263 121.37,125.58 119.827,131.613C118.283,137.647 117.442,149.152 117.442,155.607C117.442,155.607 111.829,164.867 111.829,166.831C103.13,173.988 100.183,184.511 99.621,188.72C98.92,196.297 94.29,200.927 90.782,203.173C80.539,210.328 80.539,223.799 80.539,223.799C80.539,226.184 78.574,229.13 78.574,229.13C77.312,231.656 75.628,241.759 78.715,248.072C81.802,254.386 80.399,261.542 79.416,264.488C75.768,273.89 75.347,294.236 82.503,302.514C85.45,305.601 87.414,321.456 87.414,323.982C87.414,328.472 88.677,339.135 88.677,339.135C88.677,339.135 80.539,347.834 80.399,350.079C80.399,350.079 64.964,356.955 64.543,362.848C64.543,362.848 54.3,371.828 56.405,377.441C56.405,377.441 59.492,378.142 63,376.599C63,376.599 62.298,379.405 62.579,380.246C62.579,380.246 67.77,379.545 70.015,378.142C74.506,380.948 81.521,380.808 84.047,377.721C84.047,377.721 84.467,379.686 86.713,380.528L90.781,376.879C96.113,380.667 105.375,377.3 107.199,374.493L113.092,373.933C117.582,371.547 118.423,362.006 118.423,362.006C120.949,359.199 118.283,352.044 118.283,352.044C117.021,348.817 119.546,344.467 119.546,344.467C121.651,340.819 118.423,334.224 118.423,334.224C115.617,325.946 119.125,301.812 119.125,301.812C121.09,299.427 122.493,290.867 122.493,290.867C123.756,288.201 142.277,280.765 154.343,293.954C159.535,300.97 174.128,306.022 177.355,306.161C180.582,306.302 193.772,307.284 197.981,312.476C197.981,312.476 199.383,312.897 200.787,311.775C202.891,309.109 210.609,308.968 210.609,308.968L206.82,322.438C191.667,327.349 189.422,339.416 190.685,344.326C190.685,344.326 194.052,348.676 197.279,348.676C199.244,346.712 203.032,349.799 203.032,349.799C205.978,351.904 224.5,351.904 228.71,345.449C228.71,345.449 228.849,348.817 228.288,350.781C225.202,353.868 223.798,364.531 223.798,364.531C222.957,369.723 216.783,373.933 216.783,373.933C211.591,378.984 207.943,396.663 223.658,398.067C224.921,398.347 227.306,394.418 227.306,394.418L239.794,396.242C241.618,399.47 244.985,395.962 244.985,395.962C247.511,397.084 262.244,395.401 262.244,395.401C262.244,397.505 266.453,395.119 266.453,395.119C270.101,395.119 274.872,392.173 274.872,392.173C276.696,386.982 274.31,378.844 272.346,376.458C272.346,376.458 271.505,368.039 268.277,363.549C268.277,363.549 266.874,361.445 266.874,357.937C266.874,356.394 268.558,346.291 270.802,341.1C270.802,341.1 275.012,328.612 275.012,322.438C275.012,322.438 275.714,310.511 276.555,306.161C276.555,306.161 277.818,302.794 278.099,298.585C278.099,298.585 277.818,286.097 279.503,280.625C279.503,280.625 282.87,271.925 282.028,264.77C281.887,262.104 283.852,262.805 283.852,262.805C283.852,262.805 287.64,269.681 290.447,270.382C290.447,270.382 294.936,271.504 296.76,275.434C298.585,279.222 305.039,292.551 308.828,295.358C308.828,295.358 309.529,302.935 310.511,305.601C310.511,305.601 313.177,310.371 313.458,313.458C313.458,313.458 314.019,316.966 315.141,321.034C316.264,325.244 317.106,330.015 313.177,334.926C304.899,345.589 306.863,359.62 306.863,359.62C314.72,364.111 320.614,360.322 320.614,360.322C324.402,365.655 334.365,362.848 334.365,362.848C336.89,366.356 341.381,364.952 342.643,363.128C355.692,362.286 351.904,344.888 348.396,340.258ZM116.179,119.687C110.286,137.506 109.444,128.386 109.864,119.827C110.145,111.268 111.128,108.462 116.74,105.796C122.352,102.989 136.524,97.237 143.399,96.395C150.275,95.553 152.66,99.341 146.627,99.341C146.486,99.341 121.931,101.867 116.179,119.687ZM118.845,170.76L119.125,169.638L118.985,169.497C119.827,164.727 121.23,156.028 121.09,150.696C119.687,110.706 168.655,93.168 184.371,98.079C184.371,98.079 188.019,99.341 190.123,98.64C192.368,97.798 206.119,97.658 211.872,101.305C211.872,101.305 215.099,104.954 218.466,103.13C237.268,94.431 248.633,124.597 250.458,135.261C251.58,140.874 250.037,140.172 247.932,135.822C244.143,129.228 244.705,128.947 239.233,129.368C236.146,129.368 235.304,128.947 240.917,151.677C244.845,172.303 240.917,178.477 240.776,173.567C240.776,171.883 240.917,164.166 238.11,164.306C238.531,174.689 237.83,181.143 236.847,184.23L236.988,184.23L236.847,184.37C236.146,186.896 235.304,187.317 235.023,186.054L235.023,186.195C234.743,182.547 231.515,173.707 229.832,179.74C228.99,182.406 231.094,187.598 232.778,190.825L232.638,191.106C232.638,200.366 230.955,209.767 225.903,213.555C224.36,214.397 221.694,214.959 219.028,216.221C217.204,211.03 217.204,204.996 217.204,199.103C217.204,190.123 217.204,180.863 210.609,174.969C208.084,172.724 204.856,172.163 201.769,171.462C197.42,170.62 193.351,169.918 191.807,164.446C190.544,159.956 192.649,155.606 194.754,154.063C195.456,153.502 196.157,153.221 196.578,153.502C196.858,153.642 197.56,154.343 197.279,157.009L197.279,157.43L197.7,157.571C200.226,158.272 201.489,157.29 201.91,156.308C203.593,153.221 201.068,146.486 198.682,144.382C195.315,141.435 191.106,141.014 185.633,143.259C182.406,142.136 179.74,142.136 178.056,143.399C176.513,144.522 175.812,146.346 175.812,149.152C175.812,152.379 178.899,156.308 181.424,156.308C182.266,156.308 183.528,155.747 183.809,152.8C184.371,152.941 184.792,153.221 185.072,153.923C185.774,155.186 186.054,157.15 186.054,159.395C186.054,163.604 185.072,168.375 183.809,170.199C181.564,173.426 177.776,174.408 173.987,175.39C170.76,176.233 167.533,176.934 165.148,179.319C161.64,182.827 160.517,188.019 159.395,193.21C158.694,196.578 157.992,199.665 156.729,202.33C152.38,210.889 148.31,212.994 141.575,213.696C140.874,213.555 140.313,213.275 139.611,212.994C135.542,211.17 132.034,207.522 128.246,205.137C127.263,204.435 126.281,204.014 125.299,203.453C125.439,189.001 126.842,173.707 134.419,161.5C127.544,168.655 126.702,177.495 123.615,186.615C122.633,189.702 121.51,192.088 120.809,194.333C120.669,193.35 120.388,192.509 120.248,191.807C118.143,184.651 118.704,177.916 118.845,170.76ZM244.986,135.822C243.162,135.822 241.758,135.963 240.776,135.963C240.635,133.156 242.32,130.631 243.301,132.876C243.863,133.998 244.424,134.84 244.986,135.822ZM223.096,346.151C223.096,346.151 213.416,346.992 211.872,346.01C210.468,344.888 208.223,343.345 208.223,347.133L206.4,347.274C205.839,346.432 207.522,337.171 212.152,334.926C212.152,334.926 220.01,330.857 216.503,329.314C216.503,329.314 206.119,331.418 203.593,345.029L198.963,344.888C198.682,343.064 201.91,334.645 210.609,329.032L209.487,328.331C207.802,328.331 199.805,332.26 196.016,343.485C189.843,337.872 199.103,329.874 203.173,328.331C205.277,327.629 210.75,325.244 212.012,320.474C213.275,315.563 215.66,308.126 215.66,308.126C215.66,308.126 223.096,307.705 224.5,306.443C225.903,305.18 229.131,301.251 234.041,301.391C232.778,301.391 230.393,340.258 230.393,340.258C230.393,340.258 228.148,345.589 223.096,346.151ZM340.96,360.884C338.995,363.83 336.609,362.988 335.487,357.797C334.645,358.639 335.066,360.603 335.066,360.603C335.066,360.603 330.015,362.286 329.173,361.164C328.471,360.041 327.91,360.041 327.489,361.726C326.086,361.445 323.701,360.884 323.841,356.253C323.841,356.253 322.017,355.692 319.492,358.779C315.984,359.62 316.124,354.289 316.826,350.921C316.826,350.921 313.879,350.361 313.318,357.797C312.055,358.077 310.932,357.516 310.932,357.516C310.932,357.516 310.231,345.589 316.965,338.855C324.823,332.4 321.456,313.037 318.79,309.248C316.124,305.46 312.475,292.411 312.475,292.411C312.054,292.411 304.197,283.291 303.496,278.941C303.215,277.678 298.866,267.996 296.2,267.015C293.534,266.032 283.712,259.158 283.852,252.843C288.482,247.932 284.553,236.567 284.553,236.567C296.34,228.428 299.146,213.134 294.656,202.05C293.534,199.524 291.289,197.42 291.289,193.912C291.148,185.633 288.061,179.319 288.061,179.319C288.061,179.319 287.36,193.491 288.342,195.175C298.866,208.645 291.569,226.043 281.327,233.62C281.327,233.62 274.311,222.816 268.137,219.729C261.963,216.502 261.122,211.03 260.139,205.558C259.157,200.086 257.614,193.912 252.843,191.667C252.843,191.667 257.333,198.542 256.911,203.172C256.911,204.435 255.228,214.538 260.7,219.869C284.132,240.776 280.625,249.616 277.538,254.246C276.555,255.93 274.732,261.822 276.134,265.612C277.538,269.4 277.959,274.591 276.275,278.66C276.275,278.66 274.03,283.992 273.89,289.745C273.89,289.745 274.732,300.69 272.627,305.74C272.627,305.74 270.663,311.634 270.943,317.808C270.943,317.808 270.663,334.645 265.611,345.589C265.611,345.589 260.42,363.83 262.946,366.917C267.014,372.109 267.856,379.545 267.856,379.545C270.242,380.948 271.785,387.122 270.382,389.366C268.979,391.612 265.471,390.63 265.471,390.63C265.331,392.032 262.665,393.717 262.524,392.032C262.384,390.349 260.42,387.683 258.736,390.77C257.052,393.857 249.757,394.698 246.67,393.015C246.67,393.015 244.985,391.612 243.722,393.296C242.46,394.98 241.618,393.576 241.618,393.576C241.898,387.964 240.635,388.385 240.635,388.385C238.39,393.155 231.235,393.436 228.71,390.77C227.446,389.507 224.64,389.507 224.921,394.138C219.028,392.032 221.694,382.773 226.183,379.545C229.411,377.3 229.131,373.231 229.131,373.231L227.587,373.091C227.587,375.335 226.044,376.037 226.044,376.037C222.395,377.721 218.607,380.808 218.887,392.173C216.081,391.331 215.66,378.984 223.237,375.055C225.061,374.213 234.602,355.832 234.602,341.1C234.602,341.1 234.743,315.563 237.83,307.424C237.83,307.424 241.618,296.761 236.847,295.358L229.832,297.182C229.832,297.182 223.378,298.163 222.395,300.128C222.395,300.128 220.43,306.161 213.415,306.022C206.54,305.881 199.383,309.248 199.383,309.248C199.383,309.248 195.315,304.899 186.475,304.478C179.039,303.356 167.252,300.829 154.484,289.885C151.818,287.64 147.188,280.765 140.733,280.765C111.969,279.081 97.095,275.153 94.149,257.052C94.149,282.589 103.831,286.798 103.831,286.798C103.13,294.095 104.533,317.947 108.602,321.737C100.884,275.153 123.756,290.447 116.319,301.952C115.056,304.197 113.934,325.525 116.178,336.189C118.564,337.592 118.143,341.1 118.143,341.1C118.143,341.1 113.513,347.273 116.178,352.465C118.704,357.516 117.301,368.18 112.53,371.968C112.39,365.234 109.303,367.759 109.303,367.759C103.691,378.142 94.009,378.001 91.343,374.493L86.713,378.282C84.888,377.3 87.274,370.425 87.274,370.425C87.274,370.425 85.309,370.565 84.327,373.652C83.345,376.738 81.801,377.3 81.801,377.3C78.154,379.686 72.541,378.282 70.436,375.616C66.648,378.843 65.385,377.862 65.385,377.862C65.245,376.037 66.788,373.231 66.788,373.231L60.895,376.458L58.93,376.599C58.369,369.162 67.349,365.794 67.349,365.794C69.174,358.358 83.205,355.552 83.205,355.552C83.766,353.867 92.746,342.222 92.746,342.222L92.746,339.977C92.746,339.977 93.167,315.843 88.115,306.302C80.679,296.199 81.381,271.645 85.871,262.946C86.713,260.701 87.554,258.034 83.766,248.213C80.118,236.567 84.327,215.099 94.43,206.821C97.516,204.716 103.27,198.402 103.27,190.684C103.27,184.23 111.969,173.566 115.056,170.058C114.355,172.303 114.355,175.671 114.214,177.495C113.512,184.932 116.038,190.965 117.301,197.841C117.862,201.488 118.283,203.032 121.23,204.996C123.896,206.821 126.702,208.644 129.087,210.889C131.332,212.994 132.315,214.678 135.121,215.38C137.225,215.941 138.629,216.642 140.874,216.642L141.154,216.642C145.784,218.186 150.555,219.589 154.203,217.624C156.729,216.221 158.553,213.415 159.675,208.925L160.938,203.032C163.323,192.228 165.007,184.37 176.653,180.582L181.143,179.038C189.422,176.092 197.279,173.145 205.136,180.863C210.048,185.633 209.767,192.088 209.486,198.963L209.346,204.435C209.486,212.854 211.17,215.239 215.38,218.186C213.275,219.729 211.451,221.694 210.328,224.78C207.241,233.059 193.069,234.322 191.807,226.043C190.544,219.168 188.159,209.065 190.404,202.892C186.896,207.662 189.001,216.923 186.054,221.834C184.37,224.78 180.021,226.745 176.934,228.709C172.865,227.166 172.724,223.377 172.724,223.377C167.533,221.413 160.938,225.762 155.326,224.079C153.642,223.517 151.537,220.992 149.573,221.553C146.907,222.395 149.854,225.342 150.976,226.464C153.782,228.849 157.009,230.533 160.798,229.972C162.622,229.691 163.885,229.13 165.849,229.13L166.13,229.13C168.235,233.76 176.794,235.023 182.967,234.742C192.228,242.179 202.891,236.988 205.978,233.48C209.065,230.112 215.941,223.517 217.343,223.658C228.007,223.658 231.796,211.17 234.181,201.348C236.567,191.526 237.969,188.44 243.301,176.092C247.792,165.709 243.021,145.644 241.477,139.47L247.371,139.611C251.58,145.644 254.667,146.907 254.246,140.031L254.246,139.751C267.715,140.733 277.678,155.326 277.678,155.326C277.678,155.326 305.881,184.932 306.301,199.664C306.301,199.664 307.705,211.591 312.054,218.326C312.054,218.326 322.718,238.531 322.718,252.843C322.718,252.843 322.718,260.841 325.525,265.191C325.525,265.191 328.892,268.137 328.752,274.17C328.752,274.17 328.05,282.869 330.716,286.518C330.716,286.518 337.171,294.796 337.03,304.478C337.03,304.478 336.048,315.281 338.153,317.947C338.153,317.947 342.082,323.42 342.082,330.576C342.082,330.576 341.38,336.61 344.186,339.276C349.659,344.326 351.904,361.024 340.96,360.884ZM220.852,107.76C223.378,109.584 232.357,120.529 234.883,124.597C237.409,128.667 237.97,126.983 238.11,126.281C238.251,125.58 237.409,122.914 240.917,124.597C244.424,126.281 246.809,127.965 244.004,121.651C241.197,115.337 235.585,106.357 227.727,104.112C221.273,102.709 217.344,105.094 220.852,107.76ZM237.128,375.476C237.128,375.476 235.444,378.142 236.707,380.387C236.707,380.387 238.391,382.491 238.391,385.298C238.391,385.298 239.654,387.403 240.215,386.14C240.215,386.14 241.056,384.316 240.215,380.246C240.215,380.246 238.812,375.757 241.618,371.547C242.6,368.881 239.513,370.144 237.128,375.476ZM147.889,138.348C148.731,141.435 150.134,142.557 151.958,142.838C150.555,141.716 149.854,140.032 149.994,138.208C150.275,136.384 151.397,134.981 152.941,134.139C152.38,136.384 152.239,140.734 154.063,141.435C156.729,142.417 157.852,138.348 158.834,135.402C159.675,136.384 160.237,137.927 159.956,139.33C159.816,140.312 159.535,141.155 158.974,141.856C162.482,140.734 163.464,138.488 167.112,140.312C168.515,139.33 169.497,138.068 169.778,136.524C168.235,135.402 166.551,134.139 164.867,133.297L163.464,132.876C162.903,132.595 162.201,132.315 161.78,132.034L161.5,131.894L161.78,131.894C160.377,131.052 159.114,130.21 157.29,129.929C154.203,129.509 149.573,129.649 146.486,131.052C144.662,131.052 145.223,132.315 144.101,133.016L141.014,134.7C139.33,136.804 140.172,139.05 140.734,141.716C145.223,143.82 144.382,137.927 147.889,138.348ZM147.468,122.072C149.854,120.108 154.203,117.863 157.29,116.74C164.166,114.355 171.321,113.372 175.11,106.076L173.987,106.637C166.27,107.198 156.027,112.811 149.012,116.319C142.978,119.406 142.136,121.37 140.172,126.842C143.259,127.684 145.363,123.896 147.468,122.072ZM227.868,327.629C227.868,327.629 227.025,331.698 225.061,331.698C222.957,331.698 218.046,334.364 217.484,337.451C216.642,339.556 217.625,340.538 218.747,338.855C218.747,338.855 221.273,336.61 222.816,336.61C224.5,336.61 228.71,336.189 229.411,327.91C228.99,326.086 227.868,327.629 227.868,327.629ZM142.277,201.769C147.328,202.19 146.065,195.455 146.065,192.789C146.065,185.072 146.627,178.056 149.012,170.62C150.695,165.148 153.502,159.114 157.43,154.343C158.132,154.063 158.553,153.221 159.114,152.52C159.956,151.678 160.798,150.836 161.78,150.134L162.482,149.714C164.306,148.731 166.41,148.03 168.235,147.328C172.163,145.644 173.847,141.856 177.635,140.032C178.758,139.47 180.021,138.769 181.284,138.348C182.547,137.927 183.949,137.927 185.213,137.506L185.914,137.085C187.457,136.945 189.001,136.945 190.264,136.945C193.21,136.804 196.016,136.524 198.963,137.225C203.173,138.348 205.418,140.312 209.206,142.417C209.346,141.295 208.925,140.453 208.364,139.751C210.889,139.19 212.012,140.874 214.959,141.856C214.397,141.155 214.117,140.312 213.976,139.33C213.837,137.787 214.257,136.384 215.099,135.402C216.081,138.208 217.204,142.277 219.87,141.435C221.694,140.733 221.553,136.524 220.992,134.139C222.536,134.84 223.658,136.384 223.798,138.208C224.079,140.032 223.237,141.856 221.834,142.838C223.798,142.557 225.061,141.435 225.903,138.348C229.411,137.927 228.569,143.82 233.059,141.716C233.62,139.19 234.322,136.804 232.778,134.7L229.691,133.016C228.569,132.315 229.131,131.052 227.306,131.052C224.219,129.789 219.729,129.509 216.502,129.929C214.678,130.21 213.415,131.052 212.012,131.894L212.293,131.894L212.012,132.034C211.451,132.315 210.889,132.595 210.328,132.876L208.925,133.297C207.241,134.279 205.557,135.402 204.014,136.524C202.47,135.402 201.068,134.139 201.208,132.034C201.208,128.526 202.611,124.878 203.874,121.37C206.259,114.776 206.399,108.321 206.399,101.446C204.856,107.9 201.208,114.074 199.524,120.669C198.402,125.159 197.981,130.21 197.139,134.56C194.052,133.156 190.544,133.156 186.756,133.577C185.072,133.858 184.09,134.419 182.406,133.718C178.758,132.175 176.373,126.983 174.128,124.176C174.268,127.123 176.092,130.911 176.232,134.279C175.11,135.542 174.408,137.787 173.426,139.05C170.901,141.996 165.989,143.82 162.341,145.644C157.571,148.03 152.099,150.696 149.854,155.326C142.838,163.183 138.208,173.567 137.366,183.669C136.945,187.878 135.542,201.208 142.277,201.769Z" style="fill:rgb(34,30,31);fill-rule:nonzero;"/>
                        </g>
                        <g transform="matrix(1.316664,0,0,1.316664,85.36195,558.864832)">
                            <path d="M249.475,173.567C251.159,169.638 251.159,165.008 250.879,160.658C250.598,157.43 248.493,153.642 250.177,150.976C251.159,149.433 255.228,146.346 257.193,145.504C261.543,143.961 267.014,149.714 270.382,153.081C266.313,157.571 260.28,159.395 257.754,165.288C256.211,168.655 256.772,173.146 251.861,173.005L249.475,173.567Z" style="fill:rgb(168,169,172);fill-rule:nonzero;"/>
                        </g>
                        <g transform="matrix(1.316664,0,0,1.316664,85.36195,558.864832)">
                            <path d="M108.742,200.927C108.181,206.68 104.814,210.749 101.306,214.678C98.779,217.625 98.92,218.887 97.938,222.676C95.973,230.674 87.975,239.654 95.412,247.792C96.815,249.195 98.92,249.756 100.464,250.879C103.27,252.983 103.691,255.088 104.954,258.034C110.145,270.102 125.159,267.996 136.524,270.241C132.315,265.892 125.159,261.262 121.931,255.93C126.281,255.228 130.91,258.034 134.981,259.297C142.698,261.684 150.275,262.805 158.273,263.507C148.872,260.701 138.208,255.93 129.789,251.019C125.72,248.634 115.758,244.845 116.881,238.672C119.967,238.531 122.774,241.197 125.861,242.32C131.894,244.565 138.208,244.424 144.522,244.565C131.894,239.373 120.248,227.026 116.319,213.976C115.056,209.627 115.056,201.909 109.584,200.787" style="fill:rgb(168,169,172);fill-rule:nonzero;"/>
                        </g>
                        <g transform="matrix(1.316664,0,0,1.316664,85.36195,558.864832)">
                            <path d="M258.456,229.271C262.384,235.164 269.68,242.32 269.4,250.738C269.119,259.297 266.875,268.137 266.173,276.836C265.471,285.817 266.454,298.725 262.805,306.582C261.682,295.358 263.367,282.87 263.086,271.504C262.805,263.226 262.384,254.807 261.402,246.669C260.7,240.495 258.877,234.743 258.035,228.85" style="fill:rgb(168,169,172);fill-rule:nonzero;"/>
                        </g>
                        <g transform="matrix(1.316664,0,0,1.316664,85.36195,558.864832)">
                            <path d="M239.233,283.431C240.635,273.749 243.442,264.629 241.899,254.246C240.917,247.09 239.794,239.373 236.286,233.059C234.602,230.253 232.638,228.428 230.393,226.043C228.99,229.832 228.148,234.883 226.324,238.531C223.237,244.845 214.117,241.759 208.785,244.705C211.171,245.967 213.837,246.108 216.642,246.388C220.431,246.809 221.834,245.827 221.273,249.616C220.852,252.562 217.063,256.772 214.959,257.754C210.609,259.578 204.715,257.473 200.226,258.876C204.997,260.981 209.206,261.823 214.538,262.104C211.31,266.453 205.698,269.54 200.787,271.504C196.578,273.189 191.667,271.925 188.019,273.328C191.527,273.89 194.613,275.293 198.121,275.433L196.999,275.433L188.861,273.89C192.649,275.994 197.139,277.678 201.629,279.222C200.226,280.485 198.823,281.747 197.279,282.869C192.508,286.238 188.159,289.745 182.126,290.026C177.215,290.307 172.304,289.184 167.673,289.745C172.023,294.095 181.003,296.901 187.036,298.024C194.333,299.427 203.593,297.041 210.75,295.217C216.081,293.954 237.83,290.166 238.952,283.852L238.812,283.572L239.092,283.572L239.092,283.852L239.092,283.572L239.233,283.572L239.233,283.431Z" style="fill:rgb(168,169,172);fill-rule:nonzero;"/>
                        </g>
                    </g>
                </g>
            </g>
        </g>
    </g>
</svg>
