<?xml version="1.0" encoding="UTF-8" standalone="no"?>
<!DOCTYPE svg PUBLIC "-//W3C//DTD SVG 1.1//EN" "http://www.w3.org/Graphics/SVG/1.1/DTD/svg11.dtd">
<svg width="100%" height="100%" viewBox="0 0 221 103" version="1.1" xmlns="http://www.w3.org/2000/svg" xmlns:xlink="http://www.w3.org/1999/xlink" xml:space="preserve" xmlns:serif="http://www.serif.com/" style="fill-rule:evenodd;clip-rule:evenodd;stroke-linejoin:round;stroke-miterlimit:2;">
    <g transform="matrix(1,0,0,1,-35.317043,-525.554686)">
        <g id="Carlton" transform="matrix(1,0,0,1,-224.865457,205.779061)">
            <rect x="260.183" y="319.776" width="220.489" height="102.302" style="fill:rgb(3,26,41);"/>
            <clipPath id="_clip1">
                <rect x="260.183" y="319.776" width="220.489" height="102.302"/>
            </clipPath>
            <g clip-path="url(#_clip1)">
                <g transform="matrix(0.740028,0,0,0.740028,370.428002,396.895705)">
                    <g transform="matrix(1,0,0,1,-326,-326)">
                        <g>
                            <path d="M320.3,405.4C317.1,403.2 316.2,401 315.9,399.6L315.9,398.5C315.7,390.6 317.1,363.3 317.1,363.3C317.1,363.3 306,361.5 296.1,356.7L295.5,398.2L295.5,399.7C295.2,401.1 294.3,403.4 291.1,405.5C287.2,408.1 286.8,409.7 287.2,415.2C287.6,420.7 289.7,423.3 294.1,423.1L295.2,423.1C295.2,423.1 299.7,423 305.7,423C311.7,423 316.1,423.1 316.1,423.1L317.2,423.1C321.6,423.3 323.8,420.7 324.2,415.2C324.5,409.6 324.2,408 320.3,405.4M400.2,332.7C395.4,329.4 392.2,333.1 391.6,334C391.6,334 374.3,371.4 331.5,369.5C331.5,369.5 331.1,369.4 330.6,369.5C326.8,369.3 321.3,368.8 320.6,368.3L319.9,387.2C319.9,387.2 324.3,387.7 328.6,387.9C329.1,388 329.6,388 330.3,388C334.6,388.1 377.1,391 402.3,341.6C402.2,341.6 405,336 400.2,332.7M378.6,273.1C378.6,273.1 379.1,268.7 370.8,251.8C370.8,251.8 368.4,245.9 361.6,244.1C356.4,242.7 349.6,241 349.6,241C349.6,241 343.4,237.7 336.5,236.1L336.5,236C336.5,236 327.8,233.8 319.8,233.7L319.5,252.4C319.5,252.4 321.7,251.6 330.3,251.8C334.4,252.2 341.7,252.3 352,260.1C364.5,269.5 369.1,276.8 369.1,276.8C369.1,276.8 372.8,282.3 376.1,281.2C379.4,280.1 378.6,273.1 378.6,273.1M263.4,304.4C264.7,316 278.6,349.5 311.3,358.3C344,367.1 367.1,350.9 374,341C374,341 379.9,335.3 374.9,330.9C369.9,326.5 365.9,332 365.7,331.8C365.5,331.6 331.1,357.7 304.5,337.5C277.9,317.3 285.2,284.8 287.8,278.3C287.8,278.3 290.2,271.4 293.1,267.8L293.3,241C293.3,241 271,253.9 264.8,281.2C262.6,289.2 262.2,293.4 263.4,304.4M291.9,383.4L292.2,360.9C289.9,360.2 286.8,358.3 283.7,356C283.3,355.7 282.9,355.3 282.4,354.9C272.5,347.9 245.3,324 254.6,279.1C264,234.2 315.8,217.6 348.6,227.6C381.4,237.5 386.9,260.1 389.9,265.3C391.8,268.5 394,272.2 398.2,271.6C402.3,271 400.7,262.2 400.7,262.2L392.7,233.1C392.7,233.1 390.8,225.3 382,222.2C374.7,219.7 372.6,218.7 368,216.3C368,216.3 315.3,180.3 256.1,227.2C256.1,227.2 235.1,245.9 229.1,267.7C229.1,267.7 225.8,279.7 225.7,284.1C225.4,290.5 225,298.6 226.4,307.7C227.7,316.3 235.2,356.4 274.1,377L274.1,377.1C274.8,377.4 275.5,377.7 276.1,378.1C277.8,378.9 279.4,379.7 281.2,380.5C281.2,380.5 281.9,380.9 283,381.2C289.7,383.9 291.9,383.4 291.9,383.4M316.4,230.3C316.4,230.3 303.8,229.9 297,236.2L296.6,322.5C296.6,322.5 303.6,335 317.2,339.8L316.8,310.2C316.8,310.2 315.5,304.5 322.9,304.9C330.3,305.3 328.9,305.8 334.8,312.7C339,317.7 343.3,317.4 345.7,316.5C349.5,315.1 351,312.5 350,308.2C347.9,299.4 342,282.3 342,282.3C342,282.3 341.2,276 334.9,276.6C328.9,277.2 328.9,281.2 328.9,281.2C328.9,281.2 329.3,286.5 322.7,286.3C316.1,286.1 316.6,279.5 316.6,279.5L316.4,230.3ZM295.8,193.9L295.8,202.9C295.8,202.9 305.3,199.7 316,199.7C316,199.7 313.8,193.4 331.9,194.4C350,195.4 352.5,196.3 362.5,203.8C363.7,204.6 368.8,210.7 374.3,209.1C380.1,207.4 376.6,202.5 376.6,202.5L364.8,182.6C364.8,182.6 362.7,178.4 356.9,177.7C351.7,177.1 347.1,177 339.5,176.9L294.9,176.7C294.9,176.7 290,176.5 289.8,184.1C289.6,192.1 293.6,191.3 295.8,193.9" style="fill:white;fill-rule:nonzero;"/>
                        </g>
                    </g>
                </g>
            </g>
        </g>
    </g>
</svg>
