<?xml version="1.0" encoding="UTF-8" standalone="no"?>
<!DOCTYPE svg PUBLIC "-//W3C//DTD SVG 1.1//EN" "http://www.w3.org/Graphics/SVG/1.1/DTD/svg11.dtd">
<svg width="100%" height="100%" viewBox="0 0 131 95" version="1.1" xmlns="http://www.w3.org/2000/svg" xmlns:xlink="http://www.w3.org/1999/xlink" xml:space="preserve" xmlns:serif="http://www.serif.com/" style="fill-rule:evenodd;clip-rule:evenodd;stroke-linejoin:round;stroke-miterlimit:2;">
    <g transform="matrix(1,0,0,1,-289.86421,-2065.285993)">
        <g transform="matrix(0.979914,0,0,0.979914,-28.265873,1676.888699)">
            <g transform="matrix(0.776087,0,0,0.559557,283.518384,53.909849)">
                <rect x="53" y="612" width="172" height="172" style="fill:rgb(12,85,164);fill-opacity:0;"/>
                <clipPath id="_clip1">
                    <rect x="53" y="612" width="172" height="172"/>
                </clipPath>
                <g clip-path="url(#_clip1)">
                    <g transform="matrix(0.237644,0,0,0.32547,186.556029,729.85116)">
                        <g transform="matrix(1,0,0,1,-562,-534)">
                            <g transform="matrix(2,0,0,2,0,0)">
                                <path d="M276.602,8.82C276.602,8.82 201.625,179.127 199.677,183.571C194.65,184.154 0,204.033 0,204.033C0,204.033 145.984,334.596 149.644,337.729C148.515,342.753 107.13,534 107.13,534C107.13,534 276.308,435.61 280.515,433.06C284.702,435.61 454.191,534 454.191,534C454.191,534 412.789,342.753 411.66,337.946C415.301,334.596 561.322,204.033 561.322,204.033C561.322,204.033 366.36,184.154 361.627,183.571C359.66,179.127 280.515,0.115 280.515,0.115L276.602,8.82Z" style="fill:rgb(16,30,71);fill-rule:nonzero;"/>
                                <path d="M203.044,191.98L205.575,191.728C205.575,191.728 273.506,37.333 280.515,21.383C287.799,37.333 355.729,191.728 355.729,191.728C355.729,191.728 523.524,208.768 540.856,210.735C527.747,222.46 402.154,334.596 402.154,334.596C402.154,334.596 437.694,499.625 441.591,516.667C426.227,507.999 280.515,422.936 280.515,422.936C280.515,422.936 134.805,507.999 119.694,516.667C123.353,499.625 159.11,334.596 159.11,334.596C159.11,334.596 33.263,222.169 20.137,210.442C37.779,208.768 203.044,191.98 203.044,191.98Z" style="fill:rgb(252,221,5);fill-rule:nonzero;"/>
                                <path d="M171.163,204.58L169.217,207.384C169.217,207.64 168.924,207.929 168.924,208.186L93.967,208.186C90.052,208.186 72.718,198.971 67.675,183.315C58.735,154.256 69.096,133.246 75.211,120.683L71.336,117.879C50.341,137.726 20.391,166.528 20.391,207.093C20.391,214.921 21.557,223.043 24.052,231.673C31.627,257.163 64.89,276.716 120.822,288.187C120.822,288.187 121.113,288.187 121.367,288.479C121.367,288.479 121.113,288.733 121.113,289.026C121.113,290.681 123.062,293.23 133.987,300.804C140.685,305.537 148.515,310.562 151.883,312.53C167.25,322.07 184.582,329.572 200.805,333.795L205.265,334.888L203.901,330.446C203.592,329.864 203.044,328.99 202.17,327.605C221.233,337.729 241.625,342.972 242.446,343.264L247.524,344.429L245.284,339.912C244.993,339.405 244.429,338.239 243.865,336.564C252.549,341.879 280.225,358.411 280.225,358.411C280.225,358.411 307.935,341.879 316.583,336.564C316.018,338.239 315.455,339.405 315.199,339.912L313.216,344.429L318.003,343.264C319.114,342.972 339.487,337.729 358.276,327.605C357.404,328.99 357.148,329.864 356.856,330.446L355.146,334.888L359.66,333.795C375.866,329.572 393.198,322.07 408.601,312.53C412.243,310.562 419.817,305.537 426.518,300.804C437.368,293.23 439.335,290.681 439.335,289.026L439.335,288.479L439.881,288.187C495.559,276.716 529.131,257.163 536.414,231.673C538.927,223.043 540.055,214.921 540.055,207.093C540.055,166.528 510.124,137.726 489.149,117.879L485.216,120.683C491.407,133.246 501.713,154.256 492.79,183.315C488.02,198.971 470.688,208.186 466.499,208.186L391.852,208.186C391.522,207.929 391.522,207.64 391.269,207.384L389.593,204.58L171.163,204.58Z" style="fill:white;"/>
                                <path d="M387.044,209.314C387.335,209.859 388.465,212.954 388.465,212.954L466.499,212.954C472.069,212.954 491.625,203.161 497.523,184.699C500.035,176.323 501.165,168.239 501.165,160.956C501.165,148.903 498.361,138.562 494.976,130.441C506.19,141.622 517.115,153.928 524.652,167.91C531.681,180.511 535.249,193.657 535.249,206.802C535.249,214.632 533.902,222.46 531.681,230.579C524.943,253.812 491.953,272.529 438.752,283.451C437.149,283.707 436.275,283.999 435.476,284.253C434.893,284.546 434.6,284.836 434.311,285.129C434.018,285.129 434.018,285.383 434.018,285.929L434.018,286.22C434.018,287.059 434.018,287.605 434.311,288.479C431.798,291.555 416.138,302.189 406.051,308.306C392.944,316.463 378.085,323.163 364.103,327.314C364.979,325.638 366.106,323.745 366.943,322.07L370.294,314.496L363.303,318.938C348.445,328.479 330.294,334.596 321.608,337.146C322.736,334.305 323.848,331.83 323.848,331.247L324.976,325.929C324.976,325.929 282.754,351.346 280.225,352.804C277.985,351.346 235.781,325.929 235.781,325.929L236.599,331.247C236.892,331.83 237.71,334.305 238.838,337.146C230.136,334.596 211.984,328.479 197.183,318.938L190.171,314.496L193.832,322.07C194.377,323.745 195.507,325.638 196.617,327.314C182.345,323.163 167.542,316.463 154.379,308.306C144.309,302.189 128.94,291.555 126.413,288.479C126.413,287.605 126.702,287.059 126.702,286.22L126.702,285.929C126.413,285.383 126.413,285.129 126.157,285.129C126.157,284.836 125.593,284.546 125.301,284.253L125.028,284.253C124.462,283.999 123.353,283.707 121.677,283.451C68.53,272.529 35.54,253.812 28.821,230.579C26.581,222.46 25.472,214.632 25.472,206.802C25.472,193.657 28.821,180.511 35.796,167.91C43.37,153.928 54.258,141.622 65.435,130.441C62.34,138.562 59.592,148.903 59.592,160.956C59.592,168.239 60.411,176.323 63.214,184.699C68.803,203.161 88.377,212.954 93.967,212.954L172.274,212.954C172.274,212.954 173.386,209.859 173.659,209.314L387.044,209.314Z" style="fill:rgb(16,30,71);"/>
                                <path d="M55.386,149.448C42.804,164.307 34.375,181.639 34.375,196.459C34.375,212.409 42.804,227.776 63.214,237.28C66.563,238.955 72.718,241.503 74.65,241.503L159.11,241.503C163.316,235.35 168.651,223.043 170.345,218.272L89.761,218.272C83.643,218.272 71.59,209.859 65.435,200.938C58.735,190.852 55.931,178.544 55.113,167.365C55.113,167.365 54.547,155.605 55.386,149.448Z" style="fill:white;fill-rule:nonzero;"/>
                                <path d="M177.865,239.503C168.361,254.903 159.676,272.529 144.565,288.187L132.255,288.187C153.559,264.409 168.361,239.829 177.865,215.76L382.82,215.76C392.361,239.829 407.182,264.409 428.447,288.187L416.138,288.187C400.772,272.529 392.068,254.903 382.602,239.503L177.865,239.503Z" style="fill:white;fill-rule:nonzero;"/>
                                <path d="M280.225,339.405C276.308,339.621 211.728,294.104 206.139,290.154C206.959,294.104 210.6,306.922 213.405,313.622L213.405,314.204C196.617,305.828 180.96,295.78 162.498,280.905L168.105,301.897C168.105,301.897 144.309,288.187 144.565,288.187L132.255,288.187C147.112,299.129 166.684,311.947 183.2,318.356C183.2,317.847 179.285,303.865 178.721,302.989C194.65,314.204 213.967,323.745 227.95,330.664C227.095,327.314 222.054,315.006 220.942,311.073C227.095,315.297 278.275,349.162 280.225,349.162C282.208,349.162 333.37,315.297 339.487,311.073C338.686,315.006 333.661,327.314 332.533,330.664C346.771,323.745 365.777,314.204 381.763,302.989C381.437,303.865 377.54,317.847 377.285,318.356C393.744,311.947 413.336,299.129 428.447,288.187L416.138,288.187C416.431,288.187 392.65,301.897 392.65,301.897L397.932,280.905C379.544,295.78 363.886,305.828 347.353,314.204L347.353,313.622C349.902,306.922 353.471,294.104 354.636,290.154C348.737,294.104 284.138,339.621 280.225,339.405Z" style="fill:rgb(252,221,6);fill-rule:nonzero;"/>
                            </g>
                        </g>
                    </g>
                </g>
            </g>
        </g>
    </g>
</svg>
