<?xml version="1.0" encoding="UTF-8" standalone="no"?>
<!DOCTYPE svg PUBLIC "-//W3C//DTD SVG 1.1//EN" "http://www.w3.org/Graphics/SVG/1.1/DTD/svg11.dtd">
<svg width="100%" height="100%" viewBox="0 0 129 97" version="1.1" xmlns="http://www.w3.org/2000/svg" xmlns:xlink="http://www.w3.org/1999/xlink" xml:space="preserve" xmlns:serif="http://www.serif.com/" style="fill-rule:evenodd;clip-rule:evenodd;stroke-linejoin:round;stroke-miterlimit:2;">
    <g transform="matrix(1,0,0,1,-503.369267,-2661.735325)">
        <g transform="matrix(1.245271,0,0,1.263153,-652.266964,1598.243032)">
            <g transform="matrix(0.599674,0,0,0.442441,896.237475,571.160826)">
                <rect x="53" y="612" width="172" height="172" style="fill:rgb(211,63,70);fill-opacity:0;"/>
                <clipPath id="_clip1">
                    <rect x="53" y="612" width="172" height="172"/>
                </clipPath>
                <g clip-path="url(#_clip1)">
                    <g transform="matrix(1.443351,0,0,1.956284,-63.46775,-786.796009)">
                        <g transform="matrix(2.70581,0,0,2.70581,-132.485347,517.090077)">
                            <path d="M95.726,99.62C97.063,99.62 98.757,99.666 99.56,100.423C98.757,101.093 97.82,101.494 95.726,101.182C95.637,100.558 95.681,100.023 95.726,99.62Z" style="fill:white;"/>
                        </g>
                        <g transform="matrix(2.70581,0,0,2.70581,-132.485347,517.090077)">
                            <path d="M68.385,81.594C69.154,82.274 68.951,83.106 69.129,84.176C69.308,85.247 70.081,88.636 73.112,91.312C76.143,93.987 79.233,94.879 81.967,95.712C82.205,95.474 82.562,95.058 82.799,94.82C76.797,93.155 74.717,88.874 74.181,85.842C73.647,82.809 74.538,80.55 75.311,78.944C76.083,77.339 78.282,75.079 79.412,74.068C80.541,73.058 80.812,71.886 80.634,71.173C79.921,72.124 78.58,73.058 77.569,73.533C76.559,74.009 75.37,74.544 74.478,75.257C73.587,75.971 73.35,76.684 72.814,77.279C72.28,77.874 71.151,79.123 69.368,79.42C67.585,79.717 67.049,78.409 66.455,77.16C65.98,78.111 66.158,78.884 66.515,79.479C66.871,80.074 67.109,80.728 66.812,81.977C66.515,83.225 64.732,83.998 63.424,84.295C62.116,84.593 61.582,84.533 60.809,84.236C60.036,83.939 59.59,83.078 59.042,82.69C58.582,82.363 57.613,82.185 57.072,82.706C57.302,82.942 57.683,83.3 57.881,83.522C58.283,83.968 58.253,84.415 58.788,84.89C59.323,85.366 59.799,85.663 60.452,86.317C61.76,87.625 61.819,88.874 61.582,90.36C61.372,91.667 60.482,92.318 59.799,92.531C59.026,92.768 57.956,92.594 57.243,92.475C56.53,92.357 55.83,92.485 55.672,92.992C56.207,92.992 56.827,93.631 57.361,93.868C57.897,94.107 59.085,94.344 60.452,94.939C61.819,95.534 62.532,96.901 62.889,97.912C63.246,98.923 63.127,100.587 62.949,101.123C62.77,101.658 62.413,101.896 61.7,102.55C60.987,103.204 61.225,103.62 61.403,104.037C61.641,103.918 61.997,103.68 62.235,103.323C62.711,104.215 63.246,103.144 63.721,102.609C64.197,102.074 65.563,100.825 66.99,100.528C68.416,100.231 69.308,100.706 70.437,101.836C71.091,101.182 72.28,100.647 73.468,100.231C74.657,99.815 76.856,99.755 78.936,99.993C79.055,99.755 79.293,99.458 79.412,99.22C77.272,98.566 74.072,98.021 72.22,97.793C70.169,97.54 68.298,97.301 66.796,97.034C65.023,96.719 63.9,96.231 63.365,96.009C62.844,95.791 62.15,95.26 61.793,95.024C61.437,94.787 60.795,94.616 60.452,94.463C59.917,94.225 60.927,94.352 61.522,94.59C62.116,94.828 63.127,95.712 64.969,96.247C66.507,96.693 68.892,97.02 71.031,97.258C73.171,97.496 76.5,98.031 79.649,98.923C79.827,98.745 80.022,98.506 80.378,98.328C80.319,97.972 80.319,97.605 80.438,97.248C78.209,96.747 76.143,96.128 73.914,95.236C71.208,94.152 69.516,93.422 66.455,91.193C64.359,89.667 62.711,87.625 62.295,87.09C61.879,86.555 61.284,85.782 61.344,85.603C61.403,85.425 61.997,86.376 63.602,88.042C65.207,89.706 68.577,92.404 71.982,93.928C75.905,95.682 79.341,96.552 80.737,96.85C80.945,96.582 81.28,96.289 81.636,96.051C80.507,95.756 78.639,95.177 76.916,94.404C75.192,93.631 73.409,92.382 72.101,91.134C70.794,89.885 69.724,87.744 69.248,86.495C68.831,85.399 68.595,84.117 68.535,83.463C68.476,82.809 68.542,82.178 68.363,81.643C68.339,81.604 68.357,81.566 68.385,81.594Z" style="fill:white;"/>
                        </g>
                        <g transform="matrix(2.70581,0,0,2.70581,-132.485347,517.090077)">
                            <path d="M92.457,72.373C92.101,73.444 91.595,74.336 90.496,74.93C90.355,75.006 90.416,75.057 90.496,75.109C90.912,75.376 91.15,76.139 91.209,76.466C92.012,76.387 92.874,76.327 93.587,76.357C93.854,75.614 94.141,74.908 94.439,74.373C93.676,74.336 92.963,74.009 92.874,73.444C92.784,72.879 92.665,72.463 92.635,72.314C92.606,72.166 92.505,72.229 92.457,72.373Z" style="fill:white;"/>
                        </g>
                        <g transform="matrix(2.70581,0,0,2.70581,-132.485347,517.090077)">
                            <path d="M92.953,76.998C92.19,76.714 91.417,76.714 90.704,77.041C89.991,77.368 89.515,77.784 89.218,78.32C88.921,78.855 88.475,79.657 87.792,79.806C87.108,79.955 86.781,79.657 86.573,79.538C86.068,79.806 85.919,79.925 84.939,80.014C83.958,80.104 82.026,81.679 82.294,82.809C82.769,82.719 83.334,82.571 83.75,82.69C84.166,82.809 84.998,83.433 85.058,83.671C85.117,83.909 85.236,84.325 85.206,84.771C85.176,85.217 85.147,85.603 85.147,85.812L85.533,85.871C85.89,86.615 86.484,87.566 87.405,87.774C87.257,86.971 86.989,85.96 87.168,84.919L87.614,84.89C87.405,85.069 87.368,85.336 87.368,85.574C88.059,85.239 89.337,84.89 90.139,84.771C90.051,84.563 89.965,84.415 89.89,84.269C89.278,84.236 88.658,84.434 88.004,84.672C87.944,84.167 87.97,83.998 88.267,83.79C88.564,83.582 89.189,83.492 89.605,83.701C90.021,83.909 90.258,84.265 90.496,84.593C90.734,84.919 91.328,85.901 91.298,86.258C91.269,86.615 91.209,87.357 91.091,87.774C91.447,87.714 91.714,87.387 92.071,86.793C92.428,86.198 92.635,85.96 92.428,85.276C92.22,84.593 91.893,84.028 91.922,83.374C91.952,82.719 92.368,82.006 93.2,81.649C94.033,81.292 94.24,81.412 94.805,81.768C95.37,82.125 95.904,82.631 96.38,83.285C96.856,83.939 97.095,84.819 97.984,85.009C98.401,85.098 98.668,84.801 98.787,84.533C98.223,83.998 97.955,83.671 98.074,83.076C98.193,82.482 98.876,82.125 99.619,82.244C99.47,81.798 98.936,81.203 98.43,80.728C97.925,80.252 97.361,80.014 97.599,79.568C97.836,79.123 98.371,79.152 98.727,79.123C98.639,78.498 98.341,77.993 99.53,77.041C99.411,76.327 98.965,75.495 100.332,74.187C99.857,73.622 99.449,73.293 99.5,72.582C99.53,72.166 99.5,71.779 99.47,71.512C99.441,71.244 99.144,71.452 98.995,71.541C98.846,71.631 98.371,71.779 97.717,71.779C97.063,71.779 96.469,71.541 96.201,71.601C95.934,71.66 96.113,71.809 96.261,72.016C96.41,72.225 96.677,72.79 96.647,73.206C96.618,73.622 96.558,74.693 96.231,75.138C95.904,75.584 95.102,76.387 94.033,76.893C92.963,77.398 92.487,77.606 92.131,77.725C91.774,77.844 91.18,77.874 90.793,78.468C90.407,79.063 90.419,79.804 89.44,79.998C89.292,80.028 89.41,79.85 89.559,79.642C89.707,79.433 89.872,79.004 90.11,78.587C90.348,78.171 90.467,77.844 91.239,77.606C92.012,77.368 92.338,77.339 92.953,76.998Z" style="fill:white;"/>
                        </g>
                        <g transform="matrix(2.70581,0,0,2.70581,-132.485347,517.090077)">
                            <path d="M76.618,80.758C77.51,80.668 78.461,80.995 79.144,81.798C79.827,82.601 79.709,83.076 80.482,84.146C81.254,85.217 81.581,85.633 82.116,86.109C81.581,86.376 81.135,86.287 80.808,86.376C80.482,86.466 79.679,86.823 79.679,87.477C79.679,88.131 80.186,88.921 81.696,89.046C82.554,89.118 84.582,88.131 85.831,87.06C85.987,87.223 86.246,87.506 86.365,87.685C85.236,88.547 84.226,89.171 83.334,89.498C82.207,89.91 81.749,90.031 80.867,89.766C79.59,89.379 78.758,88.398 78.728,87.001C78.699,85.603 78.758,84.474 78.669,83.731C78.58,82.987 78.415,82.496 78.074,82.155C77.985,82.066 77.968,82.177 78.044,82.333C78.253,82.749 78.371,83.404 78.401,83.701C78.431,83.998 78.431,84.89 78.401,85.514C78.371,86.139 78.163,87.655 78.58,88.428C78.223,88.933 77.866,89.498 77.777,89.855C77.272,89.082 76.945,88.101 76.945,86.971C76.945,85.842 77.569,83.879 77.51,82.928C77.45,81.977 76.916,81.203 76.618,80.758Z" style="fill:white;"/>
                        </g>
                        <g transform="matrix(2.70581,0,0,2.70581,-132.485347,517.090077)">
                            <path d="M85.533,86.733C85.444,86.585 85.295,86.287 85.295,86.287L85.167,86.258C84.275,87.03 83.338,87.811 82.68,88.16C82.175,88.428 81.789,88.576 81.284,88.517C81.01,88.485 81.081,88.604 81.313,88.666C81.64,88.751 82.209,88.713 82.966,88.381C83.602,88.101 84.097,87.798 84.454,87.53C84.781,87.286 85.274,86.955 85.533,86.733Z" style="fill:white;"/>
                        </g>
                        <g transform="matrix(2.70581,0,0,2.70581,-132.485347,517.090077)">
                            <path d="M87.413,86.063C87.413,86.353 87.524,86.823 87.568,87.066C88.237,86.755 89.06,86.287 90.843,86.22C90.866,85.93 90.734,85.461 90.467,85.171C89.619,85.193 88.281,85.639 87.413,86.063Z" style="fill:white;"/>
                        </g>
                        <g transform="matrix(2.70581,0,0,2.70581,-132.485347,517.090077)">
                            <path d="M93.208,82.274C93.565,81.939 94.229,81.749 94.856,82.25C95.191,82.518 95.706,83.1 95.841,83.235C95.528,83.57 95.08,83.833 94.767,83.945C94.5,83.344 93.854,82.363 93.208,82.274Z" style="fill:white;"/>
                        </g>
                        <g transform="matrix(2.70581,0,0,2.70581,-132.485347,517.090077)">
                            <path d="M92.539,84.682C92.606,84.949 92.739,85.35 92.784,85.574C93.141,85.372 93.697,84.971 93.743,84.771C93.787,84.571 93.363,84.525 92.539,84.682Z" style="fill:white;"/>
                        </g>
                        <g transform="matrix(2.70581,0,0,2.70581,-132.485347,517.090077)">
                            <path d="M86.565,84.301C86.343,84.08 86.231,83.856 86.387,83.231C86.544,82.607 87.3,82.117 87.657,81.982C87.592,81.693 87.368,81.471 86.879,81.358C87.011,81.292 87.168,81.203 87.279,81.179C87.011,80.869 86.744,80.601 86.544,80.445C87.033,80.377 87.702,80.423 87.924,80.69C88.148,80.957 88.305,81.179 88.305,81.56C88.637,81.693 88.973,81.917 88.951,82.117C88.929,82.317 88.772,82.363 88.459,82.496C88.148,82.631 87.635,82.898 87.346,83.12C87.057,83.344 86.633,83.766 86.565,84.301Z" style="fill:rgb(35,31,32);"/>
                        </g>
                        <g transform="matrix(2.70581,0,0,2.70581,-132.485347,517.090077)">
                            <path d="M83.178,82.117C83.134,81.872 83.2,81.715 83.491,81.471C83.78,81.226 84.069,81.158 84.65,81.269C84.448,81.604 84.315,81.982 84.293,82.185C83.891,82.117 83.467,82.117 83.178,82.117Z" style="fill:rgb(35,31,32);"/>
                        </g>
                        <g transform="matrix(2.70581,0,0,2.70581,-132.485347,517.090077)">
                            <path d="M89.281,80.585C89.523,80.89 90.221,80.71 90.623,80.821L90.641,81.025C90.797,80.936 91.112,80.801 91.425,80.69C91.736,80.579 92.406,80.27 92.717,80.157C93.029,80.046 93.541,79.955 93.943,79.731C94.23,79.57 94.232,79.463 94.232,79.063C94.232,78.839 94.389,78.549 94.522,78.371C94.657,78.193 94.914,78.141 94.968,78.236C95.056,78.393 95.124,78.35 95.213,78.236C95.302,78.125 95.459,77.858 95.659,77.569C95.861,77.279 96.283,76.922 96.55,76.744C96.818,76.566 97.309,76.32 97.442,76.298C97.577,76.274 97.577,76.209 97.464,76.209C97.353,76.209 97.153,76.274 96.907,76.342C96.661,76.409 96.261,76.631 95.994,76.877C95.726,77.122 95.419,77.303 95.013,77.59C94.634,77.858 93.965,77.925 93.541,77.969C93.119,78.015 92.406,78.147 92.049,78.26C91.692,78.371 91.403,78.639 91.336,78.75C91.269,78.861 91.112,79.285 90.823,79.687C90.533,80.088 89.791,80.52 89.41,80.504C89.3,80.46 89.234,80.524 89.281,80.585Z" style="fill:rgb(35,31,32);"/>
                        </g>
                        <g transform="matrix(2.70581,0,0,2.70581,-132.485347,517.090077)">
                            <path d="M91.7,78.958C91.728,78.779 91.982,78.572 92.216,78.672C92.449,78.771 92.695,78.928 92.729,79.229C92.762,79.53 92.828,80.02 92.316,80.155C92.316,79.82 92.321,79.596 92.271,79.463C92.194,79.251 92.037,79.218 91.948,79.128C91.859,79.039 91.754,79.004 91.7,78.958Z" style="fill:white;"/>
                        </g>
                        <g transform="matrix(2.70581,0,0,2.70581,-132.485347,517.090077)">
                            <path d="M91.613,79.931C91.536,79.832 91.435,79.509 91.425,79.429C91.358,79.475 91.29,79.564 91.191,79.654C91.091,79.743 91.001,79.909 91.134,80.044C91.269,80.176 91.536,80.359 91.726,80.333C91.881,80.311 91.936,80.266 91.993,80.21C91.893,80.155 91.77,80.133 91.613,79.931Z" style="fill:white;"/>
                        </g>
                        <g transform="matrix(2.70581,0,0,2.70581,-132.485347,517.090077)">
                            <path d="M96.885,74.765C97.002,74.452 97.361,73.607 97.539,73.25C97.717,72.893 97.939,72.596 98.193,72.403C98.444,72.209 98.652,72.166 98.757,72.298C98.86,72.433 98.771,72.76 98.698,72.939C98.622,73.117 98.252,73.636 97.955,73.979C97.658,74.32 97.293,74.758 97.153,74.9C97.034,75.019 96.915,75.152 96.856,75.227C96.796,75.301 96.721,75.287 96.75,75.182C96.796,75.027 96.839,74.885 96.885,74.765Z" style="fill:rgb(35,31,32);"/>
                        </g>
                        <g transform="matrix(2.70581,0,0,2.70581,-132.485347,517.090077)">
                            <path d="M97.85,75.034C97.959,74.888 98.295,74.528 98.444,74.38C98.592,74.231 98.86,73.963 99.009,73.933C99.157,73.904 99.395,73.963 99.395,74.141C99.395,74.32 99.157,74.439 98.995,74.544C98.832,74.647 98.387,74.871 98.223,74.944C98.058,75.019 97.984,75.034 97.909,75.079C97.836,75.122 97.806,75.093 97.85,75.034Z" style="fill:rgb(35,31,32);"/>
                        </g>
                        <g transform="matrix(2.70581,0,0,2.70581,-132.485347,517.090077)">
                            <path d="M96.631,78.022C96.988,78.052 97.374,78.052 97.539,78.036C97.701,78.022 97.939,78.022 97.969,78.201C97.998,78.379 98.028,78.706 97.925,78.75C97.82,78.795 97.761,78.928 97.569,78.75C97.374,78.572 97.153,78.468 97.018,78.393C96.885,78.32 96.721,78.215 96.631,78.022Z" style="fill:rgb(35,31,32);"/>
                        </g>
                        <g transform="matrix(2.70581,0,0,2.70581,-132.485347,517.090077)">
                            <path d="M90.801,86.733C90.021,86.688 89.107,87.09 88.705,87.469C88.305,87.847 87.836,88.671 87.924,89.207C88.327,89.052 88.794,88.806 89.463,89.766C89.82,89.431 90.577,88.671 91.38,89.298C91.692,88.828 91.96,87.958 93.609,88.115C93.832,87.268 94.011,86.131 95.904,86.353C95.926,85.774 96.261,85.061 96.907,84.836C96.729,84.415 96.44,84.034 96.239,83.79C95.191,84.369 94.545,84.86 94.189,85.082C93.832,85.306 93.252,85.774 92.917,85.974C92.628,86.688 92.443,87.328 91.826,87.869C91.647,88.025 91.207,88.428 90.561,88.182C90.718,87.736 90.756,87.291 90.801,86.733Z" style="fill:white;"/>
                        </g>
                        <g transform="matrix(2.70581,0,0,2.70581,-132.485347,517.090077)">
                            <path d="M91.395,90.19C91.246,89.744 90.666,89.409 90.021,90.077C90.555,90.123 91.039,90.145 91.395,90.19Z" style="fill:white;"/>
                        </g>
                        <g transform="matrix(2.70581,0,0,2.70581,-132.485347,517.090077)">
                            <path d="M99.136,78.081C100.384,78.104 103.971,79.552 103.971,83.566C103.971,87.613 102.529,90.203 100.562,92.596C98.914,94.604 94.856,96.633 95.08,101.137C93.052,100.713 91.893,100.382 89.953,100.801C89.44,100.914 88.572,101.317 88.192,101.628C87.948,101.828 87.881,102.007 88.305,101.717C88.709,101.44 89.664,101.103 90.712,101.004C91.18,100.958 91.893,101.07 92.56,101.137C93.23,101.204 94.7,101.539 95.348,101.65C95.994,101.761 96.907,102.007 98.089,101.628C99.27,101.25 100.251,100.801 100.651,100.223C101.053,99.644 100.964,99.42 100.829,98.84C100.697,98.261 100.629,97.426 100.875,97.012C101.165,96.522 101.81,96.12 102.993,96.12C104.174,96.12 108.297,96.098 111.149,95.874C114.002,95.652 114.893,95.585 117.278,94.871C119.664,94.158 122.586,93.07 124.098,92.063C124.9,91.528 125.837,90.88 126.416,90.48C126.996,90.077 127.842,89.163 128.312,88.806C128.779,88.45 129.314,88.16 129.849,88.204C130.384,88.25 130.651,88.517 130.763,88.739C129.982,88.896 128.936,89.163 128.222,90.01C127.509,90.858 127.018,91.528 126.861,93.199C126.707,94.871 126.818,95.72 126.907,96.142C126.996,96.566 127.129,96.901 127.687,97.191C128.245,97.48 128.266,97.369 128.823,97.369C129.382,97.369 130.071,97.86 130.227,98.306C128.936,98.461 127.642,98.685 126.729,99.531C125.816,100.38 125.352,101.382 125.687,103.034C126.022,104.683 126.505,105.174 127.396,105.685C128.288,106.199 129.471,106.801 129.425,108.496C128.423,107.737 127.063,106.756 126.283,106.779C125.502,106.801 124.454,107.269 124.008,107.872C123.563,108.474 123.385,109.187 123.43,110.056C123.474,110.926 123.965,111.685 124.454,112.51C124.946,113.334 125.791,114.672 126.016,115.252C126.237,115.832 126.594,116.277 125.592,118.039C125.302,116.88 125.035,115.788 124.165,115.096C124.165,114.65 124.015,114.262 123.274,113.423C122.071,112.063 120.07,110.504 116.966,108.831C112.375,106.355 109.299,105.591 108.275,105.101C107.248,104.609 106.268,103.858 106.073,103.455C105.925,103.15 105.81,103.305 105.911,103.501C106.268,104.191 106.624,104.793 108.275,105.529C109.923,106.266 112.71,107.202 114.137,107.85C115.563,108.496 118.059,109.856 119.597,110.948C121.134,112.042 122.739,113.134 123.207,114.248C121.647,114.093 120.264,114.026 119.173,114.605C118.081,115.185 117.055,116.144 116.609,117.126C116.163,118.106 116.031,119.088 115.852,119.845C115.674,120.604 115.607,121.383 114.715,122.007C114.715,121.139 114.38,120.715 114.38,120.291C114.38,119.867 114.672,119.377 114.737,118.931C114.804,118.485 114.715,117.215 114.248,116.234C113.778,115.252 113.267,114.807 112.33,114.248C111.395,113.691 110.145,113.41 109.299,113.356C108.943,113.334 107.383,113.712 107.048,113.869C107.205,112.91 107.383,111.639 106.759,110.547C106.135,109.455 104.687,109.187 103.593,109.209C102.502,109.231 101.565,109.699 101.075,110.258C100.584,110.815 100.227,111.796 100.138,112.531C100.049,113.267 100.184,113.847 100.405,114.361C99.692,114.293 99.114,114.048 98.958,113.401C98.801,112.755 98.735,111.685 98.535,110.948C98.333,110.212 97.755,109.075 96.952,108.54C96.15,108.004 95.591,107.826 94.5,107.872C93.408,107.915 92.584,108.361 92.293,108.942C92.004,109.52 91.849,110.102 91.982,110.658C91.58,110.591 90.801,110.234 90.866,109.544C90.934,108.853 91.358,108.183 91.514,107.915C91.669,107.647 91.782,106.823 91.312,105.909C90.845,104.996 89.775,104.348 88.727,104.437C89.173,103.745 89.842,103.122 91.358,103.144C92.691,103.165 93.83,103.608 94.902,104.793C95.324,105.263 96.105,105.953 96.572,106.466C97.196,105.107 98.022,104.08 98.914,103.545C99.805,103.01 101.967,102.453 104.374,103.099C103.706,102.231 103.215,101.582 103.437,101.07C103.661,100.558 104.352,100.223 106.111,100.691C106.024,99.888 105.911,99.064 106.916,98.707C107.918,98.35 110.168,98.663 113.31,98.996C116.455,99.331 119.997,99.399 121.558,99.286C123.117,99.174 124.881,98.845 125.681,98.55C126.105,98.396 125.75,98.388 125.57,98.417C124.322,98.618 121.714,98.859 119.529,98.881C117.346,98.905 115.05,98.639 112.932,98.328C110.814,98.015 108.253,97.726 107.137,98.082C106.024,98.439 105.711,99.085 105.644,99.91C104.598,99.755 103.778,99.765 103.261,100.447C102.902,100.914 102.724,101.36 102.902,102.118C101.053,102.207 99.759,102.385 98.647,102.966C97.531,103.545 96.774,104.482 96.461,105.596C95.392,104.437 93.921,102.498 91.358,102.564C88.794,102.631 88.126,103.991 87.836,104.861C88.973,104.861 90.177,105.039 90.623,105.842C91.068,106.644 91.158,107.112 91.112,107.38C91.068,107.647 90.801,108.34 90.645,108.674C90.488,109.009 90.177,109.877 90.645,110.591C90.266,110.993 89.463,111.483 89.285,111.685C88.572,111.55 87.592,111.423 87.277,111.548C86.871,111.707 86.254,112.398 85.874,112.955C85.496,113.512 85.517,113.802 85.919,113.891C86.32,113.98 86.766,113.847 86.766,114.315C86.766,114.783 86.565,114.872 86.076,115.207C86.989,115.207 87.948,115.364 88.348,115.542C88.75,115.72 88.929,116.077 88.973,116.234C89.018,116.388 89.107,116.545 88.794,116.701C88.483,116.858 88.059,117.369 87.97,117.726C87.881,118.083 87.881,118.664 87.924,119.043C86.989,119.02 86.141,118.931 86.076,119.466C86.009,120.002 86.387,120.269 86.722,120.558C87.057,120.848 87.279,121.094 87.479,121.229C86.967,121.45 86.575,121.825 86.387,122.453C86.32,122.677 86.12,122.588 85.941,122.521C85.763,122.453 85.206,122.164 84.872,122.499C84.537,122.834 84.694,123.68 84.761,124.015C84.002,124.193 83.225,124.572 82.936,124.929C82.312,124.683 81.551,123.926 81.573,122.923C81.595,121.918 81.93,120.826 82.041,120.247C82.153,119.667 82.175,119.153 82.019,118.664C81.773,119.109 81.484,119.689 81.395,120.18C81.305,120.669 81.373,121.74 81.327,122.097C81.284,122.453 81.127,122.81 81.084,122.988C80.37,122.967 79.812,122.988 79.501,123.547C79.122,123.077 78.809,122.656 79.255,121.674C79.701,120.693 80.927,118.707 81.595,117.794C81.262,116.88 81.038,116.434 81.484,115.542C81.238,114.807 81.06,114.45 81.484,113.245C81.908,112.042 81.93,111.394 82.064,110.837C82.197,110.28 83.124,108.276 84.337,106.577C84.448,106.421 84.404,106.333 84.27,106.088C84.136,105.842 84.069,105.374 84.85,104.793C83.602,104.772 82.51,104.972 81.797,105.15C81.084,105.329 79.99,105.442 78.296,106.801C78.118,106.088 77.843,104.819 78.588,103.702C78.988,103.099 80.236,102.52 80.949,102.231C81.662,101.939 82.777,101.607 83.401,101.672C84.026,101.739 84.874,102.134 85.363,102.988C85.452,103.144 85.585,103.59 85.585,103.925C85.585,104.259 85.719,104.259 85.696,103.925C85.607,102.631 85.585,101.896 85.763,100.982C85.941,100.067 86.231,98.84 86.766,98.015C87.3,97.191 88.029,96.414 93.006,93.466C95.191,92.174 96.483,91.504 97.755,90.455C99.025,89.409 100.584,87.803 100.584,86.598C100.584,85.817 99.894,85.283 99.514,84.971C99.649,84.882 99.805,84.726 99.849,84.593C99.314,84.369 98.757,84.236 98.779,83.499C98.801,82.809 99.759,82.452 100.251,82.963C100.384,82.787 100.384,82.296 100.273,82.05C100.162,81.804 99.849,81.336 99.314,80.98C98.779,80.623 98.49,80.155 98.622,79.865C98.757,79.574 99.114,79.552 99.247,79.664C99.382,79.777 99.382,79.574 99.314,79.463C99.247,79.352 98.979,79.152 99.136,78.081Z" style="fill:white;"/>
                        </g>
                        <g transform="matrix(2.70581,0,0,2.70581,-132.485347,517.090077)">
                            <path d="M79.122,111.661C79.412,110.88 79.879,110.19 80.281,109.856C80.719,109.491 81.573,108.964 82.197,108.896C82.71,107.983 83.267,107.091 83.669,106.556C83.556,106.199 83.512,105.863 83.624,105.507C82.397,105.442 81.618,105.555 80.525,105.979C79.433,106.403 78.699,107.226 78.32,107.872C77.94,108.518 77.807,109.187 77.918,109.812C78.029,110.434 78.385,111.282 79.122,111.661Z" style="fill:white;"/>
                        </g>
                        <g transform="matrix(2.70581,0,0,2.70581,-132.485347,517.090077)">
                            <path d="M78.783,102.72C79.772,102.084 81.828,101.099 83.267,101.135C84.158,101.157 84.762,101.472 85.187,101.874C85.232,101.182 85.496,100.29 85.452,100.067C85.407,99.844 85.161,99.131 84.471,98.663C83.78,98.194 82.51,98.171 81.44,98.528C80.37,98.885 79.857,99.286 79.59,99.71C79.323,100.134 78.988,100.893 78.898,101.226C78.809,101.561 78.72,102.322 78.783,102.72Z" style="fill:white;"/>
                        </g>
                        <g transform="matrix(2.70581,0,0,2.70581,-132.485347,517.090077)">
                            <path d="M80.905,98.217C81.862,97.95 83.2,97.703 84.091,98.015C84.983,98.328 85.318,98.663 85.716,99.275C86.094,98.451 86.522,97.615 86.676,97.347C86.833,97.079 87.011,96.923 86.789,96.366C86.565,95.807 86.276,95.385 85.741,95.117C85.206,94.849 84.18,94.939 83.602,95.161C83.021,95.385 82.153,95.987 81.841,96.342C81.53,96.699 80.859,97.48 80.905,98.217Z" style="fill:white;"/>
                        </g>
                        <g transform="matrix(2.70581,0,0,2.70581,-132.485347,517.090077)">
                            <path d="M83.535,94.649C84.27,94.469 85.831,94.38 86.565,94.982C87.3,95.585 87.435,95.807 87.479,96.388C88.216,95.785 89.218,94.939 90.266,94.38C90.153,94.002 89.707,93.49 88.861,93.02C88.014,92.553 86.922,92.663 86.298,92.753C85.674,92.842 84.493,93.199 84.18,93.555C83.869,93.912 83.58,94.247 83.535,94.649Z" style="fill:white;"/>
                        </g>
                        <g transform="matrix(2.70581,0,0,2.70581,-132.485347,517.090077)">
                            <path d="M86.766,91.882C88.148,91.95 90.177,92.307 91.201,93.823C92.025,93.401 93.252,92.709 93.697,92.419C93.743,91.839 93.587,91.393 93.273,91.104C92.963,90.812 92.428,90.658 91.558,90.568C90.688,90.48 90.088,90.301 89.083,90.412C88.081,90.523 87.746,90.812 87.435,91.082C87.122,91.348 86.9,91.593 86.766,91.882Z" style="fill:white;"/>
                        </g>
                        <g transform="matrix(2.70581,0,0,2.70581,-132.485347,517.090077)">
                            <path d="M91.871,90.262C92.717,90.418 93.787,90.412 94.678,91.75C95.48,91.282 96.929,90.408 97.552,89.851C97.442,89.248 96.974,88.671 96.172,88.315C95.096,87.837 94.789,87.803 94.343,87.736C94.211,87.958 94.121,88.271 94.143,88.45C93.386,88.45 92.828,88.428 92.449,88.784C92.071,89.141 91.893,89.452 91.871,89.631C91.849,89.809 91.871,90.083 91.871,90.262Z" style="fill:white;"/>
                        </g>
                        <g transform="matrix(2.70581,0,0,2.70581,-132.485347,517.090077)">
                            <path d="M94.694,87.316C95.942,87.605 96.414,87.77 97.002,88.115C97.382,88.339 97.888,88.902 98.066,89.326C98.422,89.212 98.801,88.874 99.181,88.339C99.56,87.803 100.049,87.201 100.049,86.666C100.049,86.131 99.938,85.774 99.068,85.283C98.647,85.55 98.223,85.93 97.175,85.217C96.707,85.417 96.328,85.842 96.507,86.733C95.57,86.755 94.872,86.935 94.694,87.316Z" style="fill:white;"/>
                        </g>
                        <g transform="matrix(2.70581,0,0,2.70581,-132.485347,517.090077)">
                            <path d="M120.551,93.108C118.794,91.048 116.599,88.806 112.265,88.806C110.058,88.806 105.689,90.307 105.689,93.534C105.689,94.203 105.779,94.939 106.024,95.317C106.2,95.339 106.58,95.45 106.803,95.429C106.535,94.826 106.224,94.225 106.781,93.109C106.602,93.066 106.381,93.087 106.268,93.109C106.446,92.753 106.713,92.62 106.981,92.485C107.248,92.352 107.672,92.15 107.983,92.15C107.337,92.731 107.07,93.334 106.937,93.733C106.803,94.136 106.713,94.961 107.248,95.385C107.516,95.407 107.851,95.429 108.118,95.407C107.894,94.982 107.516,94.582 107.672,93.936C107.829,93.288 108.037,92.86 109.098,92.328C109.59,92.085 109.856,92.039 110.036,92.017C110.212,91.995 110.19,92.107 110.036,92.15C109.879,92.196 109.388,92.531 109.055,92.798C108.72,93.066 108.385,93.555 108.275,94.047C108.164,94.537 108.207,94.961 108.61,95.429C109.055,95.429 109.366,95.429 109.701,95.385C109.523,94.626 109.477,94.336 109.544,94.136C109.656,93.801 109.856,93.623 110.168,93.377C110.482,93.131 111.484,92.419 111.706,92.419C111.929,92.419 112.441,92.733 112.621,92.979L112.576,93.04C112.33,92.84 112.019,92.731 111.884,92.753C111.751,92.775 111.484,92.931 110.949,93.312C110.414,93.69 110.012,93.98 110.012,94.358C110.012,94.739 110.08,95.139 110.146,95.385C110.614,95.361 111.038,95.317 111.373,95.272C111.417,94.871 111.528,94.493 111.841,94.358C111.995,94.293 111.997,94.37 111.908,94.489C111.773,94.667 111.73,94.982 111.795,95.25C112.509,95.25 113.245,95.228 113.846,95.096C113.578,94.693 113.178,94.358 112.643,94.315C112.687,94.18 112.821,94.047 113.222,94.09C113.624,94.136 114.048,94.203 114.47,94.939C115.296,94.871 116.633,94.582 118.392,93.912C117.301,92.62 116.276,91.682 115.206,91.082C114.137,90.48 112.085,89.788 110.058,89.898C110.28,89.699 110.569,89.609 110.881,89.52C111.193,89.431 112.241,89.274 112.954,89.477C113.667,89.677 115.25,90.366 115.896,90.701C116.544,91.036 117.635,91.928 118.148,92.374C118.659,92.82 119.105,93.266 119.351,93.555C119.864,93.401 120.173,93.286 120.551,93.108Z" style="fill:white;"/>
                        </g>
                        <g transform="matrix(2.70581,0,0,2.70581,-132.485347,517.090077)">
                            <path d="M127.47,76.205C125.865,77.007 124.565,77.471 122.338,77.59C120.666,77.679 118.995,76.676 118.103,76.231C117.212,75.785 115.87,75.045 114.803,74.956C115.34,75.428 116.031,76.074 116.187,76.654C116.342,77.234 116.477,77.858 115.89,78.528C116.849,78.861 118.081,79.154 119.061,79.222C120.042,79.289 121.469,79.196 121.958,79.152C122.45,79.106 122.485,79.142 122.047,79.283C121.691,79.396 120.31,79.731 118.705,79.552C117.1,79.374 115.652,78.996 114.158,78.415C112.664,77.836 111.662,77.457 111.417,77.323C111.171,77.19 110.967,77.209 110.236,77.465C109.879,77.59 108.497,78.193 107.983,78.95C107.472,79.709 107.181,80.847 107.718,81.893C108.253,82.942 109.01,83.366 109.477,83.588C109.947,83.812 111.082,84.08 112.554,84.034C111.395,83.612 110.414,83.255 109.856,82.585C109.299,81.917 108.853,81.247 108.964,80.423C109.077,79.598 109.501,78.95 111.417,79.085C113.332,79.218 115.664,79.995 115.785,81.358C115.852,82.117 114.893,82.607 114.337,82.942C113.853,83.231 113.675,83.255 114.113,83.455C114.45,83.608 114.961,83.79 116.142,83.701C117.322,83.612 118.883,83.187 120.51,82.428C122.137,81.671 123.765,80.45 125.035,79.269C126.305,78.088 126.951,77.301 127.47,76.205Z" style="fill:white;"/>
                        </g>
                        <g transform="matrix(2.70581,0,0,2.70581,-132.485347,517.090077)">
                            <path d="M108.534,77.725C107.405,78.587 106.87,79.509 106.811,80.668C106.751,81.828 107.92,83.096 108.542,83.602C109.168,84.107 110.05,84.474 112.041,84.503C114.031,84.533 117.182,84.265 118.935,86.228C120.689,88.19 120.867,89.796 119.619,91.46C118.549,90.39 116.974,89.35 115.696,88.874C115.399,88.279 114.953,87.774 113.467,87.566C111.981,87.357 109.366,87.06 107.732,85.93C106.097,84.801 104.849,83.612 104.849,81.352C104.849,79.568 106.573,77.696 108.534,77.725Z" style="fill:white;"/>
                        </g>
                    </g>
                </g>
            </g>
        </g>
    </g>
</svg>
