<?xml version="1.0" encoding="UTF-8" standalone="no"?>
<!DOCTYPE svg PUBLIC "-//W3C//DTD SVG 1.1//EN" "http://www.w3.org/Graphics/SVG/1.1/DTD/svg11.dtd">
<svg width="100%" height="100%" viewBox="0 0 130 96" version="1.1" xmlns="http://www.w3.org/2000/svg" xmlns:xlink="http://www.w3.org/1999/xlink" xml:space="preserve" xmlns:serif="http://www.serif.com/" style="fill-rule:evenodd;clip-rule:evenodd;stroke-linejoin:round;stroke-miterlimit:2;">
    <g transform="matrix(1,0,0,1,-1282.166184,-412.441914)">
        <g transform="matrix(1,0,0,1,743.25372,-201.547191)">
            <g transform="matrix(0.755672,0,0,0.555189,498.861857,274.213294)">
                <rect x="53" y="612" width="172" height="172" style="fill:rgb(12,85,164);fill-opacity:0;"/>
                <clipPath id="_clip1">
                    <rect x="53" y="612" width="172" height="172"/>
                </clipPath>
                <g clip-path="url(#_clip1)">
                    <g transform="matrix(0.697741,0,0,0.9497,445.851934,7.432764)">
                        <g transform="matrix(2.040995,0,0,2.040995,-759.450504,273.850658)">
                            <path d="M266.614,228.934C263.782,228.934 261.534,226.671 261.534,223.854C261.534,221.052 263.782,218.79 266.614,218.79C269.416,218.79 271.678,221.052 271.678,223.854C271.678,226.671 269.416,228.934 266.614,228.934ZM320.509,228.877C300.357,166.276 237.051,181.094 220.959,188.421C204.896,195.748 177.671,197.021 177.671,197.021C187.425,203.074 206.874,198.43 206.874,198.43C180.922,214.073 162.448,207.869 162.448,207.869C164.291,212.679 161.339,224.935 149.622,224.935C137.919,224.935 136.107,215.631 136.107,215.631C129.453,218.463 122.277,222.119 120.299,213.938C118.321,205.757 110.755,207.749 110.755,207.749C98.078,210.791 97.659,219.691 97.673,221.264C97.823,221.729 99.127,224.56 106.844,225.82C108.687,226.12 111.054,226.509 113.796,226.928C113.796,226.928 161.774,234.584 172.742,241.717C151.03,245.957 124.944,244.578 124.944,244.578L122.771,241.837L121.378,240.593L119.67,242.346L117.153,244.923L114.905,242.121L114.216,241.281L112.687,243.124L110.23,246.031L107.773,243.109L106.304,241.325L102.274,246.689L98.482,242.598C97.793,243.288 97.748,244.427 97.688,244.636C98.183,251.514 110.709,255.604 131.357,255.604C136.751,255.604 140.632,255.304 140.676,255.289L140.931,255.289C150.341,255.289 156.155,256.518 161.743,257.716C166.703,258.765 171.363,259.755 178.36,259.755C180.233,259.755 182.256,259.664 184.369,259.529C197.225,258.63 202.768,253.536 210.44,246.493C209.301,245.804 208.507,244.59 208.507,243.167C208.507,240.98 210.29,239.227 212.448,239.227C214.051,239.227 215.415,240.186 216.029,241.534C216.883,240.785 217.797,240.051 218.711,239.316C217.542,238.627 216.688,237.398 216.688,235.93C216.688,233.757 218.456,231.974 220.629,231.974C222.547,231.974 224.075,233.368 224.45,235.196C225.574,234.447 226.788,233.713 228.031,232.994C227.102,232.275 226.473,231.196 226.473,229.922C226.473,227.749 228.226,225.967 230.413,225.967C232.496,225.967 234.144,227.585 234.294,229.638C239.568,227.195 244.708,225.847 249.652,225.607C247.944,224.798 246.715,223.06 246.715,221.038C246.715,218.235 248.993,215.958 251.795,215.958C254.597,215.958 256.859,218.235 256.859,221.038C256.859,223.15 255.586,224.933 253.773,225.713C261.34,226.327 266.838,229.428 270.27,232.216C270.824,230.643 272.308,229.503 274.061,229.503C276.338,229.503 278.166,231.316 278.166,233.578C278.166,235.482 276.833,237.024 275.05,237.474C277.852,242.584 279.155,247.693 279.14,252.713C281.388,253.177 283.111,255.08 283.111,257.462C283.111,260.19 280.893,262.392 278.166,262.392C277.912,262.392 277.687,262.287 277.447,262.257L277.327,262.662C275.979,265.973 274.001,268.925 271.768,271.697C273.357,272.536 274.465,274.124 274.465,276.027C274.465,278.754 272.233,280.971 269.521,280.971C267.663,280.971 266.149,279.922 265.295,278.424C263.362,280.087 261.37,281.616 259.332,282.994C262.164,283.518 264.351,285.886 264.351,288.852C264.351,292.194 261.624,294.906 258.282,294.906C254.927,294.906 252.215,292.194 252.215,288.852C252.215,288.253 252.394,287.714 252.559,287.174C250.417,288.358 248.379,289.347 246.401,290.261C249.203,291.085 251.301,293.587 251.301,296.644C251.301,300.03 248.783,302.712 245.532,303.221L245.202,303.446C246.281,304.795 247.03,306.443 247.03,308.316C247.03,311.703 244.843,314.519 241.846,315.628C243.599,317.112 244.798,319.239 244.798,321.697C244.798,324.244 243.539,326.416 241.681,327.9L241.906,329.713C244.513,330.612 246.371,332.994 246.371,335.901C246.371,336.395 246.207,336.83 246.102,337.294C248.709,336.26 251.331,335.196 253.788,334.103C251.645,332.694 250.162,330.387 250.162,327.63C250.162,323.27 253.683,319.748 258.043,319.748C262.404,319.748 265.94,323.269 265.94,327.63C265.94,327.839 265.85,328.019 265.82,328.229C270.345,325.787 274.495,323.224 278.436,320.573C278.106,320.618 277.837,320.767 277.492,320.767C273.446,320.767 270.165,317.486 270.165,313.44C270.165,309.395 273.446,306.098 277.492,306.098C281.568,306.098 284.834,309.395 284.834,313.44C284.834,314.579 284.534,315.628 284.055,316.602C318.457,290.695 326.683,257.192 320.51,228.873" style="fill:rgb(253,211,38);fill-rule:nonzero;"/>
                        </g>
                        <g transform="matrix(2.040995,0,0,2.040995,-759.450504,273.850658)">
                            <path d="M121.938,206.985C128.71,200.407 129.325,199.238 132.022,196.496C133.041,195.463 133.985,194.474 135.093,193.605C135.753,193.095 136.397,192.541 137.116,191.956C138.989,190.398 141.117,188.63 143.829,186.937C143.829,186.937 140.877,192.915 141.147,196.871C141.147,196.871 156.805,186.442 170.62,186.173C184.434,185.873 195.987,186.727 219.136,179.115C242.256,171.489 319.242,154.303 330.24,237.911C330.24,237.911 316.694,177.407 262.274,176.433C230.689,175.879 218.282,185.738 198.549,189.124C178.816,192.526 170.215,191.807 165.705,193.215C165.705,193.215 167.803,193.215 173.736,201.396C173.736,201.396 161.03,196.871 150.736,203.074C140.458,209.277 141.716,212.679 129.744,212.948C129.744,212.948 131.003,208.154 132.127,204.213L121.938,206.985Z" style="fill:rgb(144,200,77);fill-rule:nonzero;"/>
                        </g>
                        <g transform="matrix(2.040995,0,0,2.040995,-759.450504,273.850658)">
                            <path d="M218.942,214.784C218.942,217.286 216.919,219.294 214.431,219.294C211.929,219.294 209.921,217.286 209.921,214.784C209.921,212.297 211.929,210.274 214.431,210.274C216.919,210.274 218.942,212.297 218.942,214.784Z" style="fill:rgb(0,20,153);fill-rule:nonzero;"/>
                        </g>
                        <g transform="matrix(2.040995,0,0,2.040995,-759.450504,273.850658)">
                            <path d="M209.728,206.903C209.728,209.39 207.705,211.398 205.218,211.398C202.716,211.398 200.708,209.39 200.708,206.903C200.708,204.4 202.716,202.378 205.218,202.378C207.705,202.378 209.728,204.4 209.728,206.903Z" style="fill:rgb(0,20,153);fill-rule:nonzero;"/>
                        </g>
                        <g transform="matrix(2.040995,0,0,2.040995,-759.450504,273.850658)">
                            <path d="M198.161,211.208C198.161,212.707 196.962,213.935 195.434,213.935C193.935,213.935 192.707,212.707 192.707,211.208C192.707,209.71 193.935,208.496 195.434,208.496C196.962,208.496 198.161,209.71 198.161,211.208Z" style="fill:rgb(0,20,153);fill-rule:nonzero;"/>
                        </g>
                        <g transform="matrix(2.040995,0,0,2.040995,-759.450504,273.850658)">
                            <path d="M208.147,217.89C208.147,220.062 206.364,221.83 204.192,221.83C202.004,221.83 200.236,220.062 200.236,217.89C200.236,215.702 202.004,213.949 204.192,213.949C206.364,213.949 208.147,215.702 208.147,217.89Z" style="fill:rgb(0,20,153);fill-rule:nonzero;"/>
                        </g>
                        <g transform="matrix(2.040995,0,0,2.040995,-759.450504,273.850658)">
                            <path d="M218.659,226.821C218.659,229.009 216.905,230.762 214.718,230.762C212.53,230.762 210.762,229.009 210.762,226.821C210.762,224.633 212.53,222.865 214.718,222.865C216.905,222.865 218.659,224.633 218.659,226.821Z" style="fill:rgb(0,20,153);fill-rule:nonzero;"/>
                        </g>
                        <g transform="matrix(2.040995,0,0,2.040995,-759.450504,273.850658)">
                            <path d="M211.426,234.896C211.426,237.084 209.658,238.837 207.485,238.837C205.282,238.837 203.529,237.084 203.529,234.896C203.529,232.724 205.282,230.956 207.485,230.956C209.658,230.956 211.426,232.724 211.426,234.896Z" style="fill:rgb(0,20,153);fill-rule:nonzero;"/>
                        </g>
                        <g transform="matrix(2.040995,0,0,2.040995,-759.450504,273.850658)">
                            <path d="M204,227.566C204,229.754 202.232,231.507 200.059,231.507C197.872,231.507 196.104,229.754 196.104,227.566C196.104,225.379 197.872,223.626 200.059,223.626C202.232,223.626 204,225.379 204,227.566Z" style="fill:rgb(0,20,153);fill-rule:nonzero;"/>
                        </g>
                        <g transform="matrix(2.040995,0,0,2.040995,-759.450504,273.850658)">
                            <path d="M197.332,220.236C197.332,222.424 195.564,224.192 193.377,224.192C191.204,224.192 189.436,222.424 189.436,220.236C189.436,218.049 191.204,216.296 193.377,216.296C195.564,216.296 197.332,218.049 197.332,220.236Z" style="fill:rgb(0,20,153);fill-rule:nonzero;"/>
                        </g>
                        <g transform="matrix(2.040995,0,0,2.040995,-759.450504,273.850658)">
                            <path d="M193.108,228.795C193.108,230.982 191.325,232.735 189.153,232.735C186.965,232.735 185.182,230.982 185.182,228.795C185.182,226.607 186.965,224.854 189.153,224.854C191.325,224.854 193.108,226.607 193.108,228.795Z" style="fill:rgb(0,20,153);fill-rule:nonzero;"/>
                        </g>
                        <g transform="matrix(2.040995,0,0,2.040995,-759.450504,273.850658)">
                            <path d="M201.453,237.256C201.453,239.443 199.7,241.196 197.512,241.196C195.325,241.196 193.556,239.443 193.556,237.256C193.556,235.068 195.325,233.3 197.512,233.3C199.7,233.3 201.453,235.068 201.453,237.256Z" style="fill:rgb(0,20,153);fill-rule:nonzero;"/>
                        </g>
                        <g transform="matrix(2.040995,0,0,2.040995,-759.450504,273.850658)">
                            <path d="M206.167,247.969C206.167,250.157 204.398,251.91 202.196,251.91C200.023,251.91 198.255,250.157 198.255,247.969C198.255,245.782 200.023,244.014 202.196,244.014C204.398,244.014 206.167,245.782 206.167,247.969Z" style="fill:rgb(0,20,153);fill-rule:nonzero;"/>
                        </g>
                        <g transform="matrix(2.040995,0,0,2.040995,-759.450504,273.850658)">
                            <path d="M193.191,245.346C193.191,247.308 191.588,248.912 189.61,248.912C187.647,248.912 186.044,247.308 186.044,245.346C186.044,243.368 187.647,241.75 189.61,241.75C191.588,241.75 193.191,243.368 193.191,245.346Z" style="fill:rgb(0,20,153);fill-rule:nonzero;"/>
                        </g>
                        <g transform="matrix(2.040995,0,0,2.040995,-759.450504,273.850658)">
                            <path d="M224.58,200.967C224.58,204.503 221.718,207.365 218.182,207.365C214.646,207.365 211.799,204.503 211.799,200.967C211.799,197.431 214.646,194.569 218.182,194.569C221.718,194.569 224.58,197.431 224.58,200.967Z" style="fill:rgb(0,20,153);fill-rule:nonzero;"/>
                        </g>
                        <g transform="matrix(2.040995,0,0,2.040995,-759.450504,273.850658)">
                            <path d="M156.06,211.306C156.06,215.262 152.853,218.453 148.913,218.453C146.216,218.453 143.878,216.97 142.68,214.767C141.826,215.277 140.926,215.726 139.968,216.116C141.676,219.292 145.047,221.465 148.913,221.465C154.532,221.465 159.057,216.925 159.057,211.306C159.057,209.133 158.367,207.111 157.199,205.448C156.18,205.777 155.206,206.152 154.277,206.601C155.386,207.86 156.06,209.493 156.06,211.306Z" style="fill:white;fill-rule:nonzero;"/>
                        </g>
                        <g transform="matrix(2.040995,0,0,2.040995,-759.450504,273.850658)">
                            <path d="M111.544,216.716C111.544,216.716 109.461,213.975 105.161,216.117C100.89,218.246 103.408,224.478 107.993,220.598C109.626,218.859 108.592,217.511 111.544,216.717" style="fill:rgb(5,37,124);fill-rule:nonzero;"/>
                        </g>
                    </g>
                </g>
            </g>
        </g>
    </g>
</svg>
