<?xml version="1.0" encoding="UTF-8" standalone="no"?>
<!DOCTYPE svg PUBLIC "-//W3C//DTD SVG 1.1//EN" "http://www.w3.org/Graphics/SVG/1.1/DTD/svg11.dtd">
<svg width="100%" height="100%" viewBox="0 0 130 96" version="1.1" xmlns="http://www.w3.org/2000/svg" xmlns:xlink="http://www.w3.org/1999/xlink" xml:space="preserve" xmlns:serif="http://www.serif.com/" style="fill-rule:evenodd;clip-rule:evenodd;stroke-linejoin:round;stroke-miterlimit:2;">
    <g transform="matrix(1,0,0,1,-1282.244299,-863.855403)">
        <g transform="matrix(1,0,0,1,743.25372,249.866298)">
            <g transform="matrix(0.755536,0,0,0.555089,498.947183,274.274476)">
                <rect x="53" y="612" width="172" height="172" style="fill:rgb(12,85,164);fill-opacity:0;"/>
                <clipPath id="_clip1">
                    <rect x="53" y="612" width="172" height="172"/>
                </clipPath>
                <g clip-path="url(#_clip1)">
                    <g transform="matrix(0.048196,0,0,0.0656,132.709958,746.349649)">
                        <g transform="matrix(1,0,0,1,-1733,-2048)">
                            <g transform="matrix(2,0,0,2,0,0)">
                                <path d="M979.5,460.5C953.636,451.601 927.803,442.601 902,433.5C894.461,438.185 886.628,442.185 878.5,445.5C867.039,436.539 858.872,425.206 854,411.5C851.239,398.439 852.406,385.772 857.5,373.5C816.003,378.951 774.336,380.784 732.5,379C715.071,377.821 697.738,375.821 680.5,373C648.816,367.108 617.149,361.108 585.5,355C564.849,351.56 544.516,351.227 524.5,354C506.454,356.1 491.954,364.267 481,378.5C474.159,393.97 476.492,407.97 488,420.5C505.39,436.083 525.89,444.249 549.5,445C581.478,443.771 613.478,443.437 645.5,444C682.419,445.476 716.752,455.476 748.5,474C761.581,482.913 773.248,493.413 783.5,505.5C760.151,523.001 737.485,541.501 715.5,561C604.917,660.632 538.083,784.465 515,932.5C510.952,959.664 508.118,986.664 506.5,1013.5C449.482,1040.2 389.482,1053.04 326.5,1052C225.088,1044.22 152.921,994.384 110,902.5C73.357,814.831 73.357,727.165 110,639.5C115.157,628.516 120.824,617.85 127,607.5C133.593,648.95 148.26,687.283 171,722.5C209.167,776.23 260.667,796.397 325.5,783C358.27,772.215 372.103,749.715 367,715.5C360.119,690.065 347.786,667.731 330,648.5C311.983,629.473 292.483,612.306 271.5,597C240.167,577 208.833,557 177.5,537C134.994,508.619 97.161,474.786 64,435.5C15.165,371.345 -0.502,299.679 17,220.5C36.794,149.713 78.627,96.213 142.5,60C188.955,34.633 238.622,19.633 291.5,15C374.934,4.342 456.934,11.008 537.5,35C553.896,40.132 570.229,45.465 586.5,51C639.611,71.389 692.611,92.056 745.5,113C779.846,122.78 814.846,128.78 850.5,131C912.668,134.325 974.668,132.325 1036.5,125C1070.95,121.174 1105.28,116.508 1139.5,111C1198.17,101 1256.83,91 1315.5,81C1363.01,73.241 1410.67,71.907 1458.5,77C1512.25,83.556 1559.59,104.223 1600.5,139C1635.48,173.47 1655.65,215.303 1661,264.5C1668.38,327.985 1653.71,385.651 1617,437.5C1585.26,477.137 1544.09,500.97 1493.5,509C1455.93,514.223 1418.26,514.889 1380.5,511C1309.27,502.688 1239.27,488.354 1170.5,468C1114.06,451.187 1057.39,435.187 1000.5,420C991.88,418.536 983.213,418.202 974.5,419C958.821,424.193 955.654,433.693 965,447.5C969.432,452.44 974.265,456.773 979.5,460.5ZM857.5,373.5C852.406,385.772 851.239,398.439 854,411.5C858.872,425.206 867.039,436.539 878.5,445.5C845.788,463.885 814.122,483.885 783.5,505.5C773.248,493.413 761.581,482.913 748.5,474C716.752,455.476 682.419,445.476 645.5,444C613.478,443.437 581.478,443.771 549.5,445C525.89,444.249 505.39,436.083 488,420.5C476.492,407.97 474.159,393.97 481,378.5C491.954,364.267 506.454,356.1 524.5,354C544.516,351.227 564.849,351.56 585.5,355C617.149,361.108 648.816,367.108 680.5,373C697.738,375.821 715.071,377.821 732.5,379C774.336,380.784 816.003,378.951 857.5,373.5Z" style="fill:rgb(233,41,39);fill-opacity:1;"/>
                            </g>
                            <g transform="matrix(2,0,0,2,0,0)">
                                <path d="M330.5,49.5C340.172,49.334 349.839,49.5 359.5,50C283.358,55.233 217.025,83.234 160.5,134C122.712,169.491 100.212,212.991 93,264.5C88.929,298.206 95.596,329.539 113,358.5C133.671,388.507 158.504,414.674 187.5,437C226.943,466.442 266.943,495.109 307.5,523C342.39,547.547 373.89,576.047 402,608.5C429.381,641.462 443.881,679.462 445.5,722.5C441.338,791.828 404.505,828.161 335,831.5C332.167,831.333 329.333,831.167 326.5,831C392.291,817.529 421.458,777.362 414,710.5C409.951,687.602 401.951,666.269 390,646.5C375,625.494 357.833,606.327 338.5,589C324.454,577.286 310.121,565.952 295.5,555C251.817,525.159 208.484,494.826 165.5,464C145.745,448.247 127.245,431.08 110,412.5C61.506,356.389 47.839,292.389 69,220.5C86.35,165.28 120.184,123.446 170.5,95C220.603,68.128 273.936,52.961 330.5,49.5Z" style="fill:rgb(254,253,252);"/>
                            </g>
                            <g transform="matrix(2,0,0,2,0,0)">
                                <path d="M1281.5,451.5C1283.61,450.532 1285.94,450.198 1288.5,450.5C1346.5,452.289 1404.16,448.789 1461.5,440C1489.04,435.375 1515.71,427.708 1541.5,417C1563.64,407.866 1582.14,394.033 1597,375.5C1602.08,367.343 1606.08,358.676 1609,349.5C1607.9,381.526 1594.74,407.359 1569.5,427C1546.58,442.872 1521.41,453.706 1494,459.5C1422.61,471.932 1351.78,469.265 1281.5,451.5Z" style="fill:rgb(254,252,252);"/>
                            </g>
                            <g transform="matrix(2,0,0,2,0,0)">
                                <path d="M979.5,460.5C1119.77,506.093 1242.44,579.926 1347.5,682C1410.36,745.511 1466.03,814.511 1514.5,889C1582.32,886.515 1650.15,883.682 1718,880.5C1720.17,880.833 1722.33,881.167 1724.5,881.5C1666.18,949.975 1612.68,1021.97 1564,1097.5C1522.23,1165.05 1489.06,1236.72 1464.5,1312.5C1463.64,1313.58 1462.64,1313.75 1461.5,1313C1439.83,1303.5 1418.17,1294 1396.5,1284.5C1372.64,1349.57 1350.48,1415.24 1330,1481.5C1317.67,1525.96 1307.84,1570.96 1300.5,1616.5C1332,1636.42 1363.67,1656.08 1395.5,1675.5C1363.51,1676.67 1331.51,1676.83 1299.5,1676C1258.5,1651.16 1217.16,1626.83 1175.5,1603C1077.62,1550.24 974.623,1510.57 866.5,1484C761.95,1458.64 656.617,1454.64 550.5,1472C499.076,1481.64 449.41,1496.81 401.5,1517.5C461.416,1466.73 500.25,1402.73 518,1325.5C521.232,1306.96 522.232,1288.29 521,1269.5C511.085,1201.85 505.585,1133.85 504.5,1065.5C504.65,1048.11 505.317,1030.78 506.5,1013.5C508.118,986.664 510.952,959.664 515,932.5C538.083,784.465 604.917,660.632 715.5,561C737.485,541.501 760.151,523.001 783.5,505.5C814.122,483.885 845.788,463.885 878.5,445.5C886.628,442.185 894.461,438.185 902,433.5C927.803,442.601 953.636,451.601 979.5,460.5Z" style="fill:rgb(30,25,26);fill-opacity:1;"/>
                            </g>
                            <g transform="matrix(2,0,0,2,0,0)">
                                <path d="M1288.5,450.5C1285.94,450.198 1283.61,450.532 1281.5,451.5C1280.23,450.91 1278.9,450.41 1277.5,450C1281.36,449.19 1285.02,449.357 1288.5,450.5Z" style="fill:rgb(244,164,163);"/>
                            </g>
                            <g transform="matrix(2,0,0,2,0,0)">
                                <path d="M1050.5,893.5C1046.7,894.483 1042.7,894.817 1038.5,894.5C1003.07,893.493 967.734,891.16 932.5,887.5C933.491,903.25 931.491,918.584 926.5,933.5C1033.71,940.457 1141.05,945.29 1248.5,948C1353.16,951.478 1457.83,952.145 1562.5,950C1539.04,981.737 1518.2,1015.24 1500,1050.5C1469.62,1107.93 1441.95,1166.59 1417,1226.5C1416.36,1228.81 1415.03,1230.48 1413,1231.5C1334.71,1208.47 1255.54,1188.97 1175.5,1173C1090.65,1155.19 1005.32,1140.19 919.5,1128C909.054,1079.83 896.054,1032.33 880.5,985.5C860.698,995.815 839.698,999.815 817.5,997.5C836.013,1055.53 851.347,1114.37 863.5,1174C989.851,1191.32 1104.85,1236.66 1208.5,1310C1223.33,1320.83 1238.17,1331.67 1253,1342.5C1253.67,1343.5 1253.67,1344.5 1253,1345.5C1215.67,1406.17 1178.33,1466.83 1141,1527.5C1069.99,1490.75 997.16,1457.92 922.5,1429C691.313,1231.44 639.813,994.269 768,717.5C796.029,660.511 828.529,606.345 865.5,555C786.316,623.545 724.482,705.378 680,800.5C636.639,899.674 619.972,1003.34 630,1111.5C637.535,1190.64 654.702,1267.64 681.5,1342.5C678.861,1343.36 676.194,1343.19 673.5,1342C654.777,1336.26 636.11,1330.43 617.5,1324.5C591.659,1241.46 576.159,1156.46 571,1069.5C559.72,834.309 649.886,649.809 841.5,516C864.911,500.259 889.078,485.759 914,472.5C1048.95,523.504 1169.78,596.671 1276.5,692C1336.52,747.015 1387.36,809.182 1429,878.5C1432.48,885.469 1435.98,892.469 1439.5,899.5C1422.49,900.748 1405.49,900.581 1388.5,899C1377.67,883.5 1366.83,868 1356,852.5C1355.02,850.68 1353.52,849.513 1351.5,849C1232.16,832.999 1112.82,817.333 993.5,802C1012.64,832.444 1031.64,862.944 1050.5,893.5Z" style="fill:rgb(254,254,254);"/>
                            </g>
                            <g transform="matrix(2,0,0,2,0,0)">
                                <path d="M827.5,832.5C869.757,833.109 893.757,854.275 899.5,896C896.966,937.868 874.799,960.701 833,964.5C792.472,960.471 770.638,938.138 767.5,897.5C770.957,860.382 790.957,838.715 827.5,832.5Z" style="fill:rgb(30,25,26);"/>
                            </g>
                            <g transform="matrix(2,0,0,2,0,0)">
                                <path d="M1050.5,893.5C1051.04,893.56 1051.38,893.893 1051.5,894.5C1047.02,895.811 1042.68,895.811 1038.5,894.5C1042.7,894.817 1046.7,894.483 1050.5,893.5Z" style="fill:rgb(132,130,131);"/>
                            </g>
                            <g transform="matrix(2,0,0,2,0,0)">
                                <path d="M1265.5,988.5C1282.17,988.958 1298.83,989.458 1315.5,990C1289.21,1042.09 1263.04,1094.26 1237,1146.5C1234.6,1147.6 1232.1,1147.77 1229.5,1147C1216.38,1144.4 1203.38,1141.4 1190.5,1138C1215.64,1088.22 1240.64,1038.38 1265.5,988.5Z" style="fill:rgb(30,25,26);"/>
                            </g>
                            <g transform="matrix(2,0,0,2,0,0)">
                                <path d="M1384.5,990.5C1389.83,991.167 1395.17,991.833 1400.5,992.5C1372.37,1050.09 1343.71,1107.42 1314.5,1164.5C1313.83,1164.83 1313.17,1165.17 1312.5,1165.5C1297.64,1162.53 1282.98,1159.03 1268.5,1155C1295.96,1100.58 1323.29,1046.08 1350.5,991.5C1361.81,990.501 1373.15,990.168 1384.5,990.5Z" style="fill:rgb(30,25,26);"/>
                            </g>
                            <g transform="matrix(2,0,0,2,0,0)">
                                <path d="M1384.5,990.5C1390.21,990.171 1395.87,990.505 1401.5,991.5C1401.38,992.107 1401.04,992.44 1400.5,992.5C1395.17,991.833 1389.83,991.167 1384.5,990.5Z" style="fill:rgb(127,125,126);"/>
                            </g>
                            <g transform="matrix(2,0,0,2,0,0)">
                                <path d="M1436.5,991.5C1453.51,991.167 1470.51,991.501 1487.5,992.5C1455.57,1056.69 1423.41,1120.69 1391,1184.5C1390.28,1185.06 1389.44,1185.39 1388.5,1185.5C1374.49,1181.83 1360.49,1178.16 1346.5,1174.5C1376.22,1113.39 1406.22,1052.39 1436.5,991.5Z" style="fill:rgb(30,25,26);"/>
                            </g>
                        </g>
                    </g>
                </g>
            </g>
        </g>
    </g>
</svg>
