<?xml version="1.0" encoding="UTF-8" standalone="no"?>
<!DOCTYPE svg PUBLIC "-//W3C//DTD SVG 1.1//EN" "http://www.w3.org/Graphics/SVG/1.1/DTD/svg11.dtd">
<svg width="100%" height="100%" viewBox="0 0 129 95" version="1.1" xmlns="http://www.w3.org/2000/svg" xmlns:xlink="http://www.w3.org/1999/xlink" xml:space="preserve" xmlns:serif="http://www.serif.com/" style="fill-rule:evenodd;clip-rule:evenodd;stroke-linejoin:round;stroke-miterlimit:2;">
    <g transform="matrix(1,0,0,1,-797.131629,-1023.172498)">
        <g transform="matrix(0.979914,0,0,0.979914,744.196186,634.874323)">
            <g transform="matrix(0.763217,0,0,0.560733,13.569979,53.088878)">
                <rect x="53" y="612" width="172" height="172" style="fill:rgb(12,85,164);fill-opacity:0;"/>
                <clipPath id="_clip1">
                    <rect x="53" y="612" width="172" height="172"/>
                </clipPath>
                <g clip-path="url(#_clip1)">
                    <g transform="matrix(0.74957,0,0,1.020245,91.414493,646.351263)">
                        <g transform="matrix(1,0,0,1,-180,-197)">
                            <g id="layer1" transform="matrix(2,0,0,2,-694.59002,-788.48596)">
                                <g id="g37250" transform="matrix(0.829547,0,0,0.829547,61.613237,98.363079)">
                                    <path id="path2898" d="M556.011,372.659L533.765,372.663C532.855,372.663 531.742,372.813 531.692,372.822C525.611,373.577 522.546,377.001 519.801,382.277C518.125,381.422 516.231,380.959 514.125,380.959L388.393,380.959C384.989,372.805 378.654,372.78 375.205,372.78L347.295,372.78L347.295,414.816L348.726,414.816L348.726,436.453L347.295,436.453L347.295,478.481C347.295,478.481 359.886,478.41 368.052,478.41C367.819,478.873 367.302,479.799 367.302,479.799C367.343,479.808 376.202,481.275 381.44,482.339L381.44,488.499C380.781,490.797 380.431,492.874 380.293,493.808C378.049,494.888 368.194,499.718 364.132,503.134C364.149,503.121 360.07,506.391 360.07,506.391L356.233,509.498C357.755,508.918 366.714,506.087 370.776,504.839C366.43,507.671 361.579,511.504 357.092,516.559L353.53,520.204L362.472,515.946C371.581,511.625 376.869,509.94 379.643,509.281C375.622,513.681 373.353,517.598 369.512,524.846L367.051,529.108C367.114,529.058 376.823,521.134 382.228,517.364C385.869,533.333 401.518,556.639 412.666,565.948C412.666,565.948 413.15,566.34 413.391,566.54C413.487,566.778 413.596,567.049 413.612,567.099C414.159,568.538 416.874,572.896 416.991,573.063C420.928,578.739 425.345,582.343 425.532,582.493L426.821,583.535C426.821,583.535 427.192,581.167 427.313,580.432C434.528,584.566 449.789,591.197 453.079,591.243C455.932,591.285 472.352,583.152 477.461,580.416C477.49,580.783 477.503,581.15 477.507,581.404C477.519,582.017 477.536,582.505 478.07,582.776L478.508,582.997L478.95,582.776C479.972,582.255 485.039,577.901 488.884,573.271C489.351,572.708 491.983,568.459 492.496,567.124C492.496,567.12 492.617,566.815 492.709,566.582C492.959,566.382 493.489,565.948 493.489,565.948C504.691,556.597 520.348,533.25 523.943,517.276C529.294,521.143 538.678,529.033 538.74,529.088L536.813,525.167C533.364,518.327 531.1,514.311 527.129,510.069C535.8,512.622 547.107,517.506 547.236,517.56L550.585,519.011L548.379,516.104C544.984,511.642 540.008,507.826 535.537,504.956C539.758,506.287 543.858,507.642 543.929,507.663L547.09,508.706L544.967,506.145C539.387,499.413 528.097,494.605 525.524,493.57C525.432,492.828 525.257,491.514 525.04,490.534C525.04,490.534 524.794,489.517 524.714,489.212L524.714,482.251C529.29,481.254 539.349,479.332 539.416,479.323L540.325,478.481C549.705,478.481 552.712,472.805 555.665,465.385C558.864,457.302 558.864,454.366 558.864,446.53C558.855,444.194 558.776,425.151 557.896,419.362L558.355,419.362L556.937,372.659L556.011,372.659L556.011,372.659Z" style="fill:white;fill-rule:nonzero;"/>
                                    <path id="path2902" d="M556.829,418.481L557.463,418.481L556.104,373.688L533.857,373.692C533.006,373.692 531.918,373.842 531.918,373.842C526.079,374.568 523.218,377.742 520.294,383.648C518.572,382.551 516.537,381.992 514.222,381.992L387.86,381.992C384.907,374.205 379.381,373.813 375.302,373.813L348.347,373.813L348.347,413.935L349.777,413.935L349.777,437.482L348.347,437.482L348.347,477.604L380.04,477.604L380.04,474.455C380.04,474.455 380.89,473.804 382.492,472.724L382.492,478.317C378.993,478.438 375.531,478.947 372.111,479.839C372.111,479.839 376.795,480.44 382.492,481.637L382.492,488.702C381.595,491.78 381.262,494.524 381.262,494.524C381.245,494.533 369.317,500.175 364.842,503.942L360.763,507.216C363.39,506.215 373.892,502.882 378.15,501.81C373.183,504.313 365.1,509.167 357.902,517.271L362.139,515.161C377.925,507.678 382.375,507.979 382.375,507.979C377.016,513.342 374.697,517.363 370.451,525.366C370.451,525.366 377.133,519.773 382.938,515.857C385.766,530.88 401.414,555.303 413.376,565.288C413.672,565.538 413.98,565.784 414.285,566.03C414.427,566.435 414.543,566.71 414.593,566.814C415.061,568.078 417.705,572.353 417.872,572.595C421.775,578.221 426.23,581.824 426.23,581.824L426.68,578.967C433.307,583.055 450.09,590.316 453.189,590.362C455.854,590.403 474.434,581.236 478.238,579.022C478.663,580.085 478.5,582.074 478.609,581.999C479.422,581.587 484.389,577.374 488.243,572.736C488.668,572.219 491.233,568.074 491.7,566.852C491.73,566.785 491.855,566.51 492.009,566.076C492.33,565.813 492.655,565.55 492.972,565.288C504.967,555.274 520.661,530.746 523.426,515.74C529.136,519.732 536.051,525.675 536.051,525.675C531.822,517.275 529.491,513.396 524.044,508.312C532.969,510.373 547.708,516.758 547.708,516.758C541.218,508.216 528.606,502.094 528.148,501.819C532.406,502.891 544.321,506.828 544.321,506.828C538.228,499.479 524.732,494.324 524.732,494.324C524.732,494.324 524.503,492.185 524.202,490.817C524.102,490.362 523.981,489.886 523.852,489.403L523.852,481.558C528.552,480.498 535.413,479.339 535.413,479.339C532.456,478.355 528.323,477.892 523.852,477.95L523.852,477.604L540.418,477.604C549.214,477.604 551.958,472.424 554.873,465.109C558.001,457.193 558.001,454.311 558.001,446.604C558.001,446.604 557.934,421.897 556.829,418.481" style="fill:rgb(0,125,145);fill-rule:nonzero;"/>
                                    <path id="path2942" d="M547.662,413.705C547.662,413.705 547.604,413.672 545.352,412.237L552.104,412.237L551.065,377.863L533.895,377.867C529.107,378.071 527.384,379.61 524.186,386.55C522.805,389.574 522.008,391.776 521.541,393.582C519.56,388.573 518.272,386.162 514.23,386.162L385.078,386.162L385.019,387.301C381.937,380.427 380.769,377.983 375.31,377.983L353.556,377.983L353.556,407.691L354.991,407.691L354.991,441.653L353.556,441.653L353.556,471.36L374.843,471.36L374.843,441.653L372.945,441.653L372.945,440.506L375.948,440.502C378.196,440.393 379.673,440.143 380.999,438.812L380.999,466.906C380.999,466.906 384.002,464.721 389.453,461.743C389.903,462.122 390.383,462.502 390.883,462.885L390.883,477.625C390.17,478.133 389.54,478.684 389.069,479.309C383.213,478.73 380.161,479.084 377.133,479.522C380.59,480.127 383.981,480.782 387.326,481.537C383.247,486.529 382.809,494.645 382.809,494.645C379.11,496.53 370.518,500.626 366.143,504.283C370.059,502.799 379.201,500.35 383.364,499.541C377.633,503.583 371.761,506.039 361.872,514.305C372.979,507.557 384.773,505.643 384.773,505.643C384.982,506.081 385.532,506.982 385.753,507.399C379.422,513.079 378.125,514.893 374.234,520.924C381.216,514.785 387.91,511.49 387.91,511.49C388.69,512.366 389.949,513.696 391.346,515.089C392.072,518.459 393.619,522.597 395.73,527.03C395.675,527.351 395.646,527.543 395.646,527.543C395.646,527.543 395.734,527.464 395.876,527.334C400.68,537.361 408.246,548.817 415.373,556.237C415.344,556.325 415.319,556.408 415.294,556.479C413.542,561.855 415.67,566.292 415.67,566.292C415.995,567.264 418.677,571.502 418.989,571.96C420.103,573.587 421.646,575.522 425.813,579.705L426.175,577.42C426.175,577.42 450.924,588.839 453.372,588.801C455.499,588.768 480.014,577.195 480.014,577.195C480.014,577.195 480.139,579.839 480.16,579.826C480.16,579.826 486.504,575.514 490.687,566.814C490.687,566.814 493.189,561.872 491.446,556.5C501.994,545.644 513.588,525.783 515.807,514.727C517.137,513.396 518.322,512.153 519.052,511.332C519.052,511.332 526.546,515.156 532.506,520.933C528.615,514.902 527.318,513.092 520.987,507.407C521.208,506.99 521.821,505.927 522.029,505.484C522.029,505.484 535.738,509.096 544.668,514.122C534.779,505.851 529.107,503.591 523.376,499.554C527.543,500.355 536.681,502.803 540.597,504.296C536.222,500.634 527.426,496.534 523.731,494.645C523.731,494.645 523.51,486.554 519.444,481.582C523.306,480.665 527.234,479.898 531.246,479.193C527.935,478.709 524.582,478.334 517.558,479.172C517.175,478.655 516.703,478.208 516.19,477.791L516.19,463.674C516.653,463.282 517.087,462.89 517.504,462.502C518.86,463.261 520.215,464.036 521.571,464.854L521.762,471.36L540.426,471.36C545.631,471.36 547.153,469.396 550.044,462.143C552.805,455.166 552.805,453.13 552.805,445.569L552.805,429.837C552.846,420.045 552.179,416.741 547.662,413.705" style="fill:rgb(35,31,32);fill-rule:nonzero;"/>
                                    <path id="path2946" d="M515.805,514.727C513.587,525.787 501.996,545.644 491.449,556.5C491.737,557.38 491.899,558.251 491.983,559.086C504.211,547.133 517.799,523.21 518.366,512.082C517.67,512.833 516.777,513.755 515.805,514.727" style="fill:rgb(168,12,48);fill-rule:nonzero;"/>
                                    <path id="path2954" d="M550.761,413.974L553.893,413.974L552.746,376.126L533.811,376.135C527.935,376.385 525.862,378.775 522.609,385.823C522.117,386.903 521.691,387.896 521.32,388.822C519.911,386.282 517.942,384.426 514.23,384.426L385.687,384.426C382.496,377.052 380.82,376.247 375.306,376.247L351.821,376.247L351.821,409.429L353.256,409.429L353.256,439.916L351.821,439.916L351.821,473.098L376.574,473.098L376.574,442.206C377.512,442.148 378.409,442.043 379.264,441.797L379.264,469.878C379.264,469.878 382.63,467.418 388.681,464.119L388.681,479.271C388.81,479.287 388.936,479.3 389.069,479.308C389.54,478.682 390.17,478.136 390.883,477.623L390.883,462.888C390.383,462.504 389.903,462.121 389.453,461.745C384.002,464.723 380.999,466.905 380.999,466.905L380.999,438.811C379.673,440.141 378.196,440.392 375.948,440.504L372.945,440.508L372.945,441.651L374.843,441.651L374.843,471.363L353.556,471.363L353.556,441.651L354.991,441.651L354.991,407.694L353.556,407.694L353.556,377.982L375.306,377.982C380.769,377.982 381.937,380.426 385.015,387.299L385.078,386.161L514.23,386.161C518.271,386.161 519.556,388.575 521.541,393.584C522.013,391.774 522.805,389.576 524.185,386.548C527.384,379.613 529.107,378.07 533.895,377.865L551.065,377.861L552.104,412.24L545.347,412.24C547.604,413.67 547.662,413.708 547.662,413.708C552.179,416.74 552.846,420.047 552.804,429.836L552.804,445.567C552.804,453.129 552.804,455.164 550.043,462.146C547.153,469.399 545.631,471.363 540.426,471.363L521.762,471.363L521.575,464.853C520.211,464.035 518.86,463.259 517.504,462.5C517.091,462.888 516.653,463.28 516.19,463.676L516.19,477.794C516.703,478.207 517.175,478.653 517.558,479.17C517.846,479.137 518.117,479.108 518.397,479.079L518.397,465.044C518.885,465.332 519.377,465.603 519.869,465.899L520.077,473.098L540.426,473.098C546.874,473.098 548.801,469.953 551.653,462.788C554.535,455.498 554.535,453.196 554.535,445.568L554.535,429.836C554.573,421.653 554.202,417.328 550.761,413.975" style="fill:rgb(168,12,48);fill-rule:nonzero;"/>
                                    <path id="path2958" d="M521.347,458.007C521.502,458.082 521.66,458.157 521.815,458.244C521.815,457.894 521.815,457.56 521.819,457.223C521.673,457.481 521.518,457.74 521.347,458.007" style="fill:white;fill-rule:nonzero;"/>
                                    <path id="path2994" d="M478.423,517.913C477.918,521.083 477.372,522.513 476.067,524.911C475.654,525.67 476.721,519.243 474.494,516.295C473.719,515.899 473.168,515.661 472.15,515.273C471.354,514.964 470.324,514.539 469.423,514.447C476.555,524.915 469.385,539.071 470.503,537.957C476.063,532.414 480.096,527.414 481.126,520.002C480.508,519.281 479.628,518.572 478.423,517.913" style="fill:white;fill-rule:nonzero;"/>
                                    <path id="path3002" d="M462.889,535.971C462.585,531.934 462.893,528.339 463.235,525.178C461.721,523.877 459.874,523.093 457.667,523.08C456.596,523.08 455.069,532.76 454.573,534.774C454.352,532.652 452.717,523.08 451.628,523.08C449.389,523.092 447.495,523.877 445.956,525.178C446.39,528.339 446.74,531.934 446.453,535.971C445.969,542.031 444.175,547.224 440.514,550.965C443.308,554.13 447.287,555.932 451.758,555.974C452.763,555.97 456.546,555.97 457.547,555.974C461.988,555.932 465.892,554.13 468.686,550.965C465.154,547.224 463.394,542.031 462.889,535.971" style="fill:rgb(168,12,48);fill-rule:nonzero;"/>
                                    <path id="path3006" d="M429.669,518.319C430.173,521.488 430.715,522.919 432.025,525.317C432.438,526.08 431.37,519.649 433.597,516.705C434.373,516.304 434.919,516.071 435.941,515.679C436.738,515.37 437.764,514.945 438.669,514.853C431.537,525.317 438.706,539.476 437.585,538.363C432.025,532.82 427.992,527.824 426.962,520.408C427.579,519.687 428.463,518.982 429.669,518.319" style="fill:white;fill-rule:nonzero;"/>
                                    <path id="path3010" d="M469.77,563.57C471.313,562.048 472.306,560.513 472.69,557.339C472.732,557.018 470.692,562.498 466.78,561.969C466.359,561.535 466.288,561.372 466.15,560.726C466.054,560.263 466,559.758 466.78,558.436C474.062,556.08 475.1,548.623 475.184,549.507C475.584,553.915 475.15,558.962 472.765,562.69C471.989,563.537 471.009,563.733 469.77,563.57" style="fill:white;fill-rule:nonzero;"/>
                                    <path id="path3014" d="M439.584,563.57C438.045,562.048 437.049,560.513 436.665,557.339C436.623,557.018 438.663,562.498 442.579,561.969C443,561.535 443.063,561.372 443.204,560.726C443.305,560.263 443.355,559.758 442.579,558.436C435.297,556.08 434.254,548.623 434.175,549.507C433.775,553.915 434.204,558.962 436.59,562.69C437.37,563.537 438.346,563.733 439.584,563.57" style="fill:white;fill-rule:nonzero;"/>
                                    <path id="path3018" d="M434.344,471.394C434.344,471.394 428.017,472.574 427.871,472.362C426.132,469.73 425.735,468.108 425.656,467.674C422.595,466.035 420.226,464.562 420.226,464.562C420.226,464.562 425.702,474.142 427.892,474.514C430.085,474.881 441.037,473.037 441.037,473.037C441.037,473.037 437.751,472.403 434.344,471.394" style="fill:rgb(249,169,31);fill-rule:nonzero;"/>
                                    <path id="path3022" d="M427.496,468.514C427.496,468.514 428.23,470.27 428.772,471.05C428.843,471.15 431.721,470.345 431.721,470.345L427.496,468.514Z" style="fill:white;fill-rule:nonzero;"/>
                                    <path id="path3026" d="M463.982,513.067L462.935,514.389L461.792,512.458C461.137,512.32 460.474,512.174 459.807,512.037L458.618,513.542L457.501,511.657C457.221,511.628 456.942,511.59 456.662,511.574C456.22,511.549 455.774,511.536 455.328,511.532L454.302,512.825L453.564,511.578C452.875,511.615 452.187,511.674 451.499,511.753L450.323,513.734L449.034,512.112C448.446,512.212 447.858,512.32 447.278,512.441C447.153,512.466 447.011,512.495 446.874,512.525L445.719,514.472L444.63,513.1C443.479,513.475 442.094,513.534 440.447,514.51C439.383,515.144 443.404,519.548 444.563,520.265C444.751,517.625 445.085,516.758 446.211,515.703C446.273,515.64 446.469,518.38 448.329,519.469C448.204,517.454 449.385,515.928 450.323,514.989C451.04,516.587 451.499,517.792 452.371,518.451C452.483,516.078 453.584,514.714 454.331,513.655C454.385,513.571 456.858,516.207 456.729,518.301C457.597,517.646 457.876,516.858 458.572,515.31C459.148,516.528 460.32,517.805 460.212,519.606C461.15,518.906 462.109,517.83 462.781,516.203C463.636,517.425 464.528,518.614 464.261,520.428C464.299,519.886 466.576,518.005 466.901,517.262C467.877,515.023 465.809,513.738 463.982,513.067" style="fill:white;fill-rule:nonzero;"/>
                                    <path id="path3034" d="M471.934,485.15C472.197,486.572 470.053,488.395 467.03,489.287C465.149,489.846 463.36,489.905 462.146,489.55C462.155,489.592 462.155,489.633 462.167,489.675C462.58,491.114 465.441,491.531 468.556,490.618C471.668,489.7 473.853,487.79 473.436,486.355C473.273,485.788 472.723,485.384 471.934,485.15" style="fill:rgb(72,12,54);fill-rule:nonzero;"/>
                                    <path id="path3038" d="M433.614,485.425C433.351,486.847 435.495,488.674 438.514,489.562C440.399,490.117 442.189,490.179 443.402,489.825C443.393,489.867 443.39,489.908 443.381,489.95C442.964,491.385 440.103,491.81 436.992,490.893C433.881,489.975 431.695,488.065 432.108,486.63C432.275,486.063 432.821,485.654 433.614,485.425" style="fill:rgb(72,12,54);fill-rule:nonzero;"/>
                                    <path id="path3042" d="M480.596,467.544C480.516,467.977 480.124,469.6 478.381,472.227C478.239,472.444 471.958,471.268 471.912,471.26C468.501,472.269 465.218,472.903 465.218,472.903C465.218,472.903 476.171,474.742 478.36,474.375C480.55,474.008 486.026,464.432 486.026,464.432C486.026,464.432 483.657,465.9 480.596,467.544" style="fill:rgb(249,169,31);fill-rule:nonzero;"/>
                                    <path id="path3046" d="M478.747,468.394C478.747,468.394 478.021,470.137 477.483,470.917C477.413,471.017 474.664,470.225 474.664,470.225L478.747,468.394Z" style="fill:white;fill-rule:nonzero;"/>
                                    <path id="path3050" d="M426.193,497.759C420.909,499.677 411.112,499.406 408.914,497.796C408.926,497.183 408.956,496.574 409.006,495.974C412.438,497.976 418.886,498.71 426.193,497.759" style="fill:rgb(72,12,54);fill-rule:nonzero;"/>
                                    <path id="path3054" d="M409.738,490.718C409.901,490.117 410.08,489.533 410.281,488.958C413.267,491.539 419.285,493.404 426.433,493.767C419.844,495.001 412.253,493.195 409.738,490.718" style="fill:rgb(72,12,54);fill-rule:nonzero;"/>
                                    <path id="path3058" d="M426.928,503.206C420.672,503.561 415.3,505.213 412.131,507.556C411.822,506.998 411.547,506.405 411.305,505.784C413.461,504.011 423.095,502.185 426.928,503.206" style="fill:rgb(72,12,54);fill-rule:nonzero;"/>
                                    <path id="path3078" d="M425.577,578.523C424.351,576.68 414.955,564.573 419.567,556.073C420.068,555.151 425.748,546.197 420.935,540.912C417.628,537.568 414.571,531.879 415.851,525.527C411.28,524.96 406.28,524.088 400.474,521.227C403.273,518.262 406.734,516.389 410.692,514.429C408.686,513.299 407.372,511.864 406.58,510.575C402.08,513.136 397.033,524.088 396.75,525.852C398.101,523.759 398.848,523.037 400.086,521.619C403.902,524.08 409.992,525.631 412.803,526.157C411.927,531.758 414.533,537.889 417.753,541.15C422.549,546.197 416.765,555.81 416.339,556.744C412.385,565.444 425.577,578.523 425.577,578.523" style="fill:rgb(72,12,54);fill-rule:nonzero;"/>
                                    <path id="path3082" d="M474.925,478.295C472.894,478.09 470.441,478.036 469.357,478.754C467.776,479.796 469.907,477.164 470.904,475.972C470.379,475.496 469.932,475.367 468.873,475.188C466.792,474.879 462.621,474.741 461.182,475.692C459.998,476.472 461.237,474.925 462.179,473.732C455.844,473.715 453.88,470.542 453.521,470.542C453.162,470.542 451.064,473.782 444.437,473.87C446.631,476.301 446.869,476.956 444.554,475.43C443.415,474.675 441.097,474.62 439.011,474.846C437.635,474.983 436.559,475.3 435.537,475.884C436.555,477.102 438.594,479.634 437.039,478.608C435.817,477.803 432.88,477.969 430.745,478.228C428.076,479.3 428.076,481.118 426.566,482.223C425.782,482.799 428.927,482.682 430.983,482.499C440.279,481.66 438.244,488.821 453.671,488.821C469.098,488.821 465.132,481.66 474.07,482.499C476.084,482.686 479.421,482.524 479.421,482.524C478.082,481.085 478.758,479.196 474.925,478.295" style="fill:rgb(72,12,54);fill-rule:nonzero;"/>
                                    <path id="path3086" d="M485.384,516.096C474.957,512.688 460.122,506.316 458.075,502.366C457.111,500.506 457.29,498.458 457.979,496.531C455.768,497.899 454.396,499.434 454.071,501.065C453.75,499.434 452.373,497.899 450.167,496.531C450.851,498.458 450.863,500.427 450.067,502.366C448.549,506.082 445.7,510.044 420.384,515.495C432.567,516.029 453.374,509.239 454.104,505.577C454.542,509.281 475.545,514.169 485.384,516.096" style="fill:rgb(72,12,54);fill-rule:nonzero;"/>
                                    <path id="path3090" d="M523.303,447.67C523.303,447.67 523.107,447.741 523.036,447.77C516.229,450.581 511.683,450.001 504.697,451.094C504.581,451.115 492.719,449.701 487.439,448.329C486.943,448.037 485.054,447.015 485.041,447.027C480.929,444.98 476.358,443.616 472.145,443.616C470.682,443.616 469.205,443.716 467.762,443.908C463.366,441.931 459.221,443.779 455.417,444.191L451.605,444.182C447.801,443.774 443.66,441.922 439.264,443.899C437.817,443.707 436.345,443.607 434.877,443.607C430.664,443.607 420.079,448.032 419.583,448.32C414.303,449.692 402.446,451.089 402.325,451.085C395.205,450.935 390.576,450.351 383.769,447.54C382.306,446.935 383.202,447.277 383.899,449.045C384.574,451.26 386.309,456.031 389.525,459.572C394.179,464.694 402.504,468.681 402.504,468.681C402.504,468.681 405.857,462.542 405.323,463.13C404.915,463.58 401.019,465.711 395.556,461.883C398.35,462.054 400.281,461.628 400.281,461.628C400.281,461.628 398.721,461.662 394.784,460.481C394.046,460.26 393.733,460.089 393.062,459.576C388.92,456.219 386.176,452.323 384.741,449.967C389.671,451.76 392.611,453.274 403.004,453.329C403.125,453.329 411.788,452.615 417.364,451.289C417.243,451.435 417.122,451.581 417.014,451.731C415.274,453.224 414.307,454.826 414.307,456.432C414.307,457.441 414.703,458.421 415.437,459.355C415.85,457.024 417.706,454.793 420.721,452.811C420.329,453.512 420.092,454.263 420.029,454.813C431.507,447.135 453.194,452.974 454.174,453.028C455.192,453.087 475.924,447.31 486.267,454.859C486.067,453.958 485.771,453.045 485.208,452.29C488.453,454.221 490.467,456.423 490.888,458.771C491.618,457.837 492.019,456.857 492.019,455.844C492.019,454.163 490.934,452.57 488.995,451.135C494.521,452.565 506.908,454.042 507.029,454.021C513.168,453.062 515.971,453.149 520.925,451.46C519.353,453.721 517.013,456.582 513.864,459.13C513.193,459.647 512.884,459.814 512.146,460.035C508.209,461.215 506.653,461.182 506.653,461.182C506.653,461.182 508.58,461.607 511.37,461.436C505.911,465.269 502.016,463.138 501.607,462.683C501.069,462.095 504.426,468.235 504.426,468.235C504.426,468.235 512.751,464.252 517.405,459.126C520.713,455.489 522.706,450.697 523.403,448.528C523.632,447.89 523.807,447.502 523.303,447.669" style="fill:rgb(72,12,54);fill-rule:nonzero;"/>
                                    <path id="path3110" d="M480.546,497.638C485.83,499.556 495.627,499.285 497.825,497.675C497.808,497.062 497.783,496.453 497.733,495.853C494.297,497.855 487.849,498.589 480.546,497.638" style="fill:rgb(72,12,54);fill-rule:nonzero;"/>
                                    <path id="path3114" d="M497.001,490.596C496.839,489.995 496.659,489.411 496.459,488.836C493.469,491.417 487.455,493.282 480.306,493.644C486.896,494.879 494.486,493.077 497.001,490.596" style="fill:rgb(72,12,54);fill-rule:nonzero;"/>
                                    <path id="path3118" d="M479.811,503.087C486.067,503.441 491.438,505.089 494.608,507.433C494.917,506.878 495.192,506.286 495.434,505.664C493.278,503.892 483.644,502.061 479.811,503.087" style="fill:rgb(72,12,54);fill-rule:nonzero;"/>
                                    <path id="path3122" d="M501.037,506.9C510.671,506.945 519.042,508.722 525.006,513.397C524.259,512.409 516.656,503.275 502.801,501.861C502.564,504.143 501.696,505.661 501.037,506.9" style="fill:rgb(72,12,54);fill-rule:nonzero;"/>
                                    <path id="path3126" d="M503.388,499.785C513.827,499.952 526.548,504.144 533.459,507.618C529.017,504.035 516.876,496.987 503.388,495.936C503.755,497.529 503.647,498.396 503.388,499.785" style="fill:rgb(72,12,54);fill-rule:nonzero;"/>
                                    <path id="path3130" d="M503.095,492.97C513.146,493.453 521.583,496.098 529.178,498.792C524.791,495.902 513.839,490.588 502.211,489.116C502.886,490.588 502.995,491.568 503.095,492.97" style="fill:rgb(72,12,54);fill-rule:nonzero;"/>
                                    <path id="path3134" d="M501.627,487.635C506.79,483.652 512.428,482.347 521.971,479.748C516.332,479.64 505.601,480.833 499.057,484.152C500.609,485.387 501.155,486.58 501.626,487.635" style="fill:rgb(72,12,54);fill-rule:nonzero;"/>
                                    <path id="path3138" d="M481.162,578.402C482.392,576.559 491.784,564.451 487.171,555.956C486.671,555.03 480.991,546.075 485.808,540.791C489.111,537.446 492.168,531.757 490.887,525.406C495.459,524.838 500.459,523.967 506.265,521.11C503.47,518.14 500.009,516.268 496.047,514.307C498.053,513.177 499.366,511.743 500.155,510.454C504.659,513.01 509.705,523.967 509.993,525.727C508.638,523.637 507.891,522.916 506.657,521.498C502.836,523.958 496.747,525.51 493.936,526.035C494.812,531.636 492.205,537.767 488.986,541.029C484.189,546.075 489.974,555.689 490.4,556.623C494.357,565.323 481.162,578.402 481.162,578.402" style="fill:rgb(72,12,54);fill-rule:nonzero;"/>
                                    <path id="path3150" d="M530.56,460.301L531.569,439.156L529.433,439.156L530.56,460.301Z" style="fill:white;fill-rule:nonzero;"/>
                                    <path id="path3154" d="M534.135,445.304C534.047,444.812 534.598,458.741 534.598,458.741L535.161,447.051C534.552,446.868 534.335,446.384 534.135,445.304" style="fill:white;fill-rule:nonzero;"/>
                                    <path id="path3158" d="M526.461,457.801L527.35,439.159L525.465,439.159L526.461,457.801Z" style="fill:white;fill-rule:nonzero;"/>
                                    <path id="path3162" d="M524.328,417.807L524.882,428.117C525.366,429.768 526.225,430.865 527.693,431.962L528.336,418.545L529.099,432.909L531.785,434.619L532.511,419.513L533.366,435.62L535.634,437.063L536.464,419.68L537.474,438.581C538.183,439.578 538.299,440.946 538.174,443.707C538.12,444.658 538.012,445.346 537.857,445.842L538.6,459.789L540.472,420.668L542.604,460.66L544.476,421.406L546.649,462.149C546.687,462.053 546.724,461.966 546.762,461.866L548.651,422.374L549.527,438.835L549.527,430.186C549.569,420.23 548.772,418.754 545.848,416.789L537.107,411.255C535.956,410.517 535.818,410.396 535.643,409.904C535.468,409.411 535.468,409.044 535.468,407.568C535.468,404.373 536.043,403.143 537.553,403.143C538.837,403.143 539.059,404.494 539.192,405.479C539.238,405.846 539.505,408.798 539.551,409.291L548.726,409.291L547.888,381.51L534.137,381.51C531.255,381.635 530.321,381.635 527.264,388.27C524.29,394.785 524.29,396.875 524.207,400.315L524.207,417.402C524.207,418.441 524.207,419.396 524.211,420.276L524.328,417.807L524.328,417.807Z" style="fill:white;fill-rule:nonzero;"/>
                                </g>
                            </g>
                        </g>
                    </g>
                </g>
            </g>
        </g>
    </g>
</svg>
