<?xml version="1.0" encoding="UTF-8" standalone="no"?>
<!DOCTYPE svg PUBLIC "-//W3C//DTD SVG 1.1//EN" "http://www.w3.org/Graphics/SVG/1.1/DTD/svg11.dtd">
<svg width="100%" height="100%" viewBox="0 0 130 96" version="1.1" xmlns="http://www.w3.org/2000/svg" xmlns:xlink="http://www.w3.org/1999/xlink" xml:space="preserve" xmlns:serif="http://www.serif.com/" style="fill-rule:evenodd;clip-rule:evenodd;stroke-linejoin:round;stroke-miterlimit:2;">
    <g transform="matrix(1,0,0,1,-1282.138731,-1784.809127)">
        <g transform="matrix(1,0,0,1,743.25372,1170.813346)">
            <g transform="matrix(0.75581,0,0,0.555086,498.827089,274.283361)">
                <rect x="53" y="612" width="172" height="172" style="fill:rgb(12,85,164);fill-opacity:0;"/>
                <clipPath id="_clip1">
                    <rect x="53" y="612" width="172" height="172"/>
                </clipPath>
                <g clip-path="url(#_clip1)">
                    <g transform="matrix(3.113832,0,0,4.238258,40.899215,739.823298)">
                        <g transform="matrix(1,0,0,1,-100,-100)">
                            <clipPath id="_clip2">
                                <rect x="0" y="0" width="200" height="200"/>
                            </clipPath>
                            <g clip-path="url(#_clip2)">
                                <g transform="matrix(2,0,0,2,0,0)">
                                    <path d="M61.478,58.815C61.494,58.827 62.159,59.303 63.108,59.303C63.273,59.303 63.439,59.288 63.604,59.26C64.199,59.15 64.803,59.091 65.408,59.083C66.873,59.083 68.047,59.523 69.216,60.508C69.732,60.943 71.217,61.878 75.371,63.262C77.759,64.058 78.674,64.514 79.091,64.798C79.976,65.09 81.221,65.892 81.352,67.466C81.399,67.706 81.416,67.924 81.417,68.108C82.238,69.829 81.988,72.022 81.953,72.284L81.488,75.891L79.497,72.847C79.343,72.608 79.177,72.377 79.002,72.153C79.04,72.485 79.056,72.852 79.036,73.25L78.972,74.529L77.682,74.54C77.089,74.54 76.813,74.303 75.805,73.33L75.821,73.487L75.959,74.904L74.474,74.961C74.13,74.961 73.55,74.961 72.001,73.506L72.161,75.549L70.377,75.138C68.997,74.819 68.003,73.72 67.488,73.011C66.757,72.781 66.114,72.193 65.894,71.521C65.774,71.388 65.645,71.263 65.509,71.146L65.472,71.113C64.87,70.559 63.215,69.056 62.628,68.582C62.357,68.468 61.389,68.316 59.97,68.316L59.877,68.317C58.458,68.357 54.539,68.483 53.698,68.569C53.02,68.639 52.7,68.605 52.438,68.571C52.254,68.546 52.028,68.514 51.374,68.514L51.034,68.515C49.3,68.515 48.901,67.997 47.412,66.071C46.816,65.302 46.003,64.248 44.779,62.765C44.275,62.151 43.792,61.694 43.282,61.211C42.971,60.919 42.667,60.621 42.368,60.316C42.102,61.806 41.502,63.538 40.152,64.184C40.016,64.252 39.875,64.308 39.73,64.353L39.637,64.38C39.435,64.432 39.227,64.458 39.019,64.458L39.018,64.458C37.713,64.458 36.308,63.491 34.682,62.37C33.314,61.429 31.611,60.257 30.595,60.257C30.555,60.256 30.515,60.258 30.475,60.264C28.488,60.509 28.308,62.325 28.293,62.688L28.288,62.751C28.218,63.609 27.644,64.282 26.897,64.439C26.533,64.603 26.138,64.69 25.739,64.693C25.303,64.693 24.875,64.588 24.465,64.378C24.331,64.369 24.198,64.348 24.068,64.314C23.677,64.422 23.096,64.561 22.474,64.561C22.252,64.561 22.037,64.543 21.836,64.507L21.621,64.468L21.372,64.706C20.967,65.095 20.559,65.481 20.145,65.861C19.394,66.536 18.529,66.877 17.573,66.877C17.156,66.877 16.808,66.812 16.578,66.768L16.45,66.745C16.148,66.699 15.876,66.594 15.589,66.485C15.183,66.329 14.763,66.168 14.246,66.168C13.496,66.168 12.954,66.027 12.566,65.839C12.245,65.934 11.782,66.137 11.432,66.565C10.257,68.001 7.949,68.416 7.259,68.511C6.93,68.623 6.585,68.682 6.237,68.684C4.62,68.684 3.749,67.393 3.489,66.629L3.407,66.389C2.997,66.221 2.636,65.952 2.358,65.607C2.314,65.552 2.273,65.495 2.235,65.436C0.822,64.823 0.306,63.343 0.235,62.533L-0,59.822L2.295,61.283C2.386,61.34 2.7,61.446 3.269,61.461C3.866,60.852 4.544,60.565 5.362,60.565C5.636,60.565 5.885,60.596 6.127,60.626C6.254,60.642 6.387,60.658 6.527,60.669C6.736,60.684 6.896,60.706 7.015,60.725L7.333,60.577L7.825,60.346C8.634,59.97 9.466,58.69 9.963,57.925C10.235,57.508 10.449,57.179 10.671,56.942C11.703,55.836 12.728,55.603 13.407,55.603C13.744,55.603 14.083,55.659 14.411,55.768C14.62,55.838 14.809,55.924 14.982,56.02C16.033,54.28 16.498,52.812 16.328,51.731C16.017,49.764 16.976,48.043 17.17,47.718C17.339,47.436 17.9,46.743 18.552,46.077C17.97,45.647 17.494,45.198 17.484,45.189C17.401,45.109 17.32,45.029 17.239,44.947L17.196,44.901C16.906,44.593 16.636,44.267 16.39,43.923L16.344,43.854C16.142,43.562 15.963,43.256 15.808,42.937L15.774,42.861C15.153,41.557 15.028,40.071 15.423,38.682C16.729,33.933 22.657,33.781 22.908,33.776L22.941,33.776L23.152,33.778C24.998,33.778 27.509,33.354 28.513,32.157C28.738,31.889 28.879,31.59 28.943,31.247L28.967,31.104C28.995,30.912 29.004,30.718 28.995,30.524C28.98,30.173 28.892,29.828 28.736,29.513C28.072,28.194 26.135,27.347 23.135,27.062C22.243,27.047 20.224,26.879 19.382,25.72C18.998,25.195 18.892,24.515 19.099,23.898C19.232,23.475 19.613,22.726 20.686,22.351C20.827,22.286 20.974,22.235 21.125,22.2C21.381,22.138 21.711,22.109 22.134,22.109C24.213,22.109 28.821,22.834 31.388,25.577C32.288,26.523 32.921,27.691 33.222,28.962C33.485,30.487 33.222,32.113 33.222,32.113C32.98,33.153 32.52,34.13 31.871,34.978C31.837,35.027 31.801,35.076 31.764,35.124C29.893,37.096 27.563,37.654 27.563,37.654C27.552,37.658 25.697,37.958 24.799,38.045C22.365,38.279 20.836,38.5 20.108,40.016C20.032,40.18 19.987,40.356 19.975,40.537C19.982,41.574 21.892,42.772 23.181,43.256L24.546,43.77L24.562,43.77L24.929,43.79C25.083,43.797 25.224,43.801 25.355,43.801C26.239,43.801 26.913,43.648 28.791,43.022C29.822,42.679 33.025,39.53 35.146,37.447C36.096,36.512 36.996,35.628 37.816,34.86C37.848,34.827 37.951,34.723 38.155,34.52C38.742,33.938 39.38,33.41 40.062,32.943L40.121,32.903C41.937,31.664 44.235,30.62 48.326,29.175C48.653,29.059 48.984,28.955 49.339,28.855C49.567,28.786 49.797,28.727 50.03,28.677L50.056,28.673C50.904,28.475 51.771,28.372 52.642,28.366C55.056,28.366 56.684,29.219 57.874,29.842L58.162,29.991C58.281,30.044 58.398,30.095 58.513,30.143L58.551,30.159C58.689,30.214 58.807,30.262 58.925,30.304L58.95,30.313C59.064,30.354 59.176,30.391 59.29,30.426L59.328,30.437C59.427,30.468 59.527,30.495 59.63,30.521L59.702,30.539C59.936,30.597 60.174,30.642 60.413,30.674L60.491,30.684C60.596,30.697 60.7,30.709 60.804,30.719L60.908,30.729C61.036,30.74 61.166,30.749 61.302,30.756L61.328,30.756L61.458,30.755C61.58,30.751 61.674,30.75 61.766,30.75C64.571,30.75 66.528,31.679 67.364,32.077L67.945,32.335L71.402,33.796L71.611,33.862L73.242,34.502C73.77,34.489 74.297,34.483 74.825,34.486C75.868,34.486 76.682,34.625 77.316,34.911C78.063,35.249 78.288,35.801 78.355,36.099C78.474,36.621 78.325,37.131 77.916,37.618L77.88,37.672L77.764,37.794C77.728,37.835 77.691,37.875 77.653,37.913L77.607,37.961L77.025,38.573L77.784,39.609C80.113,42.793 81.624,44.592 83.911,46.21C84.705,46.778 85.544,47.28 86.42,47.713C87.109,48.066 87.705,48.37 88.276,48.993C88.599,49.346 88.836,49.462 88.912,49.493C91.751,49.712 92.783,52.116 93.225,53.151C93.698,54.255 95.568,56.921 96.885,57.669C97.795,58.186 100.484,59.714 99.924,61.767C100.214,64.347 98.371,66.127 97.182,66.792L93.955,68.601L95.27,65.143L95.302,65.057C94.848,65.7 94.286,66.259 93.64,66.708L91.221,68.323L91.56,65.434C91.561,65.424 91.681,64.385 91.69,63.556L91.691,63.544C91.642,63.496 91.422,63.322 90.671,63.13C89.421,62.811 88.79,62.321 88.471,61.92C87.428,61.136 85.898,61.048 85.271,61.048C84.903,61.048 84.589,61.075 84.354,61.107C84.365,61.251 84.385,61.405 84.409,61.516L84.924,63.853L82.66,63.074C81.401,62.642 79.378,61.444 79.976,58.291L79.995,58.19C80.066,57.659 80.336,56.963 81.208,56.621C81.272,56.568 81.363,56.489 81.451,56.41C81,56.194 80.011,55.927 77.911,55.665C77.697,55.638 77.511,55.614 77.363,55.593C75.908,55.383 75.261,54.914 74.778,54.437L74.742,54.402C74.638,54.321 74.368,54.086 73.342,53.026L73.317,53.094L72.946,54.307L72.892,54.462C72.871,54.518 72.848,54.584 72.823,54.644L72.757,54.804L72.739,54.844C72.662,55.017 72.575,55.185 72.478,55.347C72.371,55.523 72.249,55.688 72.111,55.841L72.067,55.892C72.007,55.964 71.946,56.034 71.883,56.103L71.862,56.125C71.413,56.628 70.875,57.045 70.276,57.355C70.243,57.375 70.208,57.393 70.173,57.41L70.172,57.408C69.423,57.783 68.596,57.976 67.759,57.973C66.211,57.973 64.865,57.355 64.046,56.868C62.899,57.533 61.711,57.964 60.692,58.244C60.918,58.42 61.154,58.591 61.397,58.756L61.478,58.815Z" style="fill:white;fill-rule:nonzero;"/>
                                    <path d="M97.592,63.478L97.803,60.526L93.607,57.009L90.625,51.911C90.625,51.911 81.428,47.925 77.108,41.223C77.108,41.223 77.394,44.234 77.631,46.501L73.711,51.222L77.639,54.162L83.059,54.325L83.231,57.368L81.443,58.337L83.32,59.893L86.551,59.137L91.547,61.549L93.799,63.186L95.055,62.293L97.592,63.478ZM27.777,58.152L24.778,61.403L26.389,62.647L28.063,59.537L30.974,58.369L39.289,63.055L41.215,58.152L27.777,58.152ZM79.874,68.465L78.633,70.004C78.161,70.282 77.822,69.904 77.435,69.574C77.387,69.62 77.336,69.664 77.284,69.707L77.248,70.091L76.625,70.818L74.265,70.813L71.724,71.206L68.294,71.702C67.672,71.856 67.256,70.906 67.256,70.906L62.933,66.53L53.67,67.02L49.601,66.184L41.747,56.83C36.46,57.078 27.271,56.88 27.271,56.88L19.233,64.786L14.363,64.447L11.698,64.217L10.333,65.635L6.227,65.436L6.562,63.153L12.238,58.723L14.622,60.134L18.317,53.894L18.586,49.012L20.793,46.025L29.732,45.202L41.138,33.944L51.665,30.188L61.101,33.08L66.535,33.301L72.983,36.154L76.922,36.525L75.243,38.303L76.099,45.142L72.499,50.428L70.685,55.409L67.686,56.412L63.867,55.015L60.736,56.531L57.249,56.752L59.913,60.949L67.313,61.203L74.521,64.84L79.71,67.441L79.874,68.465ZM16.718,39.038L22.93,35.119L29.547,35.366L30.264,31.492L30.697,29.266L28.028,26.352L23.207,25.72L20.381,24.3L24.19,23.693L30.674,26.797L31.857,31.777L27.231,36.353L20.394,37.063L18.394,39.494L18.615,42.286L21.76,44.46L20.157,45.517L17.821,42.817L16.718,39.038Z" style="fill-rule:nonzero;"/>
                                    <path d="M70.358,44.408C70.358,44.408 71.889,43.964 71.149,48.076C71.149,48.076 72.371,43.445 70.358,44.408ZM68.706,45.017C68.012,45.212 67.106,44.734 67.106,44.734C66.007,44.546 66.447,45.047 66.447,45.047C66.408,45.024 66.855,45.078 66.855,45.078C68.255,45.248 68.186,45.826 68.157,46.153C68.194,45.823 68.426,45.229 69.458,45.173C69.985,45.144 70.117,45.11 70.117,45.11C70.556,44.514 69.286,44.852 68.706,45.017ZM67.968,47.713L67.962,47.78L67.968,47.713ZM66.48,44.433C66.474,44.431 66.467,44.429 66.462,44.425L66.48,44.433ZM64.775,47.854C64.424,43.607 66.267,44.336 66.462,44.425C63.89,43.171 64.775,47.854 64.775,47.854ZM68.499,43.287C68.233,43.402 67.999,43.324 67.999,43.324C66.712,42.796 66.09,43.213 66.09,43.213L66.257,43.157C67.657,43.018 68.157,43.648 68.157,43.648C68.805,42.972 70.37,43.324 70.37,43.324C69.203,43.009 68.694,43.204 68.499,43.287ZM72.031,44.157C72.031,44.157 71.019,43.071 70.229,44.109C70.229,44.109 71.044,43.615 72.031,44.157ZM66.152,43.911C65.362,42.874 64.349,43.96 64.349,43.96C65.337,43.416 66.152,43.911 66.152,43.911ZM68.731,41.286C69.015,41.37 69.685,39.341 69.685,39.341C69.685,39.341 68.387,41.185 68.731,41.286ZM68.802,42.58C68.57,42.645 68.345,42.37 68.357,42.086C68.357,42.086 68.286,41.351 68.203,41.305C68.203,41.305 68.405,42.248 67.653,42.518C67.161,42.696 65.828,41.287 65.862,41.332C66.418,42.086 66.944,42.472 66.925,42.567C66.9,42.691 66.306,42.704 66.109,42.592C66.109,42.592 66.677,43.037 67.85,42.839C67.85,42.839 68.407,42.778 68.715,42.888C69.024,43 69.333,43.125 70.037,42.767C70.466,42.548 69.796,42.845 69.333,42.629C68.985,42.467 70.409,40.769 70.36,40.814C69.823,41.323 68.872,42.561 68.802,42.58ZM28.463,59.053C28.463,59.053 27.018,59.498 26.387,61.517C26.387,61.517 26.758,61.239 26.888,61.462C26.888,61.462 26.74,60.109 28.463,59.053ZM25.85,61.721C25.85,61.721 26.277,59.923 27.759,59.145C27.759,59.145 26.332,59.461 25.164,61.554C25.164,61.554 26.091,60.794 25.85,61.721ZM39.823,58.15L41.215,58.152C41.215,58.152 41.178,62.585 39.301,63.08C37.424,63.574 33.101,58.585 30.309,58.93C27.034,59.336 26.949,62.642 26.949,62.642C26.924,62.956 26.728,63.137 26.555,63.129C26.45,63.125 25.85,63.611 25.022,63.154C25.022,63.154 25.801,62.867 25.726,62.672C25.726,62.672 25.654,62.59 25.665,62.57C25.384,62.876 24.715,63.246 24.146,62.908C24.084,62.87 22.972,63.346 22.071,63.185L27.777,58.152L32.427,58.152C32.789,58.381 35.29,60.302 35.843,60.807L35.694,59.523C35.694,59.523 37.67,62.784 39.251,62.339C39.251,62.339 40.831,61.723 39.823,58.15ZM97.079,60.166C97.079,60.166 95.291,59.153 94.111,57.891C92.984,56.687 91.518,54.024 90.957,52.926C90.311,51.658 89.587,51.837 88.001,51.309C85.973,50.633 80.214,48.191 79.57,47.013C79.57,47.013 80.744,48.037 84.567,48.775C84.567,48.775 80.694,47.072 78.917,44.388C78.917,44.388 78.326,45.546 78.623,46.906C78.958,48.436 77.523,49.96 77.523,49.96L76.681,50.561C76.681,50.561 75.091,51.194 75.145,51.656C75.199,52.116 77.342,54.094 79.64,53.622C79.64,53.622 81.182,53.378 81.931,53.599C82.681,53.821 82.527,53.362 82.636,53.053C82.746,52.737 83.339,51.584 84.208,51.191C84.208,51.191 81.709,54.56 84.204,54.174C84.204,54.174 86.118,53.789 86.032,54.202C85.638,56.069 88.13,57.523 88.658,58.095C88.658,58.095 86.336,56.92 85.822,55.715C85.309,54.509 83.969,54.269 83.775,55.183C83.668,55.67 83.678,56.177 83.804,56.66C83.931,57.143 83.354,57.915 82.735,58.027C82.475,58.074 82.596,58.171 82.596,58.171C82.596,58.171 83.544,58.793 83.523,59.144C83.523,59.144 85.023,59.188 85.033,57.874C85.033,57.874 85.241,59.11 86.391,59.134C87.54,59.157 87.996,59.146 88.462,59.574C88.929,60.002 89.839,59.464 89.839,59.464C89.839,59.464 89.198,60.866 93.838,62.296C93.838,62.296 95.224,60.339 93.073,59.233C93.073,59.233 91.908,58.845 90.617,54.41C90.617,54.41 92.12,57.982 94.36,59.112C94.9,59.384 95.478,60.601 95.215,61.254C95.215,61.254 94.957,62.101 94.886,62.153C94.886,62.153 95.972,62.117 96.547,62.895C96.547,62.895 98.377,61.408 97.079,60.166ZM96.526,65.62C97.685,62.572 94.843,62.456 94.843,62.456C94.816,64.307 92.894,65.591 92.894,65.591C92.894,65.591 93.024,64.484 93.033,63.57C93.043,62.656 92.325,62.167 91.003,61.829C89.681,61.491 89.464,60.994 89.464,60.994C87.427,59.277 83.934,59.663 83.351,59.981C82.766,60.298 83.097,61.804 83.097,61.804C80.597,60.944 81.262,58.848 81.326,58.373C81.389,57.897 81.678,57.894 81.836,57.819C81.994,57.743 82.503,57.269 82.503,57.269C84.626,54.902 79.051,54.479 77.556,54.264C76.059,54.048 75.83,53.535 75.572,53.346C75.325,53.165 73.501,51.253 73.501,51.253C73.501,51.253 73.909,50.235 74.773,49.395C75.799,48.398 76.779,46.239 76.922,45.269C77.379,42.193 76.7,40.403 76.7,40.403C81.004,47.118 85.512,48.56 87.357,50.158C89.202,51.755 90.136,49.859 91.977,53.683C93.82,57.507 96.046,58.767 97.504,59.756C98.961,60.744 98.545,61.623 98.545,61.623C99.042,64.21 96.526,65.62 96.526,65.62ZM79.763,68.14C79.763,68.14 79.355,67.178 78.559,67.77C77.886,68.271 78.318,69.493 78.467,69.53C78.467,69.53 78.318,67.066 79.763,68.14ZM77.065,66.481C77.065,66.481 72.433,64.151 69.147,62.823C65.046,61.168 75.064,67.481 77.065,66.481ZM67.405,63.936C66.148,63.548 63.81,62.459 62.428,62.368C58.538,62.108 55.92,62.972 54.326,61.638C52.907,60.45 50.065,52.374 50.46,47.977C50.797,44.235 61.414,40.228 56.146,35.967C56.146,35.967 57.271,36.743 57.626,37.265C58.021,37.846 58.578,39.262 58.207,40.262C57.66,41.73 54.653,45.771 55.03,50.93C55.254,53.985 56.401,59.118 63.812,54.796C63.812,54.796 63.603,54.103 62.995,52.997C62.89,52.808 59.452,53.807 56.685,50.991C56.685,50.991 59.569,53.265 61.959,52.226C62.444,52.015 62.626,51.114 61.292,49.891C57.658,46.56 58.13,42.939 59.761,39.53L59.901,39.257C59.901,39.257 59.391,38.481 58.551,37.118C57.994,36.214 57.668,34.998 62.355,35.985C62.355,35.985 63.243,35.244 65.541,35.726C67.838,36.208 68.382,35.627 68.777,35.677C68.777,35.677 64.775,32.737 61.687,33.527L62.972,35.085C62.972,35.085 53.363,28.167 46.471,32.614C46.471,32.614 50.639,32.006 53.603,34.452C53.603,34.452 44.358,29.327 40.06,39.999C40.06,39.999 40.43,37.702 41.32,34.96C41.32,34.96 34.725,41.925 30.946,44.964C27.084,48.067 23.67,47.843 23.67,47.843C23.67,47.843 25.227,46.916 25.708,46.101C25.708,46.101 23.028,45.36 21.027,47.04C19.026,48.72 18.26,50.993 19.792,50.35C21.323,49.708 21.72,49.51 22.682,49.387C22.682,49.387 19.841,50.202 18.804,54.055C17.767,57.909 15.148,60.873 13.542,60.676C13.542,60.676 13.37,64.183 16.185,64.48C19.001,64.776 20.46,62.381 21.298,61.638C22.139,60.897 25.263,56.252 26.203,56.13C26.203,56.13 23.584,54.894 22.596,52.72C22.596,52.72 24.622,55.487 29.315,55.586C36.024,55.728 41.27,56.5 41.27,56.5C41.27,56.5 38.307,51.696 40.419,42.469C40.419,42.469 38.603,54.586 44.457,59.515C44.457,59.515 46.421,61.256 48.459,63.923C50.497,66.592 50.893,66.097 51.448,66.208C51.448,66.208 49.46,62.822 48.42,57.933C48.918,60.173 50.29,64.827 53.239,65.74C55.712,66.504 62.651,65.442 63.8,66.554C64.939,67.662 66.075,68.774 67.208,69.889C68.341,71.004 67.246,71.594 68.098,71.668C68.098,71.668 67.838,69.148 69.765,70.704C69.765,70.704 70.271,71.495 70.518,71.346C70.518,71.346 71.704,69.617 69.431,68.407C69.431,68.407 69.135,68.37 68.95,68.037C68.905,67.957 68.07,67.136 68.445,67.121C69.851,67.066 71.167,69.957 71.427,69.585C72.34,68.28 72.489,68.184 71.5,66.862C71.41,66.741 69.091,64.454 67.405,63.936ZM72.63,69.617C71.543,69.853 71.389,71.293 71.507,71.086C72.877,68.678 73.99,70.84 73.99,70.84C74.063,70.506 73.483,69.431 72.63,69.617ZM61.625,36.7C60.663,36.163 59.142,36.479 59.142,36.479C59.291,37.145 60.329,38.294 60.329,38.294C61.033,37.182 61.625,36.7 61.625,36.7ZM67.925,36.626C67.925,36.626 68.518,37.441 68.69,37.949C68.69,37.949 64.541,34.267 61.921,38.097C61.921,38.097 62.96,37.812 64.479,39.739C64.479,39.739 59.748,35.725 61.23,42.345L60.39,41.802C60.39,41.802 57.228,45.853 62.589,49.448C63.791,50.253 62.169,45.507 62.169,45.507C62.169,45.507 64.305,48.681 63.997,52.633C63.997,52.633 63.848,55.598 65.985,54.92C65.985,54.92 68.024,54.883 69.729,55.105C69.729,55.105 70.555,55.561 71,54.487C71.119,54.199 71.257,53.53 71.426,52.679C71.886,50.356 72.579,46.683 73.754,45.779C73.754,45.779 72.02,50.955 73.446,48.817C76.558,44.148 76.002,42.494 74.768,42.494C74.768,42.494 76.632,35.885 71.296,39.703C71.296,39.703 71.753,38.838 72.989,38.061C72.989,38.061 71.666,36.108 67.925,36.626ZM73.371,36.553C73.371,36.553 74.483,37.441 74.853,37.812C75.063,38.021 75.484,37.368 75.892,36.775C76.303,36.176 73.371,36.553 73.371,36.553ZM69.16,55.882C67.813,54.894 66.072,55.746 66.072,55.746C68.098,55.338 69.16,55.882 69.16,55.882ZM55.055,44.816C55.055,44.816 52.065,52.226 55.4,58.192C55.4,58.192 56.845,60.624 54.993,60.6C54.993,60.6 57.623,62.75 59.477,60.712C60.536,59.546 51.696,58.303 55.055,44.816ZM75.249,70.79C75.249,70.79 75.138,69.666 75.78,69.567C76.422,69.468 76.929,70.099 76.929,70.099C76.929,70.099 76.793,69.172 75.706,69.197C74.619,69.221 75.249,70.79 75.249,70.79ZM11.912,59.761C11.023,61.787 7.663,63.565 7.663,63.565C10.307,62.824 11.468,61.664 11.468,61.664L11.542,62.627C10.109,63.962 7.292,64.653 7.292,64.653C8.503,65.443 11.096,64.307 11.591,64.01C12.085,63.714 12.283,64.06 12.283,64.06C11.418,62.133 12.308,59.465 12.308,59.465C12.332,58.774 11.912,59.761 11.912,59.761ZM80.053,68.406C80.918,69.815 80.621,72.112 80.621,72.112C79.362,70.185 78.596,70.086 78.596,70.086C77.843,70.53 77.225,69.394 77.15,68.751C77.077,68.109 76.422,67.097 75.73,67.097C75.039,67.097 74.014,66.591 74.014,66.591L70.346,64.898C71.161,65.517 74.174,67.419 74.174,67.419C76.471,67.023 77.435,69.677 77.336,70.097C77.315,70.188 77.302,70.403 77.126,70.456C77.009,70.49 77.78,71.431 77.694,73.185C77.684,73.383 75.47,71.032 75.261,71.048C75.087,71.063 74.953,71.075 74.804,71.085C74.495,71.106 74.272,70.816 74.261,70.851C74.224,70.962 74.483,73.618 74.483,73.618C73.866,73.642 71.666,71.246 71.666,71.246C71.42,71.493 70.493,71.457 70.493,71.457L70.679,73.828C69.234,73.495 68.27,71.754 68.27,71.754C67.788,71.864 67.196,71.346 67.159,71.049C67.122,70.753 66.381,70.123 66.381,70.123C66.381,70.123 64.121,68.048 63.416,67.492C62.712,66.937 59.86,66.974 59.86,66.974C59.86,66.974 54.635,67.121 53.56,67.233C52.486,67.344 52.938,67.171 51.374,67.171C49.422,67.171 50.307,67.357 45.816,61.91C44.446,60.248 43.272,59.662 41.79,57.488L27.635,57.488C25.301,58.933 20.323,63.898 19.249,64.861C18.174,65.825 17.137,65.492 16.655,65.418C16.173,65.343 15.395,64.824 14.246,64.824C13.097,64.824 12.875,64.416 12.875,64.416C12.875,64.416 11.394,64.491 10.393,65.714C9.393,66.937 6.947,67.196 6.947,67.196C5.316,67.826 4.761,66.196 4.761,66.196C5.279,66.196 6.094,65.492 6.094,65.492C3.019,65.455 3.278,64.342 3.278,64.342C1.722,64.12 1.574,62.415 1.574,62.415C2.39,62.935 3.909,62.786 3.909,62.786C4.761,61.6 5.428,61.935 6.428,62.008C7.429,62.082 6.798,62.305 8.391,61.564C9.985,60.823 11.133,58.415 11.653,57.858C12.171,57.303 12.986,56.71 13.987,57.043C14.987,57.376 15.098,58.266 15.098,58.266C17.433,55.042 17.877,52.931 17.656,51.522C17.433,50.114 18.099,48.78 18.322,48.409C18.544,48.039 19.99,46.372 20.805,45.928C21.936,45.305 23.222,45.021 24.51,45.112C26.141,45.223 26.882,45.075 29.216,44.297C31.55,43.519 38.69,35.348 41.073,33.884C43.265,32.539 48.669,30.327 50.299,29.994C51.93,29.66 54.301,29.512 56.413,30.624C58.525,31.736 59.723,32.119 62.12,32.119C64.516,32.119 66.59,33.205 66.59,33.205C66.59,33.205 70.253,34.829 71.606,35.348C72.958,35.867 72.921,36.008 72.921,36.008C74.33,35.748 77.954,35.712 76.707,36.961C75.594,38.072 75.292,38.423 75.292,38.423C75.292,38.423 75.493,39.062 76.086,41.829C76.456,43.555 76.414,46.427 74.187,48.891C71.741,51.596 72.083,53.737 71.186,54.857C68.184,58.599 64.071,55.265 64.071,55.265C61.292,57.192 57.864,57.404 57.864,57.404C57.79,57.663 60.143,60.23 62.256,60.675C63.425,60.921 66.344,60.118 67.529,61.045C68.715,61.972 71.902,63.762 74.693,64.528C77.484,65.294 78.522,66.084 78.522,66.084C80.374,66.801 80.053,68.406 80.053,68.406ZM67.239,41.268C67.582,41.101 65.757,39.6 65.757,39.6C65.757,39.6 67.015,41.377 67.239,41.268ZM19.774,43.454C19.774,43.454 17.328,41.897 18.255,39.378C19.18,36.858 22.071,36.525 22.071,36.525C22.071,36.525 18.551,36.747 17.736,39.526C16.92,42.305 19.774,43.454 19.774,43.454ZM30.444,32.709C30.444,32.709 33.817,26.409 23.775,24.223C23.775,24.223 22.479,23.926 22.145,24.26C22.145,24.26 21.256,24.779 23.479,25.075C26.572,25.488 32.483,26.891 30.444,32.709ZM16.718,39.038C17.773,35.204 22.93,35.119 22.93,35.119C22.93,35.119 29.544,35.357 30.264,31.492C30.653,29.404 29.781,26.327 23.207,25.72C23.207,25.72 19.946,25.685 20.381,24.3C20.828,22.876 24.19,23.693 24.19,23.693C24.19,23.693 29.47,24.359 31.435,28.088C32.619,30.336 32.144,35.234 27.231,36.353C24.178,37.047 20.391,36.323 18.898,39.433C17.403,42.545 22.711,44.515 22.711,44.515C22.711,44.515 21.434,44.555 20.157,45.517C20.157,45.517 15.594,43.125 16.718,39.038Z" style="fill:rgb(85,86,91);fill-rule:nonzero;"/>
                                    <path d="M68.336,48.74C68.099,48.742 68.034,51.096 67.779,51.093C67.56,51.089 67.503,48.721 67.279,48.712L65.165,48.525C65.165,48.525 67.758,50.21 65.294,54.194L67.603,53.967L69.796,54.361C69.796,54.361 67.807,51.518 70.37,48.673L68.336,48.74Z" style="fill:rgb(226,39,38);fill-rule:nonzero;"/>
                                    <path d="M71.698,42.948C71.048,42.923 70.852,42.657 70.599,42.609C70.508,42.591 70.388,42.657 70.388,42.657C70.388,42.657 70.636,42.416 71.228,42.046C71.228,42.046 71.428,41.918 71.687,41.832C71.614,42.084 71.554,42.498 71.762,42.903C71.762,42.903 72.061,42.376 71.864,41.785C72.182,41.718 72.538,41.757 72.723,42.157C72.723,42.157 73.007,42.996 71.698,42.948ZM65.226,41.947C65.226,41.947 64.943,41.723 64.588,41.598C64.812,42.205 64.5,42.754 64.5,42.754C64.252,42.272 64.383,41.781 64.466,41.559C64.191,41.486 63.889,41.486 63.644,41.7C63.644,41.7 63.262,42.157 63.719,42.553C63.997,42.793 64.473,42.94 65.448,42.517C65.448,42.517 65.769,42.467 65.868,42.639C65.868,42.639 65.906,42.478 65.226,41.947Z" style="fill:rgb(250,224,26);fill-rule:nonzero;"/>
                                    <path d="M68.369,71.494C68.369,71.494 68.135,70.716 68.566,70.543L70.493,73.582C70.493,73.582 68.937,73.062 68.369,71.494ZM74.273,73.371C74.273,73.371 72.186,71.717 71.889,70.914C71.889,70.914 72.272,70.21 72.742,70.185C72.742,70.185 73.063,72.211 74.273,73.371ZM77.497,72.779C77.497,72.779 76.09,71.297 75.41,70.852C75.41,70.852 75.434,69.852 75.743,69.815C75.743,69.815 77.349,72.211 77.497,72.779ZM80.424,71.481C80.424,71.481 79.646,70.222 78.707,69.864C78.707,69.864 78.633,69.122 78.806,68.406C78.806,68.406 80.19,70.246 80.424,71.481ZM5.119,66.344C5.563,66.344 6.137,65.88 6.137,65.88C5.878,66.362 6.619,67.048 6.619,67.048C5.514,67.344 5.119,66.344 5.119,66.344ZM96.992,64.876C96.992,64.876 97.469,63.725 96.815,63.1C96.815,63.1 97.978,62.79 98.232,62.493C98.232,62.493 98.318,63.805 96.992,64.876ZM93.245,64.862C93.245,64.862 93.726,63.437 93.176,62.882C93.176,62.882 94.217,63.008 94.451,62.756C94.451,62.756 94.518,63.617 93.245,64.862ZM3.285,63.954C3.285,63.954 2.266,64.028 1.988,62.86C1.988,62.86 2.987,63.213 3.71,63.083C3.71,63.083 3.34,63.657 3.285,63.954ZM25.974,62.747C25.974,62.747 25.714,63.055 25.405,63.129C25.405,63.129 25.701,63.339 26.369,63.018C26.369,63.018 26.017,62.894 25.974,62.747ZM22.578,63.018C23.195,63.018 23.973,62.66 23.973,62.66C23.788,62.474 23.664,62.153 23.664,62.153C23.491,62.351 22.578,63.018 22.578,63.018ZM82.79,61.097C82.79,61.097 81.323,60.64 81.888,58.311C81.888,58.311 82.928,58.704 83.123,59.474C83.123,59.474 82.264,60.087 82.79,61.097ZM65.251,54.423C65.349,54.522 65.393,54.744 65.985,54.373C66.579,54.003 69.159,54.189 69.426,54.509C69.771,54.923 70.055,54.596 70.055,54.596C70.574,53.348 69.647,52.558 69.647,52.558C69.741,54.151 68.894,53.682 68.894,53.682C67.394,53.237 66.387,53.632 66.387,53.632C65.56,53.978 65.684,52.422 65.684,52.422C64.787,53.249 65.251,54.423 65.251,54.423ZM64.929,48.753C64.991,48.345 66.003,48.382 66.003,48.382C66.413,48.378 66.993,48.4 67.622,48.4C67.804,48.4 67.934,47.933 67.934,47.933C67.934,47.933 67.99,48.4 68.194,48.418C69.065,48.498 69.914,48.468 69.914,48.468C71.019,48.468 70.759,48.95 70.759,48.95C70.512,50.457 70.052,50.919 70.052,50.919C70.223,49.534 69.931,48.826 69.931,48.826C69.89,49.011 69.525,49.568 69.525,49.568C69.467,49.327 69.45,49.049 69.289,48.815C69.261,48.772 66.641,48.7 66.585,48.765C66.376,49.001 66.288,49.641 66.288,49.641C66.176,49.675 65.955,48.666 65.955,48.666C65.572,48.691 65.485,50.802 65.485,50.802C64.868,49.951 64.929,48.753 64.929,48.753Z" style="fill:white;fill-rule:nonzero;"/>
                                    <path d="M74.131,67.371L69.24,64.166C69.24,64.166 73.075,67.52 73.316,67.928C73.557,68.335 72.76,69.465 74.353,68.539C75.947,67.612 77.243,69.55 77.243,69.55C76.3,66.943 74.131,67.371 74.131,67.371ZM78.467,66.019C78.095,65.648 76.391,65.019 74.947,64.537C73.501,64.055 69.839,62.789 68.35,61.536C66.962,60.365 65.707,60.264 63.83,60.584C61.953,60.905 60.643,59.868 60.643,59.868C52.002,54.019 55.851,43.613 58.272,40.897C59.87,39.104 57.806,36.757 56.177,35.982C56.149,35.963 56.093,35.943 56.067,35.931C56.067,35.931 58.508,37.562 56.939,40.288C56.584,40.849 56.104,41.406 55.564,41.957C55.397,42.115 55.225,42.268 55.048,42.416C52.029,44.941 50.952,46.238 50.591,47.398C50.524,47.585 50.48,47.779 50.46,47.977L50.464,47.971C50.405,48.395 50.416,48.824 50.436,49.314C50.436,49.314 50.959,45.675 54.9,43.305L55.706,42.818C51.686,54.171 57.026,58.35 58.717,59.609C60.459,60.905 58.532,61.239 57.309,61.166C56.086,61.091 54.993,60.6 54.993,60.6C57.698,62.786 61.903,61.017 64.867,61.091C67.832,61.166 67.572,62.24 68.758,62.685C69.944,63.129 76.984,66.464 76.984,66.464C75.576,67.02 70.213,64.064 70.213,64.064C75.548,67.584 76.836,66.946 78.207,66.723C79.578,66.501 80.021,67.682 80.021,67.682C79.984,66.312 78.467,66.019 78.467,66.019ZM39.436,62.339C38.794,63.376 39.473,63.018 39.473,63.018C41.153,62.388 41.232,58.152 41.232,58.152L39.819,58.151C40,58.488 40.079,61.301 39.436,62.339ZM96.222,58.837C94.591,57.91 92.546,54.978 91.991,53.681C91.435,52.383 90.657,50.939 88.73,50.827C88.73,50.827 88.1,50.79 87.285,49.9C86.47,49.012 85.544,49.012 83.136,47.307C80.727,45.602 79.158,43.762 76.7,40.403C76.7,40.403 77.54,42.601 78.899,44.453C80.257,46.307 82.95,48.234 84.456,48.727C84.456,48.727 80.824,48.034 79.57,47.013C79.57,47.013 80.059,48.283 87.273,51.049C87.273,51.049 88.063,51.371 89.125,51.642C90.188,51.914 90.534,52.161 90.904,52.902C91.275,53.643 93.671,58.195 95.635,59.306C97.599,60.418 98.215,61.08 96.547,62.895C96.547,62.895 98.253,62.351 98.586,61.536C98.92,60.721 97.851,59.764 96.222,58.837ZM94.103,58.97C92.275,57.933 90.608,54.409 90.608,54.409C91.349,56.731 92.253,59.312 93.612,59.461C94.971,59.609 95.278,60.97 95.278,60.97C95.472,59.997 95.084,59.527 94.103,58.97ZM76.826,36.83C76.92,36.691 77.314,36.385 76.762,36.135C75.592,35.606 73.388,35.909 72.949,35.971C72.585,35.701 71.973,35.371 70.945,35.061C70.945,35.061 67.739,33.709 67.091,33.43C66.443,33.152 64.528,32.032 61.514,32.097C61.514,32.097 61.422,32.1 61.265,32.099C59.827,32.031 58.814,31.765 57.575,31.2C55.86,30.32 53.455,28.789 48.775,30.442C43.747,32.216 41.09,33.497 39.102,35.473C38.855,35.717 38.765,35.811 38.765,35.811C38.765,35.811 45.693,30.658 53.603,34.452C53.603,34.452 51.553,32.301 46.588,32.548C46.588,32.548 52.658,28.262 62.972,35.091C62.972,35.091 62.262,34.147 61.78,33.517C61.78,33.517 64.859,32.983 68.68,35.677C68.327,35.8 67.53,36.175 69.722,36.525C72.389,36.95 72.964,38.044 72.964,38.044C71.445,39.174 71.301,39.701 71.301,39.701C76.618,35.867 74.761,42.49 74.761,42.49C76.966,42.823 74.916,46.501 73.464,48.771C72.018,51.031 73.754,45.779 73.754,45.779C72.826,46.493 72.201,48.927 71.751,51.065C71.591,51.77 71.448,52.479 71.323,53.191C71.228,53.652 71.145,54.031 71.069,54.285C70.754,55.047 70.24,55.71 69.58,56.205C70.07,55.965 70.507,55.631 70.867,55.222C70.974,55.109 71.079,54.992 71.182,54.863C71.599,54.343 71.751,53.599 72.037,52.685C73.458,48.632 74.831,49.037 75.737,46.455C76.725,43.638 76.349,42.731 75.835,40.471C75.574,39.319 75.514,38.767 75.33,38.397L75.335,38.405L76.826,36.83ZM66.868,44.861C67.363,45.084 68.298,45.484 69.376,45.022C70.326,44.615 70.117,45.134 70.117,45.134C70.117,45.134 70.562,44.54 69.401,44.825C68.24,45.109 67.795,44.997 67.449,44.849C66.925,44.625 66.09,44.59 66.424,45.047C66.424,45.047 66.375,44.639 66.868,44.861ZM67.363,36.192C66.893,35.907 64.238,34.87 62.329,35.969C62.329,35.969 61.008,37.025 63.954,36.488C65.065,36.285 66.627,36.339 68.685,37.932C68.685,37.932 68.39,36.812 67.363,36.192ZM75.169,37.553C75.074,37.648 74.972,37.735 74.865,37.816C74.619,37.588 74.279,37.31 73.779,36.821C73.677,36.72 73.567,36.627 73.451,36.543C74.209,36.472 75.873,36.332 75.925,36.648C75.934,36.702 75.91,36.729 75.91,36.729C75.91,36.729 75.493,37.247 75.169,37.553ZM21.44,23.506C20.648,23.699 21.787,23.902 23.021,24.1C24.257,24.297 25.838,24.791 25.838,24.791C34.064,27.583 30.709,34.292 30.709,34.292C32.465,32.078 32.653,28.893 30.407,26.495C27.796,23.705 22.404,23.273 21.44,23.506Z" style="fill:rgb(137,139,142);fill-rule:nonzero;"/>
                                </g>
                            </g>
                        </g>
                    </g>
                </g>
            </g>
        </g>
    </g>
</svg>
