<?xml version="1.0" encoding="UTF-8" standalone="no"?>
<!DOCTYPE svg PUBLIC "-//W3C//DTD SVG 1.1//EN" "http://www.w3.org/Graphics/SVG/1.1/DTD/svg11.dtd">
<svg width="100%" height="100%" viewBox="0 0 131 96" version="1.1" xmlns="http://www.w3.org/2000/svg" xmlns:xlink="http://www.w3.org/1999/xlink" xml:space="preserve" xmlns:serif="http://www.serif.com/" style="fill-rule:evenodd;clip-rule:evenodd;stroke-linejoin:round;stroke-miterlimit:2;">
    <g transform="matrix(1,0,0,1,-1281.991239,-2260.30215)">
        <g transform="matrix(1,0,0,1,743.25372,1646.313045)">
            <g transform="matrix(0.756383,0,0,0.554764,498.649244,274.473796)">
                <rect x="53" y="612" width="172" height="172" style="fill:rgb(12,85,164);fill-opacity:0;"/>
                <clipPath id="_clip1">
                    <rect x="53" y="612" width="172" height="172"/>
                </clipPath>
                <g clip-path="url(#_clip1)">
                    <g transform="matrix(1.847879,0,0,2.51516,216.327586,714.542178)">
                        <g transform="matrix(1,0,0,1,-100,-100)">
                            <g transform="matrix(2,0,0,2,0,0)">
                                <path d="M45.415,24.206L45.477,24.205C46.748,24.21 47.792,25.254 47.797,26.525C47.797,27.333 47.375,28.085 46.685,28.506C45.754,29.121 44.859,29.788 44.005,30.506C45.595,30.416 47.025,30.356 47.765,30.356C48.822,30.361 49.75,31.083 50.015,32.106C50.058,32.29 50.081,32.477 50.085,32.666C50.065,33.504 49.594,34.27 48.855,34.666C47.32,35.512 45.879,36.518 44.555,37.666C44.075,38.066 43.565,38.476 43.025,38.896C46.045,39.152 49.049,39.566 52.025,40.136C52.411,39.725 52.897,39.422 53.435,39.256C57.445,37.926 67.345,36.516 73.625,39.926C75.47,37.961 78.409,37.442 80.815,38.656C82.507,39.468 83.649,41.117 83.815,42.986C83.861,43.317 83.884,43.651 83.885,43.986C83.968,45.55 83.416,47.083 82.355,48.236C81.692,48.81 80.951,49.288 80.155,49.656L81.035,51.656C81.536,53.141 82.269,54.539 83.205,55.796C83.739,56.508 84.49,57.028 85.345,57.276C86.372,57.548 87.281,58.149 87.935,58.986C88.592,59.972 89.158,61.017 89.625,62.106C90.171,63.42 90.84,64.679 91.625,65.866C92.592,66.475 93.617,66.988 94.685,67.396C96.895,68.396 98.985,69.226 99.175,71.396C99.211,71.501 99.241,71.608 99.265,71.716C99.266,72.791 98.78,73.81 97.945,74.486C95.645,76.386 91.215,75.766 89.835,75.386C87.945,74.856 83.165,72.386 81.165,70.386C80.825,71.246 79.875,72.386 77.265,72.386L76.995,72.386C73.775,72.386 73.405,72.356 70.875,71.246L69.875,70.786C67.915,69.845 66.119,68.596 64.555,67.086C64.128,66.693 63.681,66.323 63.215,65.976L62.035,65.876C60.725,65.852 59.424,65.657 58.165,65.296C57.806,65.193 57.479,65 57.215,64.736C53.395,65.676 47.125,66.676 42.925,65.676C41.214,67.745 38.604,68.864 35.925,68.676C33.985,68.676 32.475,68.766 30.925,68.856C29.375,68.946 27.745,69.056 25.655,69.056C24.665,69.496 23.985,69.846 23.365,70.186L21.625,71.066C20.921,71.377 20.164,71.551 19.395,71.576C19.079,71.559 18.767,71.655 18.515,71.846C17.955,72.176 13.425,74.496 11.055,73.846L9.325,72.486C9.016,71.967 8.837,71.38 8.805,70.776C8.831,69.939 9.125,69.132 9.645,68.476C8.914,68.56 8.173,68.481 7.475,68.246C6.123,67.775 5.207,66.498 5.195,65.066C5.195,63.406 6.485,61.836 8.895,60.556C7.444,60.141 6.274,59.06 5.745,57.646C5.634,57.335 5.54,57.018 5.465,56.696C4.829,56.19 4.378,55.486 4.185,54.696C4.059,54.319 3.994,53.924 3.995,53.526C3.995,51.246 5.995,48.766 7.995,46.386L8.085,46.286C8.586,45.595 9.028,44.862 9.405,44.096C10.134,42.584 11.07,41.181 12.185,39.926C13.87,38.245 15.925,36.981 18.185,36.236C19.045,35.998 19.841,35.571 20.515,34.986L22.085,33.176C23.985,30.936 26.585,27.876 30.285,26.356C34.785,24.496 37.065,24.426 44.595,24.206L45.415,24.206Z" style="fill:rgb(35,31,32);"/>
                            </g>
                            <g transform="matrix(2,0,0,2,0,0)">
                                <path d="M17.475,63.986C16.405,64.096 21.695,62.826 21.725,62.816C25.425,61.906 22.795,61.906 21.245,61.556C20.225,61.334 19.223,61.04 18.245,60.676C17.57,60.45 16.84,60.45 16.165,60.676C15.585,61.066 13.415,61.116 11.475,61.896C9.795,62.556 7.175,63.986 7.625,65.356C8.075,66.726 10.855,66.186 12.965,64.846C14.433,64.4 15.945,64.111 17.475,63.986ZM76.855,67.686C75.465,67.276 73.075,66.756 70.945,65.986C69.254,65.293 67.699,64.304 66.355,63.066C65.355,62.296 63.685,62.066 62.535,61.656C61.385,61.246 61.535,61.076 60.795,61.656C60.103,62.182 59.378,62.663 58.625,63.096C61.095,63.776 61.885,63.466 63.625,63.736C64.885,63.926 67.345,67.286 70.625,68.736C73.905,70.186 73.395,70.156 77.155,70.156C80.235,70.106 78.885,68.316 76.855,67.726L76.855,67.686ZM90.195,67.686C88.845,66.686 87.005,61.606 86.085,60.386C85.165,59.166 83.725,59.956 81.445,57.316C79.645,55.246 78.905,52.156 77.925,50.316C76.565,47.776 74.435,47.386 75.115,46.716C77.965,48.406 79.115,47.976 80.865,46.466C81.605,45.846 82.325,41.826 79.865,40.676C76.155,38.986 74.235,42.986 74.145,42.986C69.405,38.986 59.025,39.816 54.225,41.426C53.055,41.816 54.135,41.956 55.095,42.066C55.735,42.126 56.725,43.156 53.165,42.646C51.775,42.446 45.325,41.136 41.655,41.136C38.495,41.136 36.145,41.386 34.595,42.136C33.045,42.886 29.595,44.016 28.305,44.466C27.495,44.726 27.245,44.026 28.115,43.736C41.725,39.136 41.965,35.666 47.795,32.546C45.865,32.546 38.555,33.026 37.015,33.026C33.027,33.459 29.354,35.411 26.765,38.476C26.355,39.016 25.705,38.556 26.195,37.896C28.685,34.446 33.515,32.286 38.275,32.006C38.855,31.816 43.115,27.876 45.535,26.416C37.415,26.666 35.475,26.666 31.215,28.416C26.955,30.166 24.305,34.416 22.215,36.536C20.125,38.656 17.435,37.996 13.905,41.536C12.325,43.096 11.125,46.366 9.905,47.766C8.685,49.166 5.905,52.346 6.475,53.946C6.865,55.106 6.865,54.676 7.825,54.866C7.525,55.246 7.825,56.296 8.015,56.806C8.457,57.769 9.416,58.396 10.475,58.416C11.685,60.076 15.025,59.416 17.295,59.726C19.125,59.976 21.295,61.096 25.415,61.096C27.699,61.018 29.739,59.613 30.625,57.506C31.105,56.336 31.305,56.436 30.475,58.626C29.598,60.805 27.33,62.115 25.005,61.786C24.585,62.916 21.785,63.226 19.155,64.216C16.779,65.241 14.6,66.673 12.715,68.446C11.785,69.576 10.715,70.186 11.325,71.446C11.745,72.266 15.875,70.736 17.225,69.886C18.765,68.886 19.225,69.546 20.605,68.966C21.985,68.386 22.725,67.746 25.045,66.776C29.495,66.776 31.725,66.386 35.785,66.386C39.125,66.386 40.625,65.176 42.025,62.786C43.535,60.206 43.415,62.186 42.895,63.426C48.125,64.906 58.395,62.216 58.995,61.826C60.095,61.086 61.285,61.236 59.185,59.826C58.025,59.046 57.895,57.626 59.185,58.706C60.358,59.676 61.66,60.477 63.055,61.086C63.825,61.476 66.825,62.156 67.305,62.686C69.625,65.136 74.715,66.556 77.625,66.986C80.535,67.416 81.305,67.176 82.625,68.726C83.945,70.276 88.625,72.726 90.365,73.206C92.495,73.796 97.035,73.796 96.845,71.646C96.745,70.246 92.625,69.476 90.195,67.726L90.195,67.686ZM19.685,44.936C19.735,45.056 19.765,45.096 19.805,45.206C20.169,46.041 19.921,47.024 19.205,47.586C18.925,47.808 18.578,47.93 18.221,47.93C17.596,47.929 17.028,47.558 16.775,46.986C16.295,47.156 16.025,47.556 15.655,48.136C15.495,48.396 15.345,48.366 15.245,48.296C15.145,48.226 15.075,47.936 15.245,47.446C16.096,45.776 17.647,44.57 19.475,44.156C19.715,44.096 19.995,44.096 20.085,44.276C20.335,44.796 19.625,44.836 19.685,44.936ZM18.625,45.356C18.324,45.357 18.076,45.605 18.075,45.906C18.075,46.208 18.323,46.456 18.625,46.456C18.927,46.456 19.175,46.208 19.175,45.906C19.174,45.605 18.926,45.357 18.625,45.356Z" style="fill:white;"/>
                            </g>
                        </g>
                    </g>
                </g>
            </g>
        </g>
    </g>
</svg>
