<?xml version="1.0" encoding="UTF-8" standalone="no"?>
<!DOCTYPE svg PUBLIC "-//W3C//DTD SVG 1.1//EN" "http://www.w3.org/Graphics/SVG/1.1/DTD/svg11.dtd">
<svg width="100%" height="100%" viewBox="0 0 130 96" version="1.1" xmlns="http://www.w3.org/2000/svg" xmlns:xlink="http://www.w3.org/1999/xlink" xml:space="preserve" xmlns:serif="http://www.serif.com/" style="fill-rule:evenodd;clip-rule:evenodd;stroke-linejoin:round;stroke-miterlimit:2;">
    <g transform="matrix(1,0,0,1,-1994.142717,-876.300155)">
        <g transform="matrix(1,0,0,1,1455.335852,262.31105)">
            <g transform="matrix(0.755638,0,0,0.555164,498.758061,274.228589)">
                <rect x="53" y="612" width="172" height="172" style="fill:rgb(12,85,164);fill-opacity:0;"/>
                <clipPath id="_clip1">
                    <rect x="53" y="612" width="172" height="172"/>
                </clipPath>
                <g clip-path="url(#_clip1)">
                    <g transform="matrix(0.084063,0,0,0.114419,126.598335,763.350092)">
                        <g transform="matrix(1,0,0,1,-2400,-2400)">
                            <g>
                                <g transform="matrix(2,0,0,2,0,0)">
                                    <path d="M1640.5,959.5C1624.29,917.427 1605.46,876.427 1584,836.5C1562.65,797.483 1532.82,766.65 1494.5,744C1457.02,721.453 1416.69,706.953 1373.5,700.5C1371.17,699.833 1368.83,699.167 1366.5,698.5C1371.91,682.587 1381.91,670.421 1396.5,662C1368.82,667.592 1344.99,680.426 1325,700.5C1328.19,687.122 1333.85,674.789 1342,663.5C1347.38,656.575 1352.88,649.742 1358.5,643C1349.01,645.619 1340.01,649.619 1331.5,655C1310.26,668.231 1291.43,684.398 1275,703.5C1275.76,683.543 1281.93,665.376 1293.5,649C1293.17,648.833 1292.83,648.667 1292.5,648.5C1263.19,666.643 1239.36,690.31 1221,719.5C1219.78,700.208 1224.28,682.375 1234.5,666C1234.17,665.833 1233.83,665.667 1233.5,665.5C1188.76,697.87 1159.09,740.536 1144.5,793.5C1197.16,765.867 1253.16,754.034 1312.5,758C1369.08,762.805 1419.41,782.805 1463.5,818C1417.78,825.537 1377.11,843.87 1341.5,873C1330.97,882.849 1321.97,893.849 1314.5,906C1378.89,957.528 1421.06,1023.69 1441,1104.5C1458.74,1192.89 1438.07,1270.89 1379,1338.5C1362.55,1355.28 1347.21,1372.95 1333,1391.5C1323.99,1411.27 1328.82,1426.77 1347.5,1438C1353.22,1441.53 1359.22,1444.53 1365.5,1447C1322.93,1459.11 1279.6,1467.11 1235.5,1471C1216.83,1471.67 1198.17,1471.67 1179.5,1471C1160.62,1469.62 1142.62,1464.96 1125.5,1457C1063.11,1453.87 1001.11,1457.37 939.5,1467.5L935.5,1467.5C935.737,1466.21 935.404,1465.21 934.5,1464.5C932.755,1450.6 928.422,1437.6 921.5,1425.5C961.556,1414.04 1002.22,1405.04 1043.5,1398.5C1032.25,1388.01 1021.92,1376.67 1012.5,1364.5C1011.5,1364.17 1010.5,1363.83 1009.5,1363.5C984.165,1368 959.165,1373.84 934.5,1381C919.179,1385.94 903.845,1390.77 888.5,1395.5C876.56,1391.29 864.227,1388.79 851.5,1388C824.425,1385.54 797.425,1386.04 770.5,1389.5C872.422,1312 983.089,1248.5 1102.5,1199C1112.35,1195 1122.35,1191.5 1132.5,1188.5C1128.17,1169.52 1124.5,1150.52 1121.5,1131.5L1121.5,1118.5C1121.82,1114.77 1121.49,1111.11 1120.5,1107.5C1119.89,1107.62 1119.56,1107.96 1119.5,1108.5C1085.19,1137.24 1047.53,1161.08 1006.5,1180C985.73,1189.2 964.064,1195.03 941.5,1197.5C932.495,1214.86 922.495,1231.52 911.5,1247.5C900.167,1254.83 888.833,1262.17 877.5,1269.5C891.416,1247.07 905.583,1224.73 920,1202.5C919.119,1195.01 917.286,1187.67 914.5,1180.5C914.833,1180.17 915.167,1179.83 915.5,1179.5C941.478,1173.09 967.145,1165.59 992.5,1157C1031.05,1143.16 1064.55,1121.66 1093,1092.5C1104.28,1080.06 1113.78,1066.39 1121.5,1051.5C1124.19,1055.72 1126.02,1060.39 1127,1065.5C1129.92,1060.58 1133.58,1056.25 1138,1052.5C1143.49,1060.16 1150.32,1066.16 1158.5,1070.5C1169.42,1075.89 1180.42,1075.72 1191.5,1070C1199.7,1063.8 1206.53,1056.3 1212,1047.5C1214.14,987.486 1194.31,936.153 1152.5,893.5C1123.98,862.07 1088.65,842.904 1046.5,836C1036.07,835.032 1025.73,835.532 1015.5,837.5C1012.48,830.741 1009.48,824.075 1006.5,817.5C990.003,777.482 968.17,740.815 941,707.5C895.127,652.101 841.293,606.434 779.5,570.5C790.654,569.505 801.988,569.172 813.5,569.5C922.11,571.755 1026.78,593.088 1127.5,633.5C1168.72,561.775 1223.39,502.275 1291.5,455C1338.5,422.749 1389,396.915 1443,377.5C1444.38,378.036 1444.38,379.036 1443,380.5C1393.01,440.257 1365.85,509.257 1361.5,587.5C1419.23,568.484 1478.23,554.984 1538.5,547C1584.3,540.366 1629.97,541.033 1675.5,549C1633.92,568.91 1600.75,598.41 1576,637.5C1570.43,645.975 1565.93,654.975 1562.5,664.5C1606.03,655.21 1650.03,649.043 1694.5,646C1758.93,641.783 1822.26,648.116 1884.5,665C1905.27,670.888 1924.93,679.221 1943.5,690C1893.53,702.489 1847.86,723.822 1806.5,754C1737.06,806.429 1682.56,871.262 1643,948.5C1641.44,952.014 1640.6,955.681 1640.5,959.5Z" style="fill:rgb(205,55,41);"/>
                                </g>
                                <g transform="matrix(2,0,0,2,0,0)">
                                    <path d="M813.5,569.5C801.988,569.172 790.654,569.505 779.5,570.5C778.711,570.217 778.044,569.717 777.5,569C789.674,568.174 801.674,568.34 813.5,569.5Z" style="fill:rgb(109,66,88);"/>
                                </g>
                                <g transform="matrix(2,0,0,2,0,0)">
                                    <path d="M1366.5,698.5C1365.96,698.56 1365.62,698.893 1365.5,699.5C1368.09,700.48 1370.75,700.813 1373.5,700.5C1416.69,706.953 1457.02,721.453 1494.5,744C1532.82,766.65 1562.65,797.483 1584,836.5C1605.46,876.427 1624.29,917.427 1640.5,959.5C1655.69,1004.24 1670.19,1049.24 1684,1094.5C1694.69,1131.12 1701.19,1168.45 1703.5,1206.5C1703.82,1211.69 1703.49,1216.69 1702.5,1221.5C1684.09,1164.58 1650.75,1118.42 1602.5,1083C1600.95,1081.71 1599.28,1081.04 1597.5,1081C1635.11,1125.45 1658.28,1176.62 1667,1234.5C1667.91,1248.21 1667.57,1261.88 1666,1275.5C1654.64,1228.58 1631.8,1188.42 1597.5,1155C1592.17,1151 1586.83,1147 1581.5,1143C1579.14,1141.64 1576.81,1140.64 1574.5,1140C1604.29,1180.03 1620.62,1225.03 1623.5,1275C1623.5,1286.73 1622,1298.23 1619,1309.5C1612.32,1264.95 1591.82,1228.45 1557.5,1200C1556.67,1199.31 1556,1199.48 1555.5,1200.5C1587.2,1263.17 1594.03,1328.5 1576,1396.5C1572.5,1407.84 1568.16,1418.84 1563,1429.5C1554.71,1440.13 1546.04,1450.46 1537,1460.5C1528.13,1469.04 1518.96,1477.2 1509.5,1485C1498.9,1483.73 1488.24,1482.73 1477.5,1482C1469.83,1481.33 1462.17,1481.33 1454.5,1482C1439.58,1484.12 1424.75,1486.62 1410,1489.5C1289.9,1478.56 1169.73,1477.73 1049.5,1487C1011.69,1490.93 974.023,1495.77 936.5,1501.5C936.729,1490.53 936.395,1479.53 935.5,1468.5C937.099,1468.77 938.432,1468.43 939.5,1467.5C1001.11,1457.37 1063.11,1453.87 1125.5,1457C1142.62,1464.96 1160.62,1469.62 1179.5,1471C1198.17,1471.67 1216.83,1471.67 1235.5,1471C1279.6,1467.11 1322.93,1459.11 1365.5,1447C1359.22,1444.53 1353.22,1441.53 1347.5,1438C1328.82,1426.77 1323.99,1411.27 1333,1391.5C1347.21,1372.95 1362.55,1355.28 1379,1338.5C1438.07,1270.89 1458.74,1192.89 1441,1104.5C1421.06,1023.69 1378.89,957.528 1314.5,906C1321.97,893.849 1330.97,882.849 1341.5,873C1377.11,843.87 1417.78,825.537 1463.5,818C1419.41,782.805 1369.08,762.805 1312.5,758C1253.16,754.034 1197.16,765.867 1144.5,793.5C1159.09,740.536 1188.76,697.87 1233.5,665.5C1233.83,665.667 1234.17,665.833 1234.5,666C1224.28,682.375 1219.78,700.208 1221,719.5C1239.36,690.31 1263.19,666.643 1292.5,648.5C1292.83,648.667 1293.17,648.833 1293.5,649C1281.93,665.376 1275.76,683.543 1275,703.5C1291.43,684.398 1310.26,668.231 1331.5,655C1340.01,649.619 1349.01,645.619 1358.5,643C1352.88,649.742 1347.38,656.575 1342,663.5C1333.85,674.789 1328.19,687.122 1325,700.5C1344.99,680.426 1368.82,667.592 1396.5,662C1381.91,670.421 1371.91,682.587 1366.5,698.5Z" style="fill:rgb(254,254,254);"/>
                                </g>
                                <g transform="matrix(2,0,0,2,0,0)">
                                    <path d="M1366.5,698.5C1368.83,699.167 1371.17,699.833 1373.5,700.5C1370.75,700.813 1368.09,700.48 1365.5,699.5C1365.62,698.893 1365.96,698.56 1366.5,698.5Z" style="fill:rgb(177,110,115);"/>
                                </g>
                                <g transform="matrix(2,0,0,2,0,0)">
                                    <path d="M1318.5,806.5C1329.33,805.341 1340.33,805.174 1351.5,806C1350.44,807.188 1349.1,807.688 1347.5,807.5C1338.01,806.506 1328.35,806.173 1318.5,806.5Z" style="fill:rgb(125,64,80);"/>
                                </g>
                                <g transform="matrix(2,0,0,2,0,0)">
                                    <path d="M1318.5,806.5C1328.35,806.173 1338.01,806.506 1347.5,807.5C1316.18,815.244 1290.68,831.911 1271,857.5C1263.24,867.333 1256.74,878 1251.5,889.5C1266.78,891.64 1280.11,897.807 1291.5,908C1340.87,959.027 1368.03,1020.19 1373,1091.5C1375.57,1127.57 1372.9,1163.24 1365,1198.5C1375.88,1100.17 1350.22,1012.84 1288,936.5C1298.99,965.041 1304.32,994.708 1304,1025.5C1296.51,995.179 1283.17,967.846 1264,943.5C1287.72,1003.25 1296.05,1065.25 1289,1129.5C1280.78,1203.04 1260.45,1273.04 1228,1339.5C1270.79,1232.81 1283.46,1122.48 1266,1008.5C1260.37,974.248 1247.37,943.248 1227,915.5C1224.98,913.316 1222.82,911.316 1220.5,909.5C1207.23,912.036 1194.56,910.203 1182.5,904C1170.65,898.248 1159.65,891.248 1149.5,883C1169.11,884.352 1186.11,878.352 1200.5,865C1211.8,852.033 1223.47,839.366 1235.5,827C1251.08,817.182 1268.08,811.182 1286.5,809C1297.1,807.306 1307.77,806.473 1318.5,806.5Z" style="fill:rgb(30,75,128);"/>
                                </g>
                                <g transform="matrix(2,0,0,2,0,0)">
                                    <path d="M1006.5,817.5C1009.48,824.075 1012.48,830.741 1015.5,837.5C1025.73,835.532 1036.07,835.032 1046.5,836C1088.65,842.904 1123.98,862.07 1152.5,893.5C1177.66,931.8 1191.99,973.967 1195.5,1020C1195.44,1046 1183.11,1062.83 1158.5,1070.5C1150.32,1066.16 1143.49,1060.16 1138,1052.5C1133.58,1056.25 1129.92,1060.58 1127,1065.5C1126.02,1060.39 1124.19,1055.72 1121.5,1051.5C1119.74,1045.31 1116.9,1039.64 1113,1034.5C1098.83,1019.99 1082.33,1008.83 1063.5,1001C1036.56,988.301 1008.22,983.301 978.5,986C956.589,988.273 934.756,991.106 913,994.5C895.447,993.628 877.947,992.128 860.5,990C921.915,964.061 985.582,945.727 1051.5,935C1057.5,934.333 1063.5,934.333 1069.5,935C1086.76,944.266 1102.92,955.099 1118,967.5C1117,956.809 1113.67,946.809 1108,937.5C1104.05,931.221 1099.72,925.221 1095,919.5C1090.29,913.23 1084.12,911.064 1076.5,913C1066.75,915.97 1056.75,917.47 1046.5,917.5C1025.19,915.713 1003.86,914.879 982.5,915C970.842,915.748 959.509,918.081 948.5,922C944.093,923.593 940.926,926.427 939,930.5C927.241,925.038 915.408,919.705 903.5,914.5C892.675,926.828 882.009,939.328 871.5,952C833.352,960.874 798.019,976.04 765.5,997.5C764.515,993.366 764.182,989.032 764.5,984.5C773.745,918.422 808.745,871.588 869.5,844C913.321,825.917 958.988,817.084 1006.5,817.5Z" style="fill:rgb(242,206,83);"/>
                                </g>
                                <g transform="matrix(2,0,0,2,0,0)">
                                    <path d="M1230.5,850.5C1233.91,853.637 1236.08,857.637 1237,862.5C1239.07,886.614 1227.9,899.614 1203.5,901.5C1191.89,900.353 1181.23,896.519 1171.5,890C1191.09,887.954 1207.26,879.454 1220,864.5C1223.75,859.982 1227.25,855.316 1230.5,850.5Z" style="fill:rgb(251,252,252);"/>
                                </g>
                                <g transform="matrix(2,0,0,2,0,0)">
                                    <path d="M994.5,882.5C998.5,881.833 1002.5,881.167 1006.5,880.5C1015.38,880.285 1023.38,877.619 1030.5,872.5C1034.36,864.71 1032.03,859.543 1023.5,857C1031.12,857.739 1038.45,859.739 1045.5,863C1050.67,867.379 1050.67,871.879 1045.5,876.5C1039.65,881.063 1032.98,883.563 1025.5,884C1015.09,884.845 1004.76,884.345 994.5,882.5Z" style="fill:rgb(37,80,128);"/>
                                </g>
                                <g transform="matrix(2,0,0,2,0,0)">
                                    <path d="M1006.5,880.5C1002.5,881.167 998.5,881.833 994.5,882.5C993.078,882.291 991.745,881.791 990.5,881C995.823,880.501 1001.16,880.334 1006.5,880.5Z" style="fill:rgb(146,148,104);"/>
                                </g>
                                <g transform="matrix(2,0,0,2,0,0)">
                                    <path d="M1152.5,893.5C1194.31,936.153 1214.14,987.486 1212,1047.5C1206.53,1056.3 1199.7,1063.8 1191.5,1070C1180.42,1075.72 1169.42,1075.89 1158.5,1070.5C1183.11,1062.83 1195.44,1046 1195.5,1020C1191.99,973.967 1177.66,931.8 1152.5,893.5Z" style="fill:rgb(31,76,128);"/>
                                </g>
                                <g transform="matrix(2,0,0,2,0,0)">
                                    <path d="M764.5,984.5C764.182,989.032 764.515,993.366 765.5,997.5C765.44,998.043 765.107,998.376 764.5,998.5C763.188,993.682 763.188,989.015 764.5,984.5Z" style="fill:rgb(146,148,104);"/>
                                </g>
                                <g transform="matrix(2,0,0,2,0,0)">
                                    <path d="M1119.5,1108.5C1119.56,1107.96 1119.89,1107.62 1120.5,1107.5C1121.49,1111.11 1121.82,1114.77 1121.5,1118.5C1120.83,1115.17 1120.17,1111.83 1119.5,1108.5Z" style="fill:rgb(140,62,72);"/>
                                </g>
                                <g transform="matrix(2,0,0,2,0,0)">
                                    <path d="M1119.5,1108.5C1120.17,1111.83 1120.83,1115.17 1121.5,1118.5L1121.5,1131.5C1049.9,1167.63 979.9,1206.29 911.5,1247.5C922.495,1231.52 932.495,1214.86 941.5,1197.5C964.064,1195.03 985.73,1189.2 1006.5,1180C1047.53,1161.08 1085.19,1137.24 1119.5,1108.5Z" style="fill:rgb(29,76,129);"/>
                                </g>
                                <g transform="matrix(2,0,0,2,0,0)">
                                    <path d="M1193.5,1121.5C1193.77,1119.9 1193.43,1118.57 1192.5,1117.5C1192.93,1114.83 1193.43,1112.17 1194,1109.5C1194.81,1113.69 1194.65,1117.69 1193.5,1121.5Z" style="fill:rgb(136,63,75);"/>
                                </g>
                                <g transform="matrix(2,0,0,2,0,0)">
                                    <path d="M1192.5,1117.5C1193.43,1118.57 1193.77,1119.9 1193.5,1121.5C1189.23,1188.69 1158.56,1239.69 1101.5,1274.5C1104.19,1277.18 1107.19,1279.52 1110.5,1281.5C1102.36,1287.81 1094.36,1294.31 1086.5,1301C1078.77,1308.73 1071.1,1316.4 1063.5,1324C1092.14,1365.64 1128.14,1399.31 1171.5,1425C1194.19,1437.9 1218.53,1445.56 1244.5,1448C1216.87,1451.51 1190.2,1447.84 1164.5,1437C1134.57,1424.04 1107.57,1406.7 1083.5,1385C1063.38,1366.55 1045.05,1346.55 1028.5,1325C1048.81,1310.92 1068.31,1295.75 1087,1279.5C1087.97,1277.7 1089.14,1276.03 1090.5,1274.5C1087.15,1272.15 1084.48,1269.15 1082.5,1265.5C1138.85,1239.96 1174.35,1196.96 1189,1136.5C1190.6,1130.24 1191.77,1123.9 1192.5,1117.5Z" style="fill:rgb(31,75,127);"/>
                                </g>
                                <g transform="matrix(2,0,0,2,0,0)">
                                    <path d="M1121.5,1131.5C1124.5,1150.52 1128.17,1169.52 1132.5,1188.5C1122.35,1191.5 1112.35,1195 1102.5,1199C983.089,1248.5 872.422,1312 770.5,1389.5C757.259,1391.46 743.926,1392.63 730.5,1393C737.32,1387.42 744.32,1382.09 751.5,1377C747.5,1376.33 743.5,1376.33 739.5,1377C733.349,1378.13 727.349,1379.46 721.5,1381C771.151,1340.51 823.151,1303.34 877.5,1269.5C888.833,1262.17 900.167,1254.83 911.5,1247.5C979.9,1206.29 1049.9,1167.63 1121.5,1131.5Z" style="fill:rgb(253,253,253);"/>
                                </g>
                                <g transform="matrix(2,0,0,2,0,0)">
                                    <path d="M1703.5,1206.5C1704.65,1212.32 1704.82,1218.32 1704,1224.5C1702.96,1223.76 1702.46,1222.76 1702.5,1221.5C1703.49,1216.69 1703.82,1211.69 1703.5,1206.5Z" style="fill:rgb(110,143,177);"/>
                                </g>
                            </g>
                        </g>
                    </g>
                </g>
            </g>
        </g>
    </g>
</svg>
