<?xml version="1.0" encoding="UTF-8" standalone="no"?>
<!DOCTYPE svg PUBLIC "-//W3C//DTD SVG 1.1//EN" "http://www.w3.org/Graphics/SVG/1.1/DTD/svg11.dtd">
<svg width="100%" height="100%" viewBox="0 0 130 96" version="1.1" xmlns="http://www.w3.org/2000/svg" xmlns:xlink="http://www.w3.org/1999/xlink" xml:space="preserve" xmlns:serif="http://www.serif.com/" style="fill-rule:evenodd;clip-rule:evenodd;stroke-linejoin:round;stroke-miterlimit:2;">
    <g transform="matrix(1,0,0,1,-1994.225843,-1790.468686)">
        <g transform="matrix(1,0,0,1,1455.335852,1176.479581)">
            <g transform="matrix(0.755747,0,0,0.555244,498.835417,274.179644)">
                <rect x="53" y="612" width="172" height="172" style="fill:rgb(12,85,164);fill-opacity:0;"/>
                <clipPath id="_clip1">
                    <rect x="53" y="612" width="172" height="172"/>
                </clipPath>
                <g clip-path="url(#_clip1)">
                    <g transform="matrix(1.972268,0,0,2.684467,151.981761,698)">
                        <g transform="matrix(1,0,0,1,-100,-100)">
                            <g transform="matrix(2,0,0,2,0,0)">
                                <path d="M89.047,34.539C89.382,34.778 86.466,38.077 84.635,38.831C87.537,38.857 90.398,38.134 92.938,36.73C94.74,35.706 96.254,34.243 97.34,32.478C96.496,34.534 94.095,38.107 94.095,38.107C91.722,41.754 84.185,43.272 84.185,43.272C87.123,44.031 90.232,43.777 93.008,42.552C93.008,42.552 90.201,45.901 82.518,47.402L76.999,47.402L74.726,48.124L75.272,49.465C73.515,49.991 72.641,51.866 72.641,51.866C71.749,51.931 70.854,51.812 70.01,51.516L70.623,53.648C70.623,53.648 68.368,53.379 67.409,53.026L67.887,55.082C66.914,55.014 64.828,53.846 64.828,53.846L64.548,54.907C63.5,54.295 62.283,54.036 61.076,54.166C62.669,55.159 63.451,57.074 63.007,58.898L64.597,59.829C66.658,60.279 68.099,61.659 65.598,63.23C65.618,61.789 64.768,62.129 64.247,62.57C66.557,63.691 68.475,65.483 69.75,67.712C69.091,67.84 68.416,67.867 67.749,67.792C68.477,68.914 68.998,70.157 69.289,71.463C68.314,71.394 67.353,71.199 66.428,70.883C66.68,72.202 66.814,73.541 66.828,74.884C65.703,74.558 64.639,74.051 63.677,73.384C63.9,74.619 63.817,75.889 63.437,77.085C62.251,76.587 61.216,75.787 60.436,74.764C60.148,76.316 59.534,77.789 58.635,79.086C57.583,77.825 56.852,76.329 56.504,74.724C56.082,75.792 55.324,76.695 54.344,77.295C53.572,76.337 53.081,75.184 52.923,73.964C52.271,74.822 51.419,75.509 50.442,75.965C50.084,75.063 49.934,74.092 50.002,73.124C49.352,73.499 48.641,73.756 47.901,73.884C47.92,73.332 47.967,72.78 48.041,72.233C48.124,71.637 48.241,71.046 48.391,70.463C48.541,69.853 48.832,68.637 48.832,68.637L50.014,65.563L47.701,64.431C47.701,64.431 47.363,67.745 47.031,68.952C46.932,68.792 46.818,68.641 46.691,68.502C46.645,69.326 46.391,70.125 45.951,70.823C46.003,70.468 46.003,70.107 45.951,69.752C45.804,70.335 45.448,70.845 44.95,71.183C44.974,70.912 44.94,70.639 44.85,70.383C44.85,70.453 44.59,73.574 42.049,74.114C40.974,74.449 39.823,74.449 38.748,74.114L40.61,73.183L41.585,72.017L40.86,70.606L41.02,68.053L40.084,67.153L39.305,67.56L39.234,68.847L39.688,70.833C38.826,70.451 39.305,70.869 39.305,70.869L38.414,70.559L36.432,67.877L35.959,68.051L34.419,70.991L33.943,70.462L33.659,68.25L34.226,65.932L33.063,66.867L32.378,68.24L32.14,66.389L33.23,64.076L35.05,62.959L34.807,61.957L32.254,62.664L31.812,61.382L28.77,61.585L26.016,60.165L23.133,57.718L22.897,57.108C16.648,55.024 10.905,52.888 8.437,50.405L5.138,46.9L3.978,44.538L6.067,45.812L3.011,39.269L2.44,36.674L6.403,41.676L7.074,41.117L4.161,33.771L3.719,30.176L5.657,33.916L8.141,38.107L11.976,41.765L9.492,36.642L8.798,32.626L11.182,36.112L14.627,41.037L17.93,43.821L22.21,45.755L26.03,45.725L27.938,44.432L28.514,41.312C30.998,40.812 33.693,42.811 33.596,44.353C33.715,44.081 33.873,43.828 34.066,43.603C33.336,43.682 32.335,41.302 35.336,38.941C35.917,38.501 37.637,37.11 39.218,37.04C39.723,37.128 40.237,37.162 40.749,37.14C41.139,37.08 42.469,36.41 43.469,36.21C44.349,36.222 45.221,36.378 46.051,36.67C45.75,36.69 41.663,35.858 45.25,36.79C48.837,37.722 55.654,40.631 55.654,40.631C56.314,37.58 57.065,35.94 58.415,34.359C59.477,33.097 60.86,32.143 62.417,31.598C60.776,33.299 60.83,33.673 62.317,34.019L67.106,34.019C72.779,34.019 74.852,31.388 77.633,28.207C80.439,24.509 81.856,19.939 81.634,15.302C82.715,17.324 83.168,19.623 82.934,21.904C82.7,24.185 82.294,25.23 81.874,26.556C85.615,23.985 90.517,18.733 90.217,10.88C90.257,11.04 93.338,17.042 88.036,28.047L86.416,30.618C90.903,27.914 94.182,23.585 95.569,18.533C95.591,24.517 93.245,30.274 89.047,34.539Z" style="fill:rgb(0,22,65);fill-rule:nonzero;"/>
                                <path d="M74.62,41.54C74.62,41.54 85.62,43.91 91.9,38.11L91.5,38.35C90.487,38.889 89.413,39.302 88.3,39.58C84.988,40.333 81.595,40.669 78.2,40.58L76.14,40.58C71.371,38.74 63.151,44.056 63.151,44.056C63.151,44.056 59.038,51.346 59.62,53.23C60.724,52.581 62.117,52.66 63.14,53.43C62.617,51.697 62.85,49.822 63.78,48.27C63.01,51.97 64.38,52.59 64.38,52.59C64.945,52.897 65.569,53.081 66.21,53.13C66.112,52.77 66.112,52.39 66.21,52.03C65.426,50.667 65.224,49.044 65.65,47.53C65.594,48.891 65.961,50.236 66.7,51.38C67.235,51.728 67.862,51.909 68.5,51.9C68.313,51.408 68.327,50.861 68.54,50.38C67.92,49.75 66.84,47.84 67.22,46.8C67.482,47.989 68.099,49.07 68.99,49.9C69.633,50.148 70.305,50.309 70.99,50.38L70.84,48.53C69.843,47.852 69.131,46.83 68.84,45.66C69.555,46.55 70.39,47.338 71.32,48C71.974,48.246 72.683,48.308 73.37,48.18C73.042,47.723 72.835,47.189 72.77,46.63C71.687,46.261 70.767,45.525 70.17,44.55C71.124,45.307 72.229,45.852 73.41,46.15C73.928,46.247 74.463,46.191 74.95,45.99L74.5,44.99C73.201,44.814 72.019,44.144 71.2,43.12C81.3,47.22 87.97,44.22 88.13,44.12C83.471,44.759 78.728,43.856 74.63,41.55L74.62,41.54ZM40.6,59.21C40.6,59.21 37.868,51.224 21.01,52.8L21.11,52.8C18.469,52.576 15.865,52.026 13.36,51.16C12.86,50.98 12.36,50.76 11.83,50.56C12.546,51.199 13.368,51.706 14.26,52.06C17.88,53.81 22.99,54.86 27.06,54.06C27.06,54.06 26.72,54.61 24.69,54.82L23.79,55.64C25.52,56.04 28.86,55.18 28.86,55.18C28.193,55.653 27.427,55.968 26.62,56.1L25.62,57.4C27.389,57.444 29.131,56.956 30.62,56C30.031,56.796 29.21,57.39 28.27,57.7C27.33,58.01 28.17,58.5 28.09,58.86C28.311,58.859 28.532,58.839 28.75,58.8C30.137,58.44 31.346,57.586 32.15,56.4C31.95,57.8 30.07,59.2 30.05,59.22L30.41,60.32C31.168,60.101 31.894,59.785 32.57,59.38C33.221,58.631 33.69,57.741 33.94,56.78C34.082,57.877 33.795,58.988 33.14,59.88C33.252,60.281 33.339,60.688 33.4,61.1C33.947,61.015 34.464,60.791 34.9,60.45C35.8,59.68 35.9,57 35.9,56.9C36.182,58.104 36.112,59.364 35.7,60.53L35.83,60.65C35.949,60.779 36.044,60.928 36.11,61.09C36.138,61.154 36.158,61.221 36.17,61.29C36.182,61.359 38.31,60.06 39.3,61.09C39.316,60.381 39.694,59.728 40.3,59.36L40.6,59.21Z" style="fill:white;fill-rule:nonzero;"/>
                                <path d="M44.683,49.656C44.663,50.039 44.886,50.424 45.407,50.811C44.759,50.836 44.738,50.87 44.281,50.652C43.789,50.417 43.907,50.045 43.907,50.045L44.548,50.357L44.546,50.357L44.546,49.656L44.683,49.656Z" style="fill:rgb(215,216,214);fill-rule:nonzero;"/>
                                <path d="M20.1,49.02L10.28,43.02C12.417,45.358 14.928,47.325 17.71,48.84L18.21,48.84L20.1,49.02ZM65.701,40.901C68.701,38.661 72.656,38.939 77.506,38.769C82.531,36.68 87.024,33.488 90.65,29.43C86.27,34.03 76.59,39.65 61.52,37.25C61.29,37.32 62.52,40.2 58.62,44.43C58.54,45.153 58.909,45.856 59.55,46.2C58.15,49.2 58.85,53.2 58.85,53.2L58.73,53.2C59,53.148 59.275,53.128 59.55,53.14C59.35,51.38 59.572,45.551 65.672,40.931L65.701,40.901Z" style="fill:rgb(169,171,172);fill-rule:nonzero;"/>
                                <path d="M36.44,51.85C36.44,51.85 33.1,52.37 29.09,47.95C29.09,47.95 29.43,50.25 32.62,51.81C29.622,51.8 26.667,51.091 23.99,49.74C24.946,50.722 26.132,51.451 27.44,51.86C25.487,52.652 9.982,47.739 8.22,45.72C10.543,48.328 13.458,50.342 16.72,51.59C14.461,51.067 12.257,50.327 10.14,49.38C10.683,49.813 11.251,50.213 11.84,50.58C12.36,50.81 12.84,51.01 13.37,51.2C15.876,52.062 18.479,52.61 21.12,52.83C31.12,53.06 34.22,53.57 37.38,55.46L42.81,58.96C45.13,59.14 43.71,58.56 43.71,58.56C44.11,57.56 39.31,55.86 37.71,54.74C37.374,54.509 37.065,54.241 36.79,53.94C36.214,53.401 36.074,52.534 36.45,51.84L36.44,51.85Z" style="fill:rgb(169,171,172);fill-rule:nonzero;"/>
                                <path d="M76.09,40.48L76.19,40.48C83.39,38.25 90.74,31 92.44,27.16L92.1,27.69C91.652,28.307 91.161,28.88 90.637,29.435C87.013,33.492 82.523,36.682 77.5,38.77C72.65,38.89 68.6,38.7 65.65,40.94C59.57,45.56 59.35,51.38 59.55,53.14C60.263,49.876 61.736,46.827 63.85,44.24C64.02,44.04 67.7,40.04 76.1,40.5L76.09,40.48ZM21.15,52.82C31.19,53.06 29.89,52.35 32.89,52.72C35.47,53.05 34.25,53.55 37.41,55.45C39.19,56.52 43.24,58.84 42.84,59.02L41.98,59.02C41.91,59.02 41.952,58.969 41.61,59.02C41.268,59.071 40.933,59.158 40.61,59.28C38.87,57.34 37.49,58.4 37.49,58.34C37.352,57.612 37.044,56.926 36.59,56.34C35.976,55.567 35.21,54.927 34.34,54.46C33.877,54.204 33.391,53.99 32.89,53.82C31.27,53.24 25.31,54.37 21.05,52.82L21.15,52.82Z" style="fill:rgb(215,216,214);fill-rule:nonzero;"/>
                                <path d="M61.29,66.88L61.19,66.88C61.107,66.864 61.028,66.83 60.96,66.78C61.477,67.736 62.267,68.516 63.23,69.02C62.445,68.439 61.782,67.708 61.28,66.87L61.29,66.88ZM55.14,64.06L56.61,63.38C56.574,63.26 56.473,63.171 56.35,63.15C55.701,63.184 55.075,63.406 54.55,63.79C54.552,63.83 54.552,63.87 54.55,63.91C54.55,64.16 54.43,64.43 54.38,64.71C54.23,65.49 54.26,66.34 55.72,66.91L55.87,66.96C55.87,66.96 53.93,66.2 55.14,64.06ZM65.84,62.68C67.29,60.98 65.54,60.43 64.42,60.18C64.46,60.3 64.46,60.43 64.42,60.55L64.364,60.818C66.524,61.118 65.777,62.213 65.84,62.67L65.84,62.68Z" style="fill:white;fill-rule:nonzero;"/>
                                <path d="M59.1,54.53C59.85,53.83 62.3,55.59 62.65,58.03C61.51,56.187 60.05,55.318 59.15,55.658L58.67,57.63C58.49,56.23 58.61,54.93 59.09,54.53L59.1,54.53ZM63.94,62.06L63.93,62.06C63.93,62.06 62.84,61.45 64.16,60.81C64.233,60.788 64.296,60.742 64.34,60.68C66.57,60.94 65.86,62.52 65.79,62.68C65.74,61.13 64.38,61.54 63.94,62.06ZM35.114,64.679C35.114,64.679 36.573,64.425 37.08,64.6C38.08,64.18 37.18,63.6 36.62,63.37C35.904,63.328 35.195,63.541 34.62,63.97C34.982,63.617 35.415,63.344 35.89,63.17C35.397,63.291 34.925,63.487 34.49,63.75C34.078,64.007 33.708,64.323 33.39,64.69C33.174,64.941 33.005,65.229 32.89,65.54C32.815,65.744 32.762,65.955 32.73,66.17L32.73,66.52L32.79,66.37C33.718,65.294 33.943,64.867 35.114,64.679ZM35.777,65.303C35.928,65.36 36.068,65.444 36.19,65.55C36.042,65.599 35.873,66.103 35.873,66.103C34.673,66.873 34.42,68.76 34.35,69.42L34.35,69.15C34.132,67.773 34.612,66.373 35.63,65.42L35.77,65.3L35.777,65.303ZM39.73,64.08C38.83,64.62 38.459,65.216 38.73,64.92C39.001,64.624 39.346,64.407 39.73,64.29C39.83,64.276 39.93,64.276 40.03,64.29L40.13,64.39C40.33,64.82 40.565,65.138 40.335,65.668C39.776,65.762 38.553,66.653 38.553,66.653C37.893,67.313 37.977,68.846 38.677,69.916C37.981,69.262 37.439,68.213 37.439,67.258C37.439,65.879 38.263,64.626 39.53,64.08L39.73,64.08ZM43.294,71.587C43.245,71.566 43.193,71.557 43.14,71.56L43.14,71.55C43.196,71.536 43.254,71.536 43.31,71.55L43.294,71.587C43.423,71.643 43.547,71.789 43.64,72.09C43.268,72.979 42.502,73.645 41.57,73.89C41.036,74.013 40.488,74.067 39.94,74.05L40.56,73.92C41.784,73.611 42.796,72.747 43.294,71.587Z" style="fill:white;fill-rule:nonzero;"/>
                                <path d="M44.3,66.8C43.3,67.15 43.6,66.6 43.3,66.62C41.96,67.12 41.44,63.84 40.5,63.45C40.102,63.273 39.629,63.419 39.4,63.79C39.173,64.163 41.53,63.54 40.9,66.13C41.423,66.505 41.781,67.068 41.9,67.7C42.43,68.06 42.37,68.4 42.26,69C42.428,68.945 42.603,68.911 42.78,68.9C42.46,69.34 40.96,70.6 42.4,71.53C43.46,70.73 43.87,71.06 44,71.67C44.483,70.843 44.626,69.86 44.4,68.93C44.172,68.228 43.666,67.649 43,67.33C43.541,67.421 44.043,67.672 44.44,68.05C44.44,67.85 44.44,67.67 44.88,67.65C44.824,67.299 44.61,66.993 44.3,66.82L44.3,66.8ZM37.34,64.75C37.533,64.799 37.713,64.888 37.87,65.01C38.186,64.64 38.542,64.304 38.93,64.01C38.18,63.31 37.83,62.19 36.31,62.91C36.31,62.86 38.95,63.78 37.31,64.75L37.34,64.75ZM36.16,65.1C36.589,65.262 36.875,65.675 36.875,66.133C36.875,66.345 36.814,66.552 36.7,66.73C36.838,66.75 36.963,66.821 37.05,66.93C37.139,66.355 37.358,65.808 37.69,65.33C37.256,64.999 36.682,64.912 36.17,65.1L36.16,65.1Z" style="fill:rgb(169,171,172);fill-rule:nonzero;"/>
                                <path d="M56.24,64.94C56.555,64.485 56.687,63.928 56.61,63.38C56.086,63.499 55.588,63.712 55.14,64.01C53.92,66.14 55.82,66.93 55.84,66.95C55.302,66.548 55.001,65.901 55.04,65.23C55.2,64.38 55.94,64.63 56.24,64.93L56.24,64.94ZM35.77,65.3C35.925,65.36 36.067,65.448 36.19,65.56C36.043,65.612 35.903,65.679 35.77,65.76C34.55,66.51 34.43,68.76 34.37,69.42L34.37,69.15L34.37,69.61C34.37,69.69 34.72,67.08 36.07,66.94C37.07,66.54 36.42,65.54 35.77,65.3ZM40.41,64.7L40.29,64.53C40.246,64.484 40.199,64.44 40.15,64.4C40.35,64.83 40.28,65.1 40.05,65.63C39.487,65.722 38.957,65.956 38.51,66.31C37.81,66.97 37.85,68.71 38.58,69.79C38.706,69.931 38.839,70.064 38.98,70.19C38.25,69.12 38.2,67.36 38.91,66.69L39.01,66.59C39.437,66.292 39.926,66.094 40.44,66.01L40.49,65.88C40.519,65.802 40.542,65.722 40.56,65.64C40.651,65.32 40.596,64.976 40.41,64.7ZM35.22,65.18C35.22,65.18 35.58,64.58 37.06,64.61C36.56,64.434 36.03,64.356 35.5,64.38C34.33,64.569 33.321,65.315 32.8,66.38L32.72,66.52C32.72,66.52 33.84,65.02 35.22,65.19L35.22,65.18ZM61.29,66.88C61.79,67.714 62.449,68.441 63.23,69.02C62.499,68.405 62.077,67.496 62.08,66.54C61.872,66.758 61.581,66.878 61.28,66.87L61.29,66.88ZM59.14,55.38C58.77,55.52 58.64,57.38 58.66,57.63C58.896,56.982 59.434,56.489 60.1,56.31C61.1,56.01 61.95,57.06 62.64,58.09C61.84,56.11 60.02,55.06 59.14,55.39L59.14,55.38Z" style="fill:rgb(215,216,214);fill-rule:nonzero;"/>
                                <path d="M59.14,57.5C58.908,57.73 58.721,58.001 58.59,58.3C57.973,57.06 58.003,55.594 58.67,54.38C58.49,54.28 57.85,54.38 57.57,55.24C57.416,55.666 57.341,56.117 57.35,56.57C57.502,57.489 57.757,58.388 58.11,59.25C58.21,59.68 58.31,60.1 58.44,60.52L58.49,60.72C58.51,60.806 58.51,60.894 58.49,60.98C57.946,60.872 57.443,60.612 57.04,60.23C56.34,60.16 56.1,61.23 56.48,61.46C56.935,61.444 57.389,61.512 57.82,61.66C56.56,61.68 55.39,62.325 54.7,63.38C55.256,62.977 55.959,62.831 56.63,62.98C57.09,63.21 57.18,64.2 56.41,65.12C57.197,65.008 57.789,64.33 57.794,63.535C57.794,63.298 57.741,63.064 57.64,62.85C57.539,62.636 57.87,62.98 57.91,63.15C58.06,62.8 58.43,62.28 58.81,62.27C58.67,62.6 59.11,65.63 60.81,66.42C60.945,66.484 61.092,66.518 61.241,66.518L61.243,66.518C61.791,66.518 62.242,66.067 62.242,65.519C62.242,65.359 62.203,65.202 62.13,65.06C61.803,64.199 60.875,63.711 59.98,63.93C60.158,63.806 60.364,63.727 60.58,63.7C60.796,63.673 58.93,62.3 59.85,61.38C60.29,60.95 61.05,61.73 61.65,61.62C61.58,61.507 61.58,61.363 61.65,61.25C62.17,61.713 62.826,61.994 63.52,62.05C62.12,60.9 64.68,60.72 63.75,59.9C62.47,59.3 60.88,60 59.58,60.68C59.52,60.28 60.02,59.88 60,59.6C59.858,59.729 59.672,59.801 59.48,59.8C60.251,59.166 60.723,58.237 60.78,57.24C60.61,56.17 59.65,56.64 59.11,57.46L59.14,57.5Z" style="fill:rgb(169,171,172);fill-rule:nonzero;"/>
                                <path d="M16.88,45.38C14.736,43.879 13.056,41.807 12.03,39.4C15.62,44.28 18.29,45.82 22.89,47.04C20.796,46.915 18.751,46.349 16.89,45.38L16.88,45.38ZM18.14,48.92L20.04,49.02C16.375,47.759 13.03,45.711 10.24,43.02C9.291,42.038 8.496,40.919 7.88,39.7C13.37,45.38 19.33,48.18 25.55,47.38L25.95,47.2L26.21,47.2C28.047,46.66 29.624,45.464 30.64,43.84C32.31,43.52 31.15,46.35 33.31,45.78C32.889,47.431 33.454,49.185 34.76,50.28C35.673,50.848 36.736,51.127 37.81,51.08L38.06,51.08C37.476,51.708 37.476,52.692 38.06,53.32C38.238,52.994 38.497,52.719 38.81,52.52C38.904,52.458 39.004,52.408 39.11,52.37C38.744,53.18 38.957,54.14 39.63,54.72C40.308,55.163 41.05,55.5 41.83,55.72C41.83,55.72 40.77,53.51 41.83,52.45C42.13,53.03 44.08,53.13 44.83,53.13C44.93,53.13 43.45,52.08 43.83,51.13C44.732,51.473 45.719,51.522 46.65,51.27C46.13,50.8 45.93,50.37 45.93,50.13C46.891,50.377 47.914,50.134 48.66,49.48C48.455,49.365 48.26,49.231 48.08,49.08L48.03,49.08C47.09,48.32 45.71,46.67 48.19,44.94C49.241,44.291 50.487,44.029 51.71,44.2C51.693,43.797 51.565,43.405 51.34,43.07C52.277,43.222 53.139,43.679 53.79,44.37C54.59,43.72 53.791,42.341 53.79,42.22L53.85,42.22C56.18,43.03 56.97,45.6 56.43,46.7C56.43,46.7 58.03,45.33 56.43,42.17C57.57,36.31 60.91,35.07 60.91,35.07C75.96,38.06 89.01,24.38 90.51,16.93C90.08,24.03 84.87,29.25 81.31,32.03C80.248,32.859 79.129,33.611 77.96,34.28C82.69,33.18 89.84,31.46 94.41,23.03C93.954,24.493 93.298,25.887 92.46,27.17L92.12,27.69C91.668,28.304 91.177,28.889 90.65,29.44C86.27,34.03 76.58,39.66 61.52,37.26C61.28,37.34 62.54,40.2 58.62,44.44C58.538,45.161 58.903,45.863 59.54,46.21L59.56,46.19C58.173,49.135 58.937,53.145 58.94,53.16L58.81,53.16C58.13,53.29 55.11,54.29 57.81,60.09C57.569,60.009 57.364,59.846 57.23,59.63C55.83,59.99 55.73,61.18 56.03,61.53C54.941,61.851 54.15,62.801 54.03,63.93C53.91,64.48 52.98,67.48 56.98,67.48C56.98,67.48 54.75,65.7 55.98,65.13C56.79,65.93 57.69,65.39 58.04,64.63C58.23,64.23 58.16,63.75 58.49,63.43C58.57,64.826 59.314,66.103 60.49,66.86C60.828,67.648 61.415,68.305 62.16,68.73L62.36,68.87C62.92,69.224 63.54,69.472 64.19,69.6C64.19,69.6 62.16,67.51 62.89,65.33C63.25,64.21 62.11,63.62 61.25,63.46C60.23,62.58 60.14,62.32 60.31,62.08C60.71,61.73 61.49,61.99 62.11,62.16C62.452,62.271 63.11,62.56 63.11,62.56L63.45,63.981L65.529,64.146L66.742,65.843L65.34,66.082L65.96,68.258L64.296,67.686L65.015,71.607L62.003,70.183L61.536,72.542L59.503,71.044L58.494,73.889L56.785,71.64C55.619,72.548 54.571,73.356 54.563,73.334L53.914,70.53L51.759,71.66L51.609,69.75L49.867,69.874C49.867,69.874 50.123,66.938 52.07,65.12C50.538,64.758 49.1,64.077 47.85,63.12C45.85,63.84 46.8,65.27 46.85,67.12C46.678,66.529 46.329,66.006 45.85,65.62C46.242,66.624 46.373,67.712 46.23,68.78C46,67.31 45.351,66.104 45.6,67.04C45.849,67.976 45.749,68.972 45.32,69.84C45.49,67.94 45.19,66.65 43.87,66.18C43.96,66.2 44.96,65.27 44.31,62.7C43.81,60.85 45.71,59.81 46.61,59.57C46.829,59.57 47.014,59.52 47.045,59.557L47.05,59.57C47.05,59.565 47.048,59.561 47.045,59.557C46.459,57.87 46.209,57.926 41.98,56.35C40.28,55.7 38.08,55.03 36.98,54.03L36.85,53.91C36.267,53.391 36.103,52.539 36.45,51.84C36.46,51.82 33.09,52.36 29.09,47.94C29.09,47.94 29.42,50.23 32.62,51.8C29.623,51.793 26.668,51.087 23.99,49.74C24.948,50.715 26.134,51.437 27.44,51.84C25.521,51.955 23.596,51.854 21.7,51.54C14.14,50.38 10.01,47.38 8.17,45.75C7.768,45.384 7.4,44.982 7.07,44.55C10.44,47.6 14.9,48.62 17.84,48.92L18.14,48.92Z" style="fill:rgb(101,0,56);fill-rule:nonzero;"/>
                                <path d="M36.46,43.68C36.758,43.613 37.069,43.722 37.26,43.96C37.56,44.41 37.03,44.66 37.03,44.66L36.93,44.66C37.13,44.11 36.93,43.9 36.29,43.73C36.335,43.694 36.393,43.68 36.45,43.69L36.46,43.68ZM37.46,45.68C38.23,45.6 39.86,45.2 39.88,45.8C40.038,45.462 40.327,45.202 40.68,45.08C40.829,44.763 41.074,44.5 41.38,44.33C42.512,43.606 43.939,43.508 45.16,44.07C45.146,44.476 45.037,44.874 44.84,45.23C44.647,45.539 44.412,45.818 44.14,46.06C43.74,46.42 43.1,46.66 42.81,47.14C42.36,47.87 42.26,48.74 41.63,49.36C41.013,49.915 40.219,50.233 39.39,50.26C40.103,49.167 40.526,47.911 40.62,46.61C40.668,46.245 40.668,45.875 40.62,45.51C39.22,46.75 40.12,47.51 39.95,48.39C39.757,49.168 39.391,49.893 38.88,50.51C40.18,50.58 40.88,50.68 43.06,48.91C43.487,48.475 43.803,47.943 43.98,47.36C44.221,46.801 44.502,46.259 44.82,45.74C45.17,45.268 45.544,44.814 45.94,44.38C46.328,43.866 46.491,43.216 46.39,42.58C45.94,43.58 44.32,43.58 43.92,43.52C43.02,43.32 43.92,43.22 42.92,43.25C42.49,43.25 40.15,43.4 39.36,44.5C39.431,44.052 39.675,43.65 40.04,43.38C39.295,43.689 38.697,44.273 38.37,45.01C38.427,44.263 38.816,43.58 39.43,43.15C38.15,43.23 38.03,42.55 37.13,42.68C37.014,42.671 36.901,42.637 36.8,42.58C36.727,42.609 36.66,42.65 36.6,42.7C36.118,43.164 35.761,43.742 35.56,44.38C35.359,45.018 35.56,44.48 35.56,44.48C35.76,44.48 36.16,44.62 36.11,44.98L35.97,44.98C37.27,45.11 36.2,45.78 37.47,45.68L37.46,45.68Z" style="fill:rgb(169,171,172);fill-rule:nonzero;"/>
                                <path d="M36.96,44.68C37.104,44.62 37.214,44.499 37.26,44.35L37.26,44.21C37.242,44.167 37.218,44.127 37.19,44.09C37.016,43.887 36.757,43.776 36.49,43.79C36.443,43.798 36.4,43.823 36.37,43.86C36.97,43.94 37.17,44.14 36.97,44.68L36.96,44.68Z" style="fill:rgb(0,22,65);fill-rule:nonzero;"/>
                                <path d="M43.3,44.38C42.792,44.421 42.313,44.632 41.94,44.98C41.7,45.25 40.62,46.16 41.26,48.56C42.13,45.68 45.46,44.9 44.43,44.43C44.293,44.385 44.153,44.352 44.01,44.33C42.988,44.773 42.135,45.534 41.58,46.5C41.857,45.604 42.465,44.845 43.28,44.38L43.3,44.38Z" style="fill:rgb(101,0,56);fill-rule:nonzero;"/>
                                <path d="M45.362,42.077L42.327,42.077L42.327,42.076C42.099,42.219 41.86,42.346 41.836,42.272C41.791,42.127 41.974,41.365 41.974,41.365L42.314,40.805L42.327,40.833L42.327,40.178L45.362,40.178L45.362,42.077ZM38.815,42.573L39.991,42.045L40.013,42.233L39.301,42.658L38.83,42.648L38.815,42.573ZM45.187,47.011L45.347,49.277L46.89,49.628L47.216,49.415L46.456,49.087L45.187,47.011Z" style="fill:rgb(215,216,214);fill-rule:nonzero;"/>
                                <path d="M38.17,40.38C37.765,40.807 37.58,41.398 37.67,41.98C37.671,42.131 37.732,42.275 37.84,42.38L38.438,42.38C37.997,41.794 37.758,40.987 38.17,40.38ZM37.84,39.28C37.149,39.778 36.69,40.537 36.57,41.38C36.569,41.604 36.668,41.817 36.84,41.96L36.92,42.03L37.06,42.13C36.957,41.924 37.165,41.618 37.142,41.416C37.015,40.279 37.713,39.365 37.84,39.28ZM34.923,42.779C34.403,41.939 37.378,38.936 37.378,38.936C37.869,38.648 37.917,38.581 38.462,38.417C38.012,38.637 38.085,38.854 38.155,39.174C38.155,39.174 38.519,38.527 40.139,38.347C41.889,38.347 43.408,37.423 43.849,37.613C40.269,38.673 39.21,39.37 39.28,40.02C39.288,40.09 39.308,40.158 39.34,40.22C39.531,40.606 39.633,41.03 39.64,41.46C39.703,41.907 39.456,42.344 39.04,42.52L38.88,42.58C39.301,42.621 39.712,42.429 39.95,42.08C39.95,42.33 39.65,42.72 39.41,42.73C39.466,42.74 39.524,42.74 39.58,42.73C39.973,42.56 40.215,42.156 40.18,41.73C40.04,40.08 40.75,39.3 41.38,39.03C41.139,39.339 41.1,39.762 41.28,40.11C41.49,39.321 42.137,38.72 42.94,38.57C43.151,38.51 43.37,38.483 43.59,38.49C43.346,38.563 43.111,38.664 42.89,38.79C44.306,38.589 45.735,39.094 46.71,40.14C44.77,39 43.17,39.04 42.41,39.67C42.933,39.57 43.474,39.604 43.98,39.77C43.678,39.781 43.377,39.814 43.08,39.87C42.527,39.916 42.068,40.326 41.96,40.87C41.96,41.2 41.96,41.57 41.86,41.87C42.56,39.63 45.16,40.4 45.16,40.4C43.84,40.4 42.84,40.72 42.56,41.93C43.107,41.258 44.006,40.974 44.84,41.21C45.674,41.448 43.54,41.54 43.76,42.21C43.76,42.33 43.82,42.39 44.76,42.47C45.049,42.496 45.339,42.472 45.62,42.4L45.89,42.33L45.95,42.33L46.15,42.26L46.42,42.26C46.519,42.245 46.621,42.245 46.72,42.26C47.72,43.94 44.72,45.96 44.64,47.49C44.56,48.49 43.48,49.49 42.32,50.19C39.68,51.81 38.82,53.99 40.99,55.04C40.11,54.37 40.469,53.422 40.938,51.725C40.938,51.725 40.77,52.11 40.99,52.39C41.244,52.127 41.538,51.904 41.86,51.73C42.277,52.173 42.836,52.456 43.44,52.53C41.77,51.81 42.44,50.73 42.44,50.81C42.374,51.124 42.74,51.65 42.74,51.65C42.99,51.851 42.9,50.85 43.28,50.59C43.934,50.875 44.649,50.995 45.36,50.94C43.86,50.79 43.89,50.06 43.91,50.08C44.27,50.51 44.59,50.41 44.59,50.41C44.479,50.047 44.598,49.652 44.89,49.41C45.508,49.643 46.173,49.725 46.83,49.65C46.957,49.619 47.081,49.576 47.2,49.52C45.43,49.58 45.33,48.52 45.35,47.92C45.389,46.331 46.224,44.864 47.57,44.02L49.57,43.39C49.909,43.347 50.253,43.392 50.57,43.52C50.37,42.85 49.47,42.58 48.97,42.52C48.558,42.621 48.174,42.816 47.85,43.09C48.244,42.241 49.067,41.667 50,41.59C51.461,40.63 45.567,37.867 44.364,37.354L43.654,37.058C43.324,36.888 42.25,37.61 41.38,37.84C40.653,38.033 39.887,38.033 39.16,37.84C39.117,37.83 39.073,37.83 39.03,37.84C37.611,38.248 36.353,39.087 35.43,40.24C34.507,41.393 35.43,40.24 35.43,40.17C35.416,40.02 35.416,39.87 35.43,39.72C35.179,39.983 34.976,40.287 34.83,40.62C34.507,41.238 34.456,41.963 34.69,42.62C34.737,42.667 34.923,42.779 34.923,42.779ZM35.84,40.88C35.84,40.98 35.52,41.88 35.99,42.14L36.05,42.14C35.814,41.769 35.742,41.316 35.85,40.89L35.84,40.88ZM35.54,44.48L35.54,44.38C35.737,43.726 36.099,43.134 36.59,42.66C36.65,42.61 36.717,42.569 36.79,42.54L36.59,42.47L36.17,42.47C36.08,42.503 35.995,42.55 35.92,42.61L35.82,42.71C35.27,43.24 34.62,44.39 34.82,44.87C35.061,44.761 35.325,44.709 35.59,44.72C35.99,44.82 36.05,44.92 36.07,44.95C36.17,44.61 35.77,44.5 35.55,44.48L35.54,44.48ZM37.46,45.68C36.21,45.78 37.26,45.1 35.96,45.02C34.36,47.22 34.696,49.678 37.081,50.146C37.179,50.165 36.01,47.34 37.51,46.46C37.992,46.151 38.54,45.959 39.11,45.9C39.361,45.831 39.62,45.797 39.88,45.8C39.84,45.2 38.22,45.6 37.46,45.67L37.46,45.68Z" style="fill:white;fill-rule:nonzero;"/>
                                <path d="M42.84,51.54C42.59,51.339 42.474,51.014 42.54,50.7C42.54,50.63 41.84,51.7 43.54,52.4C42.87,51.87 43.27,50.7 43.4,50.48C42.97,50.74 42.84,51.55 42.84,51.54ZM49.58,43.28C48.875,43.346 48.192,43.564 47.58,43.92C46.235,44.765 45.4,46.232 45.36,47.82C45.36,48.42 45.46,49.47 47.22,49.42C47.22,49.42 46.88,49.18 46.72,49.05C46.526,48.897 46.358,48.715 46.22,48.51C45.22,47.03 46.27,45.07 47.57,44.21C47.51,44.346 47.476,44.492 47.47,44.64C48.308,43.846 49.415,43.396 50.57,43.38C50.251,43.262 49.906,43.228 49.57,43.28L49.58,43.28ZM44.64,50.28C44.64,50.28 44.32,50.38 43.94,49.95C43.94,49.95 43.9,50.65 45.4,50.81C44.982,50.433 44.792,49.862 44.9,49.31C44.634,49.552 44.529,49.925 44.63,50.27L44.64,50.28ZM41.02,52.28C40.82,52 41.02,51.56 41.02,51.58C39.89,52.91 40.1,54.28 41.02,54.94C40.831,54.56 40.768,54.129 40.84,53.71C40.837,53.65 40.837,53.59 40.84,53.53L40.84,53.18C40.84,53.12 40.84,53.04 40.91,52.98C41.11,52.474 41.417,52.017 41.81,51.64C41.514,51.814 41.245,52.029 41.01,52.28L41.02,52.28ZM41.84,42.18C41.837,42.213 41.837,42.247 41.84,42.28C41.84,42.8 42.59,42.4 43.46,42.58C44.284,42.836 45.178,42.742 45.93,42.32L45.65,42.39C45.37,42.466 45.079,42.493 44.79,42.47C43.79,42.39 43.79,42.32 43.79,42.21C43.57,41.56 44.85,41.21 44.87,41.21C44.023,40.997 43.126,41.313 42.6,42.01C42.88,40.81 43.88,40.53 45.2,40.49C45.2,40.49 42.6,39.73 41.9,41.95L41.9,42.12L41.84,42.18ZM37.54,50.62C37.352,50.311 37.217,49.973 37.14,49.62C37.035,49.243 37.194,49.027 37.195,48.636C37.196,47.782 37.436,47.178 38.03,46.487C38.182,46.402 38.953,45.908 39.12,45.86C38.549,45.922 38.001,46.117 37.52,46.43C36.02,47.31 36.72,49.7 36.62,49.69C35.39,49.51 34.37,47.21 35.98,44.99C35.588,44.941 35.193,45.049 34.88,45.29C34.28,45.79 33.88,48.29 35.23,49.71C35.88,50.252 36.685,50.574 37.53,50.63L37.54,50.62Z" style="fill:rgb(215,216,214);fill-rule:nonzero;"/>
                                <path d="M42.425,50.809C42.425,50.809 42.126,51.236 42.457,51.786C42.68,52.154 43.071,52.389 43.501,52.412C43.659,52.419 42.349,51.91 42.443,50.8" style="fill:rgb(215,216,214);fill-rule:nonzero;"/>
                                <path d="M41.05,41.64L41.24,41.63C41.186,41.523 41.107,41.43 41.01,41.36C41.01,41.49 41.01,41.62 40.95,41.76L40.95,41.84C40.929,41.758 40.972,41.672 41.05,41.64ZM40.46,42.72L40.63,42.72C41.042,42.669 41.342,42.293 41.3,41.88L41.3,41.94C41.251,41.969 41.189,41.969 41.14,41.94L41.1,41.94C41.114,42.187 40.943,42.41 40.7,42.46C40.651,42.471 40.599,42.471 40.55,42.46C40.504,42.508 40.454,42.552 40.4,42.59L40.57,42.59L40.46,42.72Z" style="fill:rgb(101,0,56);fill-rule:nonzero;"/>
                                <path d="M40.04,42.68L39.89,42.78L39.77,42.85L39.9,42.85C40.029,42.783 40.153,42.706 40.27,42.62L40.14,42.56L40.04,42.68ZM41.31,40.88L41.21,40.78C41.163,40.722 41.163,40.638 41.21,40.58L41.16,40.58L41.01,40.68C40.881,40.83 40.81,41.022 40.81,41.22C40.853,41.214 40.897,41.214 40.94,41.22L41.06,41.29L41.31,40.88Z" style="fill:rgb(169,171,172);fill-rule:nonzero;"/>
                                <path d="M37.16,43.98C37.189,44.02 37.212,44.064 37.23,44.11L37.23,44.18C37.233,44.203 37.233,44.227 37.23,44.25C37.181,44.395 37.071,44.512 36.93,44.57C36.789,44.628 36.93,44.57 37.03,44.57C37.13,44.57 37.55,44.32 37.26,43.87C37.074,43.624 36.762,43.507 36.46,43.57C36.745,43.579 37.008,43.729 37.16,43.97L37.16,43.98ZM41.36,42.46C41.67,41.974 41.65,41.345 41.31,40.88C41.152,40.986 41.043,41.152 41.01,41.34C41.104,41.411 41.179,41.504 41.23,41.61C41.201,41.589 41.166,41.577 41.13,41.577C41.036,41.577 40.959,41.655 40.959,41.749C40.959,41.77 40.963,41.791 40.97,41.81C40.947,41.839 40.947,41.881 40.97,41.91C40.992,41.921 41.018,41.921 41.04,41.91L41.1,41.91C41.149,41.939 41.211,41.939 41.26,41.91C41.263,41.893 41.263,41.877 41.26,41.86C41.303,42.277 40.997,42.656 40.58,42.7L40.38,42.7C40.324,42.711 40.266,42.711 40.21,42.7C40.093,42.786 39.969,42.863 39.84,42.93C40.393,43.044 40.968,42.866 41.36,42.46Z" style="fill:white;fill-rule:nonzero;"/>
                                <path d="M38.172,42.409C38.81,42.504 39.498,42.093 39.7,41.48C39.693,41.05 39.591,40.626 39.4,40.24C39.364,40.178 39.341,40.11 39.33,40.04C39.26,39.4 40.47,38.66 44.03,37.59C43.6,37.22 41.9,38.29 40.15,38.23C38.55,38.43 38.23,39.03 38.23,39.03C38.17,38.73 38.51,38.36 38.96,38.13C38.414,38.301 37.891,38.536 37.4,38.83L37.05,39.07C35.35,40.27 34.35,41.9 34.88,42.74L34.929,42.831C34.929,42.831 35.429,42.798 35.636,42.508C35.076,42.308 35.56,41.31 35.83,40.88C35.728,41.332 35.826,41.806 36.1,42.18C36.031,40.951 36.723,39.798 37.84,39.28C37.74,39.38 36.44,40.76 37.14,42.18C37.122,41.436 37.52,40.741 38.17,40.38C37.764,40.991 37.724,41.827 38.172,42.409ZM50.522,41.725C50.464,41.73 50.409,41.749 50.36,41.78C51.493,41.88 52.556,42.375 53.36,43.18C52.715,42.765 52.005,42.461 51.26,42.28C50.495,42.149 49.711,42.183 48.96,42.38C48.545,42.49 48.161,42.695 47.84,42.98C48.232,42.133 49.05,41.56 49.98,41.48L49.98,41.47C49.84,39.86 44.72,37.52 43.54,37.02L43.84,37.12C45.687,37.771 47.485,38.553 49.22,39.46L48.96,39.33C50.058,40.065 51.256,40.798 50.839,41.586L52.108,41.543C52.108,41.543 52.8,42.213 52.424,41.997C51.969,41.738 51.406,41.687 51.011,41.691C50.924,41.692 50.837,41.695 50.75,41.701C50.683,41.713 50.599,41.715 50.522,41.725Z" style="fill:rgb(215,216,214);fill-rule:nonzero;"/>
                                <path d="M34.97,42.72L34.87,42.72C34.793,42.701 34.723,42.659 34.67,42.6C34.78,42.837 34.967,43.031 35.2,43.15C35.3,42.903 35.462,42.686 35.67,42.52L35.61,42.52C35.418,42.666 35.19,42.756 34.95,42.78L34.97,42.72ZM39.96,42.11C39.722,42.459 39.311,42.651 38.89,42.61L39.06,42.55C39.48,42.373 39.728,41.93 39.66,41.48C39.455,42.095 38.831,42.477 38.19,42.38L37.84,42.38L38.04,42.48C38.45,42.663 38.891,42.765 39.34,42.78C39.66,42.76 39.94,42.38 39.96,42.11ZM37,48.48C36.984,48.874 37.028,49.269 37.13,49.65C37.207,50.003 37.342,50.341 37.53,50.65C37.663,50.662 37.797,50.662 37.93,50.65C37.69,50.321 37.52,49.947 37.43,49.55C37.326,49.169 37.279,48.775 37.29,48.38C37.317,47.749 37.565,47.147 37.99,46.68C38.174,46.465 38.39,46.279 38.63,46.13C37.654,46.506 37.002,47.444 36.99,48.49L37,48.48ZM50.72,41.65L50.78,41.65C51.018,41.602 51.262,41.602 51.5,41.65C51.844,41.709 52.18,41.81 52.5,41.95L52.56,41.95L52.42,41.75L52.42,41.69C52.279,41.528 52.129,41.374 51.97,41.23L51.84,41.11C51.077,40.463 50.237,39.912 49.34,39.47L48.99,39.39C50.14,40.13 51.32,40.84 50.72,41.66L50.72,41.65ZM38.58,51.1C38.181,51.421 37.989,51.936 38.08,52.44C38.503,52.058 39.021,51.795 39.58,51.68C39.783,51.418 40.018,51.183 40.28,50.98C39.717,51.062 39.149,51.102 38.58,51.1ZM46.24,42.2L46.19,42.2L45.99,42.27L45.93,42.27C45.174,42.692 44.275,42.782 43.45,42.52C42.57,42.34 41.85,42.74 41.83,42.22C41.827,42.187 41.827,42.153 41.83,42.12C41.776,42.237 41.709,42.348 41.63,42.45L41.58,42.51C41.516,42.586 41.442,42.654 41.36,42.71L41.31,42.71C41.048,42.846 40.769,42.947 40.48,43.01C40.646,43.098 40.838,43.123 41.02,43.08L41.44,43C41.78,42.9 42.16,42.8 42.54,42.72C42.772,42.69 43.008,42.69 43.24,42.72L43.64,42.72C43.936,42.783 44.237,42.817 44.54,42.82C45.54,42.82 45.72,42.39 46.12,42.15C46.241,42.076 46.378,42.032 46.52,42.02L46.32,42.02L46.24,42.2Z" style="fill:rgb(169,171,172);fill-rule:nonzero;"/>
                                <path d="M64.147,63.135C65.797,64.052 67.17,65.398 68.12,67.03C67.212,66.966 66.333,66.681 65.56,66.2C66.583,67.137 67.263,68.391 67.49,69.76C66.416,69.598 65.429,69.076 64.69,68.28C65.312,69.802 65.618,71.436 65.59,73.08C64.166,72.566 62.94,71.613 62.09,70.36C62.839,71.842 63.058,73.537 62.71,75.16C61.122,74.562 59.942,73.197 59.58,71.54C59.748,73.365 59.401,75.201 58.58,76.84C57.556,75.34 56.873,73.633 56.58,71.84C56.318,73.145 55.637,74.329 54.64,75.21C53.93,73.997 53.56,72.615 53.57,71.21C53.046,72.311 52.212,73.236 51.17,73.87C50.952,72.619 51.01,71.336 51.34,70.11C50.776,70.541 50.162,70.9 49.51,71.18C49.51,69.732 49.931,66.93 51.715,65.507C50.764,66.633 50.219,68.047 50.17,69.52C50.816,69.321 51.434,69.042 52.01,68.69C51.862,69.584 51.862,70.496 52.01,71.39C52.851,70.959 53.572,70.327 54.11,69.55C53.856,70.762 54.125,72.026 54.85,73.03C55.75,72.58 56.27,71.17 56.45,69.89C56.75,70.89 57.08,72.66 58.4,73.52C59.16,72.27 59.1,69.52 59.1,69.52C59.503,70.679 60.338,71.64 61.43,72.2C61.658,71.061 61.658,69.889 61.43,68.75C62.199,69.825 63.282,70.635 64.53,71.07C64.558,69.691 64.274,68.324 63.7,67.07C64.295,67.509 64.977,67.816 65.7,67.97C65.524,67.008 65.088,66.112 64.44,65.38C65.035,65.622 65.668,65.758 66.31,65.78C65.854,64.711 65.104,63.794 64.147,63.135Z" style="fill:rgb(235,235,235);fill-rule:nonzero;"/>
                            </g>
                        </g>
                    </g>
                </g>
            </g>
        </g>
    </g>
</svg>
