<?xml version="1.0" encoding="UTF-8" standalone="no"?>
<!DOCTYPE svg PUBLIC "-//W3C//DTD SVG 1.1//EN" "http://www.w3.org/Graphics/SVG/1.1/DTD/svg11.dtd">
<svg width="100%" height="100%" viewBox="0 0 130 96" version="1.1" xmlns="http://www.w3.org/2000/svg" xmlns:xlink="http://www.w3.org/1999/xlink" xml:space="preserve" xmlns:serif="http://www.serif.com/" style="fill-rule:evenodd;clip-rule:evenodd;stroke-linejoin:round;stroke-miterlimit:2;">
    <g transform="matrix(1,0,0,1,-1994.17408,-2767.719513)">
        <g transform="matrix(1,0,0,1,1455.335852,2153.730408)">
            <g transform="matrix(0.754989,0,0,0.554688,498.823807,274.520291)">
                <rect x="53" y="612" width="172" height="172" style="fill:rgb(12,85,164);fill-opacity:0;"/>
                <clipPath id="_clip1">
                    <rect x="53" y="612" width="172" height="172"/>
                </clipPath>
                <g clip-path="url(#_clip1)">
                    <g transform="matrix(0.209481,0,0,0.285127,133.545136,745.850195)">
                        <g transform="matrix(1,0,0,1,-793,-846)">
                            <g transform="matrix(2,0,0,2,0,0)">
                                <path d="M572.928,382.4C572.928,382.4 565.333,404.109 564.548,406.367C566.375,405.796 571.934,404.063 572.376,403.926C572.414,403.849 572.91,402.841 573.737,401.203L579.861,378.784L577.516,358.343L569.916,354.254L563.164,357.367L572.928,362.011L572.928,382.4Z" style="fill:rgb(0,39,93);fill-rule:nonzero;"/>
                                <path d="M541.61,335.831C539.359,334.299 536.531,332.375 536.386,332.274C536.148,332.232 530.51,331.349 528.402,331.016C529.427,332.545 532.408,336.982 533.671,338.866L533.744,338.685L541.61,335.831Z" style="fill:rgb(0,39,93);fill-rule:nonzero;"/>
                                <path d="M529.298,348.349C527.876,346.799 526.086,344.864 526.086,344.851C526.086,344.849 513.737,335.921 513.047,335.425C512.391,335.833 507.331,338.993 506.993,339.197C506.881,339.481 505.919,341.88 505.327,343.35C507.281,342.741 513.32,340.86 513.32,340.86C513.32,340.86 523.62,346.254 528.264,348.685L528.264,348.644L529.298,348.349Z" style="fill:rgb(0,39,93);fill-rule:nonzero;"/>
                                <path d="M528.008,356.197L528.027,355.92C524.142,353.996 516.677,350.292 515.724,349.818C515.427,350.767 514.786,352.82 514.641,353.278C514.906,353.634 518.51,358.503 520.737,361.52L520.898,361.091L528.008,356.197Z" style="fill:rgb(0,39,93);fill-rule:nonzero;"/>
                                <path d="M537.03,457.448L535.451,455.062C529.819,446.628 520.241,439.201 519.873,438.914C514.971,436.815 510.693,434.171 507.098,431.514C457.288,455.909 423.967,496.646 409.336,550.519L471.295,550.534C471.864,539.198 473.724,527.786 477.846,518.109C474.963,516.798 461.763,510.663 454.885,504.848L453.403,503.59L455.349,503.669C455.477,503.677 469.43,504.207 483.253,500.178C483.358,500.155 492.689,498.023 508.364,476.206L508.433,475.741L508.452,476.077C510.693,472.953 513.065,469.422 515.563,465.44L516.492,463.951L516.781,465.683C516.836,466.017 522.956,499.704 561.665,504.654L562.145,504.72L562.225,505.185C562.33,505.706 570.682,548.018 594.04,575.939C597.049,576.931 600.126,577.797 603.25,578.501C603.25,578.501 604.338,579.287 606.143,580.393C568.616,539.32 555.176,478.833 554.137,473.853C545.711,470.585 542.044,465.057 537.03,457.448Z" style="fill:rgb(0,39,93);fill-rule:nonzero;"/>
                                <path d="M386.684,461.11L386.291,460.218C386.076,459.73 364.722,411.029 359.983,375.749C356.352,374.228 312.787,354.84 304.381,298.879L304.356,298.711L316.062,266.555L315.052,273.184C314.98,273.672 308.308,322.421 370.694,338.429L371.277,338.576L371.187,339.173C371.094,339.786 362.195,400.937 390.417,456.729L390.636,457.16L386.684,461.11ZM409.023,427.401C407.109,371.665 397.962,328.172 382.359,299.795C374.163,289.958 351.852,266.021 325.503,261.402L354.254,207.352L354.103,207.003L355.541,204.944L355.89,204.944C355.923,204.944 359.635,204.949 362.985,205.265C365.259,205.481 366.21,208.414 367.519,212.468C369.175,217.604 371.37,224.39 377.17,229.321L383.976,224.615L385.702,220.009L375.62,202.302L381.471,202.302C383.693,202.302 384.798,205.141 386.327,209.069C387.546,212.2 388.999,215.92 391.349,219.33L398.011,214.104L398.011,210.963L390.997,193.596L390.554,192.565L396.536,193.203C398.662,193.437 399.055,195.831 399.6,199.145C400.136,202.417 400.829,206.633 403.312,210.758L409.119,205.925L409.119,202.077L401.522,182.037L403.327,183.344C403.353,183.364 405.995,185.245 410.384,185.89C412.611,186.218 412.89,188.905 413.275,192.63C413.542,195.146 413.861,198.233 414.884,201.343L420.282,197.388L418.475,159.212C418.475,159.212 390.993,140.52 350.065,144.609C350.065,144.609 334.403,153.877 315.272,169.676C328.201,165.362 338.665,163.835 338.861,163.808L342.868,163.244L339.254,165.062C339.208,165.085 334.695,167.398 331.339,172.982C329.025,176.839 343.615,188.448 353.353,194.859L355.303,196.146L352.968,196.081C333.633,195.572 327.351,188.133 325.868,185.847C301.152,200.455 292.912,243.57 292.829,244.006L292.793,244.198L292.659,244.343C292.555,244.454 281.81,255.631 267.137,257.974C262.591,258.703 258.98,257.914 256.403,255.631C254.332,253.794 253.317,251.33 252.81,249.235C252.679,249.592 252.543,249.948 252.416,250.304C252.416,250.304 252.416,322.719 344.213,391.044C344.213,391.044 342.785,424.09 347.081,461.556C351.863,503.23 363.569,544.551 365.892,550.5L403.128,550.519C407.465,514.86 410.496,470.326 409.023,427.401Z" style="fill:rgb(0,39,93);fill-rule:nonzero;"/>
                                <path d="M536.619,424.036L536.179,424.63C536.179,424.63 521.346,415.739 521.137,415.62C520.919,415.579 504.421,412.389 503.58,412.223C503.183,412.861 500.337,417.312 499.961,417.908C506.432,429.471 530.589,432.983 530.829,433.015L531.222,433.072L531.365,433.436C531.39,433.516 534.345,441.028 541.769,449.583C554.528,464.287 565.158,458.529 566.423,457.769C566.55,457.255 570.221,443.145 570.363,442.568C570.011,442.086 557.052,424.283 556.701,423.803C556.186,423.768 544.11,422.875 540.961,422.638C539.607,423.06 538.239,423.497 536.82,423.974L536.619,424.036Z" style="fill:rgb(0,39,93);fill-rule:nonzero;"/>
                                <path d="M507.346,498.554C507.346,509.726 509.413,518.64 511.846,525.271C513.625,523.733 515.612,522.102 517.854,520.337C513.737,513.466 509.397,503.22 507.865,489.196C507.552,492.457 507.346,495.605 507.346,498.554Z" style="fill:rgb(0,39,93);fill-rule:nonzero;"/>
                                <path d="M584.501,407.791L575.529,416.748C575.529,416.748 569.451,418.487 568.055,418.882C568.609,419.717 569.436,420.955 569.691,421.328L577.828,421.328C578.198,420.964 585.019,414.137 585.165,414.005C585.252,413.83 595.448,394.657 595.448,394.657L601.711,400.216L590.907,424.214C590.907,424.214 578.964,431.473 577.878,432.135C578.412,432.936 580.086,435.454 580.616,436.239C581.618,435.533 591.364,428.729 591.621,428.554C591.764,428.267 601.32,409.787 601.32,409.787L607.576,416.035L597.347,435.262C597.347,435.262 581.393,448.917 581.049,449.215C580.967,449.648 577.188,468.484 577.065,469.11C577.459,469.541 581.119,473.738 581.119,473.738L581.103,474.013C581.049,475.149 581.015,476.271 581.015,477.391C581.015,520.466 623.018,544.976 623.457,545.216L623.769,545.398C623.769,545.398 624.971,570.141 625.397,578.807C635.56,557.275 657.906,497.572 605.583,475.726L592.133,454.693L604.419,436.592L612.605,414.406L607.343,409.147L609.096,396.889L602.082,390.462L605.583,375.281L599.742,367.105L594.697,368.02L600.527,375.188L584.501,407.791Z" style="fill:rgb(0,39,93);fill-rule:nonzero;"/>
                                <path d="M551.462,312.734C549.907,312.378 546.608,311.616 546.326,311.549C546.04,311.652 544.039,312.365 543.397,312.595C543.397,313.013 543.386,315.603 543.386,318.258L551.413,313.083L551.462,312.734Z" style="fill:rgb(0,39,93);fill-rule:nonzero;"/>
                                <path d="M512.128,283.392C512.167,283.119 513.096,276.612 515.932,273.574C520.081,269.136 526.282,265.878 526.544,265.744L527.551,265.215L526.6,296.034L512.07,283.757L512.128,283.392ZM462.077,383.232L462.117,383.149C462.205,382.998 464.352,379.323 474.475,375.276C484.488,371.282 498.728,370.097 498.871,370.086L498.993,370.079L506.402,372.189C506.402,372.189 499.001,372.984 498.863,372.998C490.158,373.901 482.083,376.653 474.877,381.178C464.031,387.98 460.204,397.217 460.169,397.31L456.982,405.184L462.077,383.232ZM423.36,485.258C439.531,449.149 472.746,394.908 529.85,381.855C526.151,378.965 521.827,375.813 516.718,372.396L516.813,372.14L516.445,372.24L469.702,340.166C469.702,340.166 466.48,333.33 463.774,327.601C466.449,337.262 472.519,359.229 472.519,359.229L462.812,356.385L462.796,355.91C461.779,332.625 457.264,312.722 457.222,312.523L456.375,308.862C456.375,308.862 471.784,332.545 473.37,334.981C474.105,331.452 475.749,328.905 478.391,327.529C484.816,324.181 494.801,328.353 498.424,330.086C496.99,325.325 496.357,320.858 496.357,316.765C496.357,297.678 509.138,286.167 509.299,286.027L509.885,285.511C509.885,285.511 524.982,309.351 525.671,310.44C526.631,309.815 534.369,304.776 535.459,304.076C534.689,303.2 531.872,299.987 531.872,299.987C531.872,299.987 528.475,265.202 528.425,264.739C528.203,264.509 503.277,239.285 487.787,223.594C483.733,228.477 454.653,265.455 452.386,324.865C452.386,324.865 443.461,316.227 428.309,309.891C431.016,330.383 432.202,353.037 432.202,375.852C432.202,415.379 428.637,455.246 423.36,485.258Z" style="fill:rgb(0,39,93);fill-rule:nonzero;"/>
                                <path d="M414.548,514.763C414.548,514.763 448.646,401.425 532.913,384.299C531.951,383.508 530.925,382.689 529.85,381.855C472.746,394.908 439.531,449.149 423.36,485.258C428.637,455.246 432.202,415.379 432.202,375.852C432.202,353.037 431.016,330.383 428.309,309.891C426.947,309.32 425.538,308.767 424.073,308.237C427.26,332.646 436.51,422.577 414.548,514.763Z" style="fill:rgb(253,183,39);fill-rule:nonzero;"/>
                                <path d="M388.631,303.717C387.67,303.807 386.707,303.906 385.728,304.032C385.728,304.032 384.534,302.407 382.359,299.795C397.962,328.172 407.109,371.665 409.023,427.401C410.496,470.326 407.465,514.86 403.128,550.519L405.239,550.519C412.49,490.237 421.918,367.167 388.631,303.717Z" style="fill:rgb(253,183,39);fill-rule:nonzero;"/>
                                <path d="M507.098,431.514C506.2,430.848 505.327,430.189 504.526,429.528C467.987,447.582 424.8,482.996 406.9,550.519L409.336,550.519C423.967,496.646 457.288,455.909 507.098,431.514Z" style="fill:rgb(253,183,39);fill-rule:nonzero;"/>
                                <path d="M493.955,418.887L493.682,418.511L501.204,407.232L523.396,412.027L538.182,420.893C539.367,420.473 540.538,420.075 541.706,419.699C544.419,414.437 549.922,403.797 549.986,403.673C549.986,403.66 550.051,403.352 550.147,402.849C548.937,400.482 544.901,394.138 532.913,384.299C448.646,401.425 414.548,514.763 414.548,514.763C436.51,422.577 427.26,332.646 424.073,308.237C414.254,304.717 402.239,302.41 388.631,303.717C421.918,367.167 412.49,490.237 405.239,550.519L406.9,550.519C424.8,482.996 467.987,447.582 504.526,429.528C497.75,424.034 494.008,418.968 493.955,418.887Z" style="fill:rgb(107,44,145);fill-rule:nonzero;"/>
                                <path d="M381.471,202.302L375.62,202.302L385.702,220.009L385.728,219.942L389.825,220.526L391.349,219.33C388.999,215.92 387.546,212.2 386.327,209.069C384.798,205.141 383.693,202.302 381.471,202.302Z" style="fill:rgb(253,183,39);fill-rule:nonzero;"/>
                                <path d="M367.519,212.468C366.21,208.414 365.259,205.481 362.985,205.265C359.635,204.949 355.923,204.944 355.89,204.944L355.541,204.944L354.103,207.003L354.254,207.352L355.324,205.342L368.186,227.532L376.372,229.869L377.17,229.321C371.37,224.39 369.175,217.604 367.519,212.468Z" style="fill:rgb(253,183,39);fill-rule:nonzero;"/>
                                <path d="M371.187,339.173L371.277,338.576L370.694,338.429C308.308,322.421 314.98,273.672 315.052,273.184L316.062,266.555L304.356,298.711L304.381,298.879C312.787,354.84 356.352,374.228 359.983,375.749C364.722,411.029 386.076,459.73 386.291,460.218L386.684,461.118L390.636,457.16L390.417,456.729C362.195,400.937 371.094,339.786 371.187,339.173Z" style="fill:rgb(253,183,39);fill-rule:nonzero;"/>
                                <path d="M410.384,185.89C405.995,185.245 403.353,183.364 403.327,183.344L401.522,182.037L409.119,202.077L409.119,201.255L412.626,203.007L414.884,201.343C413.861,198.233 413.542,195.146 413.275,192.63C412.89,188.905 412.611,186.218 410.384,185.89Z" style="fill:rgb(253,183,39);fill-rule:nonzero;"/>
                                <path d="M256.403,255.631C258.98,257.914 262.591,258.703 267.137,257.974C281.81,255.631 292.555,244.454 292.659,244.343L292.793,244.198L292.829,244.006C292.912,243.57 301.152,200.455 325.868,185.847C327.351,188.133 333.633,195.572 352.968,196.081L355.303,196.146L353.353,194.859C343.615,188.448 329.025,176.839 331.339,172.982C334.695,167.398 339.208,165.085 339.254,165.062L342.868,163.244L338.861,163.808C338.665,163.835 328.201,165.362 315.272,169.676C292.509,188.476 264.846,216.53 252.81,249.235C253.317,251.33 254.332,253.794 256.403,255.631Z" style="fill:rgb(253,183,39);fill-rule:nonzero;"/>
                                <path d="M396.536,193.203L390.554,192.565L390.997,193.596L398.011,210.963L398.011,210.015L402.103,211.769L403.312,210.758C400.829,206.633 400.136,202.417 399.6,199.145C399.055,195.831 398.662,193.437 396.536,193.203Z" style="fill:rgb(253,183,39);fill-rule:nonzero;"/>
                                <path d="M474.877,381.178C482.083,376.658 490.158,373.901 498.863,372.998C499.001,372.984 506.402,372.191 506.402,372.191L498.993,370.079L498.871,370.086C498.728,370.097 484.488,371.282 474.475,375.276C464.352,379.323 462.205,382.998 462.117,383.149L462.077,383.232L456.982,405.184L460.169,397.31C460.204,397.217 464.031,387.982 474.877,381.178Z" style="fill:rgb(253,183,39);fill-rule:nonzero;"/>
                                <path d="M562.145,504.72L561.665,504.654C522.956,499.704 516.836,466.017 516.781,465.683L516.492,463.951L515.555,465.44C513.065,469.422 510.693,472.953 508.452,476.077L508.433,475.741L508.353,476.206C492.689,498.023 483.358,500.155 483.253,500.178C469.43,504.207 455.477,503.677 455.349,503.677L453.403,503.59L454.885,504.848C461.763,510.663 474.963,516.798 477.846,518.109C473.724,527.786 471.864,539.207 471.295,550.542L494.001,550.55C497.509,541.619 499.77,535.739 511.846,525.271C509.413,518.64 507.346,509.733 507.346,498.554C507.346,495.605 507.552,492.457 507.865,489.196C509.397,503.22 513.737,513.466 517.854,520.337C518.023,520.203 518.19,520.066 518.367,519.928C518.367,519.928 550.348,561.618 594.04,575.939C570.682,548.018 562.33,505.706 562.225,505.185L562.145,504.72Z" style="fill:rgb(0,39,93);fill-rule:nonzero;"/>
                                <path d="M562.145,504.72L561.665,504.654C522.956,499.704 516.836,466.017 516.781,465.683L516.492,463.951L515.555,465.44C513.065,469.422 510.693,472.953 508.452,476.077L508.433,475.741L508.353,476.206C492.689,498.023 483.358,500.155 483.253,500.178C469.43,504.207 455.477,503.677 455.349,503.677L453.403,503.59L454.885,504.848C461.763,510.663 474.963,516.798 477.846,518.109C473.724,527.786 471.864,539.207 471.295,550.542L494.001,550.55C497.509,541.619 499.77,535.739 511.846,525.271C509.413,518.64 507.346,509.733 507.346,498.554C507.346,495.605 507.552,492.457 507.865,489.196C509.397,503.22 513.737,513.466 517.854,520.337C518.023,520.203 518.19,520.066 518.367,519.928C518.367,519.928 550.348,561.618 594.04,575.939C570.682,548.018 562.33,505.706 562.225,505.185L562.145,504.72Z" style="fill:rgb(253,183,39);fill-rule:nonzero;"/>
                                <path d="M527.551,265.215L526.544,265.744C526.282,265.878 520.081,269.136 515.932,273.574C513.096,276.612 512.167,283.119 512.12,283.392L512.07,283.757L526.6,296.034L527.551,265.215Z" style="fill:rgb(253,183,39);fill-rule:nonzero;"/>
                                <path d="M531.872,299.987C531.872,299.987 534.689,303.2 535.459,304.076C534.369,304.776 526.631,309.815 525.671,310.44C524.982,309.351 509.885,285.511 509.885,285.511L509.299,286.027C509.138,286.167 496.357,297.678 496.357,316.765C496.357,320.858 496.99,325.325 498.424,330.086C494.801,328.353 484.816,324.181 478.391,327.529C475.749,328.905 474.105,331.452 473.37,334.981C471.784,332.545 456.375,308.862 456.375,308.862L457.222,312.523C457.264,312.722 461.779,332.625 462.789,355.91L462.812,356.385L472.519,359.229C472.519,359.229 466.449,337.262 463.774,327.601C466.48,333.33 469.702,340.166 469.702,340.166L516.445,372.24L516.813,372.14L520.737,361.52C518.51,358.503 514.906,353.634 514.633,353.278C514.778,352.82 515.427,350.767 515.724,349.818C516.677,350.292 524.142,353.996 528.027,355.926L528.264,348.685C523.62,346.254 513.32,340.86 513.32,340.86C513.32,340.86 507.281,342.746 505.327,343.35C505.919,341.88 506.881,339.481 506.993,339.197C507.331,338.993 512.391,335.833 513.047,335.425C513.737,335.921 526.086,344.849 526.086,344.851C526.086,344.864 527.876,346.799 529.298,348.349L530.254,348.075L533.671,338.866C532.408,336.982 529.427,332.545 528.394,331.016C530.51,331.349 536.148,332.232 536.386,332.274C536.531,332.375 539.359,334.299 541.61,335.831L542.147,335.634L542.731,318.681L543.386,318.258C543.386,315.603 543.397,313.013 543.397,312.595C544.039,312.365 546.04,311.652 546.326,311.549C546.608,311.616 549.907,312.378 551.462,312.734L556.426,271.933L517.755,241.043L488.267,223.021C488.267,223.021 488.091,223.225 487.787,223.594C503.277,239.285 528.203,264.509 528.425,264.739C528.475,265.202 531.872,299.987 531.872,299.987Z" style="fill:rgb(253,183,39);fill-rule:nonzero;"/>
                                <path d="M369.004,227.606L355.472,204.265L106.965,448.143C106.965,448.143 290.572,293.983 292.741,292.162C292.733,294.696 292.674,316.62 292.674,316.62L369.004,227.606Z" style="fill:rgb(107,44,145);fill-rule:nonzero;"/>
                                <path d="M365.952,227.327L354.923,208.304L154.652,404.845C154.652,404.845 293.096,288.605 295.257,286.792C295.25,289.311 295.193,309.844 295.193,309.844L365.952,227.327Z" style="fill:rgb(253,183,39);fill-rule:nonzero;"/>
                                <path d="M566.423,457.769C565.158,458.529 554.528,464.287 541.769,449.583C534.345,441.028 531.39,433.516 531.365,433.436L531.222,433.072L530.829,433.015C530.589,432.983 506.432,429.471 499.961,417.908C500.337,417.312 503.183,412.861 503.58,412.223C504.421,412.389 520.919,415.579 521.137,415.62C521.346,415.739 536.179,424.63 536.179,424.63L536.619,424.036L536.82,423.974C538.239,423.497 539.607,423.06 540.961,422.638C544.11,422.875 556.186,423.768 556.701,423.803C557.052,424.283 570.011,442.086 570.363,442.568C570.221,443.145 566.55,457.255 566.423,457.769ZM623.769,545.398L623.457,545.216C623.018,544.976 581.015,520.466 581.015,477.391C581.015,476.271 581.049,475.149 581.103,474.013L581.119,473.738C581.119,473.738 577.459,469.541 577.065,469.11C577.188,468.484 580.967,449.648 581.049,449.215C581.393,448.917 597.347,435.262 597.347,435.262L607.576,416.035L601.32,409.787C601.32,409.787 591.764,428.267 591.621,428.554C591.364,428.729 581.618,435.533 580.616,436.239C580.086,435.454 578.412,432.936 577.878,432.135C578.964,431.473 590.907,424.209 590.907,424.209L601.711,400.216L595.448,394.657C595.448,394.657 585.252,413.83 585.165,414.005C585.019,414.137 578.198,420.964 577.828,421.328L569.691,421.328C569.436,420.955 568.609,419.717 568.055,418.882C569.451,418.487 575.529,416.748 575.529,416.748L584.501,407.791L600.527,375.188L594.697,368.02L593.301,368.271L582.786,392.216L572.844,404.479L573.737,401.203C572.91,402.841 572.414,403.846 572.365,403.926C571.934,404.063 566.375,405.796 564.548,406.367C565.333,404.109 572.928,382.4 572.928,382.4L572.928,362.011L563.164,357.367L562.322,357.759L559.389,382.868L555.099,393.177L553.905,396.029L550.628,403.892C550.628,403.892 550.501,403.536 550.147,402.843C550.051,403.352 549.986,403.66 549.986,403.673C549.922,403.794 544.925,413.476 542.097,418.934L537.43,420.445L523.396,412.027L501.204,407.232L493.682,418.511L493.955,418.887C494.008,418.968 497.75,424.034 504.526,429.528C505.327,430.189 506.2,430.848 507.098,431.514C510.693,434.171 514.971,436.815 519.873,438.914C520.241,439.201 529.819,446.628 535.443,455.062L537.03,457.448C542.044,465.057 545.711,470.585 554.137,473.853C555.176,478.833 568.616,539.32 606.143,580.393C609.482,582.434 615.297,585.533 621.368,586.68C621.368,586.68 623.065,583.748 625.397,578.807C624.971,570.141 623.769,545.398 623.769,545.398Z" style="fill:rgb(253,183,39);fill-rule:nonzero;"/>
                                <path d="M519.392,615.071L549.922,615.071L421.628,419.593L420.459,420.109C420.459,420.109 464.704,588.4 465.127,590.002C463.525,590.002 428.773,589.986 428.773,589.986L559.713,803.094L560.895,802.62C560.895,802.62 519.745,616.634 519.392,615.071Z" style="fill:rgb(107,44,145);fill-rule:nonzero;"/>
                                <path d="M554.074,787.091C554.074,787.091 515.529,613.359 515.187,611.805L543.844,611.805L428.998,437.695C428.998,437.695 469.187,591.701 469.606,593.303C468.004,593.303 434.653,593.287 434.653,593.287L554.074,787.091Z" style="fill:rgb(253,183,39);fill-rule:nonzero;"/>
                            </g>
                        </g>
                    </g>
                </g>
            </g>
        </g>
    </g>
</svg>
