<?xml version="1.0" encoding="UTF-8" standalone="no"?>
<!DOCTYPE svg PUBLIC "-//W3C//DTD SVG 1.1//EN" "http://www.w3.org/Graphics/SVG/1.1/DTD/svg11.dtd">
<svg width="100%" height="100%" viewBox="0 0 132 97" version="1.1" xmlns="http://www.w3.org/2000/svg" xmlns:xlink="http://www.w3.org/1999/xlink" xml:space="preserve" xmlns:serif="http://www.serif.com/" style="fill-rule:evenodd;clip-rule:evenodd;stroke-linejoin:round;stroke-miterlimit:2;">
    <g transform="matrix(1,0,0,1,-2236.32897,-318.825326)">
        <g transform="matrix(1,0,0,1,2182.379403,-294.007405)">
            <g transform="matrix(0.764577,0,0,0.561732,13.427003,269.053001)">
                <rect x="53" y="612" width="172" height="172" style="fill:rgb(12,85,164);fill-opacity:0;"/>
                <clipPath id="_clip1">
                    <rect x="53" y="612" width="172" height="172"/>
                </clipPath>
                <g clip-path="url(#_clip1)">
                    <g transform="matrix(0.26577,0,0,0.361742,124.683925,698)">
                        <g transform="matrix(1,0,0,1,-1000,-1000)">
                            <g id="watermark_1_">
                            </g>
                            <g transform="matrix(2,0,0,2,0,0)">
                                <path d="M292.552,582.762C297.032,577.761 301.504,572.752 305.994,567.76C318,554.409 330.009,541.061 342.026,527.721C351.795,516.876 361.585,506.05 371.354,495.204C378.29,487.503 385.193,479.773 392.146,472.088C392.981,471.165 393.396,470.233 393.422,468.975C393.605,459.963 395.997,451.425 398.981,442.996C403.027,431.565 410.053,422.051 417.906,413.035C425.402,404.428 433.591,396.523 442.196,389.043C457.057,376.126 472.943,364.676 490.458,355.585C496.631,352.381 503.216,350.604 510.17,350.387C515.179,350.231 520.027,351.365 524.825,352.671C528.344,353.629 531.792,354.828 535.162,356.203C536.345,356.686 537.013,356.445 537.864,355.702C541.932,352.151 546.044,348.65 550.131,345.121C558.748,337.682 567.349,330.226 575.975,322.799C587.2,313.135 598.41,303.452 609.688,293.851C621.797,283.542 634.086,273.447 646.395,263.378C650.736,259.827 655.06,256.256 659.392,252.694C659.834,252.563 660.198,252.027 660.727,252.368C661.036,252.567 660.913,252.835 660.681,253.048C660.262,253.527 659.843,254.007 659.424,254.486C659.082,254.878 658.918,255.397 658.525,255.754C646.406,270.63 634.155,285.396 621.694,299.987C611.549,311.866 601.016,323.401 590.546,334.99C579.046,347.72 567.504,360.412 555.952,373.094C555.169,373.954 554.734,374.858 554.599,375.989C554.236,379.031 553.693,382.059 553.477,385.11C553.265,388.11 551.364,389.61 549.026,390.837C548.249,391.245 547.761,390.947 547.759,390.023C547.758,389.585 547.764,389.147 547.764,388.708C547.764,382.866 547.738,377.023 547.786,371.181C547.796,369.944 547.44,369.16 546.299,368.559C541.27,365.909 536.292,363.165 531.268,360.506C530.684,360.197 530.167,359.458 529.135,359.928C529.9,360.61 530.577,361.252 531.294,361.846C534.606,364.594 537.891,367.377 541.267,370.045C542.669,371.153 543.171,372.43 543.181,374.187C543.217,380.319 543.278,386.456 543.564,392.58C543.678,395.025 542.875,396.652 540.834,397.819C539.835,398.39 538.855,399.495 537.702,399.034C536.463,398.538 537.059,397.077 536.994,396.069C536.618,390.242 536.311,384.41 536.086,378.576C536.037,377.315 535.642,376.592 534.529,375.998C530.413,373.801 526.346,371.512 522.26,369.258C521.791,369.02 521.364,368.706 520.896,368.467L520.865,368.453C520.304,367.951 519.456,368.326 519.211,367.982C519.554,368.18 519.832,368.905 520.376,369.38C523.7,372.337 527.008,375.312 530.36,378.236C531.022,378.814 531.338,379.413 531.367,380.288C531.603,387.36 532.259,394.404 532.852,401.451C532.953,402.652 532.655,403.56 531.851,404.418C530.483,405.879 528.859,406.983 527.087,407.853C525.84,408.465 525.365,408.163 525.246,406.751C524.916,402.828 524.638,398.9 524.334,394.975C524.176,392.939 523.927,390.906 523.868,388.868C523.825,387.388 523.155,386.38 522,385.614C518.419,383.24 514.828,380.882 511.24,378.518C510.852,378.159 510.391,377.916 509.917,377.697C509.319,377.617 508.929,377.237 508.593,376.779C507.806,376.371 506.855,376.257 506.284,375.454C506.636,376.153 507.574,376.38 507.649,377.272C510.49,379.993 513.288,382.76 516.19,385.414C517.665,386.763 518.452,388.249 518.687,390.288C519.507,397.387 520.491,404.468 521.495,411.545C521.683,412.869 521.292,413.81 520.405,414.675C519.35,415.705 518.151,416.539 516.81,417.126C515.981,417.489 515.293,417.977 514.723,418.662C509.019,425.512 502.699,431.797 496.655,438.334C490.657,444.82 484.604,451.255 478.575,457.712C477.378,458.994 477.38,458.992 478.433,459.903C484.578,465.224 490.061,471.177 495.227,477.437C500.246,483.519 504.944,489.839 509.353,496.373C510.108,497.492 510.99,498.093 512.333,498.3C518.75,499.286 525.156,500.349 531.566,501.381C536.969,502.251 542.37,503.13 547.777,503.977C553.399,504.858 559.025,505.705 564.65,506.566C566.236,506.809 567.827,507.024 569.407,507.3C570.54,507.498 570.943,507.042 571.09,505.932C571.779,500.725 572.756,495.569 573.844,490.429C575.143,484.29 576.71,478.223 578.597,472.247C581.851,461.943 585.857,451.935 590.95,442.392C595.807,433.292 601.273,424.59 608.324,416.991C610.009,415.175 611.907,413.556 613.675,411.814C614.677,410.826 615.636,410.675 617.01,411.241C623.842,414.054 630.337,417.504 636.629,421.346C648.476,428.58 659.646,436.772 670.442,445.476C675.554,449.597 680.586,453.818 685.64,458.011C686.481,458.709 687.205,459.551 688.059,460.231C689.29,461.212 689.523,462.34 689.225,463.882C687.718,471.684 686.327,479.508 684.887,487.323C683.698,493.774 682.477,500.22 681.316,506.677C681.114,507.798 680.562,508.107 679.504,508.011C677.978,507.872 676.443,507.826 674.91,507.756C673.053,507.672 672.924,507.752 672.786,509.618C672.43,514.421 672.125,519.228 671.777,524.031C671.651,525.771 671.998,527.732 671.061,529.17C670.144,530.576 668.113,530.759 666.558,531.075C663.071,531.782 661.435,533.83 660.737,537.141C660.32,539.12 659.411,540.99 658.826,542.94C658.337,544.569 657.597,546.02 656.565,547.379C652.156,553.188 647.879,559.097 643.244,564.732C642.642,565.463 641.98,566.147 641.321,566.829C639.846,568.354 639.836,568.351 641.472,569.837C643.039,571.26 644.62,572.666 646.184,574.092C654.222,581.421 662.256,588.754 670.291,596.085C670.507,596.282 670.709,596.498 670.942,596.671C671.835,597.332 671.657,597.921 670.927,598.611C668.752,600.668 666.689,602.849 664.453,604.834C647.232,620.12 627.966,632.14 606.662,640.902C595.719,645.402 584.482,648.979 572.957,651.629C563.494,653.805 553.927,655.374 544.261,656.395C534.075,657.471 523.87,657.804 513.639,657.798C479.817,657.777 445.995,657.791 412.174,657.778C411.397,657.778 410.578,657.999 409.624,657.428C410.712,655.637 411.777,653.853 412.873,652.087C419.796,640.927 426.725,629.771 433.653,618.614C443.351,602.998 453.05,587.382 462.748,571.766C462.902,571.518 463.018,571.244 463.192,571.012C463.749,570.269 463.64,569.739 462.824,569.229C461.156,568.185 459.558,567.029 457.892,565.98C446.21,558.625 435.686,549.889 426.502,539.578C417.217,529.154 409.687,517.576 403.903,504.865C402.467,501.709 402.433,501.719 399.71,503.787C381.007,517.996 362.306,532.208 343.602,546.415C330.477,556.384 317.351,566.351 304.219,576.31C300.616,579.042 296.987,581.739 293.37,584.452C292.796,584.892 292.239,585.354 291.659,585.787L291.645,585.799C291.216,586.1 290.739,586.329 290.328,586.658C289.887,586.79 289.642,587.155 289.357,587.473C288.805,587.893 288.521,587.77 288.528,587.062C288.968,586.335 289.581,585.773 290.242,585.257C291.05,584.457 291.845,583.651 292.552,582.762Z" style="fill:rgb(9,35,64);fill-rule:nonzero;"/>
                                <path d="M607.414,646.976C610.701,645.512 614.004,644.082 617.273,642.578C633.492,635.117 648.718,626.035 662.685,614.875C667.074,611.369 671.273,607.648 675.503,603.96C676.683,602.931 676.678,602.901 677.775,603.871C680.288,606.092 682.798,608.318 685.293,610.559C686.866,611.971 687.041,611.866 685.147,613.394C679.523,617.933 673.502,621.888 667.343,625.647C655.781,632.705 643.482,638.131 630.539,642.076C623.021,644.371 615.367,646.137 607.414,646.976Z" style="fill:rgb(9,35,64);fill-rule:nonzero;"/>
                                <path d="M500.453,631.182C502.073,631.717 503.492,631.06 504.881,630.817C511.25,629.704 517.624,628.625 523.931,627.146C528.875,625.987 533.832,624.893 538.765,623.67C543.916,622.393 548.999,620.914 554.087,619.425C559.798,617.754 565.446,615.894 571.012,613.815C579.857,610.511 588.539,606.818 596.947,602.481C604.521,598.574 611.866,594.305 618.703,589.22C624.445,584.949 629.798,580.22 634.48,574.776C635.351,573.763 635.626,573.712 636.598,574.579C638.283,576.083 639.936,577.624 641.607,579.144C646.295,583.412 650.99,587.673 655.673,591.948C657.342,593.471 658.878,595.132 660.674,596.527C661.817,597.415 661.764,597.751 660.63,598.753C656.372,602.513 652.052,606.201 647.528,609.64C643.759,612.505 639.864,615.196 635.902,617.784C630.24,621.483 624.331,624.756 618.331,627.874C612.971,630.659 607.458,633.112 601.843,635.307C594.88,638.029 587.84,640.538 580.587,642.439C577.21,643.324 573.849,644.317 570.449,645.083C566.131,646.056 561.772,646.873 557.403,647.635C552.887,648.422 548.331,648.888 543.81,649.618C541.656,649.966 539.459,649.879 537.28,650.109C533.884,650.468 530.454,650.59 527.026,650.693C499.719,651.512 472.408,650.811 445.1,651.042C443.879,651.052 442.658,651.043 441.568,651.043C441.193,650.399 441.492,650.126 441.723,649.868C445.706,645.414 449.715,640.982 453.68,636.511C457.69,631.988 461.647,627.418 465.647,622.887C468.299,619.883 471.004,616.925 473.655,613.92C477.556,609.496 481.418,605.038 485.321,600.616C487.973,597.611 490.68,594.655 493.337,591.654C497.538,586.91 501.717,582.148 505.905,577.393C506.05,577.229 506.177,577.036 506.352,576.913C508.842,575.166 509.185,572.72 509.171,569.841C509.069,549.101 509.116,528.361 509.116,507.62C509.116,507.109 509.097,506.597 509.12,506.087C509.19,504.486 509.302,504.385 510.938,504.648C517.252,505.663 523.556,506.746 529.88,507.7C538.074,508.937 546.26,510.215 554.423,511.64C558.358,512.327 562.321,512.86 566.269,513.475C566.843,513.564 567.402,513.779 567.977,513.835C568.948,513.93 569.184,514.433 569.027,515.325C568.157,520.267 567.227,525.2 565.853,530.028C564.64,534.292 563.383,538.547 561.757,542.684C559.58,548.22 557.289,553.696 554.602,559.016C552.244,563.686 549.805,568.306 547.106,572.782C542.489,580.439 537.623,587.93 532.124,595.003C529.309,598.624 526.554,602.291 523.608,605.809C521.784,607.986 520.027,610.22 518.143,612.343C515.917,614.851 513.586,617.266 511.3,619.721C509.661,621.482 508.067,623.288 506.368,624.989C504.669,626.69 502.86,628.282 501.107,629.929C500.798,630.221 500.451,630.507 500.453,631.182Z" style="fill:rgb(81,45,130);fill-rule:nonzero;"/>
                                <path d="M652.12,537.929C648.66,536.002 645.801,533.859 642.89,531.797C640.57,530.154 638.241,528.52 635.992,526.783C634.929,525.961 634.001,525.733 632.852,526.528C632.196,526.982 631.477,527.37 630.74,527.676C628.464,528.618 626.793,530.066 626.258,532.594C626.145,533.126 625.496,533.639 626.064,534.174C626.577,534.658 627.177,534.196 627.709,534.046C629.464,533.551 631.235,533.085 632.943,532.455C634.037,532.051 634.911,532.245 635.825,532.83C640.247,535.663 644.684,538.474 649.104,541.312C650.443,542.172 650.43,542.245 649.358,543.393C646.906,546.015 646.902,546.021 643.774,544.08C642.039,543.004 640.314,541.911 638.592,540.815C636.69,539.605 636.694,539.599 635.888,541.619C635.834,541.755 635.781,541.892 635.709,542.019C635.047,543.19 635.215,544.129 636.192,545.144C638.215,547.246 640.072,549.506 642.056,551.647C642.821,552.473 642.987,553.107 642.256,554.101C640.571,556.393 638.911,558.697 637.061,560.863C635.998,562.108 634.707,562.789 633.089,562.881C631.045,562.996 628.996,563.042 626.96,562.822C624.015,562.504 621.546,561.045 619.406,559.146C614.219,554.543 609.139,549.82 604.012,545.15C601.422,542.79 598.832,540.43 596.225,538.089C595.03,537.016 594.948,537.043 594.321,538.47C588.152,552.507 579.286,564.594 567.922,574.857C565.867,576.713 563.65,578.391 561.499,580.141C561.237,580.354 560.917,580.497 560.484,580.757C560.545,579.754 561.06,579.136 561.45,578.47C570.336,563.29 577.281,547.286 581.826,530.276C582.616,527.321 583.148,524.298 583.826,521.313C584.271,519.355 584.298,519.318 586.215,519.615C590.397,520.263 594.574,520.943 598.748,521.641C600.655,521.96 600.752,521.965 601.537,520.149C605.957,509.924 611.631,500.43 618.29,491.52C621.919,486.664 625.817,482.03 630.108,477.737C630.366,477.479 630.624,477.22 630.888,476.968C631.503,476.38 632.002,476.425 632.464,477.187C633.445,478.809 634.465,480.407 635.469,482.015C639.331,488.203 643.192,494.392 647.053,500.58C647.246,500.889 647.47,501.184 647.625,501.511C648.081,502.471 648.729,502.542 649.571,502.012C651.053,501.08 652.549,500.171 654.035,499.246C655.762,498.171 657.485,497.09 659.363,495.915C658.703,494.527 657.713,493.474 656.817,492.373C656.145,491.547 655.814,490.691 655.751,489.601C655.277,481.368 654.74,473.139 654.212,464.909C654.067,462.652 653.823,460.398 653.755,458.139C653.722,457.045 653.108,456.416 652.446,455.734C644.513,447.557 636.572,439.388 628.661,431.191C625.325,427.734 622.055,424.213 618.648,420.608C619.417,420.109 619.873,420.542 620.335,420.774C626.142,423.696 631.749,426.963 637.189,430.521C650.891,439.485 663.797,449.48 675.957,460.439C677.041,461.416 678.073,462.452 679.141,463.448C679.784,464.048 679.955,464.726 679.82,465.615C678.441,474.702 677.098,483.794 675.753,492.887C675.422,495.123 675.121,497.363 674.807,499.601C674.603,501.05 674.483,501.195 673.006,501.126C671.184,501.041 669.363,500.904 667.548,500.724C666.416,500.612 666.025,501.035 665.957,502.171C665.542,509.092 665.003,516.006 664.642,522.929C664.558,524.542 664.074,525.362 662.522,525.964C660.796,526.633 659.387,526.571 657.771,525.692C655.405,524.405 652.916,523.343 650.472,522.201C649.238,521.625 649.031,521.799 648.9,523.186C648.78,524.453 649.151,525.421 650.152,526.249C651.444,527.318 652.636,528.507 653.88,529.634C654.33,530.042 654.755,530.473 654.526,531.135C653.77,533.321 652.984,535.499 652.12,537.929Z" style="fill:rgb(198,201,200);fill-rule:nonzero;"/>
                                <path d="M330.644,548.94C330.325,549.223 330.006,549.505 329.688,549.788C329.416,550.249 328.814,550.325 328.533,550.776L328.511,550.797C328.017,550.968 327.564,551.064 327.59,550.29C330.207,547.562 332.84,544.849 335.437,542.102C346.819,530.065 358.192,518.019 369.567,505.975C383.447,491.279 397.327,476.584 411.204,461.886C426.784,445.384 442.36,428.877 457.945,412.378C458.428,411.867 458.813,411.207 459.752,410.973C460.809,414.715 461.856,418.392 462.884,422.073C463.433,424.039 463.938,426.017 464.485,427.983C464.885,429.421 465.214,429.517 466.356,428.505C470.833,424.538 475.286,420.542 479.773,416.587C486.283,410.849 492.703,405.008 499.436,399.526C500.022,399.089 500.685,398.741 501.079,398.086C501.145,397.858 501.296,397.734 501.533,397.718C502.67,397.244 502.946,398.145 503.212,398.859C504.954,403.544 506.399,408.333 508.188,413.001C508.604,414.087 507.745,414.568 507.294,415.257C506.861,415.712 506.429,416.168 505.996,416.623C504.751,418.421 502.884,419.652 501.607,421.421C497.798,425.548 494.005,429.69 490.175,433.798C480.271,444.422 470.358,455.038 460.418,465.628C459.919,466.16 459.579,467.275 458.654,466.965C457.826,466.688 457.977,465.607 457.748,464.861C456.573,461.029 455.405,457.194 454.233,453.361C453.776,451.868 453.615,451.779 452.369,452.755C448.235,455.993 444.135,459.274 440.017,462.533C426.633,473.124 413.244,483.708 399.863,494.302C385.054,506.027 370.255,517.764 355.445,529.488C347.613,535.688 339.769,541.873 331.931,548.065C331.567,548.452 331.069,548.642 330.644,548.94Z" style="fill:white;fill-rule:nonzero;"/>
                                <path d="M426.17,646.174C425.883,646.481 425.595,646.788 425.308,647.096C424.921,647.182 424.721,647.075 424.836,646.641C425.775,644.252 427.479,642.325 428.799,640.167C438.917,623.624 449.112,607.128 459.284,590.618C463.911,583.108 468.529,575.591 473.187,568.099C473.749,567.194 474.032,566.309 474.028,565.242C473.999,557.942 473.985,550.642 474.045,543.342C474.055,542.081 473.573,541.361 472.596,540.656C466.679,536.386 460.97,531.847 455.533,526.979C444.075,516.722 433.475,505.701 425.335,492.539C423.666,489.841 423.226,490.459 426.117,488.102C428.491,486.167 430.932,484.314 433.286,482.355C434.171,481.618 434.741,481.57 435.691,482.367C451.397,495.538 467.143,508.66 482.878,521.797C485.006,523.573 487.083,525.411 489.257,527.129C490.334,527.98 490.721,528.918 490.716,530.299C490.685,539.351 490.728,548.403 490.792,557.455C490.816,560.884 490.896,564.316 491.081,567.74C491.15,569.018 490.778,569.934 489.968,570.886C480.844,581.605 471.749,592.349 462.663,603.1C451.788,615.968 440.93,628.851 430.058,641.721C429.118,642.834 428.127,643.903 427.16,644.993C426.714,645.288 426.615,645.876 426.17,646.174Z" style="fill:rgb(198,201,200);fill-rule:nonzero;"/>
                                <path d="M507.294,415.257C507.963,414.284 507.703,413.389 507.315,412.335C505.774,408.152 504.387,403.912 502.902,399.708C502.633,398.947 502.654,397.92 501.533,397.719C501.884,396.723 501.196,396.492 500.479,396.186C496.322,394.407 492.075,392.864 487.797,391.416C482.203,389.522 476.539,387.861 470.773,386.538C469.263,386.191 468.348,386.511 467.328,387.582C456.047,399.422 444.728,411.225 433.416,423.034C423.77,433.103 414.12,443.169 404.465,453.229C403.871,453.848 403.217,454.41 402.579,455.01C402.072,454.833 402.249,454.409 402.349,454.119C404.35,448.259 406.305,442.382 409.038,436.802C411.203,432.382 414.117,428.462 417.139,424.624C425.203,414.385 434.383,405.217 444.126,396.583C452.924,388.786 462.058,381.413 471.69,374.675C479.288,369.36 487.369,364.841 495.618,360.621C495.988,360.432 496.374,360.173 496.985,360.326C496.663,361.094 496.022,361.544 495.492,362.07C490.622,366.905 485.744,371.733 480.872,376.567C480.51,376.926 480.178,377.317 479.833,377.693C479.285,378.291 479.364,378.876 479.885,379.438C480.784,380.409 481.847,381.173 482.97,381.862C489.638,385.956 496.786,389.109 503.829,392.463C508.235,394.561 508.234,394.494 508.955,399.215C509.461,402.529 510.09,405.824 510.642,409.131C510.786,409.993 510.854,410.869 510.944,411.739C510.998,412.267 510.981,412.927 510.437,413.065C509.086,413.407 508.511,414.779 507.294,415.257Z" style="fill:rgb(198,201,200);fill-rule:nonzero;"/>
                                <path d="M650.475,459.723C649.977,468.173 649.478,476.643 648.984,485.029C648.272,485.275 647.941,484.963 647.615,484.674C643.575,481.088 639.554,477.479 635.488,473.923C634.7,473.234 634.579,472.729 635.361,471.983C639.799,467.748 644.365,463.66 649.251,459.942C649.543,459.72 649.865,459.558 650.475,459.723Z" style="fill:rgb(197,200,199);fill-rule:nonzero;"/>
                                <path d="M501.607,421.421C502.593,419.386 504.36,418.065 505.996,416.623C504.913,418.57 503.293,420.025 501.607,421.421Z" style="fill:rgb(198,201,200);fill-rule:nonzero;"/>
                                <path d="M501.078,398.087C500.868,398.952 500.359,399.477 499.435,399.527C499.808,398.847 500.396,398.413 501.078,398.087Z" style="fill:rgb(198,201,200);fill-rule:nonzero;"/>
                            </g>
                        </g>
                    </g>
                </g>
            </g>
        </g>
    </g>
</svg>
