<?xml version="1.0" encoding="UTF-8" standalone="no"?>
<!DOCTYPE svg PUBLIC "-//W3C//DTD SVG 1.1//EN" "http://www.w3.org/Graphics/SVG/1.1/DTD/svg11.dtd">
<svg width="100%" height="100%" viewBox="0 0 132 97" version="1.1" xmlns="http://www.w3.org/2000/svg" xmlns:xlink="http://www.w3.org/1999/xlink" xml:space="preserve" xmlns:serif="http://www.serif.com/" style="fill-rule:evenodd;clip-rule:evenodd;stroke-linejoin:round;stroke-miterlimit:2;">
    <g transform="matrix(1,0,0,1,-2236.32897,-1238.302262)">
        <g transform="matrix(1,0,0,1,2182.379403,625.333113)">
            <g transform="matrix(0.764554,0,0,0.561148,13.428212,269.546798)">
                <rect x="53" y="612" width="172" height="172" style="fill:rgb(12,85,164);fill-opacity:0;"/>
                <clipPath id="_clip1">
                    <rect x="53" y="612" width="172" height="172"/>
                </clipPath>
                <g clip-path="url(#_clip1)">
                    <g transform="matrix(0.050303,0,0,0.068468,139,755.454966)">
                        <g transform="matrix(1,0,0,1,-2554,-2744)">
                            <clipPath id="_clip2">
                                <rect x="0" y="0" width="5108" height="5488"/>
                            </clipPath>
                            <g clip-path="url(#_clip2)">
                                <g transform="matrix(2,0,0,2,0,0)">
                                    <path d="M1049.5,-0.5L1529.5,-0.5C1593.29,45.127 1643.79,102.461 1681,171.5C1706.33,218.482 1724.33,268.148 1735,320.5C1784.95,372.707 1825.79,431.374 1857.5,496.5C1858.03,497.192 1858.69,497.692 1859.5,498C1902.8,504.162 1946.13,509.995 1989.5,515.5C1977.92,764.85 1966.42,1014.18 1955,1263.5C2127.52,1334.06 2300.02,1404.73 2472.5,1475.5C2466,1619.24 2416.66,1745.74 2324.5,1855C2400.73,1850.71 2461.57,1878.88 2507,1939.5C2525.1,1966.46 2536.1,1996.12 2540,2028.5C2541.29,2097.82 2541.96,2167.15 2542,2236.5C2548.1,2255.19 2551.94,2274.19 2553.5,2293.5L2553.5,2501.5C2551.35,2552.47 2535.18,2598.47 2505,2639.5C2452.18,2700.71 2386.18,2723.04 2307,2706.5C2084.83,2655.95 1857,2623.45 1623.5,2609C1303.3,2588.63 984.63,2599.63 667.5,2642C542.47,2659.31 419.304,2683.48 298,2714.5C280.91,2719.76 264.243,2724.42 248,2728.5C245.912,2729.31 243.912,2730.31 242,2731.5C241.667,2731.17 241.333,2730.83 241,2730.5C226.411,2734.83 212.245,2739.17 198.5,2743.5L193.5,2743.5L193.5,2231.5L127.5,2231.5C85.781,2107.71 43.115,1983.04 -0.5,1857.5L-0.5,1855.5C84.167,1855.67 168.834,1855.5 253.5,1855C174.939,1762.01 127.772,1656.17 112,1537.5C109.581,1517.82 107.081,1498.15 104.5,1478.5C104.608,1477.56 104.941,1476.72 105.5,1476C278.178,1405.55 450.678,1334.72 623,1263.5C612.135,1014.15 600.635,764.814 588.5,515.5C632.189,509.914 675.856,504.08 719.5,498C744.215,450.037 773.048,404.871 806,362.5C817.61,348.387 829.777,334.72 842.5,321.5C867.384,207.844 922.05,111.677 1006.5,33C1020.45,21.206 1034.78,10.039 1049.5,-0.5Z" style="fill:rgb(254,254,254);fill-opacity:0.99;"/>
                                </g>
                                <g transform="matrix(2,0,0,2,0,0)">
                                    <path d="M2158.5,1919.5C2157.71,1919.78 2157.04,1920.28 2156.5,1921C2221.17,1921.5 2285.83,1921.67 2350.5,1921.5C2402.7,1925.56 2440.53,1950.89 2464,1997.5C2469.85,2010.23 2473.52,2023.56 2475,2037.5C2475.5,2096.17 2475.67,2154.83 2475.5,2213.5C2468.49,2213.33 2461.49,2213.5 2454.5,2214C2472.54,2235.6 2483.38,2260.43 2487,2288.5C2487.67,2361.17 2487.67,2433.83 2487,2506.5C2484.26,2542.4 2471.93,2574.4 2450,2602.5C2417.18,2638.11 2376.68,2652.28 2328.5,2645C2138.13,2600.95 1945.46,2570.28 1750.5,2553C1386.25,2520.93 1022.92,2528.93 660.5,2577C526.056,2595.12 393.389,2621.62 262.5,2656.5C260.834,2493.34 259.834,2330 259.5,2166.5L175.5,2166.5C148.232,2085.03 120.565,2003.7 92.5,1922.5C202.333,1921.67 312.333,1921.17 422.5,1921C421.956,1920.28 421.289,1919.78 420.5,1919.5C275.082,1823.56 191.749,1688.56 170.5,1514.5C342.249,1444.46 513.915,1374.13 685.5,1303.5C685.833,1301.17 686.167,1298.83 686.5,1296.5C675.072,1057.17 663.738,817.838 652.5,578.5C652.833,575.167 653.167,571.833 653.5,568.5C686.474,563.94 719.474,559.44 752.5,555C755.98,554.699 759.313,553.865 762.5,552.5C795.363,476.382 840.863,409.048 899,350.5C919.892,236.844 973.725,142.344 1060.5,67C1063.68,64.908 1066.68,62.575 1069.5,60C1216.17,59.333 1362.83,59.333 1509.5,60C1601.31,135.399 1657.81,231.899 1679,349.5C1737.73,408.239 1783.56,475.906 1816.5,552.5C1819.06,553.641 1821.73,554.474 1824.5,555C1858.25,558.989 1891.92,563.489 1925.5,568.5C1925.83,571.667 1926.17,574.833 1926.5,578C1914.83,819.826 1903.66,1061.66 1893,1303.5C2064.31,1374.24 2236.15,1444.57 2408.5,1514.5C2386.81,1688.34 2303.47,1823.34 2158.5,1919.5Z" style="fill:rgb(12,35,64);"/>
                                </g>
                                <g transform="matrix(2,0,0,2,0,0)">
                                    <path d="M1170.5,117.5C1246,117.167 1321.34,117.501 1396.5,118.5C1368.76,202.065 1341.42,285.731 1314.5,369.5C1294.26,369.173 1274.09,369.507 1254,370.5C1226.06,286.18 1198.23,201.847 1170.5,117.5Z" style="fill:rgb(0,162,223);"/>
                                </g>
                                <g transform="matrix(2,0,0,2,0,0)">
                                    <path d="M1153.5,263.5L1157.5,263.5C1174.2,316.44 1191.2,369.273 1208.5,422C1161.04,449.732 1111.7,473.732 1060.5,494C984.698,524.435 907.698,551.602 829.5,575.5C829.167,574.833 828.833,574.167 828.5,573.5C874.291,454.849 952.624,364.015 1063.5,301C1092.66,286.296 1122.66,273.796 1153.5,263.5Z" style="fill:rgb(0,162,223);"/>
                                </g>
                                <g transform="matrix(2,0,0,2,0,0)">
                                    <path d="M1281.5,1035.5C1282.5,838.001 1282.83,640.334 1282.5,442.5C1283.17,540.597 1283.5,639.43 1283.5,739C1283.17,838.167 1282.83,937.333 1282.5,1036.5C1281.89,1036.38 1281.56,1036.04 1281.5,1035.5Z" style="fill:rgb(7,87,130);"/>
                                </g>
                                <g transform="matrix(2,0,0,2,0,0)">
                                    <path d="M1282.5,442.5C1282.83,640.334 1282.5,838.001 1281.5,1035.5C1124.28,955.307 967.115,874.974 810,794.5C836.971,874.909 864.471,955.242 892.5,1035.5C962.892,1070.03 1033.56,1104.03 1104.5,1137.5C1102.26,1286.83 1099.09,1436.17 1095,1585.5C982.371,1457.87 869.371,1330.54 756,1203.5C745.797,1022.52 735.964,841.52 726.5,660.5C741.789,658.412 757.122,656.579 772.5,655C896.324,618.741 1016.99,575.741 1134.5,526C1174.26,508.291 1212.59,488.291 1249.5,466C1260.66,458.336 1271.66,450.502 1282.5,442.5Z" style="fill:rgb(0,162,223);"/>
                                </g>
                                <g transform="matrix(2,0,0,2,0,0)">
                                    <path d="M1465.5,532.5C1544.88,565.809 1625.88,595.975 1708.5,623C1735.21,631.426 1762.21,638.76 1789.5,645C1810.37,648.554 1831.37,651.054 1852.5,652.5C1850.37,696.165 1848.2,739.831 1846,783.5C1836.25,751.452 1826.75,719.286 1817.5,687C1787.4,679.976 1757.73,671.309 1728.5,661C1669.47,639.411 1611.81,614.077 1555.5,585C1525.41,567.784 1495.41,550.284 1465.5,532.5Z" style="fill:rgb(0,161,222);"/>
                                </g>
                                <g transform="matrix(2,0,0,2,0,0)">
                                    <path d="M893.5,891.5C893.56,890.957 893.893,890.624 894.5,890.5C917.817,902.157 940.817,914.324 963.5,927C963.167,941.333 962.833,955.667 962.5,970C963.047,970.925 963.713,971.758 964.5,972.5C1029.41,1003.43 1094.08,1034.76 1158.5,1066.5C1150.86,1077.31 1143.03,1087.97 1135,1098.5C1067.12,1065.81 999.288,1032.98 931.5,1000C918.709,963.79 906.042,927.623 893.5,891.5Z" style="fill:rgb(253,198,44);"/>
                                </g>
                                <g transform="matrix(2,0,0,2,0,0)">
                                    <path d="M1672.5,891.5C1673.38,891.369 1674.04,891.702 1674.5,892.5C1662.08,929.095 1649.08,965.428 1635.5,1001.5C1567.83,1034.17 1500.17,1066.83 1432.5,1099.5C1424.34,1089.17 1416.34,1078.67 1408.5,1068C1473.68,1036.24 1539.01,1004.74 1604.5,973.5C1605.33,957.844 1605.83,942.177 1606,926.5C1628.59,915.456 1650.76,903.79 1672.5,891.5Z" style="fill:rgb(253,198,44);"/>
                                </g>
                                <g transform="matrix(2,0,0,2,0,0)">
                                    <path d="M1187.5,1138.5C1184.85,1300.35 1181.19,1462.35 1176.5,1624.5C1164.87,1620.23 1153.2,1616.07 1141.5,1612C1141,1611.5 1140.5,1611 1140,1610.5C1142.79,1459.16 1146.13,1307.83 1150,1156.5C1162.79,1150.85 1175.29,1144.85 1187.5,1138.5Z" style="fill:rgb(0,161,222);"/>
                                </g>
                                <g transform="matrix(2,0,0,2,0,0)">
                                    <path d="M1380.5,1138.5C1393.16,1145 1406.16,1150.66 1419.5,1155.5C1422.82,1307.5 1426.15,1459.5 1429.5,1611.5C1416.88,1614.98 1404.54,1619.31 1392.5,1624.5C1388.28,1462.5 1384.28,1300.5 1380.5,1138.5Z" style="fill:rgb(0,162,222);"/>
                                </g>
                                <g transform="matrix(2,0,0,2,0,0)">
                                    <path d="M650.5,1395.5C652.981,1395.32 654.814,1396.32 656,1398.5C683.06,1459.54 716.393,1516.87 756,1570.5C799.157,1628.38 846.324,1683.05 897.5,1734.5C796.169,1735.5 694.836,1735.83 593.5,1735.5L593.5,1920.5C545.166,1920.67 496.832,1920.5 448.5,1920C354.649,1816 289.983,1695.67 254.5,1559C385.88,1504.43 517.547,1450.43 649.5,1397C650.056,1396.62 650.389,1396.12 650.5,1395.5Z" style="fill:rgb(0,162,223);"/>
                                </g>
                                <g transform="matrix(2,0,0,2,0,0)">
                                    <path d="M1975.5,1417.5C1975.74,1416.9 1976.24,1416.57 1977,1416.5C2092.08,1463.95 2207.25,1511.29 2322.5,1558.5C2323.65,1560.76 2323.81,1563.1 2323,1565.5C2287.22,1700.05 2223.05,1818.55 2130.5,1921C2110.83,1921.67 2091.17,1921.67 2071.5,1921C2147.34,1828.69 2204.17,1725.53 2242,1611.5C2246.28,1597.94 2250.11,1584.27 2253.5,1570.5C2253.17,1569.5 2252.83,1568.5 2252.5,1567.5C2160.11,1517.49 2067.77,1467.49 1975.5,1417.5Z" style="fill:rgb(0,162,223);"/>
                                </g>
                            </g>
                        </g>
                    </g>
                </g>
            </g>
        </g>
    </g>
</svg>
