<?xml version="1.0" encoding="UTF-8" standalone="no"?>
<!DOCTYPE svg PUBLIC "-//W3C//DTD SVG 1.1//EN" "http://www.w3.org/Graphics/SVG/1.1/DTD/svg11.dtd">
<svg width="100%" height="100%" viewBox="0 0 134 98" version="1.1" xmlns="http://www.w3.org/2000/svg" xmlns:xlink="http://www.w3.org/1999/xlink" xml:space="preserve" xmlns:serif="http://www.serif.com/" style="fill-rule:evenodd;clip-rule:evenodd;stroke-linejoin:round;stroke-miterlimit:2;">
    <g transform="matrix(1,0,0,1,-2236.32897,-2150.972676)">
        <g transform="matrix(1,0,0,1,2182.379403,1539.468772)">
            <g transform="matrix(0.775495,0,0,0.569753,12.848345,262.815031)">
                <rect x="53" y="612" width="172" height="172" style="fill:rgb(12,85,164);fill-opacity:0;"/>
                <clipPath id="_clip1">
                    <rect x="53" y="612" width="172" height="172"/>
                </clipPath>
                <g clip-path="url(#_clip1)">
                    <g transform="matrix(0.190016,0,0,0.258632,139,744.522247)">
                        <g transform="matrix(1,0,0,1,-1348,-575)">
                            <clipPath id="_clip2">
                                <rect x="0" y="0" width="2696" height="1150"/>
                            </clipPath>
                            <g clip-path="url(#_clip2)">
                                <g transform="matrix(2,0,0,2,0,0)">
                                    <path d="M405.5,-0.5L941.5,-0.5C934.632,74.175 927.632,148.842 920.5,223.5C925.151,230.794 929.317,238.46 933,246.5C938.003,262.494 936.336,277.828 928,292.5C921.802,302.37 914.469,311.37 906,319.5C877.463,403.372 819.963,454.872 733.5,474C718.236,476.585 702.902,478.585 687.5,480C682.985,484.682 678.319,489.182 673.5,493.5C668.681,489.182 664.015,484.682 659.5,480C549.975,475.092 476.809,421.258 440,318.5C426.144,306.311 416.811,291.311 412,273.5C410.475,262.457 411.808,251.79 416,241.5C419.515,235.795 423.015,230.128 426.5,224.5C419.434,149.508 412.434,74.508 405.5,-0.5Z" style="fill:rgb(41,46,106);"/>
                                </g>
                                <g transform="matrix(2,0,0,2,0,0)">
                                    <path d="M927.5,18.5C921.629,86.248 915.129,153.915 908,221.5C896.394,213.717 883.561,209.217 869.5,208C843.934,205.988 818.934,208.821 794.5,216.5C794.167,216.167 793.833,215.833 793.5,215.5C798.564,209.55 799.564,203.05 796.5,196C790.5,198 784.5,200 778.5,202C782.689,197.312 786.689,192.479 790.5,187.5C782.973,181.727 774.973,181.061 766.5,185.5C797.906,163.634 832.24,147.967 869.5,138.5C868.283,159.198 866.949,179.865 865.5,200.5C873.993,201.532 882.326,203.199 890.5,205.5C893.324,173.494 895.324,141.494 896.5,109.5C820.383,126.048 756.05,162.715 703.5,219.5C699.103,215.108 695.103,210.442 691.5,205.5C747.962,142.586 817.628,101.753 900.5,83C901.191,81.933 901.691,80.766 902,79.5C903.8,63.834 905.134,48.168 906,32.5C857.908,49.625 813.408,73.125 772.5,103C739.233,130.919 711.066,163.085 688,199.5C687.517,200.448 687.351,201.448 687.5,202.5C683.443,198.275 678.943,194.609 674,191.5C669.352,194.651 664.852,197.984 660.5,201.5C652.025,187.18 642.525,173.513 632,160.5C613.833,139.667 594.333,120.167 573.5,102C533.197,72.428 489.364,49.262 442,32.5C442.867,48.174 444.2,63.841 446,79.5C446.309,80.766 446.809,81.933 447.5,83C515.28,99.052 574.947,130.051 626.5,176C636.368,186.036 646.368,195.869 656.5,205.5C652.17,209.998 648.003,214.665 644,219.5C597.408,170.556 541.908,136.056 477.5,116C468.731,113.433 459.898,111.266 451,109.5C452.879,141.475 454.712,173.475 456.5,205.5C464.651,203.046 472.984,201.713 481.5,201.5C480.36,182.177 479.36,162.843 478.5,143.5C478.077,141.219 478.744,139.552 480.5,138.5C540.247,155.692 591.913,186.192 635.5,230C632.195,235.451 628.528,240.617 624.5,245.5C608.914,236.374 592.581,228.874 575.5,223C589.77,216.326 593.603,205.826 587,191.5C578.418,181.474 568.585,179.974 557.5,187C561.12,192.289 565.12,197.289 569.5,202C563.35,200.848 557.516,198.682 552,195.5C548.646,202.76 549.48,209.593 554.5,216C539.666,212.969 524.666,210.302 509.5,208C490.002,205.763 471.002,207.763 452.5,214C447.952,215.858 443.785,218.358 440,221.5C432.871,153.915 426.371,86.248 420.5,18.5L420.5,13.5L927.5,13.5L927.5,18.5Z" style="fill:rgb(252,253,253);"/>
                                </g>
                                <g transform="matrix(2,0,0,2,0,0)">
                                    <path d="M845.5,30.5C731.167,29.167 616.833,29.167 502.5,30.5C501.711,30.217 501.044,29.717 500.5,29C616.167,28.333 731.833,28.333 847.5,29C846.956,29.717 846.289,30.217 845.5,30.5Z" style="fill:rgb(64,163,116);"/>
                                </g>
                                <g transform="matrix(2,0,0,2,0,0)">
                                    <path d="M502.5,30.5C616.833,29.167 731.167,29.167 845.5,30.5C793.079,53.965 747.912,87.298 710,130.5C697.232,145.426 685.065,160.759 673.5,176.5C650.299,144.118 623.966,114.285 594.5,87C566.313,64.393 535.646,45.56 502.5,30.5Z" style="fill:rgb(2,132,69);"/>
                                </g>
                                <g transform="matrix(2,0,0,2,0,0)">
                                    <path d="M660.5,201.5C659.5,203.167 658.167,204.5 656.5,205.5C646.368,195.869 636.368,186.036 626.5,176C574.947,130.051 515.28,99.052 447.5,83C446.809,81.933 446.309,80.766 446,79.5C444.2,63.841 442.867,48.174 442,32.5C489.364,49.262 533.197,72.428 573.5,102C594.333,120.167 613.833,139.667 632,160.5C642.525,173.513 652.025,187.18 660.5,201.5Z" style="fill:rgb(9,133,71);"/>
                                </g>
                                <g transform="matrix(2,0,0,2,0,0)">
                                    <path d="M691.5,205.5C690.167,204.5 688.833,203.5 687.5,202.5C687.351,201.448 687.517,200.448 688,199.5C711.066,163.085 739.233,130.919 772.5,103C813.408,73.125 857.908,49.625 906,32.5C905.134,48.168 903.8,63.834 902,79.5C901.691,80.766 901.191,81.933 900.5,83C817.628,101.753 747.962,142.586 691.5,205.5Z" style="fill:rgb(9,133,71);"/>
                                </g>
                                <g transform="matrix(2,0,0,2,0,0)">
                                    <path d="M480.5,138.5C478.744,139.552 478.077,141.219 478.5,143.5C477.539,141.735 477.205,139.735 477.5,137.5C478.791,137.263 479.791,137.596 480.5,138.5Z" style="fill:rgb(117,121,159);"/>
                                </g>
                                <g transform="matrix(2,0,0,2,0,0)">
                                    <path d="M766.5,185.5C759.106,191.853 756.606,199.853 759,209.5C761.415,215.583 765.582,220.083 771.5,223C755.169,229 739.503,236.333 724.5,245C723.365,245.749 722.365,245.583 721.5,244.5C718.863,240.032 716.03,235.698 713,231.5C712.251,230.365 712.417,229.365 713.5,228.5C729.756,212.225 747.423,197.892 766.5,185.5Z" style="fill:rgb(251,251,252);"/>
                                </g>
                                <g transform="matrix(2,0,0,2,0,0)">
                                    <path d="M672.5,204.5C673.552,204.351 674.552,204.517 675.5,205C690.431,218.585 703.098,233.919 713.5,251C709.912,253.377 706.412,255.877 703,258.5C702.713,251.425 699.879,245.592 694.5,241C686.362,237.908 681.695,240.741 680.5,249.5C680.899,251.197 681.399,252.863 682,254.5C686.133,257.631 689.966,261.131 693.5,265C686.688,270.311 680.021,275.811 673.5,281.5C667.167,276.167 660.833,270.833 654.5,265.5C657.852,261.314 661.686,257.647 666,254.5C668.259,244.45 664.426,239.617 654.5,240C652.91,241.046 651.41,242.213 650,243.5C647.424,248.17 645.757,253.17 645,258.5C641.236,256.368 637.736,253.868 634.5,251C644.413,233.253 657.08,217.753 672.5,204.5Z" style="fill:rgb(251,252,252);"/>
                                </g>
                                <g transform="matrix(2,0,0,2,0,0)">
                                    <path d="M479.5,213.5C554.418,214.123 619.084,239.79 673.5,290.5C724.953,242.689 785.953,217.022 856.5,213.5C871.641,213.035 885.975,216.202 899.5,223C921.763,237.637 928.263,257.47 919,282.5C903.979,309.427 882.146,328.594 853.5,340C831.292,348.635 808.292,353.968 784.5,356C768.859,357.244 753.192,357.744 737.5,357.5C737.647,352.786 737.314,348.119 736.5,343.5C775.745,347.493 812.745,340.326 847.5,322C859.62,314.881 869.453,305.381 877,293.5C883.871,281.938 885.871,269.605 883,256.5C877.662,246.072 869.162,239.905 857.5,238C839.666,235.643 821.999,236.643 804.5,241C755.231,252.633 711.564,274.8 673.5,307.5C623.025,262.941 564.025,239.441 496.5,237C468.018,241.117 458.185,256.95 467,284.5C473.236,298.07 482.403,309.236 494.5,318C516.836,332.89 541.503,341.224 568.5,343C582.829,343.5 597.163,343.667 611.5,343.5C610.771,348.13 610.437,352.797 610.5,357.5C575.114,358.998 540.448,354.831 506.5,345C474.668,334.361 449.502,315.194 431,287.5C417.973,257.723 425.807,235.223 454.5,220C462.687,216.773 471.02,214.606 479.5,213.5Z" style="fill:rgb(252,252,253);"/>
                                </g>
                                <g transform="matrix(2,0,0,2,0,0)">
                                    <path d="M850.5,243.5C843.646,243.176 836.979,243.509 830.5,244.5C829.957,244.44 829.624,244.107 829.5,243.5C836.656,242.181 843.656,242.181 850.5,243.5Z" style="fill:rgb(154,163,185);"/>
                                </g>
                                <g transform="matrix(2,0,0,2,0,0)">
                                    <path d="M497.5,242.5C504.2,242.17 510.866,242.503 517.5,243.5C503.706,248.127 494.873,257.461 491,271.5C487.719,284.966 489.552,297.633 496.5,309.5C496.167,309.833 495.833,310.167 495.5,310.5C480.436,300.04 471.77,285.707 469.5,267.5C469.582,257.268 474.249,250.101 483.5,246C488.224,244.506 492.891,243.339 497.5,242.5Z" style="fill:rgb(249,249,251);"/>
                                </g>
                                <g transform="matrix(2,0,0,2,0,0)">
                                    <path d="M830.5,244.5C836.979,243.509 843.646,243.176 850.5,243.5C874.253,245.409 882.753,257.742 876,280.5C870.27,293.562 861.603,304.229 850,312.5C852.489,306.725 854.822,300.725 857,294.5C861.411,274.38 855.245,258.546 838.5,247C835.904,245.864 833.237,245.031 830.5,244.5Z" style="fill:rgb(251,251,252);"/>
                                </g>
                                <g transform="matrix(2,0,0,2,0,0)">
                                    <path d="M528.5,249.5C539.382,248.8 550.049,249.967 560.5,253C580.911,259.025 600.411,267.192 619,277.5C616.634,297.064 613.8,316.564 610.5,336C588.364,337.493 566.697,336.16 545.5,332C529.708,328.972 516.208,321.806 505,310.5C494.578,294.851 493.911,278.851 503,262.5C510.417,255.876 518.917,251.542 528.5,249.5Z" style="fill:rgb(1,131,69);"/>
                                </g>
                                <g transform="matrix(2,0,0,2,0,0)">
                                    <path d="M799.5,249.5C816.824,246.722 831.991,251.056 845,262.5C855.299,282.868 852.132,301.035 835.5,317C817.734,328.488 798.234,334.988 777,336.5C762.446,336.348 748.946,336.014 736.5,335.5C734.507,316.055 732.007,296.721 729,277.5C751.326,264.91 774.826,255.576 799.5,249.5Z" style="fill:rgb(1,131,69);"/>
                                </g>
                                <g transform="matrix(2,0,0,2,0,0)">
                                    <path d="M626.5,281.5C640.62,289.448 653.787,298.782 666,309.5C668.766,348.493 671.433,387.493 674,426.5C676.6,387.163 679.267,347.83 682,308.5C694.481,298.523 707.647,289.523 721.5,281.5C729.115,315.75 732.615,350.417 732,385.5C730.901,399.07 728.568,412.403 725,425.5C708.375,443.292 691.209,460.625 673.5,477.5C656.567,460.399 639.734,443.065 623,425.5C617.664,404.15 615.331,382.483 616,360.5C617.619,333.879 621.119,307.545 626.5,281.5Z" style="fill:rgb(253,253,253);"/>
                                </g>
                                <g transform="matrix(2,0,0,2,0,0)">
                                    <path d="M456.5,326.5C456.897,325.475 457.563,325.308 458.5,326C470.807,335.989 484.473,343.656 499.5,349C529.281,394.083 570.615,422.75 623.5,435C632.748,445.251 642.415,455.251 652.5,465C558.294,459.619 492.961,413.452 456.5,326.5Z" style="fill:rgb(252,252,253);"/>
                                </g>
                                <g transform="matrix(2,0,0,2,0,0)">
                                    <path d="M888.5,326.5C889.376,326.369 890.043,326.702 890.5,327.5C853.589,413.484 788.256,459.318 694.5,465C704.833,454.667 715.167,444.333 725.5,434C777.324,421.635 817.991,393.468 847.5,349.5C862.321,343.597 875.987,335.931 888.5,326.5Z" style="fill:rgb(252,252,253);"/>
                                </g>
                                <g transform="matrix(2,0,0,2,0,0)">
                                    <path d="M518.5,359.5C518.917,358.876 519.584,358.543 520.5,358.5C548.8,364.861 577.467,367.861 606.5,367.5C606.313,385.709 607.98,403.709 611.5,421.5C573.491,411.125 542.491,390.458 518.5,359.5Z" style="fill:rgb(248,248,250);"/>
                                </g>
                                <g transform="matrix(2,0,0,2,0,0)">
                                    <path d="M824.5,358.5C825.978,358.238 827.311,358.571 828.5,359.5C812.466,382.697 791.466,399.864 765.5,411C756.065,415.2 746.399,418.7 736.5,421.5C739.727,403.668 741.394,385.668 741.5,367.5C757.861,367.232 774.194,366.399 790.5,365C802.197,363.998 813.53,361.832 824.5,358.5Z" style="fill:rgb(248,248,250);"/>
                                </g>
                            </g>
                        </g>
                    </g>
                </g>
            </g>
        </g>
    </g>
</svg>
