<?xml version="1.0" encoding="UTF-8" standalone="no"?>
<!DOCTYPE svg PUBLIC "-//W3C//DTD SVG 1.1//EN" "http://www.w3.org/Graphics/SVG/1.1/DTD/svg11.dtd">
<svg width="100%" height="100%" viewBox="0 0 130 96" version="1.1" xmlns="http://www.w3.org/2000/svg" xmlns:xlink="http://www.w3.org/1999/xlink" xml:space="preserve" xmlns:serif="http://www.serif.com/" style="fill-rule:evenodd;clip-rule:evenodd;stroke-linejoin:round;stroke-miterlimit:2;">
    <g transform="matrix(1,0,0,1,-2721.403751,-1795.82707)">
        <g transform="matrix(1,0,0,1,2182.501495,1181.837965)">
            <g transform="matrix(0.755495,0,0,0.55506,498.860995,274.292588)">
                <rect x="53" y="612" width="172" height="172" style="fill:rgb(12,85,164);fill-opacity:0;"/>
                <clipPath id="_clip1">
                    <rect x="53" y="612" width="172" height="172"/>
                </clipPath>
                <g clip-path="url(#_clip1)">
                    <g transform="matrix(0.111479,0,0,0.151735,139,752.31557)">
                        <g transform="matrix(1,0,0,1,-1042,-1042)">
                            <path d="M165.2,91.446L233.624,817.805L192.844,900.361L195.213,981.767L272.316,1104.168L294.672,1162.33L340.753,1256.717L435.001,1385.276L537.796,1481.338L651.711,1547.084L773.954,1588.464L815.813,1598.995L927.244,1619.123L990.837,1622.084L1041,1663.741L1087.266,1622.016L1191.416,1619.249L1267.542,1603.409L1358.619,1577.376L1432.958,1550.962L1485.696,1518.33L1571.505,1463.008L1669.501,1361.101L1723.371,1282.078L1777.572,1179.406L1800.406,1109.16L1886.143,1000.816L1893.4,912.427L1873.268,845.244L1846.754,810.311L1923,83L165.2,91.446Z" style="fill:white;"/>
                            <g transform="matrix(2,0,0,2,0,0)">
                                <path d="M79.5,41.5L961.5,41.5C949.623,163.311 937.957,285.144 926.5,407C954.81,439.126 959.31,474.293 940,512.5C930.163,529.142 918.163,544.142 904,557.5C855.265,696.23 758.765,780.064 614.5,809C590.649,812.983 566.649,815.65 542.5,817C535.319,824.348 527.986,831.515 520.5,838.5C512.984,831.15 505.317,823.983 497.5,817C429.601,815.026 365.601,798.359 305.5,767C223.285,718.418 167.118,648.585 137,557.5C116.48,539.648 101.48,517.982 92,492.5C84.27,461.036 91.27,433.369 113,409.5C113.167,407.667 113.333,405.833 113.5,404C102.376,283.14 91.043,162.307 79.5,41.5ZM86.5,47.5L954.5,47.5C943.188,166.282 931.688,284.949 920,403.5C910.334,395.247 899.5,388.914 887.5,384.5C887.167,381.667 886.833,378.833 886.5,376C889.857,322.117 893.524,268.283 897.5,214.5C896.833,214.167 896.167,213.833 895.5,213.5C813.905,230.144 739.239,262.311 671.5,310C632.352,336.47 596.852,367.304 565,402.5C557.652,395.319 550.485,387.986 543.5,380.5C591.078,328.947 644.411,284.781 703.5,248C766.803,212.686 833.803,186.852 904.5,170.5C908.125,141.54 911.459,112.54 914.5,83.5C834.739,110.212 760.739,147.712 692.5,196C630.522,246.785 578.522,305.952 536.5,373.5C531.167,368.5 525.833,363.5 520.5,358.5C514.551,362.946 509.051,367.946 504,373.5C466.014,311.815 419.514,256.982 364.5,209C333.054,183.766 299.388,161.766 263.5,143C219.449,120.139 174.116,100.306 127.5,83.5C126.833,83.667 126.167,83.833 125.5,84C129.451,112.721 132.784,141.554 135.5,170.5C207.714,187.07 276.047,213.57 340.5,250C384.315,277.465 424.982,309.131 462.5,345C474.38,356.379 485.713,368.212 496.5,380.5C490.202,388.466 483.202,395.799 475.5,402.5C453.865,378.042 430.198,355.876 404.5,336C337.312,282.403 261.978,244.07 178.5,221C166.922,218.022 155.255,215.522 143.5,213.5C147.388,270.484 151.055,327.484 154.5,384.5C141.603,388.364 130.103,394.697 120,403.5C108.863,284.824 97.696,166.158 86.5,47.5ZM319.5,390.5C285.289,381.215 250.456,375.882 215,374.5C208.498,374.867 201.998,375.2 195.5,375.5C193.207,337.153 191.041,298.819 189,260.5C294.41,288.925 385.244,341.592 461.5,418.5C455.738,427.031 450.238,435.697 445,444.5C415.76,427.464 385.26,412.964 353.5,401C372.189,394.469 380.356,381.303 378,361.5C371.357,341.424 357.524,332.924 336.5,336C332.053,337.39 328.053,339.556 324.5,342.5C330.76,350.683 337.26,358.683 344,366.5C344.688,367.332 344.521,367.998 343.5,368.5C333.593,364.086 323.593,360.753 313.5,358.5C309.777,370.269 311.777,380.936 319.5,390.5ZM721.5,390.5C728.783,380.467 730.783,369.467 727.5,357.5C716.857,361.326 706.19,364.826 695.5,368C702.5,359.667 709.5,351.333 716.5,343C708.083,335.937 698.416,333.603 687.5,336C667.998,342.486 659.831,355.986 663,376.5C666.5,389.333 674.667,397.5 687.5,401C655.41,412.546 624.743,427.046 595.5,444.5C590.563,435.569 585.23,426.902 579.5,418.5C642.78,353.66 717.447,306.16 803.5,276C819.571,270.42 835.737,265.254 852,260.5C849.917,298.5 847.417,336.5 844.5,374.5C802.758,373.844 761.758,379.177 721.5,390.5ZM519.5,367.5C535.132,382.632 550.632,397.965 566,413.5C575.157,424.175 582.49,435.841 588,448.5C581.834,453.191 575.334,457.191 568.5,460.5C569.318,446.964 563.985,436.798 552.5,430C539.651,428.166 532.651,433.832 531.5,447C532.412,455.913 537.078,461.913 545.5,465C548.017,467.349 550.35,469.849 552.5,472.5C541.246,481.582 530.412,491.248 520,501.5C510.403,490.568 499.569,481.068 487.5,473C491.964,467.53 497.297,463.197 503.5,460C508.193,454.344 509.693,447.844 508,440.5C504.584,431.374 498.084,427.874 488.5,430C477.57,435.348 472.403,444.181 473,456.5C472.804,458.286 471.971,459.619 470.5,460.5C464.296,456.57 458.296,452.403 452.5,448C457.866,436.762 464.366,426.262 472,416.5C488.4,400.602 504.233,384.269 519.5,367.5ZM195.5,385.5C264.046,384.803 329.379,398.969 391.5,428C438.979,450.023 481.979,478.523 520.5,513.5C606.674,434.941 708.34,392.274 825.5,385.5C857.736,383.722 887.07,391.889 913.5,410C941.24,435.795 948.073,466.295 934,501.5C915.932,533.568 891.099,559.068 859.5,578C816.386,602.369 770.052,616.702 720.5,621C689.576,624.038 658.576,625.205 627.5,624.5C627.404,616.821 627.07,609.154 626.5,601.5C652.188,601.852 677.854,601.352 703.5,600C752.062,596.263 795.729,579.93 834.5,551C851.809,536.552 864.309,518.718 872,497.5C881.996,459.313 867.829,435.813 829.5,427C798.826,423.231 768.493,425.231 738.5,433C656.726,452.47 583.893,488.97 520,542.5C444.991,478.928 358.491,440.094 260.5,426C237.998,422.834 215.998,424.834 194.5,432C172.64,442.212 163.14,459.379 166,483.5C171.015,511.7 184.848,534.533 207.5,552C236.152,573.454 268.152,587.788 303.5,595C319.336,598.31 335.336,600.31 351.5,601C372.497,601.5 393.497,601.667 414.5,601.5C413.881,609.174 413.214,616.84 412.5,624.5C356.605,626.844 301.605,621.011 247.5,607C200.718,593.538 160.885,569.038 128,533.5C115.706,519.838 106.706,504.171 101,486.5C95.68,438.327 116.18,406.827 162.5,392C173.512,389.169 184.512,387.002 195.5,385.5ZM221.5,548.5C198.391,534.222 183.558,513.888 177,487.5C172.104,465.799 179.604,450.299 199.5,441C206.628,438.441 213.962,436.774 221.5,436C232.833,435.333 244.167,435.333 255.5,436C224.674,446.912 208.674,468.912 207.5,502C208.248,518.739 212.915,534.239 221.5,548.5ZM818.5,549.5C834.546,523.618 836.712,496.618 825,468.5C816.22,451.851 802.72,441.018 784.5,436C796.167,435.333 807.833,435.333 819.5,436C857.992,440.488 871.825,461.321 861,498.5C851.714,519.615 837.548,536.615 818.5,549.5ZM436.5,492.5C460.216,505.877 482.883,520.877 504.5,537.5C509.896,603.143 515.062,668.81 520,734.5C525.662,668.911 530.995,603.245 536,537.5C557.382,520.887 579.882,505.887 603.5,492.5C613.934,542.639 620.267,593.306 622.5,644.5C621.959,676.581 618.126,708.248 611,739.5C581.026,769.807 550.693,799.807 520,829.5C489.694,800.195 459.694,770.528 430,740.5C421.47,704.335 417.803,667.669 419,630.5C421.794,584.107 427.628,538.107 436.5,492.5ZM146.5,565.5C170.471,584.998 197.138,600.164 226.5,611C267.789,672.602 323.456,715.936 393.5,741C407.418,745.645 421.418,749.979 435.5,754C453.833,772.333 472.167,790.667 490.5,809C411.433,807.419 339.433,784.419 274.5,740C214.439,694.76 171.772,636.593 146.5,565.5ZM893.5,566.5C847.857,690.304 760.857,767.804 632.5,799C605.482,805.127 578.149,808.461 550.5,809C569.167,790.333 587.833,771.667 606.5,753C694.441,732.404 763.775,685.071 814.5,611C843.06,599.73 869.394,584.897 893.5,566.5ZM295.5,652.5C295.735,651.903 296.235,651.57 297,651.5C335.404,655.493 373.904,656.493 412.5,654.5C413.114,674.087 414.781,693.587 417.5,713C417.167,714.167 416.833,715.333 416.5,716.5C371.367,703.772 331.033,682.439 295.5,652.5ZM741.5,651.5C742.873,651.343 744.207,651.51 745.5,652C709.666,682.921 668.666,704.421 622.5,716.5C625.602,695.95 627.602,675.283 628.5,654.5C652.492,655.506 676.492,655.672 700.5,655C714.38,654.562 728.046,653.395 741.5,651.5Z" style="fill-opacity:0.97;"/>
                            </g>
                            <g transform="matrix(2,0,0,2,0,0)">
                                <path d="M225.5,80.5C422,79.334 618.666,79.167 815.5,80C757.763,105.68 704.097,137.68 654.5,176C603.52,220.463 558.854,270.297 520.5,325.5C482.115,271.071 437.782,221.571 387.5,177C337.871,137.998 283.871,105.831 225.5,80.5Z" style="fill-opacity:0.99;"/>
                            </g>
                        </g>
                    </g>
                </g>
            </g>
        </g>
    </g>
</svg>
