<?xml version="1.0" encoding="UTF-8" standalone="no"?>
<!DOCTYPE svg PUBLIC "-//W3C//DTD SVG 1.1//EN" "http://www.w3.org/Graphics/SVG/1.1/DTD/svg11.dtd">
<svg width="100%" height="100%" viewBox="0 0 131 95" version="1.1" xmlns="http://www.w3.org/2000/svg" xmlns:xlink="http://www.w3.org/1999/xlink" xml:space="preserve" xmlns:serif="http://www.serif.com/" style="fill-rule:evenodd;clip-rule:evenodd;stroke-linejoin:round;stroke-miterlimit:2;">
    <g transform="matrix(1,0,0,1,-2720.998179,-2763.13098)">
        <g transform="matrix(1,0,0,1,2182.501495,2149.141875)">
            <g transform="matrix(0.75782,0,0,0.552096,498.332243,276.106382)">
                <rect x="53" y="612" width="172" height="172" style="fill:rgb(12,85,164);fill-opacity:0;"/>
                <clipPath id="_clip1">
                    <rect x="53" y="612" width="172" height="172"/>
                </clipPath>
                <g clip-path="url(#_clip1)">
                    <g transform="matrix(0.437478,0,0,0.595455,139,746.936126)">
                        <g transform="matrix(1,0,0,1,-300,-226.61029)">
                            <clipPath id="_clip2">
                                <rect x="0" y="0" width="600" height="453.221"/>
                            </clipPath>
                            <g clip-path="url(#_clip2)">
                                <g id="layer1" transform="matrix(2,0,0,2,-441.26834,-636.1068)">
                                    <g id="g25044" transform="matrix(7.692801,0,0,7.692801,-4283.6697,-6131.3154)">
                                        <path id="path11623" d="M595.739,846.26L594.312,846.947C593.231,846.17 590.216,845.849 590.561,848.244C588.632,847.944 588.098,849.337 588.531,850.572C586.649,850.222 586.237,852.538 587.077,853.118C586.186,853.08 585.622,853.55 585.522,854.262L585.522,854.747C585.601,855.332 585.938,856.014 586.592,856.685L587.427,856.95C588.892,858.415 590.921,858.565 592.199,858.247C591.433,858.025 589.856,856.454 590.159,856.58C592.538,857.557 593.012,857.609 595.739,856.557L595.739,848.162C595.542,847.915 595.254,847.635 595.007,847.45L595.739,847.368L595.739,846.26ZM595.739,844.743L592.171,845.098L595.739,845.747L595.739,844.743ZM595.739,842.9L593.051,842.575L595.739,843.752L595.739,842.9ZM603.397,838.364L600.056,839.84L598.461,841.227L595.794,842.428L596.798,843.024L595.739,842.9L595.739,843.752L596.788,844.208L596.066,844.407L596.416,844.677L595.739,844.743L595.739,845.747L596.517,845.887L595.739,846.26L595.739,847.368L596.291,847.313L596.476,848.147L595.953,848.469C595.908,848.377 595.834,848.277 595.739,848.162L593.264,856.557C593.341,856.52 592.967,856.494 593.046,856.467L605.159,867.822C608.751,864.432 613.639,859.792 617.057,856.467C617.077,856.437 614.733,856.449 614.814,856.482L614.364,848.222C614.303,848.305 614.258,848.384 614.217,848.458L613.666,848.132L613.773,847.343L614.364,847.408L614.364,846.18L613.608,845.797L614.364,845.669L614.364,844.743L613.631,844.677L613.953,844.467L613.231,844.225L614.364,843.735L614.364,842.94L613.377,843.069L614.267,842.41L611.592,841.245L609.991,839.857L606.661,838.383L605.048,838.955L603.397,838.364ZM614.364,843.735L617.002,842.592L614.364,842.94L614.364,843.735ZM614.364,845.669L617.909,845.048L614.364,844.743L614.364,845.669ZM614.364,856.482C614.933,856.725 616.939,858.18 619.831,856.583C619.853,856.573 618.708,858.155 618.004,858.302C619.374,858.41 621.301,858.325 622.766,856.853L623.538,856.68C624.124,856.004 624.451,855.305 624.519,854.705L624.519,854.29C624.434,853.613 623.937,853.147 623.003,853.152C624.039,852.48 623.493,850.222 621.612,850.577C621.949,849.189 621.538,848.002 619.609,848.3C620.011,845.697 617.007,846.395 615.823,846.924L614.364,846.18L614.364,847.408L615.062,847.488C614.797,847.692 614.538,847.972 614.364,848.222L614.364,856.482Z" style="fill:white;fill-rule:nonzero;"/>
                                        <path id="path11627" d="M621.239,851.946L605.145,867.321L589.058,851.998L621.239,851.946Z" style="fill-rule:nonzero;"/>
                                        <path id="path11631" d="M619.177,848.757C621.42,848.407 621.582,849.461 621.23,851.012C623.171,850.7 623.538,852.031 622.586,853.551C624.952,853.5 624.208,855.322 623.296,856.506L622.62,856.651C621.572,857.568 620.557,858.055 618.9,858.062C619.402,857.553 620.056,857.05 620.331,856.408L619.78,856.263C617.807,857.047 616.77,857.207 614.545,856.112L614.741,856.471C612.362,855.672 610.521,854.295 610.328,851.435C611.163,849.388 612.741,849.263 613.827,849.398C614.77,847.692 618.303,845.736 619.177,847.455C619.335,847.77 619.305,848.171 619.177,848.757" style="fill-rule:nonzero;"/>
                                        <path id="path11635" d="M613.981,849.63C611.986,849.511 609.748,850.897 611.096,853.327L613.873,855.4C615.762,856.709 617.408,857.141 619.768,856.009C620.743,856.306 622.101,856.421 623.106,856.264C624.187,854.41 623.973,853.706 621.938,853.859C623.301,852.531 622.896,850.757 620.518,851.67C621.042,850.95 621.729,848.091 618.573,849.511C619.498,845.386 615.306,847.927 613.981,849.63" style="fill:rgb(246,139,31);fill-rule:nonzero;"/>
                                        <path id="path11639" d="M615.587,849.834C615.164,849.872 614.786,850.096 614.414,850.662L614.252,850.367C614.093,850.161 613.896,850.074 613.693,850.069C613.998,850.543 614.184,850.937 614.156,851.518C614.026,851.806 613.078,854.499 614.583,855.277C615.518,855.113 616.544,854.854 617.684,854.172C616.787,855.146 615.739,855.361 615.006,855.564C615.722,856.149 616.578,856.306 617.842,856.059L620.038,853.547L619.741,852.491L618.911,851.139L617.253,850.012L615.587,849.834Z" style="fill-rule:nonzero;"/>
                                        <path id="path11643" d="M615.537,848.61C615.389,850.103 615.041,850.876 613.958,852.032C615.986,851.991 618.067,850.688 618.331,849.506C618.602,848.272 618.162,847.916 617.638,847.692C616.949,847.387 615.992,847.898 615.537,848.61" style="fill-rule:nonzero;"/>
                                        <path id="path11647" d="M613.777,852.362C613.349,853.883 613.796,854.961 614.392,856.149C612.414,855.632 611.169,854.196 610.904,853.011C610.627,851.778 611.21,851.407 611.732,851.179C612.42,850.876 613.329,851.653 613.777,852.362" style="fill-rule:nonzero;"/>
                                        <path id="path11651" d="M617.345,850.769C617.199,852.262 616.849,853.035 615.766,854.189C617.8,854.15 619.875,852.854 620.14,851.662C620.411,850.431 619.971,850.082 619.449,849.849C618.76,849.544 617.8,850.057 617.345,850.769" style="fill-rule:nonzero;"/>
                                        <path id="path11655" d="M619.03,852.961C618.911,854.45 618.349,855.299 617.294,856.476C619.34,856.442 621.6,854.982 621.837,853.794C622.085,852.555 621.639,852.212 621.11,851.991C620.416,851.704 619.47,852.234 619.03,852.961" style="fill-rule:nonzero;"/>
                                        <path id="path11663" d="M615.66,848.981C615.683,848.001 618.247,846.919 618.117,849.268C618.071,850.008 616.422,851.698 614.077,851.974C614.077,851.974 615.609,850.987 615.66,848.981" style="fill:white;fill-rule:nonzero;"/>
                                        <path id="path11667" d="M617.548,851.094C617.571,850.114 620.14,849.033 620.005,851.382C619.966,852.122 618.315,853.812 615.965,854.088C615.965,854.088 617.503,853.101 617.548,851.094" style="fill:white;fill-rule:nonzero;"/>
                                        <path id="path11671" d="M619.092,851.218C619.268,851.236 619.397,851.428 619.397,851.799C618.77,852.814 617.88,853.303 617.138,853.563C617.842,852.876 618.51,852.193 619.092,851.218" style="fill-rule:nonzero;"/>
                                        <path id="path11679" d="M619.194,853.322C619.216,852.34 621.781,851.251 621.65,853.607C621.611,854.345 619.955,856.037 617.61,856.314C617.61,856.314 619.149,855.326 619.194,853.322" style="fill:rgb(255,221,0);fill-rule:nonzero;"/>
                                        <path id="path11691" d="M619.194,853.322C619.216,852.34 621.781,851.251 621.65,853.607C621.611,854.345 619.955,856.037 617.61,856.314C617.61,856.314 619.149,855.326 619.194,853.322" style="fill:white;fill-rule:nonzero;"/>
                                        <path id="path11715" d="M613.491,852.859C613.695,851.896 611.433,850.26 611.033,852.583C610.91,853.31 612.14,855.326 614.358,856.126C614.358,856.126 613.086,854.825 613.491,852.859" style="fill:white;fill-rule:nonzero;"/>
                                        <path id="path11719" d="M612.184,852.685C612.014,852.65 611.839,852.804 611.744,853.168C612.093,854.312 612.835,855.015 613.497,855.458C612.983,854.612 612.504,853.777 612.184,852.685" style="fill-rule:nonzero;"/>
                                        <path id="path11723" d="M611.906,851.872L612.092,852.463C611.873,852.508 611.692,852.702 611.592,852.962C611.518,852.837 611.412,852.596 611.432,852.391C611.535,852.178 611.687,852.002 611.906,851.872" style="fill-rule:nonzero;"/>
                                        <path id="path11727" d="M617.244,849.107C617.384,849.112 617.492,849.259 617.514,849.555C617.052,850.398 616.358,850.823 615.772,851.065C616.308,850.485 616.82,849.91 617.244,849.107" style="fill-rule:nonzero;"/>
                                        <path id="path11731" d="M617.638,849.375C617.587,849.198 617.491,849.067 617.329,848.954C617.498,848.837 617.666,848.559 617.701,848.3C617.88,848.729 617.96,849.004 617.638,849.375" style="fill-rule:nonzero;"/>
                                        <path id="path11735" d="M590.943,848.757C588.7,848.407 588.536,849.461 588.891,851.012C586.947,850.7 586.58,852.031 587.533,853.551C585.167,853.5 585.911,855.322 586.822,856.506L587.501,856.651C588.541,857.568 589.562,858.055 591.22,858.062C590.717,857.553 590.065,857.05 589.788,856.408L590.34,856.263C592.313,857.047 593.35,857.207 595.576,856.112L595.378,856.471C597.756,855.672 599.593,854.295 599.792,851.435C598.956,849.388 597.378,849.263 596.291,849.398C595.35,847.692 591.816,845.736 590.943,847.455C590.786,847.77 590.813,848.171 590.943,848.757" style="fill-rule:nonzero;"/>
                                        <path id="path11739" d="M596.139,849.63C598.134,849.511 600.371,850.897 599.025,853.327L596.246,855.4C594.358,856.709 592.706,857.141 590.351,856.009C589.37,856.306 588.019,856.421 587.015,856.264C585.933,854.41 586.148,853.706 588.181,853.859C586.819,852.531 587.224,850.757 589.603,851.67C589.071,850.95 588.39,848.091 591.546,849.511C590.623,845.386 594.814,847.927 596.139,849.63" style="fill:rgb(246,139,31);fill-rule:nonzero;"/>
                                        <path id="path11743" d="M594.533,849.834C594.956,849.872 595.333,850.096 595.706,850.662L595.868,850.367C596.026,850.161 596.225,850.074 596.426,850.069C596.123,850.543 595.935,850.937 595.964,851.518C596.089,851.806 597.04,854.499 595.535,855.277C594.601,855.113 593.575,854.854 592.436,854.172C593.333,855.146 594.38,855.361 595.115,855.564C594.399,856.149 593.543,856.306 592.278,856.059L590.08,853.547L590.38,852.491L591.208,851.139L592.86,850.012L594.533,849.834Z" style="fill-rule:nonzero;"/>
                                        <path id="path11747" d="M594.584,848.61C594.73,850.103 595.078,850.876 596.16,852.032C594.128,851.991 592.054,850.688 591.788,849.506C591.518,848.272 591.956,847.916 592.481,847.692C593.169,847.387 594.128,847.898 594.584,848.61" style="fill-rule:nonzero;"/>
                                        <path id="path11751" d="M596.341,852.362C596.771,853.883 596.324,854.961 595.727,856.149C597.706,855.632 598.952,854.196 599.215,853.011C599.487,851.778 598.911,851.407 598.389,851.179C597.7,850.876 596.792,851.653 596.341,852.362" style="fill-rule:nonzero;"/>
                                        <path id="path11755" d="M592.774,850.769C592.922,852.262 593.269,853.035 594.346,854.189C592.318,854.15 590.244,852.854 589.978,851.662C589.704,850.431 590.149,850.082 590.672,849.849C591.361,849.544 592.318,850.057 592.774,850.769" style="fill-rule:nonzero;"/>
                                        <path id="path11759" d="M591.09,852.961C591.207,854.45 591.772,855.299 592.826,856.476C590.78,856.442 588.521,854.982 588.277,853.794C588.029,852.555 588.48,852.212 589.01,851.991C589.704,851.704 590.65,852.234 591.09,852.961" style="fill-rule:nonzero;"/>
                                        <path id="path11767" d="M594.46,848.981C594.437,848.001 591.873,846.919 592.003,849.268C592.049,850.008 593.699,851.698 596.043,851.974C596.043,851.974 594.505,850.987 594.46,848.981" style="fill:white;fill-rule:nonzero;"/>
                                        <path id="path11771" d="M592.572,851.094C592.547,850.114 589.977,849.033 590.115,851.382C590.155,852.122 591.805,853.812 594.156,854.088C594.156,854.088 592.617,853.101 592.572,851.094" style="fill:white;fill-rule:nonzero;"/>
                                        <path id="path11775" d="M591.027,851.218C590.853,851.236 590.723,851.428 590.723,851.799C591.349,852.814 592.239,853.303 592.983,853.563C592.278,852.876 591.609,852.193 591.027,851.218" style="fill-rule:nonzero;"/>
                                        <path id="path11783" d="M590.926,853.322C590.902,852.34 588.334,851.251 588.468,853.607C588.509,854.345 590.159,856.037 592.511,856.314C592.511,856.314 590.972,855.326 590.926,853.322" style="fill:rgb(255,221,0);fill-rule:nonzero;"/>
                                        <path id="path11795" d="M590.926,853.322C590.902,852.34 588.334,851.251 588.468,853.607C588.509,854.345 590.159,856.037 592.511,856.314C592.511,856.314 590.972,855.326 590.926,853.322" style="fill:white;fill-rule:nonzero;"/>
                                        <path id="path11819" d="M596.629,852.859C596.426,851.896 598.685,850.26 599.086,852.583C599.211,853.31 597.981,855.326 595.761,856.126C595.761,856.126 597.035,854.825 596.629,852.859" style="fill:white;fill-rule:nonzero;"/>
                                        <path id="path11823" d="M597.931,852.685C598.106,852.65 598.281,852.804 598.376,853.168C598.027,854.312 597.283,855.015 596.624,855.458C597.138,854.612 597.616,853.777 597.931,852.685" style="fill-rule:nonzero;"/>
                                        <path id="path11827" d="M598.212,851.872L598.027,852.463C598.245,852.508 598.426,852.702 598.529,852.962C598.602,852.837 598.707,852.596 598.681,852.391C598.579,852.178 598.432,852.002 598.212,851.872" style="fill-rule:nonzero;"/>
                                        <path id="path11831" d="M592.877,849.107C592.737,849.112 592.622,849.259 592.605,849.555C593.068,850.398 593.762,850.823 594.347,851.065C593.812,850.485 593.3,849.91 592.877,849.107" style="fill-rule:nonzero;"/>
                                        <path id="path11835" d="M592.482,849.375C592.532,849.198 592.628,849.067 592.792,848.954C592.617,848.837 592.454,848.559 592.419,848.3C592.239,848.729 592.161,849.004 592.482,849.375" style="fill-rule:nonzero;"/>
                                        <path id="path11839" d="M603.279,838.866L605.081,839.467L605.081,839.465L605.088,839.465L605.088,839.467L606.895,838.866L609.955,840.252L611.45,841.588L613.435,842.637L612.008,843.707L615.93,842.906L612.521,844.216L613.303,844.673L613.056,845.014L616.713,845.117L613.23,845.644L613.479,846.306L615.863,847.281L613.479,847.038L613.365,848.306L615.109,849.263L613.303,848.892L613.248,849.518L612.34,849.753L612.719,850.379L609.219,852.319L607.368,856.157L605.088,855.727L602.799,856.157L600.945,852.319L597.446,850.379L597.825,849.753L596.915,849.518L596.859,848.892L595.061,849.263L596.804,848.306L596.685,847.038L594.301,847.281L596.685,846.306L596.939,845.644L593.456,845.117L597.114,845.014L596.859,844.673L597.644,844.216L594.234,842.906L598.161,843.707L596.73,842.637L598.72,841.588L600.213,840.252L603.279,838.866L603.279,838.866Z" style="fill-rule:nonzero;"/>
                                        <path id="path11843" d="M603.268,855.541L601.256,852.165L598.113,850.192L598.399,849.437L597.351,849.145L597.265,848.618L595.785,848.97L597.22,848.322L596.974,846.78L595.169,847.055L596.939,846.435L597.52,845.5L594.95,845.212L597.638,845.257L597.418,844.796L598.22,844.185L595.604,843.307L598.578,844.023L599.578,842.242L600.686,841.143L603.173,839.857L607.003,839.857L609.483,841.143L610.596,842.242L611.593,844.023L614.698,843.267L611.953,844.185L612.753,844.796L612.539,845.257L615.188,845.217L612.668,845.512L613.232,846.435L614.978,847.047L613.197,846.78L612.951,848.322L614.427,848.992L612.906,848.618L612.821,849.145L611.772,849.437L612.061,850.192L608.916,852.165L606.903,855.541L603.268,855.541Z" style="fill:white;fill-rule:nonzero;"/>
                                        <path id="path11847" d="M606.305,845.83L607.876,844.505L608.24,844.595L608.48,844.76L607.309,845.211L606.305,845.83Z" style="fill-rule:nonzero;"/>
                                        <path id="path11851" d="M606.435,846.417L607.94,846.66L609.292,846.622L610.008,845.882L609.758,845.674L607.923,846.38L606.435,846.417Z" style="fill-rule:nonzero;"/>
                                        <path id="path11855" d="M606.282,846.265L607.764,845.894L609.23,845.3L609.602,845.574L607.827,846.089L606.282,846.265Z" style="fill-rule:nonzero;"/>
                                        <path id="path11859" d="M606.13,846.101L607.404,845.442L608.689,844.909L609.067,845.189L607.549,845.627L606.13,846.101Z" style="fill-rule:nonzero;"/>
                                        <path id="path11863" d="M603.798,845.83L602.225,844.505L601.858,844.603L601.618,844.768L602.79,845.211L603.798,845.83Z" style="fill-rule:nonzero;"/>
                                        <path id="path11867" d="M603.674,846.417L602.153,846.66L600.804,846.627L600.089,845.882L600.338,845.674L602.175,846.385L603.674,846.417Z" style="fill-rule:nonzero;"/>
                                        <path id="path11871" d="M603.82,846.265L602.333,845.899L600.873,845.3L600.495,845.579L602.272,846.089L603.82,846.265Z" style="fill-rule:nonzero;"/>
                                        <path id="path11875" d="M603.971,846.101L602.691,845.447L601.409,844.909L601.036,845.189L602.551,845.627L603.971,846.101Z" style="fill-rule:nonzero;"/>
                                        <path id="path11879" d="M609.388,841.638L606.649,842.597L607.488,843.127L608.198,842.9L609.388,841.638Z" style="fill-rule:nonzero;"/>
                                        <path id="path11883" d="M609.207,841.595L606.632,842.484L607.05,840.782L607.196,841.835L609.207,841.595Z" style="fill-rule:nonzero;"/>
                                        <path id="path11887" d="M608.396,841.255L607.698,840.77L607.261,841.745C607.261,841.745 608.418,841.268 608.396,841.255" style="fill-rule:nonzero;"/>
                                        <path id="path11891" d="M600.777,841.65L603.514,842.609L602.67,843.136L601.967,842.912L600.777,841.65Z" style="fill-rule:nonzero;"/>
                                        <path id="path11895" d="M601.741,841.267L602.44,840.788L602.873,841.757C602.873,841.757 601.723,841.282 601.741,841.267" style="fill-rule:nonzero;"/>
                                        <path id="path11899" d="M600.951,841.605L603.539,842.496L603.121,840.794L602.968,841.842L600.951,841.605Z" style="fill-rule:nonzero;"/>
                                        <path id="path11903" d="M607.274,842.468C607.262,842.71 607.45,842.905 607.692,842.924C607.94,842.934 608.154,842.755 608.17,842.513C608.176,842.39 608.132,842.283 608.052,842.197L607.274,842.468Z" style="fill:rgb(255,221,0);fill-rule:nonzero;"/>
                                        <path id="path11907" d="M602.889,842.477C602.913,842.727 602.721,842.917 602.467,842.934C602.218,842.946 602.006,842.765 601.994,842.522C601.983,842.4 602.027,842.292 602.107,842.206L602.889,842.477Z" style="fill:rgb(255,221,0);fill-rule:nonzero;"/>
                                        <path id="path11911" d="M602.416,842.406C602.485,842.398 602.535,842.444 602.54,842.509C602.546,842.569 602.495,842.62 602.434,842.625C602.371,842.63 602.315,842.58 602.309,842.524C602.309,842.461 602.354,842.406 602.416,842.406" style="fill-rule:nonzero;"/>
                                        <path id="path11915" d="M607.726,842.361C607.788,842.361 607.843,842.406 607.85,842.468C607.85,842.53 607.803,842.58 607.737,842.585C607.675,842.585 607.623,842.541 607.618,842.478C607.61,842.416 607.662,842.366 607.726,842.361" style="fill-rule:nonzero;"/>
                                        <path id="path11919" d="M605.089,839.681L603.51,839.296L600.686,840.416L598.99,841.745L597.513,842.62L598.608,843.722L599.38,842.275L600.32,841.61L601.391,841.25L602.253,840.654L604.604,840.482L603.415,841.246L603.82,842.592L602.648,843.341L601.926,843.121L600.93,841.976L600.231,844.045L600.005,845.516L601.589,844.371L602.186,844.18L604.214,845.092L603.533,844.316L605.081,844.902L605.081,844.907L606.418,844.419L605.955,845.092L607.978,844.185L608.575,844.371L610.16,845.516L609.934,844.045L609.235,841.984L608.239,843.126L607.516,843.341L606.351,842.597L606.755,841.246L605.568,840.482L607.911,840.659L608.773,841.25L609.844,841.617L610.786,842.275L611.558,843.722L612.651,842.62L611.174,841.745L609.478,840.416L606.66,839.296L605.089,839.681Z" style="fill:rgb(246,139,31);fill-rule:nonzero;"/>
                                        <path id="path11923" d="M605.517,840.597L606.413,841.39L606.227,842.523L605.607,842.343L606.108,841.509L605.517,840.597Z" style="fill-rule:nonzero;"/>
                                        <path id="path11927" d="M604.66,840.597L603.765,841.39L603.95,842.523L604.57,842.343L604.068,841.509L604.66,840.597Z" style="fill-rule:nonzero;"/>
                                        <path id="path11931" d="M606.665,839.688L608.525,840.556L608.93,841.177L610.487,841.75L609.359,841.058L609.298,840.63L606.665,839.531L605.089,840.083L603.443,839.531L600.77,840.63L600.708,841.058L599.583,841.757L601.137,841.177L601.544,840.556L603.448,839.676L605.082,840.597L606.665,839.688L606.665,839.688Z" style="fill-rule:nonzero;"/>
                                        <path id="path11935" d="M603.527,843.476C604.784,843.835 605.517,843.826 606.582,843.459L605.093,844.249L603.527,843.476Z" style="fill-rule:nonzero;"/>
                                        <path id="path11939" d="M603.864,842.991C604.852,843.274 605.421,843.262 606.261,842.974L605.082,843.605L603.864,842.991Z" style="fill-rule:nonzero;"/>
                                        <path id="path11943" d="M603.871,842.867C604.851,842.585 605.426,842.596 606.26,842.88L605.089,842.316L603.871,842.867Z" style="fill-rule:nonzero;"/>
                                        <path id="path11947" d="M609.759,844.061L609.906,845.099L608.661,844.119L608.159,843.887L607.764,843.55L609.083,843.724L609.285,842.67L609.759,844.061Z" style="fill-rule:nonzero;"/>
                                        <path id="path11951" d="M600.405,844.097L600.252,845.134L601.498,844.144L602.001,843.92L602.395,843.578L601.076,843.759L600.878,842.699L600.405,844.097Z" style="fill-rule:nonzero;"/>
                                        <path id="path11955" d="M597.825,842.625L598.574,843.444L599.2,842.287L598.551,842.517L599.42,841.667L597.825,842.625Z" style="fill:white;fill-rule:nonzero;"/>
                                        <path id="path11959" d="M612.363,842.653L611.614,843.465L610.983,842.308L611.636,842.541L610.768,841.691L612.363,842.653Z" style="fill:white;fill-rule:nonzero;"/>
                                        <path id="path11963" d="M605.077,846.396L602.674,843.48L604.221,844.517L605.894,844.53L607.493,843.485L605.077,846.396Z" style="fill-rule:nonzero;"/>
                                        <path id="path11967" d="M610.385,843.916L610.943,845.858L610.182,846.862L610.88,847.392L608.577,849.247L609.985,847.453L609.322,847.186L610.622,845.81L610.385,843.916Z" style="fill-rule:nonzero;"/>
                                        <path id="path11971" d="M599.769,843.899L599.211,845.842L599.971,846.846L599.269,847.376L601.51,849.198L600.169,847.437L600.832,847.167L599.526,845.792L599.769,843.899Z" style="fill-rule:nonzero;"/>
                                        <path id="path11975" d="M600.563,841.881L599.176,843.374L597.93,846.384L598.071,848.068L599.689,850.278L600.82,851.574L601.425,851.292L602.58,852.837L601.324,849.512L599.576,848.543L598.471,846.783L599.12,846.187L598.901,845.393L599.294,843.477L600.563,841.881Z" style="fill-rule:nonzero;"/>
                                        <path id="path11979" d="M609.647,841.831L611.033,843.317L612.272,846.327L612.133,848.018L610.515,850.226L609.388,851.518L608.78,851.241L607.623,852.781L608.886,849.457L610.628,848.487L611.732,846.733L611.085,846.129L611.305,845.336L610.91,843.419L609.647,841.831Z" style="fill-rule:nonzero;"/>
                                        <path id="path11983" d="M605.094,854.126L603.16,854.865L601.852,847.927L601.161,847.039L601.939,847.376L605.099,846.39L608.261,847.376L609.039,847.039L608.344,847.951L606.992,854.87L605.094,854.126Z" style="fill-rule:nonzero;"/>
                                        <path id="path11987" d="M605.082,852.16C605.054,851.625 604.884,850.271 604.755,849.737C604.32,849.556 603.989,849.532 603.482,849.72C603.003,850.588 602.852,851.686 602.947,853.085C603.03,852.212 602.968,851.518 603.465,850.543C603.634,851.443 603.757,852.668 604.023,853.398L604.22,853.045L604.53,853.415L604.812,853.035L605.077,853.35L605.369,853.04L605.64,853.41L605.917,853.045L606.153,853.44C606.389,852.661 606.479,851.416 606.593,850.548C606.982,850.96 607.173,851.912 607.157,853.142C607.364,851.693 607.151,851.358 606.773,849.725C606.222,849.54 605.678,849.54 605.258,849.737C605.127,850.271 605.114,851.621 605.082,852.16" style="fill:rgb(240,75,62);fill-rule:nonzero;"/>
                                        <path id="path11991" d="M603.334,847.178L602.208,847.557C602.344,848.828 602.507,850.048 602.968,851.037C602.963,849.703 602.952,848.586 603.334,847.178" style="fill:white;fill-rule:nonzero;"/>
                                        <path id="path11995" d="M604.09,854.11L603.201,854.392C603.121,852.837 603.094,851.935 603.425,851.086C603.578,852.156 603.611,853.018 604.09,854.11" style="fill:white;fill-rule:nonzero;"/>
                                        <path id="path11999" d="M606.046,854.102L606.941,854.385C607.015,852.83 607.05,851.93 606.711,851.079C606.558,852.149 606.526,853.011 606.046,854.102" style="fill:white;fill-rule:nonzero;"/>
                                        <path id="path12003" d="M605.089,853.867L604.259,854.065L604.085,853.598L604.23,853.311L604.513,853.641L604.811,853.303L605.081,853.646L605.353,853.298L605.613,853.665L605.91,853.311L606.058,853.637L605.905,854.043L605.089,853.867Z" style="fill:white;fill-rule:nonzero;"/>
                                        <path id="path12007" d="M606.829,847.212L607.952,847.59C607.817,848.869 607.652,850.085 607.196,851.073C607.201,849.742 607.212,848.627 606.829,847.212" style="fill:white;fill-rule:nonzero;"/>
                                        <path id="path12011" d="M604.806,846.068L602.676,843.48L604.221,844.518L605.896,844.529L607.493,843.485L605.337,846.08L605.337,846.497L604.806,846.497L604.806,846.068Z" style="fill-rule:nonzero;"/>
                                        <path id="path12015" d="M603.894,844.715L604.192,845.094L604.614,845.246L605.083,846.067L605.567,845.246L606.012,845.094L606.254,844.715L603.894,844.715Z" style="fill:white;fill-rule:nonzero;"/>
                                        <path id="path12019" d="M605.06,847.568L604.778,847.433L604.547,847.556L604.31,847.433L604.107,847.556L603.87,847.368L603.522,847.573C603.488,847.668 603.47,847.787 603.47,847.906L603.47,847.951C603.476,848.209 603.533,848.474 603.584,848.593C603.724,848.214 603.9,847.906 604.135,847.658L604.322,848.169L604.575,847.658L604.795,848.187L605.053,847.663L605.061,847.668L605.061,847.568L605.06,847.568ZM605.06,847.404L604.789,847.268L604.547,847.404L604.328,847.244L604.107,847.397L603.905,847.154L603.514,847.408L603.47,847.137L604.238,846.897L605.06,847.154L605.06,847.404L605.06,847.404ZM605.06,847.668L605.06,847.568L605.072,847.573L605.295,847.449L605.549,847.573L605.747,847.442L605.984,847.568L606.238,847.442L606.599,847.578C606.707,847.889 606.615,848.412 606.542,848.593C606.395,848.209 606.22,847.906 605.984,847.658L605.803,848.169L605.549,847.658L605.332,848.187L605.078,847.663L605.06,847.668L605.06,847.676L605.06,847.668L605.06,847.668ZM605.088,847.154L605.883,846.891L606.677,847.162L606.609,847.416L606.215,847.207L605.99,847.404L605.793,847.218L605.539,847.416L605.332,847.233L605.078,847.416L605.06,847.404L605.06,847.154L605.088,847.154L605.088,847.154Z" style="fill:white;fill-rule:nonzero;"/>
                                    </g>
                                </g>
                            </g>
                        </g>
                    </g>
                </g>
            </g>
        </g>
    </g>
</svg>
