<?xml version="1.0" encoding="UTF-8" standalone="no"?>
<!DOCTYPE svg PUBLIC "-//W3C//DTD SVG 1.1//EN" "http://www.w3.org/Graphics/SVG/1.1/DTD/svg11.dtd">
<svg width="100%" height="100%" viewBox="0 0 129 95" version="1.1" xmlns="http://www.w3.org/2000/svg" xmlns:xlink="http://www.w3.org/1999/xlink" xml:space="preserve" xmlns:serif="http://www.serif.com/" style="fill-rule:evenodd;clip-rule:evenodd;stroke-linejoin:round;stroke-miterlimit:2;">
    <g transform="matrix(1,0,0,1,-3016.330694,-119.436244)">
        <g transform="matrix(0.979914,0,0,0.979914,2963.445684,-268.861931)">
            <g transform="matrix(0.763217,0,0,0.560733,13.518513,53.088878)">
                <rect x="53" y="612" width="172" height="172" style="fill:rgb(12,85,164);fill-opacity:0;"/>
                <clipPath id="_clip1">
                    <rect x="53" y="612" width="172" height="172"/>
                </clipPath>
                <g clip-path="url(#_clip1)">
                    <g transform="matrix(1.238251,0,0,1.685392,139,764.506339)">
                        <g transform="matrix(1,0,0,1,-100,-100)">
                            <g transform="matrix(2,0,0,2,0,0)">
                                <path d="M85.491,24.719L85.553,24.466L94.178,18.478L86.981,18.344L88.159,17.5L77.034,11.362L70.938,5.969L57.3,0L50,1.975L42.688,0L29.056,5.969L22.963,11.363L11.828,17.5L13.009,18.344L5.813,18.478L14.438,24.466L14.5,24.716L2.434,26.769L11.469,31.134L4.256,35.906L13.725,37.916L13.756,38.334L6.928,45.753L14.825,45.853L15.013,47.119L17.387,47.781L16.512,49.863L31.65,58.269L40.138,71.075L49.994,69.156L59.85,71.075L68.334,58.269L83.475,49.862L82.6,47.781L84.975,47.119L85.162,45.853L93.056,45.753L86.228,38.334L86.259,37.916L95.728,35.906L88.516,31.134L97.553,26.769L85.491,24.719ZM91.006,35.044L84.575,36.431L84.125,39.359L89.297,44.109L83.631,43.984L83.375,45.703L80.159,46.603L81.2,49.072L67.084,57.009L59.044,69.184L49.997,67.428L40.95,69.184L32.909,57.009L18.791,49.072L19.831,46.603L16.619,45.703L16.362,43.984L10.697,44.109L15.869,39.359L15.416,36.431L8.987,35.044L16.072,30.7L8.031,27.55L16.734,26.259L16.441,25.081L18.172,24.387L10.728,19.837L18.978,20.4L15.187,17.697L24,12.837L30.106,7.434L42.844,2.119L49.997,3.853L57.15,2.119L69.887,7.434L75.994,12.837L84.803,17.697L81.012,20.403L89.262,19.837L81.816,24.387L83.55,25.081L83.256,26.259L91.959,27.55L83.922,30.7L91.006,35.044ZM84.866,28.341L79.378,28.088L80.181,26.478L77.447,24.453L82.587,22.047L76.15,23.459L75.494,21.597L73.725,17.281L69.787,14.456L69.456,12.403L57.319,9.237L57.272,9.231C57.175,9.232 57.093,9.306 57.084,9.403L56,19.219C55.991,19.295 56.029,19.37 56.097,19.406L61.109,22.094L64.916,21.031L68.106,16.691L72.638,28.441C72.681,28.561 72.7,28.689 72.694,28.816L72.584,32.387L63.316,42.319L58.606,60.112L58.034,62.966C57.994,63.168 57.816,63.315 57.61,63.315C57.555,63.315 57.501,63.304 57.45,63.284L50,60.422L42.541,63.294C42.492,63.312 42.439,63.322 42.387,63.322C42.179,63.322 41.998,63.175 41.956,62.972L41.384,60.119L36.678,42.325L27.406,32.394L27.297,28.825C27.291,28.697 27.312,28.569 27.359,28.45L31.888,16.7L35.075,21.041L38.884,22.1L43.897,19.412C43.964,19.375 44.003,19.301 43.994,19.225L42.913,9.406C42.904,9.31 42.823,9.235 42.726,9.234C42.71,9.234 42.694,9.237 42.678,9.241L30.538,12.406L30.206,14.459L26.269,17.284L24.5,21.597L23.844,23.462L17.406,22.047L22.544,24.453L19.809,26.484L20.616,28.091L15.125,28.341L20.213,29.341L17.625,32.694L13.909,34.231L17.959,34.634L18.8,39.806L15.594,42.034L19.109,41.366L19.459,43.428L23.716,44.616L22.553,47.669L34.897,55.506L42.872,65.622L57.122,65.622L65.1,55.506L77.438,47.669L76.278,44.616L80.531,43.428L80.881,41.366L84.4,42.034L81.194,39.806L82.034,34.634L86.081,34.228L82.369,32.694L79.781,29.337L84.866,28.344L84.866,28.341ZM54.35,58.541L53.2,56.478L52.131,57.797L51.003,56.453L49.997,57.794L48.991,56.456L47.863,57.797L46.794,56.478L45.644,58.541C44.381,56.006 44.306,54.041 43.788,51.425C42.538,53.694 42.569,56.094 42.841,60.05C42.864,60.373 43.136,60.626 43.459,60.626C43.504,60.626 43.548,60.621 43.591,60.612L46.622,59.694C47.588,59.469 49.034,58.928 49.997,58.703C50.959,58.928 52.403,59.469 53.369,59.694L56.4,60.616C56.441,60.624 56.482,60.628 56.524,60.628C56.849,60.628 57.123,60.377 57.15,60.053C57.422,56.094 57.453,53.694 56.206,51.425C55.684,54.037 55.613,56.006 54.35,58.541ZM78.853,39.381L72.391,47.381L67.781,52.162L65.4,51.153L60.541,57.041C60.521,57.063 60.495,57.078 60.466,57.084C60.406,57.094 60.347,57.058 60.328,57C60.32,56.972 60.321,56.943 60.331,56.916L65.384,44.791C65.509,44.499 65.733,44.26 66.016,44.116L72.531,40.837L76.828,34.644L72.797,20.728L72.794,20.691C72.794,20.579 72.885,20.487 72.997,20.487C73.069,20.487 73.135,20.526 73.172,20.587L79.422,33.197L78.853,39.381ZM39.447,57.041L34.588,51.153L32.206,52.163L27.597,47.381L21.134,39.381L20.563,33.194L26.813,20.587C26.848,20.519 26.918,20.477 26.994,20.478C27.103,20.478 27.197,20.569 27.197,20.681L27.191,20.728L23.159,34.644L27.453,40.837L33.972,44.119C34.253,44.259 34.478,44.5 34.6,44.794L39.656,56.913C39.68,56.97 39.659,57.037 39.606,57.069C39.554,57.098 39.489,57.086 39.45,57.041L39.447,57.041ZM42.275,37.009L38.688,38.097C38.399,38.184 38.212,38.469 38.247,38.769C38.772,43.144 39.441,47.309 41.203,50.728C41.184,46.066 41.141,42.15 42.547,37.281C42.569,37.204 42.547,37.12 42.491,37.063C42.434,37.007 42.351,36.987 42.275,37.009ZM61.306,38.094L57.719,37.009C57.699,37.003 57.678,37 57.657,37C57.557,37 57.47,37.069 57.447,37.166C57.437,37.204 57.437,37.243 57.447,37.281C58.853,42.15 58.809,46.063 58.791,50.728C60.553,47.309 61.219,43.144 61.747,38.769C61.783,38.468 61.596,38.182 61.306,38.094ZM46.438,38.281L47.141,39.931L48.097,38.278L48.928,39.984L49.997,38.334L51.066,39.988L51.894,38.278L52.853,39.931L53.553,38.278C54.459,39.12 55.172,40.149 55.641,41.294C55.828,40.922 56.066,36.606 56.066,36.606L53.291,35.859C53.211,35.839 53.129,35.833 53.047,35.844L50.147,36.169C50.046,36.181 49.945,36.181 49.844,36.169L46.944,35.844C46.863,35.835 46.782,35.84 46.703,35.859L43.928,36.609C43.928,36.609 44.166,40.922 44.353,41.294C44.82,40.149 45.532,39.119 46.438,38.278L46.438,38.281ZM44.519,30.709L38.188,27.616L36.913,28.406L44.213,31.956C44.237,31.97 44.25,31.998 44.244,32.025C44.238,32.038 44.228,32.049 44.216,32.056C44.203,32.063 44.189,32.065 44.175,32.063L34.894,30.275L32.825,31.459L43.841,33.141C43.853,33.141 43.866,33.15 43.875,33.159C43.895,33.182 43.894,33.217 43.872,33.238C43.862,33.247 43.848,33.253 43.834,33.253L33.131,33.722L37.072,36.831L37.531,37.031L48.075,33.741C48.575,33.584 48.919,33.119 48.919,32.597L48.919,31.841L42.925,24.562L39.956,26.453L44.588,30.609C44.597,30.62 44.604,30.633 44.606,30.647C44.606,30.659 44.606,30.675 44.597,30.687C44.58,30.713 44.547,30.722 44.519,30.709ZM51.075,32.597C51.075,33.122 51.419,33.587 51.919,33.744L62.463,37.031L62.919,36.834L66.863,33.722L56.156,33.253C56.125,33.253 56.1,33.228 56.1,33.197C56.1,33.166 56.125,33.144 56.153,33.141L67.166,31.459L65.103,30.272L55.816,32.062C55.803,32.062 55.788,32.062 55.778,32.056C55.759,32.047 55.75,32.028 55.75,32.006C55.75,31.984 55.763,31.966 55.781,31.956L63.081,28.406L61.803,27.616L55.475,30.709C55.447,30.722 55.414,30.713 55.397,30.687C55.378,30.662 55.384,30.628 55.406,30.606L60.038,26.453L57.069,24.562L51.075,31.844L51.075,32.597ZM49.997,31.166C50.1,31.168 50.197,31.112 50.247,31.022L51.466,28.869C51.518,28.778 51.601,28.709 51.7,28.675L52.847,28.259C52.923,28.234 52.99,28.187 53.041,28.125L53.641,27.366C53.678,27.321 53.698,27.265 53.698,27.207C53.698,27.07 53.585,26.957 53.448,26.956L46.543,26.956C46.543,26.956 46.542,26.956 46.542,26.956C46.405,26.956 46.292,27.069 46.292,27.206C46.292,27.264 46.313,27.321 46.35,27.366L46.95,28.125C47,28.187 47.069,28.234 47.144,28.262L48.294,28.678C48.391,28.713 48.473,28.782 48.525,28.872L49.747,31.025C49.797,31.116 49.893,31.171 49.997,31.169L49.997,31.166ZM64.553,19.837L61.353,21.178L57.15,19.103L58.369,11.053C58.372,11.019 58.397,10.994 58.431,10.994C58.447,10.994 58.459,11 58.472,11.009C58.485,11.018 58.493,11.032 58.497,11.047L59.584,15.734L69.528,13.494L64.55,19.837L64.553,19.837ZM40.406,15.734L41.494,11.047C41.497,11.012 41.522,10.987 41.556,10.987C41.591,10.987 41.619,11.016 41.619,11.05L42.838,19.103L38.634,21.178L35.438,19.834L30.459,13.494L40.406,15.734ZM38.353,19.112C39.08,18.981 39.697,18.497 39.997,17.822L38.984,17.366C38.836,17.805 38.422,18.102 37.959,18.103C37.374,18.1 36.891,17.626 36.878,17.041C36.878,16.847 36.931,16.656 37.031,16.487L35.972,16.009C35.745,16.421 35.665,16.898 35.744,17.362C35.996,18.547 37.161,19.329 38.353,19.112ZM61.641,19.112C62.832,19.323 63.992,18.544 64.247,17.362C64.328,16.9 64.247,16.425 64.022,16.009L62.959,16.487C63.048,16.647 63.094,16.827 63.094,17.009C63.094,17.599 62.611,18.084 62.022,18.087C61.566,18.086 61.158,17.796 61.006,17.366L59.997,17.822C60.297,18.497 60.914,18.981 61.641,19.112Z" style="fill:white;fill-rule:nonzero;"/>
                            </g>
                            <g transform="matrix(2,0,0,2,0,0)">
                                <path d="M42.275,94.672L41.656,97.459L41.394,97.459C40.113,97.459 39.219,97.225 38.706,96.759C38.191,96.294 38.041,95.578 38.256,94.609C38.473,93.294 39.47,92.237 40.769,91.941C41.664,91.712 42.585,91.604 43.509,91.622C44.4,91.625 45.291,91.7 46.166,91.847L46.541,90.147L45.359,89.131C44.809,89.085 44.258,89.062 43.706,89.063C40.963,89.063 38.784,89.531 37.169,90.469C35.617,91.328 34.515,92.823 34.153,94.559C33.747,96.381 34.122,97.747 35.281,98.647C36.441,99.547 38.397,100 41.156,100C42.378,99.99 43.597,99.907 44.809,99.75L45.938,94.675L42.275,94.675L42.275,94.672ZM76.125,91.763C76.767,91.591 77.433,91.519 78.097,91.55C78.647,91.55 79.191,91.581 79.738,91.638C80.212,91.681 80.681,91.763 81.144,91.875L81.7,89.372C80.61,89.151 79.5,89.046 78.387,89.059C76.359,89.059 74.763,89.359 73.6,89.956C72.438,90.553 71.734,91.403 71.491,92.5C71.276,93.214 71.454,93.992 71.959,94.541C72.459,95.063 73.294,95.441 74.462,95.675L75.609,95.919C75.906,95.975 76.197,96.056 76.484,96.159C76.632,96.205 76.762,96.295 76.859,96.416C76.919,96.518 76.934,96.639 76.903,96.753C76.824,97.023 76.611,97.234 76.341,97.313C75.841,97.469 75.316,97.534 74.791,97.509C73.474,97.501 72.162,97.336 70.884,97.019L70.328,99.525C70.928,99.684 71.544,99.8 72.162,99.872C72.859,99.956 73.562,100 74.266,99.997C75.35,100.015 76.431,99.873 77.475,99.578C78.315,99.351 79.094,98.94 79.756,98.375C80.315,97.898 80.705,97.254 80.869,96.538C81.088,95.816 80.896,95.029 80.369,94.488C79.85,93.969 78.944,93.581 77.65,93.322L76.494,93.075C76.252,93.026 76.014,92.956 75.784,92.866C75.66,92.823 75.552,92.744 75.475,92.638C75.426,92.544 75.415,92.436 75.444,92.334C75.497,92.097 75.725,91.903 76.125,91.763ZM69.984,92.65C69.833,93.352 69.479,93.995 68.966,94.497C68.392,95.043 67.706,95.459 66.956,95.716L69.547,99.853L65.269,99.853L63.091,96.269L62.222,96.247L61.422,99.853L57.531,99.853L59.734,89.956L58.853,89.203L66.534,89.203C67.416,89.203 68.281,89.453 69.022,89.931C69.934,90.525 70.253,91.431 69.981,92.65L69.984,92.65ZM34.137,89.203L31.766,99.853L27.806,99.853L29.962,90.178L28.822,89.203L34.137,89.203ZM28.709,90.459L27.247,89.203L16.859,89.203L16.287,91.772L20.372,91.772L18.572,99.853L22.541,99.853L24.334,91.772L28.419,91.772L28.709,90.459ZM50.937,95.65L56.262,95.65L56.812,93.188L51.487,93.188L51.825,91.669L58.025,91.669L58.359,90.166L57.241,89.203L47.062,89.203L48.25,90.219L46.106,99.853L56.284,99.853L56.831,97.384L50.55,97.384L50.937,95.65ZM64.516,91.306C64.109,91.306 63.703,91.334 63.303,91.391L62.741,93.928C63.147,93.966 63.547,93.984 63.937,93.984C64.491,94.013 65.043,93.906 65.547,93.675C65.939,93.466 66.213,93.087 66.291,92.65C66.491,91.753 65.9,91.306 64.516,91.306ZM56.459,48.172C56.292,47.883 56.024,47.666 55.706,47.563C54.175,46.909 51.834,46.791 51.222,47.625C51.091,47.814 50.993,48.023 50.931,48.244C50.449,49.719 50.135,51.243 49.994,52.788C49.856,51.243 49.544,49.718 49.062,48.244C48.999,48.022 48.9,47.812 48.769,47.622C48.159,46.791 45.819,46.909 44.287,47.563C43.968,47.665 43.699,47.882 43.531,48.172C43.024,49.072 42.629,50.03 42.353,51.025C42.166,51.752 42.061,52.497 42.041,53.247C42.376,51.648 43.101,50.155 44.15,48.903C45.199,47.651 44.584,50.953 44.822,52.034C45.141,53.497 45.309,55.038 45.847,56.013L46.641,54.663L47.853,56.138L48.978,54.725L49.997,56.178L51.016,54.725L52.141,56.138L53.353,54.663L54.144,56.013C54.681,55.038 54.853,53.497 55.175,52.034C55.409,50.953 55.841,48.9 55.841,48.9C56.892,50.153 57.618,51.646 57.953,53.247C57.93,52.496 57.826,51.75 57.641,51.022C57.366,50.027 56.969,49.07 56.459,48.172ZM30.206,14.456L30.537,12.403L42.675,9.238C42.691,9.233 42.707,9.231 42.723,9.231C42.819,9.231 42.901,9.307 42.909,9.403L43.991,19.222C44,19.298 43.961,19.372 43.894,19.409L38.881,22.097L35.072,21.038L31.884,16.694L27.353,28.444C27.307,28.563 27.287,28.691 27.294,28.819L27.403,32.391L32.137,21.766L32.856,25.353L38.322,24.984L39.956,26.453L42.925,24.563L41.284,22.572C41.223,22.499 41.226,22.391 41.291,22.322C41.355,22.253 41.46,22.242 41.537,22.294L46.591,25.688L53.403,25.688L58.456,22.294C58.489,22.268 58.53,22.254 58.572,22.253C58.675,22.253 58.759,22.338 58.759,22.441C58.759,22.49 58.74,22.537 58.706,22.572L57.066,24.563L60.034,26.453L61.672,24.984L67.134,25.353L67.853,21.769L72.587,32.394L72.697,28.822C72.704,28.694 72.684,28.566 72.637,28.447L68.109,16.697L64.922,21.038L61.109,22.097L56.1,19.409C56.031,19.374 55.991,19.299 56,19.222L57.084,9.403C57.092,9.318 57.157,9.248 57.241,9.234C57.267,9.231 57.293,9.232 57.319,9.238L69.456,12.403L69.788,14.456L73.725,17.281L75.491,21.594L80.475,18.538L74.094,14.488L67.366,9.216L56.25,4.8L50,6.338L43.75,4.8L32.628,9.216L25.903,14.488L19.522,18.538L24.503,21.597L26.272,17.281L30.206,14.456ZM54.978,21.284L50,23.797L45.016,21.284C44.981,21.261 44.96,21.223 44.959,21.181C44.959,21.113 45.016,21.056 45.084,21.056L45.103,21.056C46.697,21.494 48.344,21.731 50,21.766C51.655,21.732 53.3,21.493 54.897,21.056L54.912,21.056C54.981,21.056 55.037,21.113 55.037,21.181C55.037,21.223 55.016,21.262 54.981,21.284L54.978,21.284ZM55.306,18.647L52.481,17.75L55.584,10.072C55.597,10.041 55.631,10.022 55.662,10.031C55.695,10.036 55.719,10.067 55.716,10.1L55.309,18.647L55.306,18.647ZM44.684,18.644L44.278,10.1C44.275,10.082 44.281,10.063 44.294,10.05C44.306,10.037 44.323,10.029 44.341,10.028C44.356,10.028 44.372,10.031 44.384,10.041C44.394,10.05 44.403,10.059 44.406,10.072L47.512,17.75L44.684,18.644ZM35.6,9.9L42.794,6.181L49.997,8.891L57.2,6.178L64.394,9.9C64.434,9.92 64.459,9.961 64.459,10.006C64.458,10.071 64.404,10.125 64.339,10.125C64.327,10.125 64.315,10.123 64.303,10.119L56.625,7.781L49.997,11.041L43.369,7.781L35.691,10.119C35.676,10.125 35.66,10.128 35.644,10.128C35.579,10.128 35.526,10.074 35.526,10.009C35.526,9.962 35.554,9.919 35.597,9.9L35.6,9.9Z" style="fill:rgb(247,113,17);fill-rule:nonzero;"/>
                            </g>
                            <g transform="matrix(2,0,0,2,0,0)">
                                <path d="M78.384,78.206C79.028,78.034 79.694,77.963 80.359,77.994C80.906,77.994 81.453,78.025 81.997,78.078C82.472,78.125 82.941,78.203 83.403,78.316L83.959,75.816C82.869,75.593 81.759,75.488 80.647,75.503C78.622,75.503 77.022,75.803 75.863,76.4C74.7,76.994 73.997,77.844 73.75,78.944C73.535,79.658 73.713,80.436 74.219,80.984C74.719,81.503 75.553,81.881 76.725,82.116L77.869,82.362C78.166,82.419 78.459,82.497 78.744,82.603C78.892,82.648 79.023,82.738 79.119,82.859C79.178,82.961 79.194,83.083 79.163,83.197C79.081,83.465 78.869,83.674 78.6,83.753C78.1,83.912 77.575,83.978 77.053,83.953C75.736,83.946 74.425,83.782 73.147,83.462L72.584,85.966C73.191,86.128 73.803,86.244 74.422,86.316C75.119,86.4 75.822,86.441 76.525,86.441C77.609,86.456 78.69,86.315 79.734,86.022C80.575,85.795 81.355,85.384 82.019,84.819C82.575,84.34 82.964,83.696 83.128,82.981C83.347,82.258 83.155,81.469 82.628,80.928C82.109,80.412 81.203,80.022 79.909,79.762L78.756,79.519C78.513,79.47 78.274,79.399 78.044,79.306C77.922,79.263 77.816,79.184 77.738,79.081C77.688,78.988 77.677,78.879 77.706,78.778C77.756,78.537 77.984,78.347 78.384,78.206ZM52.563,76.4C51.397,76.994 50.694,77.844 50.45,78.944C50.235,79.658 50.414,80.435 50.919,80.984C51.419,81.503 52.25,81.881 53.422,82.116L54.569,82.362C54.866,82.419 55.156,82.497 55.441,82.603C55.589,82.649 55.721,82.738 55.819,82.859C55.878,82.961 55.894,83.083 55.863,83.197C55.781,83.465 55.569,83.674 55.3,83.753C54.799,83.911 54.274,83.979 53.75,83.953C52.433,83.946 51.122,83.782 49.844,83.462L49.284,85.966C49.888,86.128 50.503,86.244 51.119,86.316C51.819,86.4 52.519,86.441 53.222,86.441C54.307,86.456 55.389,86.315 56.434,86.022C57.274,85.794 58.054,85.384 58.716,84.819C59.273,84.341 59.662,83.697 59.825,82.981C60.046,82.258 59.856,81.469 59.328,80.928C58.809,80.412 57.903,80.022 56.609,79.762L55.453,79.519C55.211,79.469 54.974,79.398 54.744,79.306C54.621,79.263 54.513,79.185 54.434,79.081C54.385,78.988 54.374,78.879 54.403,78.778C54.456,78.537 54.684,78.347 55.084,78.206C55.726,78.034 56.392,77.962 57.056,77.994C57.603,77.994 58.15,78.025 58.697,78.078C59.169,78.125 59.641,78.203 60.103,78.316L60.659,75.816C59.569,75.595 58.459,75.49 57.347,75.503C55.319,75.503 53.722,75.803 52.559,76.4L52.563,76.4ZM73.841,75.647L61.719,75.647L61.147,78.225L65.225,78.225L63.428,86.297L67.388,86.297L69.188,78.225L73.266,78.225L73.841,75.647ZM42.516,82.094L47.841,82.094L48.388,79.634L43.063,79.634L43.4,78.116L49.6,78.116L50.15,75.647L38.641,75.647L39.828,76.666L37.681,86.297L47.859,86.297L48.409,83.828L42.128,83.828L42.516,82.094ZM37.266,75.647L35.384,75.647L31.281,83.469L30.65,75.647L26.353,75.647L22.175,83.312L21.638,75.647L16.031,75.647L17.803,77.187L18.678,86.297L23.719,86.297L27.666,79.172L28.306,86.297L33.35,86.297L38.525,76.731L37.266,75.647ZM83.256,26.259L83.55,25.081L81.816,24.387L89.263,19.837L81.013,20.4L84.803,17.697L75.991,12.837L69.888,7.434L57.15,2.119L49.994,3.853L42.844,2.119L30.106,7.434L24,12.837L15.188,17.697L18.978,20.403L10.728,19.837L18.172,24.387L16.441,25.081L16.734,26.259L8.031,27.55L16.069,30.7L8.984,35.044L15.413,36.431L15.866,39.359L10.694,44.109L16.359,43.984L16.616,45.703L19.828,46.603L18.788,49.072L32.906,57.009L40.947,69.184L50,67.425L59.044,69.184L67.088,57.009L81.203,49.072L80.163,46.603L83.378,45.703L83.634,43.984L89.3,44.109L84.128,39.359L84.578,36.431L91.009,35.044L83.925,30.7L91.963,27.55L83.256,26.259ZM82.369,32.691L86.081,34.228L82.034,34.631L81.191,39.803L84.4,42.031L80.881,41.362L80.531,43.425L76.278,44.612L77.438,47.666L65.1,55.503L57.122,65.619L42.872,65.619L34.894,55.503L22.553,47.666L23.716,44.612L19.459,43.425L19.109,41.362L15.594,42.031L18.8,39.803L17.956,34.631L13.909,34.225L17.628,32.691L20.213,29.334L15.125,28.341L20.616,28.087L19.809,26.478L22.544,24.453L17.406,22.047L23.844,23.459L24.5,21.597L19.519,18.534L25.9,14.487L32.625,9.219L43.75,4.8L50,6.334L56.25,4.8L67.369,9.216L74.097,14.487L80.478,18.534L75.494,21.597L76.15,23.459L82.588,22.044L77.453,24.45L80.184,26.481L79.381,28.087L84.869,28.337L79.784,29.334L82.369,32.691ZM67.134,25.353L61.672,24.984L55.406,30.609C55.394,30.621 55.388,30.637 55.388,30.653C55.388,30.68 55.405,30.704 55.431,30.712C55.447,30.716 55.463,30.716 55.475,30.709L61.803,27.616L63.081,28.406L55.781,31.956C55.756,31.969 55.741,31.997 55.75,32.025C55.756,32.038 55.766,32.049 55.778,32.056C55.789,32.063 55.803,32.065 55.816,32.062L65.1,30.275L67.166,31.456L56.153,33.141C56.138,33.141 56.125,33.15 56.116,33.159C56.107,33.171 56.102,33.185 56.103,33.2C56.103,33.216 56.109,33.228 56.122,33.237C56.132,33.247 56.145,33.253 56.159,33.253L66.863,33.722L62.919,36.831L62.463,37.031L51.919,33.741C51.419,33.586 51.076,33.12 51.075,32.597L51.075,31.841L58.706,22.572C58.765,22.499 58.762,22.392 58.7,22.322C58.637,22.254 58.534,22.24 58.456,22.291L53.4,25.687L46.594,25.687L41.541,22.294C41.509,22.271 41.471,22.258 41.431,22.258C41.328,22.258 41.244,22.343 41.244,22.445C41.244,22.445 41.244,22.447 41.244,22.447C41.244,22.494 41.259,22.537 41.288,22.572L48.922,31.841L48.922,32.597C48.922,33.122 48.578,33.587 48.078,33.744L37.531,37.031L37.075,36.834L33.131,33.722L43.834,33.253C43.848,33.253 43.862,33.247 43.872,33.237C43.894,33.216 43.895,33.181 43.875,33.159C43.865,33.15 43.854,33.144 43.841,33.141L32.825,31.456L34.891,30.275L44.175,32.062C44.203,32.069 44.232,32.052 44.241,32.025C44.247,32.012 44.247,31.997 44.241,31.984C44.235,31.97 44.223,31.959 44.209,31.953L36.916,28.406L38.191,27.616L44.522,30.709L44.55,30.716C44.584,30.715 44.612,30.687 44.613,30.653C44.612,30.635 44.604,30.618 44.591,30.606L38.325,24.984L32.863,25.353L32.144,21.769L27.406,32.394L36.678,42.322L41.384,60.116L41.956,62.969C41.998,63.172 42.178,63.319 42.386,63.319C42.439,63.319 42.491,63.31 42.541,63.291L50,60.416L57.456,63.291C57.507,63.311 57.561,63.321 57.616,63.322C57.822,63.319 58,63.171 58.041,62.969L58.613,60.116L63.322,42.322L72.591,32.391L67.859,21.766L67.141,25.353L67.134,25.353ZM57.153,60.05C57.126,60.373 56.853,60.625 56.528,60.625C56.485,60.625 56.442,60.621 56.4,60.612L53.369,59.694C52.406,59.469 50.959,58.928 49.994,58.703C49.034,58.928 47.588,59.469 46.625,59.694L43.594,60.616C43.553,60.624 43.511,60.629 43.469,60.629C43.144,60.629 42.869,60.377 42.841,60.053C42.569,56.094 42.541,53.694 43.788,51.425C44.306,54.037 44.381,56.006 45.644,58.541L46.794,56.478L47.859,57.797L48.991,56.453L49.997,57.794L51.003,56.456L52.131,57.797L53.2,56.478L54.35,58.541C55.609,56.006 55.684,54.041 56.206,51.425C57.453,53.694 57.425,56.094 57.153,60.05ZM72.797,20.728L76.828,34.644L72.534,40.837L66.019,44.119C65.734,44.26 65.509,44.5 65.388,44.794L60.334,56.912C60.323,56.94 60.321,56.971 60.331,57C60.35,57.058 60.409,57.094 60.469,57.084C60.498,57.078 60.524,57.063 60.544,57.041L65.403,51.153L67.784,52.162L72.394,47.381L78.856,39.381L79.425,33.194L73.175,20.587C73.14,20.519 73.07,20.476 72.994,20.475C72.918,20.474 72.848,20.516 72.813,20.584C72.79,20.628 72.785,20.68 72.797,20.728ZM34.603,44.794C34.482,44.5 34.259,44.259 33.975,44.116L27.456,40.837L23.163,34.644L27.194,20.728L27.197,20.691C27.196,20.58 27.105,20.488 26.994,20.487C26.922,20.487 26.856,20.525 26.819,20.587L20.569,33.197L21.138,39.381L27.6,47.381L32.209,52.162L34.591,51.153L39.45,57.041C39.474,57.068 39.508,57.084 39.544,57.084C39.597,57.084 39.645,57.05 39.663,57C39.671,56.972 39.67,56.943 39.659,56.916L34.603,44.791L34.603,44.794ZM55.841,48.9C55.841,48.9 55.409,50.953 55.172,52.034C54.853,53.497 54.681,55.037 54.144,56.012L53.353,54.662L52.138,56.137L51.013,54.725L49.997,56.178L48.978,54.725L47.853,56.137L46.641,54.662L45.847,56.012C45.309,55.037 45.141,53.497 44.822,52.034C44.584,50.953 44.15,48.9 44.15,48.9C43.1,50.153 42.375,51.645 42.038,53.244C42.063,52.494 42.166,51.75 42.353,51.025C42.628,50.028 43.025,49.072 43.531,48.175C43.699,47.885 43.969,47.666 44.288,47.562C45.819,46.909 48.159,46.791 48.769,47.625C48.903,47.812 49,48.022 49.063,48.244C49.544,49.719 49.856,51.244 49.997,52.787C50.135,51.242 50.447,49.718 50.928,48.244C50.991,48.022 51.09,47.812 51.222,47.622C51.834,46.791 54.175,46.909 55.706,47.559C56.024,47.665 56.293,47.884 56.459,48.175C56.969,49.072 57.366,50.031 57.641,51.025C57.828,51.75 57.931,52.494 57.953,53.244C57.616,51.645 56.89,50.153 55.841,48.9ZM61.747,38.769C61.219,43.144 60.553,47.309 58.788,50.728C58.809,46.066 58.85,42.15 57.447,37.281C57.422,37.203 57.444,37.118 57.503,37.062C57.56,37.007 57.643,36.987 57.719,37.009L61.306,38.094C61.596,38.182 61.781,38.469 61.744,38.769L61.747,38.769ZM41.203,50.728C39.441,47.309 38.772,43.144 38.247,38.769C38.21,38.469 38.395,38.183 38.684,38.094L42.275,37.009C42.294,37.003 42.314,37 42.334,37C42.454,37.001 42.553,37.1 42.553,37.22C42.553,37.241 42.55,37.261 42.544,37.281C41.138,42.15 41.184,46.062 41.203,50.728ZM46.703,35.862C46.781,35.841 46.863,35.834 46.944,35.844L49.844,36.169C49.945,36.181 50.048,36.181 50.15,36.169L53.047,35.844C53.129,35.833 53.211,35.839 53.291,35.859L56.066,36.609C56.066,36.609 55.828,40.922 55.641,41.294C55.173,40.149 54.46,39.119 53.553,38.278L52.853,39.931L51.894,38.278L51.066,39.984L49.997,38.334L48.928,39.987L48.097,38.278L47.141,39.931L46.438,38.278C45.531,39.119 44.82,40.149 44.353,41.294C44.166,40.922 43.928,36.606 43.928,36.606L46.703,35.859L46.703,35.862ZM48.525,28.869C48.473,28.779 48.391,28.71 48.294,28.675L47.144,28.259C47.068,28.234 47,28.187 46.95,28.125L46.35,27.366C46.291,27.29 46.279,27.187 46.319,27.1C46.36,27.01 46.451,26.953 46.55,26.956L53.444,26.956C53.582,26.958 53.695,27.072 53.695,27.21C53.695,27.266 53.676,27.321 53.641,27.366L53.041,28.125C52.99,28.187 52.923,28.235 52.847,28.262L51.7,28.678C51.602,28.713 51.52,28.782 51.469,28.872L50.244,31.025C50.193,31.115 50.097,31.171 49.994,31.172C49.891,31.171 49.797,31.115 49.747,31.025L48.525,28.869ZM54.894,21.056C53.297,21.493 51.652,21.732 49.997,21.766C48.342,21.732 46.697,21.493 45.1,21.056L45.081,21.056C45.013,21.057 44.957,21.113 44.956,21.181C44.957,21.223 44.978,21.261 45.013,21.284L50,23.797L54.981,21.284C55.009,21.272 55.031,21.25 55.044,21.222C55.05,21.207 55.053,21.192 55.053,21.176C55.053,21.107 54.996,21.05 54.927,21.05C54.918,21.05 54.909,21.051 54.9,21.053L54.894,21.056ZM38.638,21.178L42.844,19.103L41.625,11.05C41.625,11.016 41.597,10.988 41.563,10.987C41.528,10.987 41.503,11.012 41.5,11.047L40.406,15.734L30.463,13.494L35.441,19.837L38.638,21.178ZM58.497,11.047C58.494,11.012 58.469,10.987 58.434,10.987C58.4,10.988 58.372,11.016 58.372,11.05L57.15,19.103L61.353,21.178L64.55,19.834L69.528,13.494L59.584,15.734L58.497,11.047ZM35.972,16.009L37.034,16.487C36.945,16.648 36.898,16.829 36.898,17.013C36.902,17.608 37.393,18.096 37.988,18.096C38.128,18.096 38.267,18.069 38.397,18.016C38.676,17.892 38.889,17.656 38.984,17.366L39.997,17.822C39.632,18.624 38.829,19.142 37.947,19.143C36.89,19.141 35.969,18.396 35.747,17.362C35.667,16.899 35.746,16.422 35.972,16.009ZM61.006,17.366C61.162,17.79 61.567,18.074 62.019,18.074C62.604,18.074 63.088,17.597 63.097,17.012C63.097,16.829 63.05,16.648 62.959,16.487L64.022,16.009C64.248,16.422 64.327,16.899 64.247,17.362C64.02,18.393 63.1,19.135 62.045,19.137C61.166,19.136 60.364,18.621 59.997,17.822L61.006,17.366ZM55.663,10.031C55.648,10.027 55.633,10.028 55.619,10.034C55.604,10.042 55.593,10.056 55.588,10.072L52.481,17.75L55.306,18.647L55.713,10.1C55.716,10.067 55.692,10.036 55.659,10.031L55.663,10.031ZM44.406,10.072C44.396,10.045 44.369,10.028 44.341,10.031C44.306,10.031 44.278,10.059 44.278,10.094L44.684,18.647L47.513,17.75L44.406,10.072ZM35.688,10.119L43.369,7.781L49.994,11.041L56.625,7.781L64.303,10.119C64.315,10.122 64.328,10.124 64.341,10.125C64.406,10.124 64.458,10.071 64.459,10.006C64.459,9.991 64.456,9.976 64.45,9.962C64.44,9.935 64.42,9.913 64.394,9.9L57.2,6.181L49.997,8.891L42.794,6.178L35.6,9.9C35.574,9.912 35.554,9.935 35.544,9.962C35.534,9.99 35.534,10.022 35.544,10.05C35.566,10.107 35.63,10.138 35.688,10.119Z" style="fill-rule:nonzero;"/>
                            </g>
                        </g>
                    </g>
                </g>
            </g>
        </g>
    </g>
</svg>
